%TF.GenerationSoftware,KiCad,Pcbnew,9.0.6*%
%TF.CreationDate,2026-03-13T08:43:21+05:30*%
%TF.ProjectId,Arduino Minimal Design,41726475-696e-46f2-904d-696e696d616c,rev?*%
%TF.SameCoordinates,Original*%
%TF.FileFunction,Copper,L1,Top*%
%TF.FilePolarity,Positive*%
%FSLAX46Y46*%
G04 Gerber Fmt 4.6, Leading zero omitted, Abs format (unit mm)*
G04 Created by KiCad (PCBNEW 9.0.6) date 2026-03-13 08:43:21*
%MOMM*%
%LPD*%
G01*
G04 APERTURE LIST*
G04 Aperture macros list*
%AMRoundRect*
0 Rectangle with rounded corners*
0 $1 Rounding radius*
0 $2 $3 $4 $5 $6 $7 $8 $9 X,Y pos of 4 corners*
0 Add a 4 corners polygon primitive as box body*
4,1,4,$2,$3,$4,$5,$6,$7,$8,$9,$2,$3,0*
0 Add four circle primitives for the rounded corners*
1,1,$1+$1,$2,$3*
1,1,$1+$1,$4,$5*
1,1,$1+$1,$6,$7*
1,1,$1+$1,$8,$9*
0 Add four rect primitives between the rounded corners*
20,1,$1+$1,$2,$3,$4,$5,0*
20,1,$1+$1,$4,$5,$6,$7,0*
20,1,$1+$1,$6,$7,$8,$9,0*
20,1,$1+$1,$8,$9,$2,$3,0*%
G04 Aperture macros list end*
%TA.AperFunction,ComponentPad*%
%ADD10C,1.500000*%
%TD*%
%TA.AperFunction,SMDPad,CuDef*%
%ADD11RoundRect,0.250000X-0.850000X-0.350000X0.850000X-0.350000X0.850000X0.350000X-0.850000X0.350000X0*%
%TD*%
%TA.AperFunction,SMDPad,CuDef*%
%ADD12RoundRect,0.249997X-2.950003X-2.650003X2.950003X-2.650003X2.950003X2.650003X-2.950003X2.650003X0*%
%TD*%
%TA.AperFunction,SMDPad,CuDef*%
%ADD13RoundRect,0.243750X0.243750X0.456250X-0.243750X0.456250X-0.243750X-0.456250X0.243750X-0.456250X0*%
%TD*%
%TA.AperFunction,SMDPad,CuDef*%
%ADD14RoundRect,0.243750X-0.456250X0.243750X-0.456250X-0.243750X0.456250X-0.243750X0.456250X0.243750X0*%
%TD*%
%TA.AperFunction,ComponentPad*%
%ADD15R,1.700000X1.700000*%
%TD*%
%TA.AperFunction,ComponentPad*%
%ADD16C,1.700000*%
%TD*%
%TA.AperFunction,SMDPad,CuDef*%
%ADD17RoundRect,0.243750X-0.243750X-0.456250X0.243750X-0.456250X0.243750X0.456250X-0.243750X0.456250X0*%
%TD*%
%TA.AperFunction,SMDPad,CuDef*%
%ADD18RoundRect,0.100000X0.100000X0.575000X-0.100000X0.575000X-0.100000X-0.575000X0.100000X-0.575000X0*%
%TD*%
%TA.AperFunction,HeatsinkPad*%
%ADD19O,1.000000X1.900000*%
%TD*%
%TA.AperFunction,SMDPad,CuDef*%
%ADD20R,0.875000X1.900000*%
%TD*%
%TA.AperFunction,HeatsinkPad*%
%ADD21O,1.050000X1.250000*%
%TD*%
%TA.AperFunction,SMDPad,CuDef*%
%ADD22RoundRect,0.250000X1.200000X0.700000X-1.200000X0.700000X-1.200000X-0.700000X1.200000X-0.700000X0*%
%TD*%
%TA.AperFunction,SMDPad,CuDef*%
%ADD23RoundRect,0.087500X-0.087500X0.725000X-0.087500X-0.725000X0.087500X-0.725000X0.087500X0.725000X0*%
%TD*%
%TA.AperFunction,SMDPad,CuDef*%
%ADD24RoundRect,0.250000X0.250000X0.475000X-0.250000X0.475000X-0.250000X-0.475000X0.250000X-0.475000X0*%
%TD*%
%TA.AperFunction,ComponentPad*%
%ADD25C,3.800000*%
%TD*%
%TA.AperFunction,SMDPad,CuDef*%
%ADD26RoundRect,0.250000X0.475000X-0.250000X0.475000X0.250000X-0.475000X0.250000X-0.475000X-0.250000X0*%
%TD*%
%TA.AperFunction,SMDPad,CuDef*%
%ADD27RoundRect,0.250000X0.262500X0.450000X-0.262500X0.450000X-0.262500X-0.450000X0.262500X-0.450000X0*%
%TD*%
%TA.AperFunction,SMDPad,CuDef*%
%ADD28R,1.400000X1.600000*%
%TD*%
%TA.AperFunction,SMDPad,CuDef*%
%ADD29RoundRect,0.250000X0.450000X-0.262500X0.450000X0.262500X-0.450000X0.262500X-0.450000X-0.262500X0*%
%TD*%
%TA.AperFunction,SMDPad,CuDef*%
%ADD30RoundRect,0.250000X-0.450000X0.262500X-0.450000X-0.262500X0.450000X-0.262500X0.450000X0.262500X0*%
%TD*%
%TA.AperFunction,SMDPad,CuDef*%
%ADD31RoundRect,0.250000X-0.262500X-0.450000X0.262500X-0.450000X0.262500X0.450000X-0.262500X0.450000X0*%
%TD*%
%TA.AperFunction,SMDPad,CuDef*%
%ADD32RoundRect,0.250000X-0.545000X-0.445000X0.545000X-0.445000X0.545000X0.445000X-0.545000X0.445000X0*%
%TD*%
%TA.AperFunction,SMDPad,CuDef*%
%ADD33RoundRect,0.062500X-0.375000X-0.062500X0.375000X-0.062500X0.375000X0.062500X-0.375000X0.062500X0*%
%TD*%
%TA.AperFunction,SMDPad,CuDef*%
%ADD34RoundRect,0.062500X-0.062500X-0.375000X0.062500X-0.375000X0.062500X0.375000X-0.062500X0.375000X0*%
%TD*%
%TA.AperFunction,HeatsinkPad*%
%ADD35C,0.500000*%
%TD*%
%TA.AperFunction,HeatsinkPad*%
%ADD36R,3.300000X3.300000*%
%TD*%
%TA.AperFunction,SMDPad,CuDef*%
%ADD37RoundRect,0.250000X-0.475000X0.250000X-0.475000X-0.250000X0.475000X-0.250000X0.475000X0.250000X0*%
%TD*%
%TA.AperFunction,SMDPad,CuDef*%
%ADD38RoundRect,0.250000X-1.100000X0.500000X-1.100000X-0.500000X1.100000X-0.500000X1.100000X0.500000X0*%
%TD*%
%TA.AperFunction,SMDPad,CuDef*%
%ADD39RoundRect,0.250000X-0.250000X-0.475000X0.250000X-0.475000X0.250000X0.475000X-0.250000X0.475000X0*%
%TD*%
%TA.AperFunction,SMDPad,CuDef*%
%ADD40RoundRect,0.243750X0.456250X-0.243750X0.456250X0.243750X-0.456250X0.243750X-0.456250X-0.243750X0*%
%TD*%
%TA.AperFunction,ViaPad*%
%ADD41C,0.600000*%
%TD*%
%TA.AperFunction,ViaPad*%
%ADD42C,0.500000*%
%TD*%
%TA.AperFunction,ViaPad*%
%ADD43C,0.450000*%
%TD*%
%TA.AperFunction,ViaPad*%
%ADD44C,0.400000*%
%TD*%
%TA.AperFunction,ViaPad*%
%ADD45C,0.700000*%
%TD*%
%TA.AperFunction,Conductor*%
%ADD46C,0.200000*%
%TD*%
%TA.AperFunction,Conductor*%
%ADD47C,0.300000*%
%TD*%
%TA.AperFunction,Conductor*%
%ADD48C,0.600000*%
%TD*%
G04 APERTURE END LIST*
D10*
%TO.P,Y1,1,1*%
%TO.N,/XTAL2*%
X149090000Y-80380000D03*
%TO.P,Y1,2,2*%
%TO.N,/XTAL1*%
X149090000Y-75500000D03*
%TD*%
D11*
%TO.P,U1,1,GND*%
%TO.N,GND*%
X163510000Y-72872500D03*
%TO.P,U1,2,VO*%
%TO.N,/+3.3V_LDO*%
X163510000Y-75152500D03*
D12*
X169810000Y-75152500D03*
D11*
%TO.P,U1,3,VI*%
%TO.N,Net-(D1-K)*%
X163510000Y-77432500D03*
%TD*%
D13*
%TO.P,D2,1,K*%
%TO.N,GND*%
X159847500Y-105190000D03*
%TO.P,D2,2,A*%
%TO.N,/D13*%
X157972500Y-105190000D03*
%TD*%
D14*
%TO.P,D5,1,K*%
%TO.N,GND*%
X147230000Y-66942500D03*
%TO.P,D5,2,A*%
%TO.N,Net-(D5-A)*%
X147230000Y-68817500D03*
%TD*%
D15*
%TO.P,J3,1,Pin_1*%
%TO.N,/AD0*%
X172380000Y-83820000D03*
D16*
%TO.P,J3,2,Pin_2*%
%TO.N,/AD1*%
X172380000Y-86360000D03*
%TO.P,J3,3,Pin_3*%
%TO.N,/AD2*%
X172380000Y-88900000D03*
%TO.P,J3,4,Pin_4*%
%TO.N,/AD3*%
X172380000Y-91440000D03*
%TO.P,J3,5,Pin_5*%
%TO.N,/AD4*%
X172380000Y-93980000D03*
%TO.P,J3,6,Pin_6*%
%TO.N,/AD5*%
X172380000Y-96520000D03*
%TO.P,J3,7,Pin_7*%
%TO.N,/AD6*%
X172380000Y-99060000D03*
%TO.P,J3,8,Pin_8*%
%TO.N,/AD7*%
X172380000Y-101600000D03*
%TO.P,J3,9,Pin_9*%
%TO.N,/AREF*%
X172380000Y-104140000D03*
%TD*%
D17*
%TO.P,D4,1,K*%
%TO.N,/RX*%
X163762500Y-87030000D03*
%TO.P,D4,2,A*%
%TO.N,Net-(D4-A)*%
X165637500Y-87030000D03*
%TD*%
D18*
%TO.P,J4,1,VBUS*%
%TO.N,Net-(J4-VBUS)*%
X156605000Y-57685000D03*
%TO.P,J4,2,D-*%
%TO.N,/USB_D-*%
X157255000Y-57685000D03*
%TO.P,J4,3,D+*%
%TO.N,/USB_D+*%
X157905000Y-57685000D03*
%TO.P,J4,4,ID*%
%TO.N,unconnected-(J4-ID-Pad4)*%
X158555000Y-57685000D03*
%TO.P,J4,5,GND*%
%TO.N,GND*%
X159205000Y-57685000D03*
D19*
%TO.P,J4,6,Shield*%
X162080000Y-55010000D03*
D20*
X161642500Y-55010000D03*
D21*
X160130000Y-58010000D03*
D22*
X157905000Y-55010000D03*
D21*
X155680000Y-58010000D03*
D20*
X154167500Y-55010000D03*
D19*
X153730000Y-55010000D03*
%TD*%
D23*
%TO.P,U3,1,UD+*%
%TO.N,/USB_D+*%
X157860000Y-61360000D03*
%TO.P,U3,2,UD-*%
%TO.N,/USB_D-*%
X157360000Y-61360000D03*
%TO.P,U3,3,GND*%
%TO.N,GND*%
X156860000Y-61360000D03*
%TO.P,U3,4,~{RTS}*%
%TO.N,Net-(U3-~{RTS})*%
X156360000Y-61360000D03*
%TO.P,U3,5,~{CTS}*%
%TO.N,unconnected-(U3-~{CTS}-Pad5)*%
X155860000Y-61360000D03*
%TO.P,U3,6,TNOW*%
%TO.N,Net-(U3-TNOW)*%
X155860000Y-65585000D03*
%TO.P,U3,7,VCC*%
%TO.N,/+5V_USB*%
X156360000Y-65585000D03*
%TO.P,U3,8,TXD*%
%TO.N,Net-(U3-TXD)*%
X156860000Y-65585000D03*
%TO.P,U3,9,RXD*%
%TO.N,Net-(U3-RXD)*%
X157360000Y-65585000D03*
%TO.P,U3,10,V3*%
%TO.N,/+3.3V_LDO*%
X157860000Y-65585000D03*
%TD*%
D24*
%TO.P,C10,1*%
%TO.N,GND*%
X148980000Y-59980000D03*
%TO.P,C10,2*%
%TO.N,/+5V_USB*%
X147080000Y-59980000D03*
%TD*%
D25*
%TO.P,REF\u002A\u002A,1*%
%TO.N,N/C*%
X172310000Y-108570000D03*
%TD*%
D26*
%TO.P,C7,1*%
%TO.N,/XTAL2*%
X144980000Y-80655000D03*
%TO.P,C7,2*%
%TO.N,GND*%
X144980000Y-78755000D03*
%TD*%
D27*
%TO.P,R3,1*%
%TO.N,/+5V_USB*%
X151422500Y-89020000D03*
%TO.P,R3,2*%
%TO.N,Net-(D3-A)*%
X149597500Y-89020000D03*
%TD*%
D28*
%TO.P,SW1,1,1*%
%TO.N,Net-(R2-Pad2)*%
X167220000Y-66480000D03*
X167220000Y-58480000D03*
%TO.P,SW1,2,2*%
%TO.N,GND*%
X171720000Y-66480000D03*
X171720000Y-58480000D03*
%TD*%
D29*
%TO.P,R1,1*%
%TO.N,/+5V_USB*%
X162710000Y-66622500D03*
%TO.P,R1,2*%
%TO.N,/RESET*%
X162710000Y-64797500D03*
%TD*%
D30*
%TO.P,R5,1*%
%TO.N,/XTAL1*%
X153430000Y-77017500D03*
%TO.P,R5,2*%
%TO.N,/XTAL2*%
X153430000Y-78842500D03*
%TD*%
D31*
%TO.P,R4,1*%
%TO.N,/+5V_USB*%
X163767500Y-89250000D03*
%TO.P,R4,2*%
%TO.N,Net-(D4-A)*%
X165592500Y-89250000D03*
%TD*%
D24*
%TO.P,C4,1*%
%TO.N,/+3.3V_LDO*%
X167125000Y-70157500D03*
%TO.P,C4,2*%
%TO.N,GND*%
X165225000Y-70157500D03*
%TD*%
D15*
%TO.P,J2,1,Pin_1*%
%TO.N,/D9*%
X147730000Y-108400000D03*
D16*
%TO.P,J2,2,Pin_2*%
%TO.N,/D10*%
X150270000Y-108400000D03*
%TO.P,J2,3,Pin_3*%
%TO.N,/D11*%
X152810000Y-108400000D03*
%TO.P,J2,4,Pin_4*%
%TO.N,/D12*%
X155350000Y-108400000D03*
%TO.P,J2,5,Pin_5*%
%TO.N,/D13*%
X157890000Y-108400000D03*
%TO.P,J2,6,Pin_6*%
%TO.N,/RESET*%
X160430000Y-108400000D03*
%TO.P,J2,7,Pin_7*%
%TO.N,/+5V_USB*%
X162970000Y-108400000D03*
%TO.P,J2,8,Pin_8*%
%TO.N,/+3.3V_LDO*%
X165510000Y-108400000D03*
%TO.P,J2,9,Pin_9*%
%TO.N,GND*%
X168050000Y-108400000D03*
%TD*%
D24*
%TO.P,C8,1*%
%TO.N,GND*%
X148980000Y-62230000D03*
%TO.P,C8,2*%
%TO.N,/+5V_USB*%
X147080000Y-62230000D03*
%TD*%
D32*
%TO.P,C3,1*%
%TO.N,/+3.3V_LDO*%
X163340000Y-82300000D03*
%TO.P,C3,2*%
%TO.N,GND*%
X166220000Y-82300000D03*
%TD*%
D33*
%TO.P,U2,1,PD3*%
%TO.N,/D3*%
X155640000Y-92230000D03*
%TO.P,U2,2,PD4*%
%TO.N,/D4*%
X155640000Y-92730000D03*
%TO.P,U2,3,GND*%
%TO.N,GND*%
X155640000Y-93230000D03*
%TO.P,U2,4,VCC*%
%TO.N,/+5V_USB*%
X155640000Y-93730000D03*
%TO.P,U2,5,GND*%
%TO.N,GND*%
X155640000Y-94230000D03*
%TO.P,U2,6,VCC*%
%TO.N,/+5V_USB*%
X155640000Y-94730000D03*
%TO.P,U2,7,XTAL1/PB6*%
%TO.N,/XTAL1*%
X155640000Y-95230000D03*
%TO.P,U2,8,XTAL2/PB7*%
%TO.N,/XTAL2*%
X155640000Y-95730000D03*
D34*
%TO.P,U2,9,PD5*%
%TO.N,/D5*%
X156327500Y-96417500D03*
%TO.P,U2,10,PD6*%
%TO.N,/D6*%
X156827500Y-96417500D03*
%TO.P,U2,11,PD7*%
%TO.N,/D7*%
X157327500Y-96417500D03*
%TO.P,U2,12,PB0*%
%TO.N,/D8*%
X157827500Y-96417500D03*
%TO.P,U2,13,PB1*%
%TO.N,/D9*%
X158327500Y-96417500D03*
%TO.P,U2,14,PB2*%
%TO.N,/D10*%
X158827500Y-96417500D03*
%TO.P,U2,15,PB3*%
%TO.N,/D11*%
X159327500Y-96417500D03*
%TO.P,U2,16,PB4*%
%TO.N,/D12*%
X159827500Y-96417500D03*
D33*
%TO.P,U2,17,PB5*%
%TO.N,/D13*%
X160515000Y-95730000D03*
%TO.P,U2,18,AVCC*%
%TO.N,/+5V_USB*%
X160515000Y-95230000D03*
%TO.P,U2,19,ADC6*%
%TO.N,/AD6*%
X160515000Y-94730000D03*
%TO.P,U2,20,AREF*%
%TO.N,/AREF*%
X160515000Y-94230000D03*
%TO.P,U2,21,GND*%
%TO.N,GND*%
X160515000Y-93730000D03*
%TO.P,U2,22,ADC7*%
%TO.N,/AD7*%
X160515000Y-93230000D03*
%TO.P,U2,23,PC0*%
%TO.N,/AD0*%
X160515000Y-92730000D03*
%TO.P,U2,24,PC1*%
%TO.N,/AD1*%
X160515000Y-92230000D03*
D34*
%TO.P,U2,25,PC2*%
%TO.N,/AD2*%
X159827500Y-91542500D03*
%TO.P,U2,26,PC3*%
%TO.N,/AD3*%
X159327500Y-91542500D03*
%TO.P,U2,27,PC4*%
%TO.N,/AD4*%
X158827500Y-91542500D03*
%TO.P,U2,28,PC5*%
%TO.N,/AD5*%
X158327500Y-91542500D03*
%TO.P,U2,29,~{RESET}/PC6*%
%TO.N,/RESET*%
X157827500Y-91542500D03*
%TO.P,U2,30,PD0*%
%TO.N,/TX*%
X157327500Y-91542500D03*
%TO.P,U2,31,PD1*%
%TO.N,/RX*%
X156827500Y-91542500D03*
%TO.P,U2,32,PD2*%
%TO.N,/D2*%
X156327500Y-91542500D03*
D35*
%TO.P,U2,33,GND*%
%TO.N,GND*%
X157077500Y-92980000D03*
X157077500Y-93980000D03*
X157077500Y-94980000D03*
X158077500Y-92980000D03*
X158077500Y-93980000D03*
D36*
X158077500Y-93980000D03*
D35*
X158077500Y-94980000D03*
X159077500Y-92980000D03*
X159077500Y-93980000D03*
X159077500Y-94980000D03*
%TD*%
D30*
%TO.P,R7,1*%
%TO.N,Net-(U3-RXD)*%
X161820000Y-85237500D03*
%TO.P,R7,2*%
%TO.N,/RX*%
X161820000Y-87062500D03*
%TD*%
D37*
%TO.P,C5,1*%
%TO.N,/RESET*%
X164830000Y-64790000D03*
%TO.P,C5,2*%
%TO.N,GND*%
X164830000Y-66690000D03*
%TD*%
D30*
%TO.P,R8,1*%
%TO.N,Net-(U3-TNOW)*%
X149440000Y-66987500D03*
%TO.P,R8,2*%
%TO.N,Net-(D5-A)*%
X149440000Y-68812500D03*
%TD*%
D32*
%TO.P,C1,1*%
%TO.N,Net-(D1-K)*%
X163340000Y-79950000D03*
%TO.P,C1,2*%
%TO.N,GND*%
X166220000Y-79950000D03*
%TD*%
D24*
%TO.P,C9,1*%
%TO.N,Net-(U3-~{RTS})*%
X148980000Y-64480000D03*
%TO.P,C9,2*%
%TO.N,/RESET*%
X147080000Y-64480000D03*
%TD*%
D38*
%TO.P,D1,1,K*%
%TO.N,Net-(D1-K)*%
X160290000Y-77700000D03*
%TO.P,D1,2,A*%
%TO.N,/+5V_USB*%
X160290000Y-82500000D03*
%TD*%
D15*
%TO.P,J1,1,Pin_1*%
%TO.N,/TX*%
X143400000Y-83820000D03*
D16*
%TO.P,J1,2,Pin_2*%
%TO.N,/RX*%
X143400000Y-86360000D03*
%TO.P,J1,3,Pin_3*%
%TO.N,/D2*%
X143400000Y-88900000D03*
%TO.P,J1,4,Pin_4*%
%TO.N,/D3*%
X143400000Y-91440000D03*
%TO.P,J1,5,Pin_5*%
%TO.N,/D4*%
X143400000Y-93980000D03*
%TO.P,J1,6,Pin_6*%
%TO.N,/D5*%
X143400000Y-96520000D03*
%TO.P,J1,7,Pin_7*%
%TO.N,/D6*%
X143400000Y-99060000D03*
%TO.P,J1,8,Pin_8*%
%TO.N,/D7*%
X143400000Y-101600000D03*
%TO.P,J1,9,Pin_9*%
%TO.N,/D8*%
X143400000Y-104140000D03*
%TD*%
D25*
%TO.P,REF\u002A\u002A,1*%
%TO.N,N/C*%
X143650000Y-54070000D03*
%TD*%
D39*
%TO.P,C2,1*%
%TO.N,GND*%
X167040000Y-104680000D03*
%TO.P,C2,2*%
%TO.N,/AREF*%
X168940000Y-104680000D03*
%TD*%
D30*
%TO.P,R6,1*%
%TO.N,Net-(U3-TXD)*%
X153380000Y-84987500D03*
%TO.P,R6,2*%
%TO.N,/TX*%
X153380000Y-86812500D03*
%TD*%
D29*
%TO.P,R2,1*%
%TO.N,/RESET*%
X164770000Y-60082500D03*
%TO.P,R2,2*%
%TO.N,Net-(R2-Pad2)*%
X164770000Y-58257500D03*
%TD*%
D40*
%TO.P,F1,1*%
%TO.N,/+5V_USB*%
X150890000Y-61667500D03*
%TO.P,F1,2*%
%TO.N,Net-(J4-VBUS)*%
X150890000Y-59792500D03*
%TD*%
D13*
%TO.P,D3,1,K*%
%TO.N,/TX*%
X151427500Y-86900000D03*
%TO.P,D3,2,A*%
%TO.N,Net-(D3-A)*%
X149552500Y-86900000D03*
%TD*%
D25*
%TO.P,REF\u002A\u002A,1*%
%TO.N,N/C*%
X172340000Y-54070000D03*
%TD*%
D37*
%TO.P,C6,1*%
%TO.N,/XTAL1*%
X144980000Y-75205000D03*
%TO.P,C6,2*%
%TO.N,GND*%
X144980000Y-77105000D03*
%TD*%
D25*
%TO.P,REF\u002A\u002A,1*%
%TO.N,N/C*%
X143440000Y-108570000D03*
%TD*%
D41*
%TO.N,GND*%
X166450000Y-94430000D03*
X160690000Y-71650000D03*
X153520000Y-72580000D03*
X143060000Y-71710000D03*
X158820000Y-67900000D03*
X142710000Y-63920000D03*
X164400000Y-101070000D03*
X171180000Y-80080000D03*
X168870000Y-96920000D03*
X171280000Y-69250000D03*
X155620000Y-87160000D03*
X167770000Y-84760000D03*
X148570000Y-55890000D03*
X156660000Y-102560000D03*
X156830000Y-87160000D03*
X149100000Y-96860000D03*
X148300000Y-94010000D03*
X155450000Y-68930000D03*
X169000000Y-56540000D03*
D42*
%TO.N,/+3.3V_LDO*%
X166660000Y-68210000D03*
X160030000Y-66400000D03*
X160240000Y-80200000D03*
D43*
%TO.N,/RESET*%
X159080000Y-99550000D03*
X157827500Y-89570000D03*
D44*
%TO.N,/XTAL1*%
X152420000Y-95240000D03*
%TO.N,/XTAL2*%
X151830000Y-95730000D03*
D45*
%TO.N,/+5V_USB*%
X162210000Y-89220000D03*
X149590000Y-58280000D03*
X154340000Y-94120000D03*
X153750000Y-89790000D03*
X161680000Y-95890000D03*
X160700000Y-84010000D03*
X156340000Y-64300000D03*
X152400000Y-61670000D03*
D43*
%TO.N,/RX*%
X158770000Y-87170000D03*
X154520000Y-90910000D03*
%TO.N,/AD0*%
X165250000Y-92860000D03*
%TO.N,/AD1*%
X166330000Y-92240000D03*
%TO.N,/AD3*%
X162680000Y-91020000D03*
%TO.N,/AD6*%
X164660000Y-98800000D03*
%TD*%
D46*
%TO.N,Net-(D1-K)*%
X160557500Y-77432500D02*
X160290000Y-77700000D01*
X163510000Y-79780000D02*
X163340000Y-79950000D01*
X163510000Y-77432500D02*
X160557500Y-77432500D01*
X163510000Y-77432500D02*
X163510000Y-79780000D01*
%TO.N,/AREF*%
X160515000Y-94230000D02*
X161390000Y-94230000D01*
X161390000Y-94230000D02*
X168940000Y-101780000D01*
X168950000Y-104670000D02*
X171850000Y-104670000D01*
X168940000Y-104680000D02*
X168950000Y-104670000D01*
X168940000Y-101780000D02*
X168940000Y-104680000D01*
X171850000Y-104670000D02*
X172380000Y-104140000D01*
D47*
%TO.N,/+3.3V_LDO*%
X166610001Y-75152500D02*
X169810000Y-75152500D01*
X157860000Y-65585000D02*
X159215000Y-65585000D01*
X165124000Y-80516000D02*
X165124000Y-76638501D01*
X163340000Y-82300000D02*
X165124000Y-80516000D01*
X166660000Y-68210000D02*
X167140000Y-68690000D01*
X167140000Y-70142500D02*
X167125000Y-70157500D01*
X167140000Y-68690000D02*
X167140000Y-70142500D01*
X163510000Y-75152500D02*
X169810000Y-75152500D01*
X165124000Y-76638501D02*
X166610001Y-75152500D01*
X163340000Y-82300000D02*
X161240000Y-80200000D01*
X167125000Y-72467500D02*
X169810000Y-75152500D01*
X167125000Y-70157500D02*
X167125000Y-72467500D01*
X159215000Y-65585000D02*
X160030000Y-66400000D01*
X161240000Y-80200000D02*
X160240000Y-80200000D01*
D46*
%TO.N,/RESET*%
X147080000Y-64480000D02*
X147080000Y-65400000D01*
X162710000Y-63100000D02*
X162710000Y-64797500D01*
X164770000Y-64730000D02*
X164830000Y-64790000D01*
X164830000Y-64790000D02*
X162717500Y-64790000D01*
X157827500Y-89570000D02*
X157827500Y-86287500D01*
X164770000Y-60082500D02*
X164770000Y-64730000D01*
X159080000Y-99550000D02*
X159080000Y-107050000D01*
X147080000Y-65400000D02*
X147310000Y-65630000D01*
X154790000Y-81420000D02*
X154790000Y-71010000D01*
X153630000Y-65630000D02*
X156620000Y-62640000D01*
X159080000Y-107050000D02*
X160430000Y-108400000D01*
X152240000Y-83970000D02*
X154790000Y-81420000D01*
X154790000Y-71010000D02*
X153780000Y-70000000D01*
X144370000Y-65170000D02*
X145060000Y-64480000D01*
X157827500Y-89570000D02*
X157827500Y-91542500D01*
X152240000Y-85680000D02*
X152240000Y-83970000D01*
X147310000Y-65630000D02*
X153630000Y-65630000D01*
X145060000Y-64480000D02*
X147080000Y-64480000D01*
X162250000Y-62640000D02*
X162710000Y-63100000D01*
X162717500Y-64790000D02*
X162710000Y-64797500D01*
X157827500Y-86287500D02*
X157500000Y-85960000D01*
X145320000Y-70000000D02*
X144370000Y-69050000D01*
X144370000Y-69050000D02*
X144370000Y-65170000D01*
X152520000Y-85960000D02*
X152240000Y-85680000D01*
X156620000Y-62640000D02*
X162250000Y-62640000D01*
X157500000Y-85960000D02*
X152520000Y-85960000D01*
X153780000Y-70000000D02*
X145320000Y-70000000D01*
%TO.N,/XTAL1*%
X148795000Y-75205000D02*
X149090000Y-75500000D01*
X152430000Y-95230000D02*
X155640000Y-95230000D01*
X152420000Y-95240000D02*
X152430000Y-95230000D01*
X151912500Y-75500000D02*
X153430000Y-77017500D01*
X144980000Y-75205000D02*
X148795000Y-75205000D01*
X149090000Y-75500000D02*
X151912500Y-75500000D01*
%TO.N,/XTAL2*%
X151892500Y-80380000D02*
X153430000Y-78842500D01*
X144980000Y-80655000D02*
X148815000Y-80655000D01*
X148815000Y-80655000D02*
X149090000Y-80380000D01*
X149090000Y-80380000D02*
X151892500Y-80380000D01*
X151830000Y-95730000D02*
X155640000Y-95730000D01*
D48*
%TO.N,/+5V_USB*%
X160700000Y-84010000D02*
X160290000Y-83600000D01*
X147080000Y-59980000D02*
X147080000Y-62230000D01*
X162240000Y-89250000D02*
X162210000Y-89220000D01*
X161680000Y-95890000D02*
X161680000Y-107110000D01*
X149590000Y-58280000D02*
X147740000Y-58280000D01*
X160290000Y-83600000D02*
X160290000Y-82500000D01*
X160290000Y-82500000D02*
X158389000Y-80599000D01*
X152400000Y-61670000D02*
X151890000Y-61670000D01*
X151887500Y-61667500D02*
X150890000Y-61667500D01*
X158389000Y-70943500D02*
X162710000Y-66622500D01*
X163767500Y-89250000D02*
X162240000Y-89250000D01*
X160387500Y-64300000D02*
X162710000Y-66622500D01*
X152960000Y-89000000D02*
X151442500Y-89000000D01*
X158389000Y-80599000D02*
X158389000Y-70943500D01*
X156340000Y-64300000D02*
X160387500Y-64300000D01*
X153750000Y-89790000D02*
X152960000Y-89000000D01*
X161680000Y-107110000D02*
X162970000Y-108400000D01*
X147740000Y-58280000D02*
X147080000Y-58940000D01*
X151442500Y-89000000D02*
X151422500Y-89020000D01*
X147080000Y-58940000D02*
X147080000Y-59980000D01*
X151890000Y-61670000D02*
X151887500Y-61667500D01*
D46*
%TO.N,Net-(U3-~{RTS})*%
X156360000Y-62172499D02*
X154052499Y-64480000D01*
X154052499Y-64480000D02*
X148980000Y-64480000D01*
X156360000Y-61360000D02*
X156360000Y-62172499D01*
%TO.N,Net-(D3-A)*%
X149597500Y-86945000D02*
X149552500Y-86900000D01*
X149597500Y-89020000D02*
X149597500Y-86945000D01*
%TO.N,/TX*%
X153380000Y-86812500D02*
X151515000Y-86812500D01*
X157327500Y-90760000D02*
X157327500Y-91542500D01*
X157327500Y-91105001D02*
X157327500Y-91542500D01*
X143400000Y-83820000D02*
X143400000Y-84870000D01*
X148950000Y-90420000D02*
X156642499Y-90420000D01*
X143400000Y-84870000D02*
X148950000Y-90420000D01*
X151515000Y-86812500D02*
X151427500Y-86900000D01*
X153380000Y-86812500D02*
X157327500Y-90760000D01*
X156642499Y-90420000D02*
X157327500Y-91105001D01*
%TO.N,Net-(D4-A)*%
X165637500Y-89205000D02*
X165592500Y-89250000D01*
X165637500Y-87030000D02*
X165637500Y-89205000D01*
%TO.N,/RX*%
X143400000Y-86360000D02*
X147944000Y-90904000D01*
X154520000Y-90910000D02*
X154526000Y-90904000D01*
X154514000Y-90904000D02*
X154520000Y-90910000D01*
X158770000Y-87170000D02*
X161712500Y-87170000D01*
X156827500Y-91230622D02*
X156827500Y-91542500D01*
X163730000Y-87062500D02*
X163762500Y-87030000D01*
X147944000Y-90904000D02*
X154514000Y-90904000D01*
X156500878Y-90904000D02*
X156827500Y-91230622D01*
X161712500Y-87170000D02*
X161820000Y-87062500D01*
X154526000Y-90904000D02*
X156500878Y-90904000D01*
X161820000Y-87062500D02*
X163730000Y-87062500D01*
%TO.N,Net-(D5-A)*%
X147230000Y-68817500D02*
X149435000Y-68817500D01*
X149435000Y-68817500D02*
X149440000Y-68812500D01*
%TO.N,Net-(J4-VBUS)*%
X150890000Y-59792500D02*
X155172499Y-59792500D01*
X155172499Y-59792500D02*
X156605000Y-58359999D01*
X156605000Y-58359999D02*
X156605000Y-57685000D01*
%TO.N,/AD0*%
X165250000Y-92860000D02*
X161890000Y-92860000D01*
X161890000Y-92860000D02*
X161760000Y-92730000D01*
X161760000Y-92730000D02*
X160515000Y-92730000D01*
%TO.N,/AD1*%
X166330000Y-92240000D02*
X161670000Y-92240000D01*
X161660000Y-92230000D02*
X160515000Y-92230000D01*
X161670000Y-92240000D02*
X161660000Y-92230000D01*
%TO.N,/AD5*%
X173870000Y-96520000D02*
X172380000Y-96520000D01*
X174410000Y-95980000D02*
X173870000Y-96520000D01*
X170760000Y-87460000D02*
X173850000Y-87460000D01*
X158327500Y-91105001D02*
X159231501Y-90201000D01*
X174410000Y-88020000D02*
X174410000Y-95980000D01*
X168019000Y-90201000D02*
X170760000Y-87460000D01*
X158327500Y-91542500D02*
X158327500Y-91105001D01*
X159231501Y-90201000D02*
X168019000Y-90201000D01*
X173850000Y-87460000D02*
X174410000Y-88020000D01*
%TO.N,/AD2*%
X169737500Y-91542500D02*
X172380000Y-88900000D01*
X159827500Y-91542500D02*
X169737500Y-91542500D01*
%TO.N,/AD3*%
X159327500Y-91105001D02*
X159528501Y-90904000D01*
X159327500Y-91542500D02*
X159327500Y-91105001D01*
X159528501Y-90904000D02*
X162564000Y-90904000D01*
X162564000Y-90904000D02*
X162680000Y-91020000D01*
%TO.N,/AD4*%
X158827500Y-91542500D02*
X158827500Y-91105001D01*
X159430501Y-90502000D02*
X168329000Y-90502000D01*
X158827500Y-91105001D02*
X159430501Y-90502000D01*
X173710000Y-93980000D02*
X172380000Y-93980000D01*
X174109000Y-93581000D02*
X173710000Y-93980000D01*
X173691000Y-87761000D02*
X174109000Y-88179000D01*
X168329000Y-90502000D02*
X171070000Y-87761000D01*
X174109000Y-88179000D02*
X174109000Y-93581000D01*
X171070000Y-87761000D02*
X173691000Y-87761000D01*
%TO.N,/AD6*%
X164390000Y-97690000D02*
X161430000Y-94730000D01*
X164390000Y-98530000D02*
X164390000Y-97690000D01*
X164660000Y-98800000D02*
X164390000Y-98530000D01*
X161430000Y-94730000D02*
X160515000Y-94730000D01*
%TO.N,/AD7*%
X169230000Y-101600000D02*
X172380000Y-101600000D01*
X160515000Y-93230000D02*
X160860000Y-93230000D01*
X160860000Y-93230000D02*
X169230000Y-101600000D01*
%TO.N,Net-(R2-Pad2)*%
X167220000Y-58480000D02*
X167220000Y-66480000D01*
X164770000Y-58257500D02*
X166997500Y-58257500D01*
X166997500Y-58257500D02*
X167220000Y-58480000D01*
%TO.N,Net-(U3-TXD)*%
X153380000Y-84987500D02*
X156860000Y-81507500D01*
X156860000Y-81507500D02*
X156860000Y-65585000D01*
%TO.N,Net-(U3-RXD)*%
X157360000Y-81885448D02*
X160712052Y-85237500D01*
X160712052Y-85237500D02*
X161820000Y-85237500D01*
X157360000Y-65585000D02*
X157360000Y-81885448D01*
%TO.N,Net-(U3-TNOW)*%
X155472500Y-66987500D02*
X155834000Y-66626000D01*
X149440000Y-66987500D02*
X155472500Y-66987500D01*
X155834000Y-66626000D02*
X155834000Y-65585000D01*
%TO.N,/D13*%
X157972500Y-105190000D02*
X157972500Y-108317500D01*
X158020000Y-105142500D02*
X157972500Y-105190000D01*
X160520000Y-95735000D02*
X160520000Y-96785678D01*
X158020000Y-99285678D02*
X158020000Y-105142500D01*
X160515000Y-95730000D02*
X160520000Y-95735000D01*
X157972500Y-108317500D02*
X157890000Y-108400000D01*
X160520000Y-96785678D02*
X158020000Y-99285678D01*
%TO.N,/D7*%
X152582499Y-101600000D02*
X143400000Y-101600000D01*
X157327500Y-96854999D02*
X152582499Y-101600000D01*
X157327500Y-96417500D02*
X157327500Y-96854999D01*
%TO.N,/D8*%
X157827500Y-96854999D02*
X150542499Y-104140000D01*
X150542499Y-104140000D02*
X143400000Y-104140000D01*
X157827500Y-96417500D02*
X157827500Y-96854999D01*
%TO.N,/D6*%
X156827500Y-96417500D02*
X156827500Y-96854999D01*
X154622499Y-99060000D02*
X143400000Y-99060000D01*
X156827500Y-96854999D02*
X154622499Y-99060000D01*
%TO.N,/D5*%
X154500000Y-98630000D02*
X145510000Y-98630000D01*
X156327500Y-96802500D02*
X154500000Y-98630000D01*
X156327500Y-96417500D02*
X156327500Y-96802500D01*
X145510000Y-98630000D02*
X143400000Y-96520000D01*
%TO.N,/D4*%
X155640000Y-92730000D02*
X144650000Y-92730000D01*
X144650000Y-92730000D02*
X143400000Y-93980000D01*
%TO.N,/D2*%
X146042500Y-91542500D02*
X143400000Y-88900000D01*
X156327500Y-91542500D02*
X146042500Y-91542500D01*
%TO.N,/D3*%
X144190000Y-92230000D02*
X143400000Y-91440000D01*
X155640000Y-92230000D02*
X144190000Y-92230000D01*
%TO.N,/D10*%
X150270000Y-105620000D02*
X150270000Y-108400000D01*
X158827500Y-97062500D02*
X150270000Y-105620000D01*
X158827500Y-96417500D02*
X158827500Y-97062500D01*
%TO.N,/D12*%
X155350000Y-101530000D02*
X155350000Y-108400000D01*
X159827500Y-96417500D02*
X159827500Y-97052500D01*
X159827500Y-97052500D02*
X155350000Y-101530000D01*
%TO.N,/D9*%
X158327500Y-96912500D02*
X147730000Y-107510000D01*
X158327500Y-96417500D02*
X158327500Y-96912500D01*
X147730000Y-107510000D02*
X147730000Y-108400000D01*
%TO.N,/D11*%
X159327500Y-96417500D02*
X159327500Y-97112500D01*
X159327500Y-97112500D02*
X152810000Y-103630000D01*
X152810000Y-103630000D02*
X152810000Y-108400000D01*
%TO.N,/USB_D+*%
X157860000Y-60722500D02*
X157860000Y-61360000D01*
X157905000Y-58697501D02*
X157790000Y-58812501D01*
X157790000Y-58812501D02*
X157790000Y-60652500D01*
X157905000Y-57685000D02*
X157905000Y-58697501D01*
X157790000Y-60652500D02*
X157860000Y-60722500D01*
%TO.N,/USB_D-*%
X157360000Y-61360000D02*
X157360000Y-60722500D01*
X157360000Y-60722500D02*
X157385000Y-60697500D01*
X157385000Y-60697500D02*
X157385000Y-58827501D01*
X157385000Y-58827501D02*
X157255000Y-58697501D01*
X157255000Y-58697501D02*
X157255000Y-57685000D01*
%TD*%
%TA.AperFunction,Conductor*%
%TO.N,/+5V_USB*%
G36*
X156401186Y-63959224D02*
G01*
X156492940Y-63983810D01*
X156539587Y-63996309D01*
X156543008Y-63996839D01*
X156550791Y-63998925D01*
X156610451Y-64035288D01*
X156612959Y-64038134D01*
X156665644Y-64099823D01*
X156685745Y-64132498D01*
X156720157Y-64214767D01*
X156729308Y-64252029D01*
X156736922Y-64340874D01*
X156734245Y-64379147D01*
X156712154Y-64475593D01*
X156706415Y-64493961D01*
X156653024Y-64627436D01*
X156609849Y-64682370D01*
X156606790Y-64684481D01*
X156600911Y-64688409D01*
X156600910Y-64688410D01*
X156548310Y-64767134D01*
X156548307Y-64767140D01*
X156534500Y-64836555D01*
X156534500Y-65495844D01*
X156525291Y-65527204D01*
X156517270Y-65558900D01*
X156515242Y-65561426D01*
X156514815Y-65562883D01*
X156495180Y-65586427D01*
X156475689Y-65604648D01*
X156421757Y-65634192D01*
X156390874Y-65642097D01*
X156329139Y-65642036D01*
X156298908Y-65634234D01*
X156244681Y-65604249D01*
X156224286Y-65584956D01*
X156189112Y-65524586D01*
X156185500Y-65494875D01*
X156185500Y-64836555D01*
X156171692Y-64767140D01*
X156171691Y-64767137D01*
X156152543Y-64738480D01*
X156119089Y-64688411D01*
X156119087Y-64688410D01*
X156119085Y-64688406D01*
X156116928Y-64686249D01*
X156111431Y-64677790D01*
X156106107Y-64673889D01*
X156088881Y-64643093D01*
X156040234Y-64516609D01*
X156039047Y-64502085D01*
X156037117Y-64502603D01*
X156023811Y-64452943D01*
X156006676Y-64388995D01*
X156002590Y-64351059D01*
X156006808Y-64261761D01*
X156013097Y-64228215D01*
X156041688Y-64142921D01*
X156056887Y-64112364D01*
X156087463Y-64067641D01*
X156102127Y-64049968D01*
X156116627Y-64035468D01*
X156142297Y-64015770D01*
X156192696Y-63986671D01*
X156222592Y-63974287D01*
X156278816Y-63959223D01*
X156310903Y-63955000D01*
X156369094Y-63955000D01*
X156401186Y-63959224D01*
G37*
%TD.AperFunction*%
%TD*%
%TA.AperFunction,Conductor*%
%TO.N,GND*%
G36*
X157790000Y-93850000D02*
G01*
X157760000Y-95340000D01*
X157000000Y-95440000D01*
X156200000Y-94460000D01*
X156069595Y-94461185D01*
X156035984Y-94454500D01*
X156035980Y-94454500D01*
X156029439Y-94454500D01*
X156003077Y-94451665D01*
X155999091Y-94450797D01*
X155955286Y-94444500D01*
X155955284Y-94444500D01*
X155290172Y-94444500D01*
X155269724Y-94438495D01*
X155248446Y-94437269D01*
X155227046Y-94425964D01*
X155223133Y-94424815D01*
X155217239Y-94420783D01*
X155188830Y-94400122D01*
X155146190Y-94344772D01*
X155137790Y-94297257D01*
X155141308Y-94128366D01*
X155162384Y-94061754D01*
X155207771Y-94021094D01*
X155210547Y-94019640D01*
X155268053Y-94005500D01*
X155931500Y-94005500D01*
X156170000Y-94010000D01*
X157120000Y-93350000D01*
X157790000Y-93850000D01*
G37*
%TD.AperFunction*%
%TD*%
%TA.AperFunction,Conductor*%
%TO.N,/+5V_USB*%
G36*
X161289190Y-95052737D02*
G01*
X161367433Y-95070458D01*
X161370060Y-95071516D01*
X161371579Y-95071473D01*
X161404087Y-95085215D01*
X161458855Y-95118251D01*
X161482487Y-95136748D01*
X162144526Y-95798787D01*
X162166294Y-95828186D01*
X162170537Y-95836154D01*
X162181625Y-95865336D01*
X162219929Y-96023996D01*
X162220238Y-96028789D01*
X162221444Y-96031205D01*
X162222668Y-96066478D01*
X162215579Y-96131781D01*
X162198294Y-96182757D01*
X162167299Y-96233802D01*
X162130040Y-96272652D01*
X162080334Y-96305754D01*
X162030123Y-96325155D01*
X161957277Y-96336159D01*
X161930225Y-96337256D01*
X161831619Y-96330456D01*
X161818470Y-96328840D01*
X161683337Y-96304844D01*
X161657930Y-96297466D01*
X161537133Y-96247881D01*
X161513870Y-96235281D01*
X161406343Y-96161198D01*
X161386284Y-96143951D01*
X161296918Y-96048740D01*
X161280980Y-96027638D01*
X161210417Y-95909913D01*
X161204224Y-95898203D01*
X161140078Y-95759470D01*
X161140072Y-95759459D01*
X161114448Y-95704038D01*
X161103000Y-95651999D01*
X161103000Y-95646519D01*
X161102999Y-95646515D01*
X161090642Y-95584390D01*
X161043565Y-95513935D01*
X161034927Y-95505297D01*
X161036617Y-95503606D01*
X161004298Y-95465808D01*
X160960000Y-95370000D01*
X160520000Y-95365000D01*
X160221197Y-95361604D01*
X160208724Y-95357787D01*
X160189371Y-95357075D01*
X160182128Y-95355060D01*
X160165040Y-95344419D01*
X160154385Y-95341159D01*
X160148340Y-95334020D01*
X160122818Y-95318128D01*
X160092889Y-95254993D01*
X160101846Y-95185699D01*
X160132813Y-95148913D01*
X160135097Y-95144890D01*
X160137074Y-95143852D01*
X160146843Y-95132248D01*
X160183279Y-95115820D01*
X160189247Y-95114220D01*
X160194956Y-95113469D01*
X160196962Y-95112417D01*
X160200553Y-95112733D01*
X160221326Y-95110000D01*
X160959999Y-95110000D01*
X160960000Y-95110000D01*
X161140388Y-95062529D01*
X161159893Y-95059034D01*
X161249758Y-95050262D01*
X161289190Y-95052737D01*
G37*
%TD.AperFunction*%
%TD*%
%TA.AperFunction,Conductor*%
%TO.N,/+5V_USB*%
G36*
X154601527Y-93524969D02*
G01*
X155239284Y-93600000D01*
X155955284Y-93600000D01*
X155963969Y-93602550D01*
X155972931Y-93601262D01*
X155996971Y-93612240D01*
X156022323Y-93619685D01*
X156028250Y-93626525D01*
X156036487Y-93630287D01*
X156050776Y-93652521D01*
X156068078Y-93672489D01*
X156070365Y-93683003D01*
X156074261Y-93689065D01*
X156079284Y-93724000D01*
X156079284Y-93726000D01*
X156059599Y-93793039D01*
X156006795Y-93838794D01*
X155955284Y-93850000D01*
X155199283Y-93850000D01*
X154989283Y-93960000D01*
X154979283Y-94439999D01*
X154979284Y-94440001D01*
X155199283Y-94600000D01*
X155199284Y-94600000D01*
X155955284Y-94600000D01*
X155963969Y-94602550D01*
X155972931Y-94601262D01*
X155996971Y-94612240D01*
X156022323Y-94619685D01*
X156028250Y-94626525D01*
X156036487Y-94630287D01*
X156050776Y-94652521D01*
X156068078Y-94672489D01*
X156070365Y-94683003D01*
X156074261Y-94689065D01*
X156079284Y-94724000D01*
X156079284Y-94726000D01*
X156059599Y-94793039D01*
X156006795Y-94838794D01*
X155955284Y-94850000D01*
X155199274Y-94850000D01*
X154506454Y-94904696D01*
X154438073Y-94890349D01*
X154398288Y-94856526D01*
X153833524Y-94119877D01*
X153808357Y-94054698D01*
X153822424Y-93986259D01*
X153867746Y-93938337D01*
X154522876Y-93542024D01*
X154590423Y-93524168D01*
X154601527Y-93524969D01*
G37*
%TD.AperFunction*%
%TD*%
%TA.AperFunction,Conductor*%
%TO.N,GND*%
G36*
X143031826Y-51950185D02*
G01*
X143077581Y-52002989D01*
X143087525Y-52072147D01*
X143058500Y-52135703D01*
X143008916Y-52169045D01*
X143009332Y-52170048D01*
X142763309Y-52271953D01*
X142763299Y-52271958D01*
X142536196Y-52403075D01*
X142328148Y-52562718D01*
X142142718Y-52748148D01*
X141983075Y-52956196D01*
X141851958Y-53183299D01*
X141851953Y-53183309D01*
X141751605Y-53425571D01*
X141751602Y-53425581D01*
X141696829Y-53630000D01*
X141683730Y-53678885D01*
X141649500Y-53938872D01*
X141649500Y-54201127D01*
X141676123Y-54403339D01*
X141683730Y-54461116D01*
X141751602Y-54714418D01*
X141751605Y-54714428D01*
X141851953Y-54956690D01*
X141851958Y-54956700D01*
X141983075Y-55183803D01*
X142142718Y-55391851D01*
X142142726Y-55391860D01*
X142328140Y-55577274D01*
X142328148Y-55577281D01*
X142536196Y-55736924D01*
X142763299Y-55868041D01*
X142763309Y-55868046D01*
X143005571Y-55968394D01*
X143005581Y-55968398D01*
X143258884Y-56036270D01*
X143518880Y-56070500D01*
X143518887Y-56070500D01*
X143781113Y-56070500D01*
X143781120Y-56070500D01*
X144041116Y-56036270D01*
X144294419Y-55968398D01*
X144536697Y-55868043D01*
X144763803Y-55736924D01*
X144971851Y-55577282D01*
X144971855Y-55577277D01*
X144971860Y-55577274D01*
X145157274Y-55391860D01*
X145157277Y-55391855D01*
X145157282Y-55391851D01*
X145316924Y-55183803D01*
X145448043Y-54956697D01*
X145548398Y-54714419D01*
X145616270Y-54461116D01*
X145650500Y-54201120D01*
X145650500Y-53938880D01*
X145616270Y-53678884D01*
X145548398Y-53425581D01*
X145529298Y-53379470D01*
X145448046Y-53183309D01*
X145448041Y-53183299D01*
X145316924Y-52956196D01*
X145157281Y-52748148D01*
X145157274Y-52748140D01*
X144971860Y-52562726D01*
X144971851Y-52562718D01*
X144763803Y-52403075D01*
X144536700Y-52271958D01*
X144536690Y-52271953D01*
X144290668Y-52170048D01*
X144291125Y-52168944D01*
X144238203Y-52131734D01*
X144211847Y-52067026D01*
X144224659Y-51998341D01*
X144272571Y-51947486D01*
X144335213Y-51930500D01*
X171654787Y-51930500D01*
X171721826Y-51950185D01*
X171767581Y-52002989D01*
X171777525Y-52072147D01*
X171748500Y-52135703D01*
X171698916Y-52169045D01*
X171699332Y-52170048D01*
X171453309Y-52271953D01*
X171453299Y-52271958D01*
X171226196Y-52403075D01*
X171018148Y-52562718D01*
X170832718Y-52748148D01*
X170673075Y-52956196D01*
X170541958Y-53183299D01*
X170541953Y-53183309D01*
X170441605Y-53425571D01*
X170441602Y-53425581D01*
X170386829Y-53630000D01*
X170373730Y-53678885D01*
X170339500Y-53938872D01*
X170339500Y-54201127D01*
X170366123Y-54403339D01*
X170373730Y-54461116D01*
X170441602Y-54714418D01*
X170441605Y-54714428D01*
X170541953Y-54956690D01*
X170541958Y-54956700D01*
X170673075Y-55183803D01*
X170832718Y-55391851D01*
X170832726Y-55391860D01*
X171018140Y-55577274D01*
X171018148Y-55577281D01*
X171226196Y-55736924D01*
X171453299Y-55868041D01*
X171453309Y-55868046D01*
X171695571Y-55968394D01*
X171695581Y-55968398D01*
X171948884Y-56036270D01*
X172208880Y-56070500D01*
X172208887Y-56070500D01*
X172471113Y-56070500D01*
X172471120Y-56070500D01*
X172731116Y-56036270D01*
X172984419Y-55968398D01*
X173226697Y-55868043D01*
X173453803Y-55736924D01*
X173661851Y-55577282D01*
X173661855Y-55577277D01*
X173661860Y-55577274D01*
X173847274Y-55391860D01*
X173847277Y-55391855D01*
X173847282Y-55391851D01*
X174006924Y-55183803D01*
X174138043Y-54956697D01*
X174238398Y-54714419D01*
X174306270Y-54461116D01*
X174332561Y-54261420D01*
X174360828Y-54197525D01*
X174419152Y-54159054D01*
X174489017Y-54158223D01*
X174548240Y-54195295D01*
X174578019Y-54258501D01*
X174579500Y-54277607D01*
X174579500Y-87606588D01*
X174559815Y-87673627D01*
X174507011Y-87719382D01*
X174437853Y-87729326D01*
X174374297Y-87700301D01*
X174367819Y-87694269D01*
X173963574Y-87290024D01*
X173889883Y-87259500D01*
X173889882Y-87259500D01*
X173124073Y-87259500D01*
X173057034Y-87239815D01*
X173011279Y-87187011D01*
X173001335Y-87117853D01*
X173030360Y-87054297D01*
X173036392Y-87047819D01*
X173118299Y-86965911D01*
X173118302Y-86965908D01*
X173222322Y-86810231D01*
X173293973Y-86637251D01*
X173330500Y-86453616D01*
X173330500Y-86266384D01*
X173293973Y-86082749D01*
X173222322Y-85909769D01*
X173222321Y-85909768D01*
X173222318Y-85909762D01*
X173118302Y-85754092D01*
X173118299Y-85754088D01*
X172985911Y-85621700D01*
X172985907Y-85621697D01*
X172830237Y-85517681D01*
X172830228Y-85517676D01*
X172657251Y-85446027D01*
X172657243Y-85446025D01*
X172473620Y-85409500D01*
X172473616Y-85409500D01*
X172286384Y-85409500D01*
X172286379Y-85409500D01*
X172102756Y-85446025D01*
X172102748Y-85446027D01*
X171929771Y-85517676D01*
X171929762Y-85517681D01*
X171774092Y-85621697D01*
X171774088Y-85621700D01*
X171641700Y-85754088D01*
X171641697Y-85754092D01*
X171537681Y-85909762D01*
X171537676Y-85909771D01*
X171466027Y-86082748D01*
X171466025Y-86082756D01*
X171429500Y-86266379D01*
X171429500Y-86453620D01*
X171466025Y-86637243D01*
X171466027Y-86637251D01*
X171537676Y-86810228D01*
X171537681Y-86810237D01*
X171641697Y-86965907D01*
X171641700Y-86965911D01*
X171723608Y-87047819D01*
X171757093Y-87109142D01*
X171752109Y-87178834D01*
X171710237Y-87234767D01*
X171644773Y-87259184D01*
X171635927Y-87259500D01*
X170720113Y-87259500D01*
X170711666Y-87263000D01*
X170711665Y-87263001D01*
X170646425Y-87290024D01*
X170646424Y-87290025D01*
X167972269Y-89964181D01*
X167910946Y-89997666D01*
X167884588Y-90000500D01*
X166296880Y-90000500D01*
X166229841Y-89980815D01*
X166184086Y-89928011D01*
X166174142Y-89858853D01*
X166185480Y-89822039D01*
X166187746Y-89817401D01*
X166195573Y-89801393D01*
X166205500Y-89733260D01*
X166205500Y-88766740D01*
X166195573Y-88698607D01*
X166144198Y-88593517D01*
X166144196Y-88593515D01*
X166144196Y-88593514D01*
X166061485Y-88510803D01*
X165956392Y-88459426D01*
X165944118Y-88457638D01*
X165880618Y-88428491D01*
X165842956Y-88369641D01*
X165838000Y-88334934D01*
X165838000Y-87950249D01*
X165857685Y-87883210D01*
X165910489Y-87837455D01*
X165945812Y-87827310D01*
X165971723Y-87823900D01*
X165971729Y-87823897D01*
X165971730Y-87823897D01*
X166081744Y-87772597D01*
X166081745Y-87772596D01*
X166081750Y-87772594D01*
X166167594Y-87686750D01*
X166179835Y-87660500D01*
X166218897Y-87576729D01*
X166218900Y-87576723D01*
X166225500Y-87526591D01*
X166225499Y-86533410D01*
X166225497Y-86533398D01*
X166222199Y-86508343D01*
X166218900Y-86483277D01*
X166218897Y-86483270D01*
X166218897Y-86483269D01*
X166167597Y-86373255D01*
X166167593Y-86373249D01*
X166081750Y-86287406D01*
X166081744Y-86287402D01*
X165971729Y-86236102D01*
X165971724Y-86236100D01*
X165971723Y-86236100D01*
X165971720Y-86236099D01*
X165971718Y-86236099D01*
X165921601Y-86229501D01*
X165921596Y-86229500D01*
X165921591Y-86229500D01*
X165921584Y-86229500D01*
X165353407Y-86229500D01*
X165303280Y-86236099D01*
X165303269Y-86236102D01*
X165193255Y-86287402D01*
X165193249Y-86287406D01*
X165107406Y-86373249D01*
X165107402Y-86373255D01*
X165056102Y-86483270D01*
X165056099Y-86483281D01*
X165049501Y-86533398D01*
X165049500Y-86533415D01*
X165049500Y-87526592D01*
X165056099Y-87576719D01*
X165056102Y-87576730D01*
X165107402Y-87686744D01*
X165107406Y-87686750D01*
X165193250Y-87772594D01*
X165193251Y-87772594D01*
X165193255Y-87772597D01*
X165303270Y-87823897D01*
X165303271Y-87823897D01*
X165303277Y-87823900D01*
X165322101Y-87826378D01*
X165329185Y-87827311D01*
X165393081Y-87855577D01*
X165431553Y-87913901D01*
X165437000Y-87950250D01*
X165437000Y-88325500D01*
X165417315Y-88392539D01*
X165364511Y-88438294D01*
X165313000Y-88449500D01*
X165296739Y-88449500D01*
X165228608Y-88459426D01*
X165123514Y-88510803D01*
X165040803Y-88593514D01*
X164989426Y-88698608D01*
X164979500Y-88766739D01*
X164979500Y-89733260D01*
X164989426Y-89801392D01*
X164999520Y-89822039D01*
X165011280Y-89890912D01*
X164983937Y-89955210D01*
X164926172Y-89994517D01*
X164888120Y-90000500D01*
X164528729Y-90000500D01*
X164461690Y-89980815D01*
X164415935Y-89928011D01*
X164405991Y-89858853D01*
X164413586Y-89834893D01*
X164412631Y-89834583D01*
X164415647Y-89825301D01*
X164428789Y-89742319D01*
X164430500Y-89731519D01*
X164430499Y-88768482D01*
X164415646Y-88674696D01*
X164358050Y-88561658D01*
X164358046Y-88561654D01*
X164358045Y-88561652D01*
X164268347Y-88471954D01*
X164268344Y-88471952D01*
X164268342Y-88471950D01*
X164191517Y-88432805D01*
X164155301Y-88414352D01*
X164061524Y-88399500D01*
X163473482Y-88399500D01*
X163392519Y-88412323D01*
X163379696Y-88414354D01*
X163266658Y-88471950D01*
X163266657Y-88471951D01*
X163266652Y-88471954D01*
X163176954Y-88561652D01*
X163176951Y-88561657D01*
X163176950Y-88561658D01*
X163145819Y-88622756D01*
X163119354Y-88674696D01*
X163116155Y-88694896D01*
X163086226Y-88758032D01*
X163026915Y-88794963D01*
X162993681Y-88799500D01*
X162515899Y-88799500D01*
X162453899Y-88782887D01*
X162436122Y-88772623D01*
X162403187Y-88753608D01*
X162339539Y-88736554D01*
X162275892Y-88719500D01*
X162144108Y-88719500D01*
X162016812Y-88753608D01*
X161902686Y-88819500D01*
X161902683Y-88819502D01*
X161809502Y-88912683D01*
X161809500Y-88912686D01*
X161743608Y-89026812D01*
X161709500Y-89154108D01*
X161709500Y-89285892D01*
X161718414Y-89319160D01*
X161743608Y-89413187D01*
X161765151Y-89450500D01*
X161809500Y-89527314D01*
X161902686Y-89620500D01*
X162016814Y-89686392D01*
X162144108Y-89720500D01*
X162144110Y-89720500D01*
X162275890Y-89720500D01*
X162275892Y-89720500D01*
X162317622Y-89709318D01*
X162334767Y-89704725D01*
X162366859Y-89700500D01*
X162993681Y-89700500D01*
X163021782Y-89708751D01*
X163050549Y-89714309D01*
X163054922Y-89718482D01*
X163060720Y-89720185D01*
X163079899Y-89742319D01*
X163101095Y-89762547D01*
X163103626Y-89769702D01*
X163106475Y-89772989D01*
X163114198Y-89795319D01*
X163115375Y-89800180D01*
X163119354Y-89825304D01*
X163123364Y-89833174D01*
X163126789Y-89847319D01*
X163125782Y-89868258D01*
X163129654Y-89888868D01*
X163124138Y-89902460D01*
X163123434Y-89917108D01*
X163111266Y-89934179D01*
X163103381Y-89953610D01*
X163091392Y-89962061D01*
X163082881Y-89974004D01*
X163063413Y-89981788D01*
X163046276Y-89993870D01*
X163023936Y-89997572D01*
X163018005Y-89999944D01*
X163014136Y-89999196D01*
X163006272Y-90000500D01*
X159271383Y-90000500D01*
X159191618Y-90000500D01*
X159170034Y-90009440D01*
X159170033Y-90009440D01*
X159117927Y-90031023D01*
X159089726Y-90059224D01*
X159061525Y-90087426D01*
X159061524Y-90087427D01*
X158239681Y-90909269D01*
X158178358Y-90942754D01*
X158108666Y-90937770D01*
X158052733Y-90895898D01*
X158028316Y-90830434D01*
X158028000Y-90821588D01*
X158028000Y-89881189D01*
X158047685Y-89814150D01*
X158064319Y-89793508D01*
X158087965Y-89769862D01*
X158130818Y-89695638D01*
X158153000Y-89612853D01*
X158153000Y-89527147D01*
X158130818Y-89444362D01*
X158099144Y-89389500D01*
X158087969Y-89370144D01*
X158087963Y-89370136D01*
X158064319Y-89346492D01*
X158030834Y-89285169D01*
X158028000Y-89258811D01*
X158028000Y-87127147D01*
X158444500Y-87127147D01*
X158444500Y-87212853D01*
X158463212Y-87282685D01*
X158466682Y-87295637D01*
X158466685Y-87295644D01*
X158509530Y-87369855D01*
X158509534Y-87369860D01*
X158509535Y-87369862D01*
X158570138Y-87430465D01*
X158570140Y-87430466D01*
X158570144Y-87430469D01*
X158624445Y-87461819D01*
X158644362Y-87473318D01*
X158727147Y-87495500D01*
X158727149Y-87495500D01*
X158812851Y-87495500D01*
X158812853Y-87495500D01*
X158895638Y-87473318D01*
X158969862Y-87430465D01*
X158993508Y-87406819D01*
X159054831Y-87373334D01*
X159081189Y-87370500D01*
X160924698Y-87370500D01*
X160991737Y-87390185D01*
X161036098Y-87440038D01*
X161078411Y-87526592D01*
X161080803Y-87531485D01*
X161163514Y-87614196D01*
X161163515Y-87614196D01*
X161163517Y-87614198D01*
X161268607Y-87665573D01*
X161302673Y-87670536D01*
X161336739Y-87675500D01*
X161336740Y-87675500D01*
X162303261Y-87675500D01*
X162325971Y-87672191D01*
X162371393Y-87665573D01*
X162476483Y-87614198D01*
X162559198Y-87531483D01*
X162610573Y-87426393D01*
X162618717Y-87370500D01*
X162618918Y-87369122D01*
X162648062Y-87305621D01*
X162706912Y-87267957D01*
X162741622Y-87263000D01*
X163050501Y-87263000D01*
X163117540Y-87282685D01*
X163163295Y-87335489D01*
X163174501Y-87387000D01*
X163174501Y-87526592D01*
X163181099Y-87576719D01*
X163181102Y-87576730D01*
X163232402Y-87686744D01*
X163232406Y-87686750D01*
X163318250Y-87772594D01*
X163318251Y-87772594D01*
X163318255Y-87772597D01*
X163428270Y-87823897D01*
X163428271Y-87823897D01*
X163428277Y-87823900D01*
X163478409Y-87830500D01*
X164046590Y-87830499D01*
X164046592Y-87830499D01*
X164070809Y-87827311D01*
X164096723Y-87823900D01*
X164096728Y-87823897D01*
X164096730Y-87823897D01*
X164206744Y-87772597D01*
X164206745Y-87772596D01*
X164206750Y-87772594D01*
X164292594Y-87686750D01*
X164304835Y-87660500D01*
X164343897Y-87576729D01*
X164343900Y-87576723D01*
X164350500Y-87526591D01*
X164350499Y-86533410D01*
X164350497Y-86533398D01*
X164347199Y-86508343D01*
X164343900Y-86483277D01*
X164343897Y-86483270D01*
X164343897Y-86483269D01*
X164292597Y-86373255D01*
X164292593Y-86373249D01*
X164206750Y-86287406D01*
X164206744Y-86287402D01*
X164096729Y-86236102D01*
X164096724Y-86236100D01*
X164096723Y-86236100D01*
X164096720Y-86236099D01*
X164096718Y-86236099D01*
X164046601Y-86229501D01*
X164046596Y-86229500D01*
X164046591Y-86229500D01*
X164046584Y-86229500D01*
X163478407Y-86229500D01*
X163428280Y-86236099D01*
X163428269Y-86236102D01*
X163318255Y-86287402D01*
X163318249Y-86287406D01*
X163232406Y-86373249D01*
X163232402Y-86373255D01*
X163181102Y-86483270D01*
X163181099Y-86483281D01*
X163174501Y-86533398D01*
X163174500Y-86533415D01*
X163174500Y-86738000D01*
X163154815Y-86805039D01*
X163102011Y-86850794D01*
X163050500Y-86862000D01*
X162741622Y-86862000D01*
X162674583Y-86842315D01*
X162628828Y-86789511D01*
X162618918Y-86755878D01*
X162610573Y-86698608D01*
X162580574Y-86637243D01*
X162559198Y-86593517D01*
X162559196Y-86593515D01*
X162559196Y-86593514D01*
X162476485Y-86510803D01*
X162371391Y-86459426D01*
X162303261Y-86449500D01*
X162303260Y-86449500D01*
X161336740Y-86449500D01*
X161336739Y-86449500D01*
X161268608Y-86459426D01*
X161163514Y-86510803D01*
X161080803Y-86593514D01*
X161029426Y-86698608D01*
X161019500Y-86766739D01*
X161019500Y-86845500D01*
X160999815Y-86912539D01*
X160947011Y-86958294D01*
X160895500Y-86969500D01*
X159081189Y-86969500D01*
X159014150Y-86949815D01*
X158993508Y-86933181D01*
X158969863Y-86909536D01*
X158969855Y-86909530D01*
X158895644Y-86866685D01*
X158895640Y-86866683D01*
X158895638Y-86866682D01*
X158812853Y-86844500D01*
X158727147Y-86844500D01*
X158644362Y-86866682D01*
X158644355Y-86866685D01*
X158570144Y-86909530D01*
X158570136Y-86909536D01*
X158509536Y-86970136D01*
X158509530Y-86970144D01*
X158466685Y-87044355D01*
X158466682Y-87044362D01*
X158444500Y-87127147D01*
X158028000Y-87127147D01*
X158028000Y-86247619D01*
X158027999Y-86247616D01*
X158023229Y-86236100D01*
X157997476Y-86173926D01*
X157941074Y-86117524D01*
X157613574Y-85790024D01*
X157611575Y-85789196D01*
X157539883Y-85759500D01*
X157539882Y-85759500D01*
X154115001Y-85759500D01*
X154047962Y-85739815D01*
X154002207Y-85687011D01*
X153992263Y-85617853D01*
X154021288Y-85554297D01*
X154029540Y-85546786D01*
X154029218Y-85546464D01*
X154119196Y-85456485D01*
X154119198Y-85456483D01*
X154170573Y-85351393D01*
X154180500Y-85283260D01*
X154180500Y-84691740D01*
X154173343Y-84642622D01*
X154170573Y-84623607D01*
X154170572Y-84623604D01*
X154162460Y-84607010D01*
X154150700Y-84538137D01*
X154178044Y-84473840D01*
X154186169Y-84464879D01*
X156947821Y-81703228D01*
X157009142Y-81669745D01*
X157078834Y-81674729D01*
X157134767Y-81716601D01*
X157159184Y-81782065D01*
X157159500Y-81790911D01*
X157159500Y-81925331D01*
X157177374Y-81968482D01*
X157190024Y-81999022D01*
X160542075Y-85351072D01*
X160542076Y-85351074D01*
X160598478Y-85407476D01*
X160650585Y-85429059D01*
X160672169Y-85438000D01*
X160672170Y-85438000D01*
X160898378Y-85438000D01*
X160965417Y-85457685D01*
X161011172Y-85510489D01*
X161021082Y-85544122D01*
X161029426Y-85601391D01*
X161080803Y-85706485D01*
X161163514Y-85789196D01*
X161163515Y-85789196D01*
X161163517Y-85789198D01*
X161268607Y-85840573D01*
X161302673Y-85845536D01*
X161336739Y-85850500D01*
X161336740Y-85850500D01*
X162303261Y-85850500D01*
X162325971Y-85847191D01*
X162371393Y-85840573D01*
X162476483Y-85789198D01*
X162559198Y-85706483D01*
X162610573Y-85601393D01*
X162620500Y-85533260D01*
X162620500Y-84941740D01*
X162618917Y-84930878D01*
X162610573Y-84873608D01*
X162610573Y-84873607D01*
X162559198Y-84768517D01*
X162559196Y-84768515D01*
X162559196Y-84768514D01*
X162476485Y-84685803D01*
X162371391Y-84634426D01*
X162303261Y-84624500D01*
X162303260Y-84624500D01*
X161336740Y-84624500D01*
X161336739Y-84624500D01*
X161268608Y-84634426D01*
X161163514Y-84685803D01*
X161080803Y-84768514D01*
X161029426Y-84873608D01*
X161021082Y-84930878D01*
X161006624Y-84962379D01*
X160992091Y-84994203D01*
X160991988Y-84994268D01*
X160991938Y-84994379D01*
X160962686Y-85013099D01*
X160933313Y-85031977D01*
X160933155Y-85031999D01*
X160933088Y-85032043D01*
X160898378Y-85037000D01*
X160846463Y-85037000D01*
X160779424Y-85017315D01*
X160758782Y-85000681D01*
X160462046Y-84703945D01*
X160428561Y-84642622D01*
X160433545Y-84572930D01*
X160475417Y-84516997D01*
X160540881Y-84492580D01*
X160581815Y-84496488D01*
X160634108Y-84510500D01*
X160634111Y-84510500D01*
X160765890Y-84510500D01*
X160765892Y-84510500D01*
X160893186Y-84476392D01*
X161007314Y-84410500D01*
X161100500Y-84317314D01*
X161166392Y-84203186D01*
X161200500Y-84075892D01*
X161200500Y-83944108D01*
X161166392Y-83816814D01*
X161100500Y-83702686D01*
X161009994Y-83612180D01*
X160976509Y-83550857D01*
X160981493Y-83481165D01*
X161023365Y-83425232D01*
X161088829Y-83400815D01*
X161097675Y-83400499D01*
X161421517Y-83400499D01*
X161421518Y-83400499D01*
X161515304Y-83385646D01*
X161628342Y-83328050D01*
X161718050Y-83238342D01*
X161775646Y-83125304D01*
X161775646Y-83125302D01*
X161775647Y-83125301D01*
X161790499Y-83031524D01*
X161790500Y-83031519D01*
X161790499Y-81968482D01*
X161775646Y-81874696D01*
X161718050Y-81761658D01*
X161718046Y-81761654D01*
X161718045Y-81761652D01*
X161628347Y-81671954D01*
X161628344Y-81671952D01*
X161628342Y-81671950D01*
X161528493Y-81621074D01*
X161515301Y-81614352D01*
X161421524Y-81599500D01*
X161421519Y-81599500D01*
X160077965Y-81599500D01*
X160010926Y-81579815D01*
X159990284Y-81563181D01*
X158875819Y-80448716D01*
X158842334Y-80387393D01*
X158839500Y-80361035D01*
X158839500Y-78617436D01*
X158859185Y-78550397D01*
X158911989Y-78504642D01*
X158981147Y-78494698D01*
X159017958Y-78506035D01*
X159088607Y-78540573D01*
X159156739Y-78550500D01*
X159156740Y-78550500D01*
X161423261Y-78550500D01*
X161449073Y-78546739D01*
X161491393Y-78540573D01*
X161596483Y-78489198D01*
X161679198Y-78406483D01*
X161730573Y-78301393D01*
X161740500Y-78233260D01*
X161740500Y-77757000D01*
X161760185Y-77689961D01*
X161812989Y-77644206D01*
X161864500Y-77633000D01*
X162185500Y-77633000D01*
X162252539Y-77652685D01*
X162298294Y-77705489D01*
X162309500Y-77757000D01*
X162309500Y-77815760D01*
X162319426Y-77883891D01*
X162370803Y-77988985D01*
X162453514Y-78071696D01*
X162453515Y-78071696D01*
X162453517Y-78071698D01*
X162558607Y-78123073D01*
X162592673Y-78128036D01*
X162626739Y-78133000D01*
X162626740Y-78133000D01*
X163185500Y-78133000D01*
X163252539Y-78152685D01*
X163298294Y-78205489D01*
X163309500Y-78257000D01*
X163309500Y-79030500D01*
X163289815Y-79097539D01*
X163237011Y-79143294D01*
X163185500Y-79154500D01*
X162761739Y-79154500D01*
X162693608Y-79164426D01*
X162588514Y-79215803D01*
X162505803Y-79298514D01*
X162454426Y-79403608D01*
X162444500Y-79471739D01*
X162444500Y-80428260D01*
X162454426Y-80496391D01*
X162505803Y-80601485D01*
X162588514Y-80684196D01*
X162588515Y-80684196D01*
X162588517Y-80684198D01*
X162693607Y-80735573D01*
X162727673Y-80740536D01*
X162761739Y-80745500D01*
X162761740Y-80745500D01*
X163918261Y-80745500D01*
X163940971Y-80742191D01*
X163986393Y-80735573D01*
X164091483Y-80684198D01*
X164174198Y-80601483D01*
X164225573Y-80496393D01*
X164235500Y-80428260D01*
X164235500Y-79471740D01*
X164225573Y-79403607D01*
X164174198Y-79298517D01*
X164174196Y-79298515D01*
X164174196Y-79298514D01*
X164091485Y-79215803D01*
X163986391Y-79164426D01*
X163918261Y-79154500D01*
X163918260Y-79154500D01*
X163834500Y-79154500D01*
X163767461Y-79134815D01*
X163721706Y-79082011D01*
X163710500Y-79030500D01*
X163710500Y-78257000D01*
X163730185Y-78189961D01*
X163782989Y-78144206D01*
X163834500Y-78133000D01*
X164393261Y-78133000D01*
X164415971Y-78129691D01*
X164461393Y-78123073D01*
X164566483Y-78071698D01*
X164566485Y-78071696D01*
X164611819Y-78026363D01*
X164673142Y-77992878D01*
X164742834Y-77997862D01*
X164798767Y-78039734D01*
X164823184Y-78105198D01*
X164823500Y-78114044D01*
X164823500Y-80340166D01*
X164803815Y-80407205D01*
X164787181Y-80427847D01*
X163796847Y-81418181D01*
X163735524Y-81451666D01*
X163709166Y-81454500D01*
X162970833Y-81454500D01*
X162903794Y-81434815D01*
X162883152Y-81418181D01*
X161424512Y-79959541D01*
X161424507Y-79959537D01*
X161415065Y-79954086D01*
X161415064Y-79954086D01*
X161415062Y-79954085D01*
X161355991Y-79919980D01*
X161355990Y-79919979D01*
X161330513Y-79913152D01*
X161279562Y-79899500D01*
X161279560Y-79899500D01*
X160553744Y-79899500D01*
X160491744Y-79882887D01*
X160485914Y-79879521D01*
X160485913Y-79879520D01*
X160394587Y-79826793D01*
X160292727Y-79799500D01*
X160187273Y-79799500D01*
X160085413Y-79826793D01*
X160085410Y-79826794D01*
X159994085Y-79879521D01*
X159919521Y-79954085D01*
X159866794Y-80045410D01*
X159866793Y-80045413D01*
X159839500Y-80147273D01*
X159839500Y-80252727D01*
X159866793Y-80354587D01*
X159919520Y-80445913D01*
X159994087Y-80520480D01*
X160085413Y-80573207D01*
X160187273Y-80600500D01*
X160187275Y-80600500D01*
X160292725Y-80600500D01*
X160292727Y-80600500D01*
X160394587Y-80573207D01*
X160485913Y-80520480D01*
X160485914Y-80520478D01*
X160491744Y-80517113D01*
X160553744Y-80500500D01*
X161064167Y-80500500D01*
X161131206Y-80520185D01*
X161151848Y-80536819D01*
X162358181Y-81743152D01*
X162391666Y-81804475D01*
X162394500Y-81830833D01*
X162394500Y-82776517D01*
X162398073Y-82799075D01*
X162409354Y-82870304D01*
X162466950Y-82983342D01*
X162466952Y-82983344D01*
X162466954Y-82983347D01*
X162556652Y-83073045D01*
X162556654Y-83073046D01*
X162556658Y-83073050D01*
X162659206Y-83125301D01*
X162669698Y-83130647D01*
X162763475Y-83145499D01*
X162763481Y-83145500D01*
X163916518Y-83145499D01*
X164010304Y-83130646D01*
X164123342Y-83073050D01*
X164213050Y-82983342D01*
X164224893Y-82960098D01*
X171429500Y-82960098D01*
X171429500Y-84679894D01*
X171429501Y-84679902D01*
X171435330Y-84709212D01*
X171457542Y-84742457D01*
X171474219Y-84753599D01*
X171490787Y-84764669D01*
X171490790Y-84764669D01*
X171490791Y-84764670D01*
X171500647Y-84766630D01*
X171520101Y-84770500D01*
X173239898Y-84770499D01*
X173269213Y-84764669D01*
X173302457Y-84742457D01*
X173324669Y-84709213D01*
X173330500Y-84679899D01*
X173330499Y-82960102D01*
X173324669Y-82930787D01*
X173324668Y-82930785D01*
X173302457Y-82897542D01*
X173269214Y-82875332D01*
X173269215Y-82875332D01*
X173269213Y-82875331D01*
X173269211Y-82875330D01*
X173269208Y-82875329D01*
X173239901Y-82869500D01*
X171520105Y-82869500D01*
X171520097Y-82869501D01*
X171490787Y-82875330D01*
X171457542Y-82897542D01*
X171435332Y-82930785D01*
X171435329Y-82930791D01*
X171429500Y-82960098D01*
X164224893Y-82960098D01*
X164270646Y-82870304D01*
X164270646Y-82870302D01*
X164270647Y-82870301D01*
X164281282Y-82803147D01*
X164285500Y-82776519D01*
X164285499Y-81830832D01*
X164305183Y-81763794D01*
X164321818Y-81743152D01*
X164819397Y-81245573D01*
X165364460Y-80700511D01*
X165388825Y-80658309D01*
X165404021Y-80631989D01*
X165424500Y-80555562D01*
X165424500Y-76814333D01*
X165444185Y-76747294D01*
X165460814Y-76726656D01*
X166247819Y-75939651D01*
X166309142Y-75906167D01*
X166378834Y-75911151D01*
X166434767Y-75953023D01*
X166459184Y-76018487D01*
X166459500Y-76027333D01*
X166459500Y-77834019D01*
X166474354Y-77927806D01*
X166531951Y-78040845D01*
X166621654Y-78130548D01*
X166621656Y-78130549D01*
X166621657Y-78130550D01*
X166665099Y-78152685D01*
X166734696Y-78188147D01*
X166828473Y-78202999D01*
X166828479Y-78203000D01*
X172791520Y-78202999D01*
X172885306Y-78188146D01*
X172998343Y-78130550D01*
X173088050Y-78040843D01*
X173145646Y-77927806D01*
X173145646Y-77927804D01*
X173145647Y-77927803D01*
X173160499Y-77834026D01*
X173160500Y-77834021D01*
X173160499Y-72470980D01*
X173145646Y-72377194D01*
X173088050Y-72264157D01*
X173088049Y-72264156D01*
X173088048Y-72264154D01*
X172998345Y-72174451D01*
X172885303Y-72116852D01*
X172791526Y-72102000D01*
X172791521Y-72102000D01*
X167549500Y-72102000D01*
X167482461Y-72082315D01*
X167436706Y-72029511D01*
X167425500Y-71978000D01*
X167425500Y-71132248D01*
X167445185Y-71065209D01*
X167493205Y-71021763D01*
X167500304Y-71018146D01*
X167613342Y-70960550D01*
X167703050Y-70870842D01*
X167760646Y-70757804D01*
X167760646Y-70757802D01*
X167760647Y-70757801D01*
X167775499Y-70664024D01*
X167775500Y-70664019D01*
X167775499Y-69650982D01*
X167760646Y-69557196D01*
X167703050Y-69444158D01*
X167703046Y-69444154D01*
X167703045Y-69444152D01*
X167613347Y-69354454D01*
X167613344Y-69354452D01*
X167613342Y-69354450D01*
X167508204Y-69300879D01*
X167457409Y-69252905D01*
X167440500Y-69190395D01*
X167440500Y-68650439D01*
X167440500Y-68650438D01*
X167431540Y-68617000D01*
X167420022Y-68574012D01*
X167380460Y-68505489D01*
X167094336Y-68219365D01*
X167062242Y-68163777D01*
X167060500Y-68157275D01*
X167060500Y-68157273D01*
X167033207Y-68055413D01*
X166980480Y-67964087D01*
X166905913Y-67889520D01*
X166814587Y-67836793D01*
X166712727Y-67809500D01*
X166607273Y-67809500D01*
X166505413Y-67836793D01*
X166505410Y-67836794D01*
X166414085Y-67889521D01*
X166339521Y-67964085D01*
X166286794Y-68055410D01*
X166286793Y-68055413D01*
X166259500Y-68157273D01*
X166259500Y-68262727D01*
X166281148Y-68343517D01*
X166286793Y-68364586D01*
X166286794Y-68364589D01*
X166291797Y-68373255D01*
X166339520Y-68455913D01*
X166414087Y-68530480D01*
X166505413Y-68583207D01*
X166607273Y-68610500D01*
X166607276Y-68610500D01*
X166613777Y-68612242D01*
X166627664Y-68620259D01*
X166641111Y-68623185D01*
X166669365Y-68644336D01*
X166803181Y-68778152D01*
X166836666Y-68839475D01*
X166839500Y-68865833D01*
X166839500Y-69177583D01*
X166819815Y-69244622D01*
X166767011Y-69290377D01*
X166753827Y-69295511D01*
X166749702Y-69296851D01*
X166749696Y-69296853D01*
X166749696Y-69296854D01*
X166636658Y-69354450D01*
X166636657Y-69354451D01*
X166636652Y-69354454D01*
X166546954Y-69444152D01*
X166546951Y-69444157D01*
X166489352Y-69557198D01*
X166474500Y-69650975D01*
X166474500Y-70664017D01*
X166485292Y-70732157D01*
X166489354Y-70757804D01*
X166546950Y-70870842D01*
X166546952Y-70870844D01*
X166546954Y-70870847D01*
X166636652Y-70960545D01*
X166636656Y-70960548D01*
X166636658Y-70960550D01*
X166749696Y-71018146D01*
X166749699Y-71018146D01*
X166756795Y-71021762D01*
X166807591Y-71069736D01*
X166824500Y-71132247D01*
X166824500Y-71997582D01*
X166804815Y-72064621D01*
X166752011Y-72110376D01*
X166738827Y-72115510D01*
X166734700Y-72116851D01*
X166621654Y-72174451D01*
X166531951Y-72264154D01*
X166474352Y-72377196D01*
X166459500Y-72470973D01*
X166459500Y-74728000D01*
X166439815Y-74795039D01*
X166387011Y-74840794D01*
X166335500Y-74852000D01*
X164879238Y-74852000D01*
X164812199Y-74832315D01*
X164766444Y-74779511D01*
X164756765Y-74747397D01*
X164745647Y-74677200D01*
X164745647Y-74677199D01*
X164745646Y-74677197D01*
X164745646Y-74677196D01*
X164688050Y-74564158D01*
X164688046Y-74564154D01*
X164688045Y-74564152D01*
X164598347Y-74474454D01*
X164598344Y-74474452D01*
X164598342Y-74474450D01*
X164521517Y-74435305D01*
X164485301Y-74416852D01*
X164391524Y-74402000D01*
X162628482Y-74402000D01*
X162547519Y-74414823D01*
X162534696Y-74416854D01*
X162421658Y-74474450D01*
X162421657Y-74474451D01*
X162421652Y-74474454D01*
X162331954Y-74564152D01*
X162331951Y-74564157D01*
X162274352Y-74677198D01*
X162259500Y-74770975D01*
X162259500Y-75534017D01*
X162267380Y-75583767D01*
X162274354Y-75627804D01*
X162331950Y-75740842D01*
X162331952Y-75740844D01*
X162331954Y-75740847D01*
X162421652Y-75830545D01*
X162421654Y-75830546D01*
X162421658Y-75830550D01*
X162534694Y-75888145D01*
X162534698Y-75888147D01*
X162628475Y-75902999D01*
X162628481Y-75903000D01*
X164391518Y-75902999D01*
X164485304Y-75888146D01*
X164598342Y-75830550D01*
X164688050Y-75740842D01*
X164745646Y-75627804D01*
X164750898Y-75594647D01*
X164756766Y-75557601D01*
X164786696Y-75494467D01*
X164846007Y-75457536D01*
X164879239Y-75453000D01*
X165585168Y-75453000D01*
X165652207Y-75472685D01*
X165697962Y-75525489D01*
X165707906Y-75594647D01*
X165678881Y-75658203D01*
X165672849Y-75664681D01*
X164883541Y-76453988D01*
X164883535Y-76453996D01*
X164843982Y-76522505D01*
X164843979Y-76522510D01*
X164823500Y-76598940D01*
X164823500Y-76750956D01*
X164803815Y-76817995D01*
X164751011Y-76863750D01*
X164681853Y-76873694D01*
X164618297Y-76844669D01*
X164611819Y-76838637D01*
X164566485Y-76793303D01*
X164461391Y-76741926D01*
X164393261Y-76732000D01*
X164393260Y-76732000D01*
X162626740Y-76732000D01*
X162626739Y-76732000D01*
X162558608Y-76741926D01*
X162453514Y-76793303D01*
X162370803Y-76876014D01*
X162319426Y-76981108D01*
X162309500Y-77049239D01*
X162309500Y-77108000D01*
X162289815Y-77175039D01*
X162237011Y-77220794D01*
X162185500Y-77232000D01*
X161857251Y-77232000D01*
X161790212Y-77212315D01*
X161744457Y-77159511D01*
X161734547Y-77125879D01*
X161730573Y-77098608D01*
X161706439Y-77049240D01*
X161679198Y-76993517D01*
X161679196Y-76993515D01*
X161679196Y-76993514D01*
X161596485Y-76910803D01*
X161491391Y-76859426D01*
X161423261Y-76849500D01*
X161423260Y-76849500D01*
X159156740Y-76849500D01*
X159156739Y-76849500D01*
X159088608Y-76859426D01*
X159017960Y-76893964D01*
X158949087Y-76905722D01*
X158884790Y-76878379D01*
X158845483Y-76820615D01*
X158839500Y-76782563D01*
X158839500Y-71181465D01*
X158859185Y-71114426D01*
X158875819Y-71093784D01*
X162647785Y-67321818D01*
X162709108Y-67288333D01*
X162735466Y-67285499D01*
X163191517Y-67285499D01*
X163191518Y-67285499D01*
X163285304Y-67270646D01*
X163398342Y-67213050D01*
X163488050Y-67123342D01*
X163545646Y-67010304D01*
X163545646Y-67010302D01*
X163545647Y-67010301D01*
X163560499Y-66916524D01*
X163560500Y-66916519D01*
X163560499Y-66328482D01*
X163545646Y-66234696D01*
X163488050Y-66121658D01*
X163488046Y-66121654D01*
X163488045Y-66121652D01*
X163398347Y-66031954D01*
X163398344Y-66031952D01*
X163398342Y-66031950D01*
X163321517Y-65992805D01*
X163285301Y-65974352D01*
X163191524Y-65959500D01*
X163191519Y-65959500D01*
X162735465Y-65959500D01*
X162668426Y-65939815D01*
X162647784Y-65923181D01*
X162346784Y-65622181D01*
X162313299Y-65560858D01*
X162318283Y-65491166D01*
X162360155Y-65435233D01*
X162425619Y-65410816D01*
X162434465Y-65410500D01*
X163193261Y-65410500D01*
X163215971Y-65407191D01*
X163261393Y-65400573D01*
X163366483Y-65349198D01*
X163449198Y-65266483D01*
X163500573Y-65161393D01*
X163510010Y-65096619D01*
X163539154Y-65033122D01*
X163598002Y-64995458D01*
X163632714Y-64990500D01*
X163885200Y-64990500D01*
X163952239Y-65010185D01*
X163997994Y-65062989D01*
X164007903Y-65096616D01*
X164012784Y-65130116D01*
X164014427Y-65141394D01*
X164065803Y-65246485D01*
X164148514Y-65329196D01*
X164148515Y-65329196D01*
X164148517Y-65329198D01*
X164253607Y-65380573D01*
X164287673Y-65385536D01*
X164321739Y-65390500D01*
X164321740Y-65390500D01*
X165338261Y-65390500D01*
X165360971Y-65387191D01*
X165406393Y-65380573D01*
X165511483Y-65329198D01*
X165594198Y-65246483D01*
X165645573Y-65141393D01*
X165655500Y-65073260D01*
X165655500Y-64506740D01*
X165654771Y-64501740D01*
X165645573Y-64438608D01*
X165643129Y-64433608D01*
X165594198Y-64333517D01*
X165594196Y-64333515D01*
X165594196Y-64333514D01*
X165511485Y-64250803D01*
X165406391Y-64199426D01*
X165338261Y-64189500D01*
X165338260Y-64189500D01*
X165094500Y-64189500D01*
X165027461Y-64169815D01*
X164981706Y-64117011D01*
X164970500Y-64065500D01*
X164970500Y-60819500D01*
X164990185Y-60752461D01*
X165042989Y-60706706D01*
X165094500Y-60695500D01*
X165253261Y-60695500D01*
X165275971Y-60692191D01*
X165321393Y-60685573D01*
X165426483Y-60634198D01*
X165509198Y-60551483D01*
X165560573Y-60446393D01*
X165570500Y-60378260D01*
X165570500Y-59786740D01*
X165560573Y-59718607D01*
X165509198Y-59613517D01*
X165509196Y-59613515D01*
X165509196Y-59613514D01*
X165426485Y-59530803D01*
X165321391Y-59479426D01*
X165253261Y-59469500D01*
X165253260Y-59469500D01*
X164286740Y-59469500D01*
X164286739Y-59469500D01*
X164218608Y-59479426D01*
X164113514Y-59530803D01*
X164030803Y-59613514D01*
X163979426Y-59718608D01*
X163969500Y-59786739D01*
X163969500Y-60378260D01*
X163979426Y-60446391D01*
X164030803Y-60551485D01*
X164113514Y-60634196D01*
X164113515Y-60634196D01*
X164113517Y-60634198D01*
X164218607Y-60685573D01*
X164252673Y-60690536D01*
X164286739Y-60695500D01*
X164286740Y-60695500D01*
X164445500Y-60695500D01*
X164512539Y-60715185D01*
X164558294Y-60767989D01*
X164569500Y-60819500D01*
X164569500Y-64065500D01*
X164549815Y-64132539D01*
X164497011Y-64178294D01*
X164445500Y-64189500D01*
X164321739Y-64189500D01*
X164253608Y-64199426D01*
X164148514Y-64250803D01*
X164065803Y-64333514D01*
X164014427Y-64438605D01*
X164014427Y-64438607D01*
X164007903Y-64483380D01*
X163978761Y-64546878D01*
X163919912Y-64584542D01*
X163885200Y-64589500D01*
X163630529Y-64589500D01*
X163563490Y-64569815D01*
X163517735Y-64517011D01*
X163507825Y-64483378D01*
X163501302Y-64438608D01*
X163500573Y-64433607D01*
X163449198Y-64328517D01*
X163449196Y-64328515D01*
X163449196Y-64328514D01*
X163366485Y-64245803D01*
X163261391Y-64194426D01*
X163193261Y-64184500D01*
X163193260Y-64184500D01*
X163034500Y-64184500D01*
X162967461Y-64164815D01*
X162921706Y-64112011D01*
X162910500Y-64060500D01*
X162910500Y-63060119D01*
X162910499Y-63060116D01*
X162899286Y-63033045D01*
X162879976Y-62986426D01*
X162823574Y-62930024D01*
X162363574Y-62470024D01*
X162289883Y-62439500D01*
X162289882Y-62439500D01*
X158163443Y-62439500D01*
X158096404Y-62419815D01*
X158050649Y-62367011D01*
X158040705Y-62297853D01*
X158069730Y-62234297D01*
X158075762Y-62227819D01*
X158083039Y-62220541D01*
X158116476Y-62170500D01*
X158124592Y-62158354D01*
X158124592Y-62158352D01*
X158124593Y-62158352D01*
X158135499Y-62103520D01*
X158135500Y-62103518D01*
X158135500Y-60616481D01*
X158135499Y-60616479D01*
X158124593Y-60561647D01*
X158124592Y-60561646D01*
X158083039Y-60499458D01*
X158045608Y-60474447D01*
X158000803Y-60420834D01*
X157990500Y-60371346D01*
X157990500Y-58946913D01*
X158010185Y-58879874D01*
X158026819Y-58859232D01*
X158074976Y-58811075D01*
X158105500Y-58737383D01*
X158105500Y-58657618D01*
X158105500Y-58499967D01*
X158114144Y-58470526D01*
X158120668Y-58440540D01*
X158124422Y-58435524D01*
X158125185Y-58432928D01*
X158141819Y-58412286D01*
X158142319Y-58411786D01*
X158203642Y-58378301D01*
X158273334Y-58383285D01*
X158298963Y-58399756D01*
X158300293Y-58397767D01*
X158376769Y-58448867D01*
X158376770Y-58448868D01*
X158435247Y-58460499D01*
X158435250Y-58460500D01*
X158435252Y-58460500D01*
X158674750Y-58460500D01*
X158674751Y-58460499D01*
X158689568Y-58457552D01*
X158733229Y-58448868D01*
X158733229Y-58448867D01*
X158733231Y-58448867D01*
X158799552Y-58404552D01*
X158843867Y-58338231D01*
X158843867Y-58338229D01*
X158843868Y-58338229D01*
X158855499Y-58279752D01*
X158855500Y-58279750D01*
X158855500Y-57961739D01*
X163969500Y-57961739D01*
X163969500Y-58553260D01*
X163979426Y-58621391D01*
X164030803Y-58726485D01*
X164113514Y-58809196D01*
X164113515Y-58809196D01*
X164113517Y-58809198D01*
X164218607Y-58860573D01*
X164252673Y-58865536D01*
X164286739Y-58870500D01*
X164286740Y-58870500D01*
X165253261Y-58870500D01*
X165275971Y-58867191D01*
X165321393Y-58860573D01*
X165426483Y-58809198D01*
X165509198Y-58726483D01*
X165560573Y-58621393D01*
X165565538Y-58587316D01*
X165568918Y-58564122D01*
X165598062Y-58500621D01*
X165656912Y-58462957D01*
X165691622Y-58458000D01*
X166295500Y-58458000D01*
X166362539Y-58477685D01*
X166408294Y-58530489D01*
X166419500Y-58582000D01*
X166419500Y-59289894D01*
X166419501Y-59289902D01*
X166425330Y-59319212D01*
X166447542Y-59352457D01*
X166464219Y-59363599D01*
X166480787Y-59374669D01*
X166480790Y-59374669D01*
X166480791Y-59374670D01*
X166490647Y-59376630D01*
X166510101Y-59380500D01*
X166895500Y-59380499D01*
X166962539Y-59400183D01*
X167008294Y-59452987D01*
X167019500Y-59504499D01*
X167019500Y-65455500D01*
X166999815Y-65522539D01*
X166947011Y-65568294D01*
X166895500Y-65579500D01*
X166510105Y-65579500D01*
X166510097Y-65579501D01*
X166480787Y-65585330D01*
X166447542Y-65607542D01*
X166425332Y-65640785D01*
X166425329Y-65640791D01*
X166419500Y-65670098D01*
X166419500Y-67289894D01*
X166419501Y-67289902D01*
X166425330Y-67319212D01*
X166447542Y-67352457D01*
X166464219Y-67363599D01*
X166480787Y-67374669D01*
X166480790Y-67374669D01*
X166480791Y-67374670D01*
X166490647Y-67376630D01*
X166510101Y-67380500D01*
X167929898Y-67380499D01*
X167959213Y-67374669D01*
X167992457Y-67352457D01*
X168014669Y-67319213D01*
X168020500Y-67289899D01*
X168020499Y-65670102D01*
X168014669Y-65640787D01*
X168014668Y-65640785D01*
X167992457Y-65607542D01*
X167959214Y-65585332D01*
X167959215Y-65585332D01*
X167959213Y-65585331D01*
X167959211Y-65585330D01*
X167959208Y-65585329D01*
X167929901Y-65579500D01*
X167929899Y-65579500D01*
X167544500Y-65579500D01*
X167477461Y-65559815D01*
X167431706Y-65507011D01*
X167420500Y-65455500D01*
X167420500Y-59504499D01*
X167440185Y-59437460D01*
X167492989Y-59391705D01*
X167544500Y-59380499D01*
X167929895Y-59380499D01*
X167929898Y-59380499D01*
X167959213Y-59374669D01*
X167992457Y-59352457D01*
X168014669Y-59319213D01*
X168020500Y-59289899D01*
X168020499Y-57670102D01*
X168014669Y-57640787D01*
X168014668Y-57640785D01*
X167992457Y-57607542D01*
X167959214Y-57585332D01*
X167959215Y-57585332D01*
X167959213Y-57585331D01*
X167959211Y-57585330D01*
X167959208Y-57585329D01*
X167929901Y-57579500D01*
X166510105Y-57579500D01*
X166510097Y-57579501D01*
X166480787Y-57585330D01*
X166447542Y-57607542D01*
X166425332Y-57640785D01*
X166425329Y-57640791D01*
X166419500Y-57670098D01*
X166419500Y-57933000D01*
X166399815Y-58000039D01*
X166347011Y-58045794D01*
X166295500Y-58057000D01*
X165691622Y-58057000D01*
X165624583Y-58037315D01*
X165578828Y-57984511D01*
X165568918Y-57950878D01*
X165560573Y-57893608D01*
X165560573Y-57893607D01*
X165509198Y-57788517D01*
X165509196Y-57788515D01*
X165509196Y-57788514D01*
X165426485Y-57705803D01*
X165321391Y-57654426D01*
X165253261Y-57644500D01*
X165253260Y-57644500D01*
X164286740Y-57644500D01*
X164286739Y-57644500D01*
X164218608Y-57654426D01*
X164113514Y-57705803D01*
X164030803Y-57788514D01*
X163979426Y-57893608D01*
X163969500Y-57961739D01*
X158855500Y-57961739D01*
X158855500Y-57090249D01*
X158855499Y-57090247D01*
X158843868Y-57031770D01*
X158843867Y-57031769D01*
X158799552Y-56965447D01*
X158733230Y-56921132D01*
X158733229Y-56921131D01*
X158674752Y-56909500D01*
X158674748Y-56909500D01*
X158435252Y-56909500D01*
X158435247Y-56909500D01*
X158376770Y-56921131D01*
X158376769Y-56921132D01*
X158300293Y-56972233D01*
X158298078Y-56968918D01*
X158256358Y-56991699D01*
X158186666Y-56986715D01*
X158161036Y-56970243D01*
X158159707Y-56972233D01*
X158083230Y-56921132D01*
X158083229Y-56921131D01*
X158024752Y-56909500D01*
X158024748Y-56909500D01*
X157785252Y-56909500D01*
X157785247Y-56909500D01*
X157726770Y-56921131D01*
X157726769Y-56921132D01*
X157650293Y-56972233D01*
X157648078Y-56968918D01*
X157606358Y-56991699D01*
X157536666Y-56986715D01*
X157511036Y-56970243D01*
X157509707Y-56972233D01*
X157433230Y-56921132D01*
X157433229Y-56921131D01*
X157374752Y-56909500D01*
X157374748Y-56909500D01*
X157135252Y-56909500D01*
X157135247Y-56909500D01*
X157076770Y-56921131D01*
X157076769Y-56921132D01*
X157000293Y-56972233D01*
X156998078Y-56968918D01*
X156956358Y-56991699D01*
X156886666Y-56986715D01*
X156861036Y-56970243D01*
X156859707Y-56972233D01*
X156783230Y-56921132D01*
X156783229Y-56921131D01*
X156724752Y-56909500D01*
X156724748Y-56909500D01*
X156485252Y-56909500D01*
X156485247Y-56909500D01*
X156426770Y-56921131D01*
X156426769Y-56921132D01*
X156360447Y-56965447D01*
X156316132Y-57031769D01*
X156316131Y-57031770D01*
X156304500Y-57090247D01*
X156304500Y-58279749D01*
X156307696Y-58295818D01*
X156301467Y-58365410D01*
X156273759Y-58407688D01*
X155125768Y-59555681D01*
X155064445Y-59589166D01*
X155038087Y-59592000D01*
X151810249Y-59592000D01*
X151743210Y-59572315D01*
X151697455Y-59519511D01*
X151687310Y-59484187D01*
X151683900Y-59458277D01*
X151683897Y-59458270D01*
X151683897Y-59458269D01*
X151632597Y-59348255D01*
X151632593Y-59348249D01*
X151546750Y-59262406D01*
X151546744Y-59262402D01*
X151436729Y-59211102D01*
X151436724Y-59211100D01*
X151436723Y-59211100D01*
X151436720Y-59211099D01*
X151436718Y-59211099D01*
X151386601Y-59204501D01*
X151386596Y-59204500D01*
X151386591Y-59204500D01*
X151386584Y-59204500D01*
X150393407Y-59204500D01*
X150343280Y-59211099D01*
X150343269Y-59211102D01*
X150233255Y-59262402D01*
X150233249Y-59262406D01*
X150147406Y-59348249D01*
X150147402Y-59348255D01*
X150096102Y-59458270D01*
X150096099Y-59458281D01*
X150089501Y-59508398D01*
X150089500Y-59508415D01*
X150089500Y-60076592D01*
X150096099Y-60126719D01*
X150096102Y-60126730D01*
X150147402Y-60236744D01*
X150147406Y-60236750D01*
X150233250Y-60322594D01*
X150233251Y-60322594D01*
X150233255Y-60322597D01*
X150343270Y-60373897D01*
X150343271Y-60373897D01*
X150343277Y-60373900D01*
X150393409Y-60380500D01*
X151386590Y-60380499D01*
X151386592Y-60380499D01*
X151403600Y-60378260D01*
X151436723Y-60373900D01*
X151436728Y-60373897D01*
X151436730Y-60373897D01*
X151546744Y-60322597D01*
X151546745Y-60322596D01*
X151546750Y-60322594D01*
X151632594Y-60236750D01*
X151683900Y-60126723D01*
X151687311Y-60100815D01*
X151715577Y-60036919D01*
X151773901Y-59998447D01*
X151810250Y-59993000D01*
X155212379Y-59993000D01*
X155212381Y-59993000D01*
X155286073Y-59962476D01*
X156774976Y-58473573D01*
X156774976Y-58473571D01*
X156781759Y-58463421D01*
X156784173Y-58465033D01*
X156790407Y-58450422D01*
X156814171Y-58428918D01*
X156815397Y-58427397D01*
X156816491Y-58426646D01*
X156816796Y-58426438D01*
X156849552Y-58404552D01*
X156849977Y-58403915D01*
X156860357Y-58396870D01*
X156882858Y-58389643D01*
X156903598Y-58378309D01*
X156915509Y-58379156D01*
X156926880Y-58375505D01*
X156949718Y-58381591D01*
X156973291Y-58383269D01*
X156985538Y-58391137D01*
X156994394Y-58393497D01*
X157001715Y-58401529D01*
X157017680Y-58411785D01*
X157018181Y-58412286D01*
X157028132Y-58430510D01*
X157041462Y-58445134D01*
X157043868Y-58459329D01*
X157051666Y-58473609D01*
X157054500Y-58499967D01*
X157054500Y-58737384D01*
X157085024Y-58811075D01*
X157148181Y-58874232D01*
X157181666Y-58935555D01*
X157184500Y-58961913D01*
X157184500Y-60401415D01*
X157164815Y-60468454D01*
X157144206Y-60489435D01*
X157145595Y-60490824D01*
X157136960Y-60499458D01*
X157095407Y-60561646D01*
X157095406Y-60561647D01*
X157084500Y-60616479D01*
X157084500Y-62103520D01*
X157095406Y-62158352D01*
X157095407Y-62158353D01*
X157136960Y-62220541D01*
X157144238Y-62227819D01*
X157177723Y-62289142D01*
X157172739Y-62358834D01*
X157130867Y-62414767D01*
X157065403Y-62439184D01*
X157056557Y-62439500D01*
X156663442Y-62439500D01*
X156596403Y-62419815D01*
X156550648Y-62367011D01*
X156540704Y-62297853D01*
X156569729Y-62234297D01*
X156575761Y-62227819D01*
X156583036Y-62220542D01*
X156583040Y-62220540D01*
X156624592Y-62158354D01*
X156624592Y-62158353D01*
X156624593Y-62158352D01*
X156635499Y-62103520D01*
X156635500Y-62103518D01*
X156635500Y-60616481D01*
X156635499Y-60616479D01*
X156624593Y-60561647D01*
X156624592Y-60561646D01*
X156583040Y-60499459D01*
X156520853Y-60457907D01*
X156520852Y-60457906D01*
X156466020Y-60447000D01*
X156466016Y-60447000D01*
X156253984Y-60447000D01*
X156253979Y-60447000D01*
X156199148Y-60457906D01*
X156187599Y-60465623D01*
X156178890Y-60471442D01*
X156112214Y-60492320D01*
X156044834Y-60473836D01*
X156041127Y-60471454D01*
X156020854Y-60457908D01*
X156020852Y-60457907D01*
X156020850Y-60457906D01*
X156020852Y-60457906D01*
X155966020Y-60447000D01*
X155966016Y-60447000D01*
X155753984Y-60447000D01*
X155753979Y-60447000D01*
X155699147Y-60457906D01*
X155699146Y-60457907D01*
X155636959Y-60499459D01*
X155595407Y-60561646D01*
X155595406Y-60561647D01*
X155584500Y-60616479D01*
X155584500Y-62103520D01*
X155595406Y-62158352D01*
X155595407Y-62158353D01*
X155636959Y-62220540D01*
X155657373Y-62234180D01*
X155699146Y-62262092D01*
X155711590Y-62264567D01*
X155773501Y-62296952D01*
X155808076Y-62357667D01*
X155804337Y-62427437D01*
X155775081Y-62473866D01*
X154005768Y-64243181D01*
X153944445Y-64276666D01*
X153918087Y-64279500D01*
X149704500Y-64279500D01*
X149637461Y-64259815D01*
X149591706Y-64207011D01*
X149580500Y-64155500D01*
X149580500Y-63971739D01*
X149570573Y-63903608D01*
X149568565Y-63899500D01*
X149519198Y-63798517D01*
X149519196Y-63798515D01*
X149519196Y-63798514D01*
X149436485Y-63715803D01*
X149331391Y-63664426D01*
X149263261Y-63654500D01*
X149263260Y-63654500D01*
X148696740Y-63654500D01*
X148696739Y-63654500D01*
X148628608Y-63664426D01*
X148523514Y-63715803D01*
X148440803Y-63798514D01*
X148389426Y-63903608D01*
X148379500Y-63971739D01*
X148379500Y-64988260D01*
X148389426Y-65056391D01*
X148389427Y-65056393D01*
X148440758Y-65161394D01*
X148440803Y-65161485D01*
X148497137Y-65217819D01*
X148530622Y-65279142D01*
X148525638Y-65348834D01*
X148483766Y-65404767D01*
X148418302Y-65429184D01*
X148409456Y-65429500D01*
X147650544Y-65429500D01*
X147583505Y-65409815D01*
X147537750Y-65357011D01*
X147527806Y-65287853D01*
X147556831Y-65224297D01*
X147562863Y-65217819D01*
X147619196Y-65161485D01*
X147619198Y-65161483D01*
X147670573Y-65056393D01*
X147680500Y-64988260D01*
X147680500Y-63971740D01*
X147670573Y-63903607D01*
X147619198Y-63798517D01*
X147619196Y-63798515D01*
X147619196Y-63798514D01*
X147536485Y-63715803D01*
X147431391Y-63664426D01*
X147363261Y-63654500D01*
X147363260Y-63654500D01*
X146796740Y-63654500D01*
X146796739Y-63654500D01*
X146728608Y-63664426D01*
X146623514Y-63715803D01*
X146540803Y-63798514D01*
X146489426Y-63903608D01*
X146479500Y-63971739D01*
X146479500Y-64155500D01*
X146459815Y-64222539D01*
X146407011Y-64268294D01*
X146355500Y-64279500D01*
X145020116Y-64279500D01*
X144946425Y-64310024D01*
X144946424Y-64310025D01*
X144890559Y-64365891D01*
X144890024Y-64366426D01*
X144890023Y-64366427D01*
X144564744Y-64691706D01*
X144238985Y-65017464D01*
X144200024Y-65056425D01*
X144169500Y-65130116D01*
X144169500Y-69089883D01*
X144195115Y-69151723D01*
X144200024Y-69163574D01*
X145150024Y-70113574D01*
X145206426Y-70169976D01*
X145280118Y-70200500D01*
X153645588Y-70200500D01*
X153712627Y-70220185D01*
X153733269Y-70236819D01*
X154553181Y-71056731D01*
X154586666Y-71118054D01*
X154589500Y-71144412D01*
X154589500Y-81285588D01*
X154569815Y-81352627D01*
X154553181Y-81373269D01*
X152070025Y-83856424D01*
X152070024Y-83856425D01*
X152039500Y-83930116D01*
X152039500Y-83930118D01*
X152039500Y-85640118D01*
X152039500Y-85719882D01*
X152070024Y-85793574D01*
X152350024Y-86073574D01*
X152406426Y-86129976D01*
X152480118Y-86160500D01*
X152531629Y-86160500D01*
X152560417Y-86168953D01*
X152589802Y-86174993D01*
X152593588Y-86178693D01*
X152598668Y-86180185D01*
X152618309Y-86202852D01*
X152639772Y-86223827D01*
X152640957Y-86228989D01*
X152644423Y-86232989D01*
X152648692Y-86262683D01*
X152655406Y-86291925D01*
X152653783Y-86298090D01*
X152654367Y-86302147D01*
X152648301Y-86326497D01*
X152642946Y-86341372D01*
X152640802Y-86343517D01*
X152589427Y-86448607D01*
X152579500Y-86516740D01*
X152579500Y-86517634D01*
X152575050Y-86529997D01*
X152561509Y-86548524D01*
X152551938Y-86569379D01*
X152541284Y-86576196D01*
X152533823Y-86586407D01*
X152512417Y-86594672D01*
X152493088Y-86607043D01*
X152472918Y-86609923D01*
X152468644Y-86611574D01*
X152465658Y-86610960D01*
X152458378Y-86612000D01*
X152139499Y-86612000D01*
X152072460Y-86592315D01*
X152026705Y-86539511D01*
X152015499Y-86488000D01*
X152015499Y-86403407D01*
X152011174Y-86370550D01*
X152008900Y-86353277D01*
X152008897Y-86353270D01*
X152008897Y-86353269D01*
X151957597Y-86243255D01*
X151957593Y-86243249D01*
X151871750Y-86157406D01*
X151871744Y-86157402D01*
X151761729Y-86106102D01*
X151761724Y-86106100D01*
X151761723Y-86106100D01*
X151761720Y-86106099D01*
X151761718Y-86106099D01*
X151711601Y-86099501D01*
X151711596Y-86099500D01*
X151711591Y-86099500D01*
X151711584Y-86099500D01*
X151143407Y-86099500D01*
X151093280Y-86106099D01*
X151093269Y-86106102D01*
X150983255Y-86157402D01*
X150983249Y-86157406D01*
X150897406Y-86243249D01*
X150897402Y-86243255D01*
X150846102Y-86353270D01*
X150846099Y-86353281D01*
X150839501Y-86403398D01*
X150839500Y-86403412D01*
X150839500Y-87396592D01*
X150846099Y-87446719D01*
X150846102Y-87446730D01*
X150897402Y-87556744D01*
X150897406Y-87556750D01*
X150983250Y-87642594D01*
X150983251Y-87642594D01*
X150983255Y-87642597D01*
X151093270Y-87693897D01*
X151093271Y-87693897D01*
X151093277Y-87693900D01*
X151143409Y-87700500D01*
X151711590Y-87700499D01*
X151711592Y-87700499D01*
X151728301Y-87698299D01*
X151761723Y-87693900D01*
X151761728Y-87693897D01*
X151761730Y-87693897D01*
X151871744Y-87642597D01*
X151871745Y-87642596D01*
X151871750Y-87642594D01*
X151957594Y-87556750D01*
X152008900Y-87446723D01*
X152015500Y-87396591D01*
X152015500Y-87137000D01*
X152035185Y-87069961D01*
X152087989Y-87024206D01*
X152139500Y-87013000D01*
X152458378Y-87013000D01*
X152525417Y-87032685D01*
X152571172Y-87085489D01*
X152581082Y-87119122D01*
X152589426Y-87176391D01*
X152640803Y-87281485D01*
X152723514Y-87364196D01*
X152723515Y-87364196D01*
X152723517Y-87364198D01*
X152828607Y-87415573D01*
X152862673Y-87420536D01*
X152896739Y-87425500D01*
X152896740Y-87425500D01*
X153658088Y-87425500D01*
X153725127Y-87445185D01*
X153745769Y-87461819D01*
X156291769Y-90007819D01*
X156325254Y-90069142D01*
X156320270Y-90138834D01*
X156278398Y-90194767D01*
X156212934Y-90219184D01*
X156204088Y-90219500D01*
X154294730Y-90219500D01*
X154227691Y-90199815D01*
X154181936Y-90147011D01*
X154171992Y-90077853D01*
X154187344Y-90033499D01*
X154216389Y-89983191D01*
X154216388Y-89983191D01*
X154216392Y-89983186D01*
X154250500Y-89855892D01*
X154250500Y-89724108D01*
X154216392Y-89596814D01*
X154215518Y-89595301D01*
X154201714Y-89571391D01*
X154150500Y-89482686D01*
X154057314Y-89389500D01*
X153982822Y-89346492D01*
X153943183Y-89323606D01*
X153935672Y-89320495D01*
X153936224Y-89319160D01*
X153888990Y-89291886D01*
X153236616Y-88639513D01*
X153236614Y-88639511D01*
X153156946Y-88593514D01*
X153133888Y-88580201D01*
X153121780Y-88576957D01*
X153109673Y-88573713D01*
X153109670Y-88573712D01*
X153064661Y-88561652D01*
X153019309Y-88549500D01*
X153019308Y-88549500D01*
X152193151Y-88549500D01*
X152126112Y-88529815D01*
X152080357Y-88477011D01*
X152070677Y-88444892D01*
X152070646Y-88444698D01*
X152070646Y-88444696D01*
X152013050Y-88331658D01*
X152013046Y-88331654D01*
X152013045Y-88331652D01*
X151923347Y-88241954D01*
X151923344Y-88241952D01*
X151923342Y-88241950D01*
X151846517Y-88202805D01*
X151810301Y-88184352D01*
X151716524Y-88169500D01*
X151128482Y-88169500D01*
X151047519Y-88182323D01*
X151034696Y-88184354D01*
X150921658Y-88241950D01*
X150921657Y-88241951D01*
X150921652Y-88241954D01*
X150831954Y-88331652D01*
X150831951Y-88331657D01*
X150831950Y-88331658D01*
X150815717Y-88363517D01*
X150774352Y-88444698D01*
X150759500Y-88538475D01*
X150759500Y-89501517D01*
X150767987Y-89555102D01*
X150774354Y-89595304D01*
X150831950Y-89708342D01*
X150831952Y-89708344D01*
X150831954Y-89708347D01*
X150921652Y-89798045D01*
X150921654Y-89798046D01*
X150921658Y-89798050D01*
X151034694Y-89855645D01*
X151034698Y-89855647D01*
X151128475Y-89870499D01*
X151128481Y-89870500D01*
X151716518Y-89870499D01*
X151810304Y-89855646D01*
X151923342Y-89798050D01*
X152013050Y-89708342D01*
X152070646Y-89595304D01*
X152070646Y-89595302D01*
X152070647Y-89595301D01*
X152077014Y-89555102D01*
X152106943Y-89491967D01*
X152166255Y-89455036D01*
X152199487Y-89450500D01*
X152722035Y-89450500D01*
X152789074Y-89470185D01*
X152809715Y-89486818D01*
X153031238Y-89708342D01*
X153251886Y-89928990D01*
X153274178Y-89959382D01*
X153280461Y-89971443D01*
X153283608Y-89983186D01*
X153314007Y-90035839D01*
X153315243Y-90038211D01*
X153321502Y-90069960D01*
X153329130Y-90101400D01*
X153328219Y-90104030D01*
X153328758Y-90106761D01*
X153316858Y-90136854D01*
X153306277Y-90167427D01*
X153304089Y-90169147D01*
X153303066Y-90171736D01*
X153276792Y-90190614D01*
X153251356Y-90210618D01*
X153248071Y-90211250D01*
X153246325Y-90212506D01*
X153239803Y-90212844D01*
X153205270Y-90219500D01*
X149084412Y-90219500D01*
X149017373Y-90199815D01*
X148996731Y-90183181D01*
X145216962Y-86403412D01*
X148964500Y-86403412D01*
X148964500Y-87396592D01*
X148971099Y-87446719D01*
X148971102Y-87446730D01*
X149022402Y-87556744D01*
X149022406Y-87556750D01*
X149108250Y-87642594D01*
X149108251Y-87642594D01*
X149108255Y-87642597D01*
X149218270Y-87693897D01*
X149218271Y-87693897D01*
X149218277Y-87693900D01*
X149268409Y-87700500D01*
X149272989Y-87700499D01*
X149340027Y-87720176D01*
X149385788Y-87772974D01*
X149397000Y-87824499D01*
X149397000Y-88098378D01*
X149377315Y-88165417D01*
X149324511Y-88211172D01*
X149290878Y-88221082D01*
X149233608Y-88229426D01*
X149128514Y-88280803D01*
X149045803Y-88363514D01*
X148994426Y-88468608D01*
X148984500Y-88536739D01*
X148984500Y-89503260D01*
X148994426Y-89571391D01*
X149045803Y-89676485D01*
X149128514Y-89759196D01*
X149128515Y-89759196D01*
X149128517Y-89759198D01*
X149233607Y-89810573D01*
X149267673Y-89815536D01*
X149301739Y-89820500D01*
X149301740Y-89820500D01*
X149893261Y-89820500D01*
X149915971Y-89817191D01*
X149961393Y-89810573D01*
X150066483Y-89759198D01*
X150149198Y-89676483D01*
X150200573Y-89571393D01*
X150210500Y-89503260D01*
X150210500Y-88536740D01*
X150200573Y-88468607D01*
X150149198Y-88363517D01*
X150149196Y-88363515D01*
X150149196Y-88363514D01*
X150066485Y-88280803D01*
X149961391Y-88229426D01*
X149904122Y-88221082D01*
X149840621Y-88191938D01*
X149802957Y-88133088D01*
X149798000Y-88098378D01*
X149798000Y-87812777D01*
X149817685Y-87745738D01*
X149870489Y-87699983D01*
X149886236Y-87694127D01*
X149996744Y-87642597D01*
X149996745Y-87642596D01*
X149996750Y-87642594D01*
X150082594Y-87556750D01*
X150133900Y-87446723D01*
X150140500Y-87396591D01*
X150140499Y-86403410D01*
X150140497Y-86403398D01*
X150136174Y-86370550D01*
X150133900Y-86353277D01*
X150133897Y-86353270D01*
X150133897Y-86353269D01*
X150082597Y-86243255D01*
X150082593Y-86243249D01*
X149996750Y-86157406D01*
X149996744Y-86157402D01*
X149886729Y-86106102D01*
X149886724Y-86106100D01*
X149886723Y-86106100D01*
X149886720Y-86106099D01*
X149886718Y-86106099D01*
X149836601Y-86099501D01*
X149836596Y-86099500D01*
X149836591Y-86099500D01*
X149836584Y-86099500D01*
X149268407Y-86099500D01*
X149218280Y-86106099D01*
X149218269Y-86106102D01*
X149108255Y-86157402D01*
X149108249Y-86157406D01*
X149022406Y-86243249D01*
X149022402Y-86243255D01*
X148971102Y-86353270D01*
X148971099Y-86353281D01*
X148964501Y-86403398D01*
X148964500Y-86403412D01*
X145216962Y-86403412D01*
X143795730Y-84982180D01*
X143762245Y-84920857D01*
X143767229Y-84851165D01*
X143809101Y-84795232D01*
X143874565Y-84770815D01*
X143883411Y-84770499D01*
X144259895Y-84770499D01*
X144259898Y-84770499D01*
X144289213Y-84764669D01*
X144322457Y-84742457D01*
X144344669Y-84709213D01*
X144350500Y-84679899D01*
X144350499Y-82960102D01*
X144344669Y-82930787D01*
X144344668Y-82930785D01*
X144322457Y-82897542D01*
X144289214Y-82875332D01*
X144289215Y-82875332D01*
X144289213Y-82875331D01*
X144289211Y-82875330D01*
X144289208Y-82875329D01*
X144259901Y-82869500D01*
X142540105Y-82869500D01*
X142540097Y-82869501D01*
X142510787Y-82875330D01*
X142477542Y-82897542D01*
X142455332Y-82930785D01*
X142455329Y-82930791D01*
X142449500Y-82960098D01*
X142449500Y-84679894D01*
X142449501Y-84679902D01*
X142455330Y-84709212D01*
X142477542Y-84742457D01*
X142494219Y-84753599D01*
X142510787Y-84764669D01*
X142510790Y-84764669D01*
X142510791Y-84764670D01*
X142520647Y-84766630D01*
X142540101Y-84770500D01*
X143075500Y-84770499D01*
X143142539Y-84790183D01*
X143188294Y-84842987D01*
X143199500Y-84894499D01*
X143199500Y-84909883D01*
X143230024Y-84983574D01*
X143444269Y-85197819D01*
X143477754Y-85259142D01*
X143472770Y-85328834D01*
X143430898Y-85384767D01*
X143365434Y-85409184D01*
X143356588Y-85409500D01*
X143306379Y-85409500D01*
X143122756Y-85446025D01*
X143122748Y-85446027D01*
X142949771Y-85517676D01*
X142949762Y-85517681D01*
X142794092Y-85621697D01*
X142794088Y-85621700D01*
X142661700Y-85754088D01*
X142661697Y-85754092D01*
X142557681Y-85909762D01*
X142557676Y-85909771D01*
X142486027Y-86082748D01*
X142486025Y-86082756D01*
X142449500Y-86266379D01*
X142449500Y-86453620D01*
X142486025Y-86637243D01*
X142486027Y-86637251D01*
X142557676Y-86810228D01*
X142557681Y-86810237D01*
X142661697Y-86965907D01*
X142661700Y-86965911D01*
X142794088Y-87098299D01*
X142794092Y-87098302D01*
X142949762Y-87202318D01*
X142949771Y-87202323D01*
X142975193Y-87212853D01*
X143122749Y-87273973D01*
X143306379Y-87310499D01*
X143306383Y-87310500D01*
X143306384Y-87310500D01*
X143493617Y-87310500D01*
X143493618Y-87310499D01*
X143677251Y-87273973D01*
X143850231Y-87202322D01*
X143850230Y-87202322D01*
X143850434Y-87202238D01*
X143919904Y-87194769D01*
X143982383Y-87226044D01*
X143985568Y-87229118D01*
X147774023Y-91017572D01*
X147774024Y-91017574D01*
X147830426Y-91073976D01*
X147882533Y-91095559D01*
X147901558Y-91103440D01*
X147955960Y-91147281D01*
X147978024Y-91213575D01*
X147960744Y-91281274D01*
X147909607Y-91328884D01*
X147854103Y-91342000D01*
X146176912Y-91342000D01*
X146109873Y-91322315D01*
X146089231Y-91305681D01*
X144269118Y-89485568D01*
X144235633Y-89424245D01*
X144240617Y-89354553D01*
X144242238Y-89350434D01*
X144256757Y-89315381D01*
X144313973Y-89177251D01*
X144350500Y-88993616D01*
X144350500Y-88806384D01*
X144313973Y-88622749D01*
X144250125Y-88468607D01*
X144242323Y-88449771D01*
X144242318Y-88449762D01*
X144138302Y-88294092D01*
X144138299Y-88294088D01*
X144005911Y-88161700D01*
X144005907Y-88161697D01*
X143850237Y-88057681D01*
X143850228Y-88057676D01*
X143677251Y-87986027D01*
X143677243Y-87986025D01*
X143493620Y-87949500D01*
X143493616Y-87949500D01*
X143306384Y-87949500D01*
X143306379Y-87949500D01*
X143122756Y-87986025D01*
X143122748Y-87986027D01*
X142949771Y-88057676D01*
X142949762Y-88057681D01*
X142794092Y-88161697D01*
X142794088Y-88161700D01*
X142661700Y-88294088D01*
X142661697Y-88294092D01*
X142557681Y-88449762D01*
X142557676Y-88449771D01*
X142486027Y-88622748D01*
X142486025Y-88622756D01*
X142449500Y-88806379D01*
X142449500Y-88993620D01*
X142486025Y-89177243D01*
X142486027Y-89177251D01*
X142557676Y-89350228D01*
X142557681Y-89350237D01*
X142661697Y-89505907D01*
X142661700Y-89505911D01*
X142794088Y-89638299D01*
X142794092Y-89638302D01*
X142949762Y-89742318D01*
X142949768Y-89742321D01*
X142949769Y-89742322D01*
X143122749Y-89813973D01*
X143290392Y-89847319D01*
X143306379Y-89850499D01*
X143306383Y-89850500D01*
X143306384Y-89850500D01*
X143493617Y-89850500D01*
X143493618Y-89850499D01*
X143677251Y-89813973D01*
X143850231Y-89742322D01*
X143850230Y-89742322D01*
X143850434Y-89742238D01*
X143919904Y-89734769D01*
X143982383Y-89766044D01*
X143985567Y-89769117D01*
X145872524Y-91656074D01*
X145928926Y-91712476D01*
X146002618Y-91743000D01*
X155978000Y-91743000D01*
X155986685Y-91745550D01*
X155995647Y-91744262D01*
X156019687Y-91755240D01*
X156045039Y-91762685D01*
X156050966Y-91769525D01*
X156059203Y-91773287D01*
X156073492Y-91795521D01*
X156090794Y-91815489D01*
X156093081Y-91826003D01*
X156096977Y-91832065D01*
X156102000Y-91867000D01*
X156102000Y-91880500D01*
X156082315Y-91947539D01*
X156029511Y-91993294D01*
X155978000Y-92004500D01*
X155248946Y-92004500D01*
X155201402Y-92013957D01*
X155190119Y-92018631D01*
X155188657Y-92015102D01*
X155142729Y-92029480D01*
X155140525Y-92029500D01*
X144370214Y-92029500D01*
X144303175Y-92009815D01*
X144257420Y-91957011D01*
X144247476Y-91887853D01*
X144255653Y-91858047D01*
X144271034Y-91820914D01*
X144313973Y-91717251D01*
X144350500Y-91533616D01*
X144350500Y-91346384D01*
X144313973Y-91162749D01*
X144242322Y-90989769D01*
X144242321Y-90989768D01*
X144242318Y-90989762D01*
X144138302Y-90834092D01*
X144138299Y-90834088D01*
X144005911Y-90701700D01*
X144005907Y-90701697D01*
X143850237Y-90597681D01*
X143850228Y-90597676D01*
X143677251Y-90526027D01*
X143677243Y-90526025D01*
X143493620Y-90489500D01*
X143493616Y-90489500D01*
X143306384Y-90489500D01*
X143306379Y-90489500D01*
X143122756Y-90526025D01*
X143122748Y-90526027D01*
X142949771Y-90597676D01*
X142949762Y-90597681D01*
X142794092Y-90701697D01*
X142794088Y-90701700D01*
X142661700Y-90834088D01*
X142661697Y-90834092D01*
X142557681Y-90989762D01*
X142557676Y-90989771D01*
X142486027Y-91162748D01*
X142486025Y-91162756D01*
X142449500Y-91346379D01*
X142449500Y-91533620D01*
X142486025Y-91717243D01*
X142486027Y-91717251D01*
X142557676Y-91890228D01*
X142557681Y-91890237D01*
X142661697Y-92045907D01*
X142661700Y-92045911D01*
X142794088Y-92178299D01*
X142794092Y-92178302D01*
X142949762Y-92282318D01*
X142949771Y-92282323D01*
X142951051Y-92282853D01*
X143122749Y-92353973D01*
X143306379Y-92390499D01*
X143306383Y-92390500D01*
X143306384Y-92390500D01*
X143493617Y-92390500D01*
X143493618Y-92390499D01*
X143677251Y-92353973D01*
X143848949Y-92282853D01*
X143850434Y-92282238D01*
X143919904Y-92274769D01*
X143982383Y-92306044D01*
X143985568Y-92309118D01*
X144020024Y-92343574D01*
X144076426Y-92399976D01*
X144150118Y-92430500D01*
X144366588Y-92430500D01*
X144433627Y-92450185D01*
X144479382Y-92502989D01*
X144489326Y-92572147D01*
X144460301Y-92635703D01*
X144454269Y-92642181D01*
X143985567Y-93110881D01*
X143924244Y-93144366D01*
X143854552Y-93139382D01*
X143850434Y-93137761D01*
X143677255Y-93066028D01*
X143677243Y-93066025D01*
X143493620Y-93029500D01*
X143493616Y-93029500D01*
X143306384Y-93029500D01*
X143306379Y-93029500D01*
X143122756Y-93066025D01*
X143122748Y-93066027D01*
X142949771Y-93137676D01*
X142949762Y-93137681D01*
X142794092Y-93241697D01*
X142794088Y-93241700D01*
X142661700Y-93374088D01*
X142661697Y-93374092D01*
X142557681Y-93529762D01*
X142557676Y-93529771D01*
X142486027Y-93702748D01*
X142486025Y-93702756D01*
X142449500Y-93886379D01*
X142449500Y-94073620D01*
X142486025Y-94257243D01*
X142486027Y-94257251D01*
X142557676Y-94430228D01*
X142557681Y-94430237D01*
X142661697Y-94585907D01*
X142661700Y-94585911D01*
X142794088Y-94718299D01*
X142794092Y-94718302D01*
X142949762Y-94822318D01*
X142949771Y-94822323D01*
X142988956Y-94838554D01*
X143122749Y-94893973D01*
X143306379Y-94930499D01*
X143306383Y-94930500D01*
X143306384Y-94930500D01*
X143493617Y-94930500D01*
X143493618Y-94930499D01*
X143677251Y-94893973D01*
X143850231Y-94822322D01*
X144005908Y-94718302D01*
X144138302Y-94585908D01*
X144242322Y-94430231D01*
X144313973Y-94257251D01*
X144350500Y-94073616D01*
X144350500Y-93886384D01*
X144313973Y-93702749D01*
X144242322Y-93529769D01*
X144242320Y-93529767D01*
X144242237Y-93529565D01*
X144234768Y-93460096D01*
X144266043Y-93397616D01*
X144269085Y-93394463D01*
X144696731Y-92966819D01*
X144758054Y-92933334D01*
X144784412Y-92930500D01*
X155140525Y-92930500D01*
X155188754Y-92944661D01*
X155190119Y-92941369D01*
X155201399Y-92946040D01*
X155201401Y-92946042D01*
X155213287Y-92948406D01*
X155248945Y-92955500D01*
X155248948Y-92955500D01*
X156031054Y-92955500D01*
X156078595Y-92946043D01*
X156078595Y-92946042D01*
X156078599Y-92946042D01*
X156132516Y-92910016D01*
X156168542Y-92856099D01*
X156176290Y-92817149D01*
X156178000Y-92808554D01*
X156178000Y-92651445D01*
X156168543Y-92603904D01*
X156168542Y-92603902D01*
X156168542Y-92603901D01*
X156132516Y-92549984D01*
X156132514Y-92549983D01*
X156131785Y-92548891D01*
X156110907Y-92482213D01*
X156129391Y-92414833D01*
X156131785Y-92411109D01*
X156132514Y-92410016D01*
X156132516Y-92410016D01*
X156168542Y-92356099D01*
X156168965Y-92353972D01*
X156178000Y-92308554D01*
X156178000Y-92204500D01*
X156197685Y-92137461D01*
X156250489Y-92091706D01*
X156302000Y-92080500D01*
X156406054Y-92080500D01*
X156453595Y-92071043D01*
X156453595Y-92071042D01*
X156453599Y-92071042D01*
X156507516Y-92035016D01*
X156507516Y-92035014D01*
X156508609Y-92034285D01*
X156575287Y-92013407D01*
X156642667Y-92031891D01*
X156646391Y-92034285D01*
X156647483Y-92035014D01*
X156647484Y-92035016D01*
X156701401Y-92071042D01*
X156701403Y-92071042D01*
X156701404Y-92071043D01*
X156748945Y-92080500D01*
X156748948Y-92080500D01*
X156906054Y-92080500D01*
X156953595Y-92071043D01*
X156953595Y-92071042D01*
X156953599Y-92071042D01*
X157007516Y-92035016D01*
X157007516Y-92035014D01*
X157008609Y-92034285D01*
X157075287Y-92013407D01*
X157142667Y-92031891D01*
X157146391Y-92034285D01*
X157147483Y-92035014D01*
X157147484Y-92035016D01*
X157201401Y-92071042D01*
X157201403Y-92071042D01*
X157201404Y-92071043D01*
X157248945Y-92080500D01*
X157248948Y-92080500D01*
X157406054Y-92080500D01*
X157453595Y-92071043D01*
X157453595Y-92071042D01*
X157453599Y-92071042D01*
X157507516Y-92035016D01*
X157507516Y-92035014D01*
X157508609Y-92034285D01*
X157575287Y-92013407D01*
X157642667Y-92031891D01*
X157646391Y-92034285D01*
X157647483Y-92035014D01*
X157647484Y-92035016D01*
X157701401Y-92071042D01*
X157701403Y-92071042D01*
X157701404Y-92071043D01*
X157748945Y-92080500D01*
X157748948Y-92080500D01*
X157906054Y-92080500D01*
X157953595Y-92071043D01*
X157953595Y-92071042D01*
X157953599Y-92071042D01*
X158007516Y-92035016D01*
X158007516Y-92035014D01*
X158008609Y-92034285D01*
X158075287Y-92013407D01*
X158142667Y-92031891D01*
X158146391Y-92034285D01*
X158147483Y-92035014D01*
X158147484Y-92035016D01*
X158201401Y-92071042D01*
X158201403Y-92071042D01*
X158201404Y-92071043D01*
X158248945Y-92080500D01*
X158248948Y-92080500D01*
X158406054Y-92080500D01*
X158453595Y-92071043D01*
X158453595Y-92071042D01*
X158453599Y-92071042D01*
X158507516Y-92035016D01*
X158507516Y-92035014D01*
X158508609Y-92034285D01*
X158575287Y-92013407D01*
X158642667Y-92031891D01*
X158646391Y-92034285D01*
X158647483Y-92035014D01*
X158647484Y-92035016D01*
X158701401Y-92071042D01*
X158701403Y-92071042D01*
X158701404Y-92071043D01*
X158748945Y-92080500D01*
X158748948Y-92080500D01*
X158906054Y-92080500D01*
X158953595Y-92071043D01*
X158953595Y-92071042D01*
X158953599Y-92071042D01*
X159007516Y-92035016D01*
X159007516Y-92035014D01*
X159008609Y-92034285D01*
X159075287Y-92013407D01*
X159142667Y-92031891D01*
X159146391Y-92034285D01*
X159147483Y-92035014D01*
X159147484Y-92035016D01*
X159201401Y-92071042D01*
X159201403Y-92071042D01*
X159201404Y-92071043D01*
X159248945Y-92080500D01*
X159248948Y-92080500D01*
X159406054Y-92080500D01*
X159453595Y-92071043D01*
X159453595Y-92071042D01*
X159453599Y-92071042D01*
X159507516Y-92035016D01*
X159507516Y-92035014D01*
X159508609Y-92034285D01*
X159575287Y-92013407D01*
X159642667Y-92031891D01*
X159646391Y-92034285D01*
X159647483Y-92035014D01*
X159647484Y-92035016D01*
X159701401Y-92071042D01*
X159701403Y-92071042D01*
X159701404Y-92071043D01*
X159748945Y-92080500D01*
X159853000Y-92080500D01*
X159920039Y-92100185D01*
X159965794Y-92152989D01*
X159977000Y-92204500D01*
X159977000Y-92308552D01*
X159977000Y-92308554D01*
X159976999Y-92308554D01*
X159986456Y-92356095D01*
X159986457Y-92356097D01*
X160023215Y-92411110D01*
X160044092Y-92477788D01*
X160025607Y-92545168D01*
X160023215Y-92548890D01*
X159986457Y-92603902D01*
X159986456Y-92603904D01*
X159977000Y-92651445D01*
X159977000Y-92651448D01*
X159977000Y-92808552D01*
X159977000Y-92808554D01*
X159976999Y-92808554D01*
X159986456Y-92856095D01*
X159986457Y-92856097D01*
X159986457Y-92856098D01*
X159986458Y-92856099D01*
X160017697Y-92902851D01*
X160023215Y-92911110D01*
X160044092Y-92977788D01*
X160025607Y-93045168D01*
X160023215Y-93048890D01*
X159986457Y-93103902D01*
X159986456Y-93103904D01*
X159977000Y-93151445D01*
X159977000Y-93151448D01*
X159977000Y-93308552D01*
X159977000Y-93308554D01*
X159976999Y-93308554D01*
X159986456Y-93356095D01*
X159986459Y-93356101D01*
X160021788Y-93408975D01*
X160022484Y-93410016D01*
X160076401Y-93446042D01*
X160076402Y-93446042D01*
X160076404Y-93446043D01*
X160123945Y-93455500D01*
X160123948Y-93455500D01*
X160750588Y-93455500D01*
X160817627Y-93475185D01*
X160838269Y-93491819D01*
X161164269Y-93817819D01*
X161174881Y-93837255D01*
X161189382Y-93853989D01*
X161191298Y-93867320D01*
X161197754Y-93879142D01*
X161196174Y-93901228D01*
X161199326Y-93923147D01*
X161193730Y-93935398D01*
X161192770Y-93948834D01*
X161179499Y-93966560D01*
X161170301Y-93986703D01*
X161158969Y-93993985D01*
X161150898Y-94004767D01*
X161130152Y-94012504D01*
X161111523Y-94024477D01*
X161089604Y-94027628D01*
X161085434Y-94029184D01*
X161076588Y-94029500D01*
X161014475Y-94029500D01*
X160966245Y-94015338D01*
X160964881Y-94018631D01*
X160953597Y-94013957D01*
X160906054Y-94004500D01*
X160906052Y-94004500D01*
X160123948Y-94004500D01*
X160123946Y-94004500D01*
X160076404Y-94013956D01*
X160076398Y-94013959D01*
X160022484Y-94049983D01*
X160022483Y-94049984D01*
X159986459Y-94103898D01*
X159986456Y-94103904D01*
X159977000Y-94151445D01*
X159977000Y-94151448D01*
X159977000Y-94308552D01*
X159977000Y-94308554D01*
X159976999Y-94308554D01*
X159986456Y-94356095D01*
X159986457Y-94356097D01*
X160023215Y-94411110D01*
X160044092Y-94477788D01*
X160025607Y-94545168D01*
X160023215Y-94548890D01*
X159986457Y-94603902D01*
X159986456Y-94603904D01*
X159977000Y-94651445D01*
X159977000Y-94651448D01*
X159977000Y-94808552D01*
X159977000Y-94808554D01*
X159976999Y-94808554D01*
X159986456Y-94856095D01*
X159986457Y-94856097D01*
X159986457Y-94856098D01*
X159986458Y-94856099D01*
X159993147Y-94866110D01*
X160014024Y-94932786D01*
X159995539Y-95000166D01*
X159993146Y-95003889D01*
X159939358Y-95084387D01*
X159939357Y-95084390D01*
X159927000Y-95146515D01*
X159927000Y-95313484D01*
X159939357Y-95375609D01*
X159993146Y-95456109D01*
X160014024Y-95522786D01*
X160012473Y-95544676D01*
X160008179Y-95571392D01*
X159986458Y-95603901D01*
X159977000Y-95651448D01*
X159977000Y-95765400D01*
X159975429Y-95775176D01*
X159964480Y-95798135D01*
X159957315Y-95822539D01*
X159949695Y-95829141D01*
X159945356Y-95838242D01*
X159923732Y-95851638D01*
X159904511Y-95868294D01*
X159892701Y-95870863D01*
X159885961Y-95875039D01*
X159874386Y-95874847D01*
X159853000Y-95879500D01*
X159748946Y-95879500D01*
X159701404Y-95888956D01*
X159701402Y-95888957D01*
X159646390Y-95925715D01*
X159579712Y-95946592D01*
X159512332Y-95928107D01*
X159508610Y-95925715D01*
X159489022Y-95912627D01*
X159453599Y-95888958D01*
X159453598Y-95888957D01*
X159453597Y-95888957D01*
X159453595Y-95888956D01*
X159406054Y-95879500D01*
X159406052Y-95879500D01*
X159248948Y-95879500D01*
X159248946Y-95879500D01*
X159201404Y-95888956D01*
X159201402Y-95888957D01*
X159146390Y-95925715D01*
X159079712Y-95946592D01*
X159012332Y-95928107D01*
X159008610Y-95925715D01*
X158989022Y-95912627D01*
X158953599Y-95888958D01*
X158953598Y-95888957D01*
X158953597Y-95888957D01*
X158953595Y-95888956D01*
X158906054Y-95879500D01*
X158906052Y-95879500D01*
X158748948Y-95879500D01*
X158748946Y-95879500D01*
X158701404Y-95888956D01*
X158701402Y-95888957D01*
X158646390Y-95925715D01*
X158579712Y-95946592D01*
X158512332Y-95928107D01*
X158508610Y-95925715D01*
X158489022Y-95912627D01*
X158453599Y-95888958D01*
X158453598Y-95888957D01*
X158453597Y-95888957D01*
X158453595Y-95888956D01*
X158406054Y-95879500D01*
X158406052Y-95879500D01*
X158248948Y-95879500D01*
X158248946Y-95879500D01*
X158201404Y-95888956D01*
X158201402Y-95888957D01*
X158146390Y-95925715D01*
X158079712Y-95946592D01*
X158012332Y-95928107D01*
X158008610Y-95925715D01*
X157989022Y-95912627D01*
X157953599Y-95888958D01*
X157953598Y-95888957D01*
X157953597Y-95888957D01*
X157953595Y-95888956D01*
X157906054Y-95879500D01*
X157906052Y-95879500D01*
X157748948Y-95879500D01*
X157748946Y-95879500D01*
X157701404Y-95888956D01*
X157701402Y-95888957D01*
X157646390Y-95925715D01*
X157579712Y-95946592D01*
X157512332Y-95928107D01*
X157508610Y-95925715D01*
X157489022Y-95912627D01*
X157453599Y-95888958D01*
X157453598Y-95888957D01*
X157453597Y-95888957D01*
X157453595Y-95888956D01*
X157406054Y-95879500D01*
X157406052Y-95879500D01*
X157248948Y-95879500D01*
X157248946Y-95879500D01*
X157201404Y-95888956D01*
X157201402Y-95888957D01*
X157146390Y-95925715D01*
X157079712Y-95946592D01*
X157012332Y-95928107D01*
X157008610Y-95925715D01*
X156989022Y-95912627D01*
X156953599Y-95888958D01*
X156953598Y-95888957D01*
X156953597Y-95888957D01*
X156953595Y-95888956D01*
X156906054Y-95879500D01*
X156906052Y-95879500D01*
X156748948Y-95879500D01*
X156748946Y-95879500D01*
X156701404Y-95888956D01*
X156701402Y-95888957D01*
X156646390Y-95925715D01*
X156579712Y-95946592D01*
X156512332Y-95928107D01*
X156508610Y-95925715D01*
X156489022Y-95912627D01*
X156453599Y-95888958D01*
X156453598Y-95888957D01*
X156453597Y-95888957D01*
X156453595Y-95888956D01*
X156406054Y-95879500D01*
X156406052Y-95879500D01*
X156302000Y-95879500D01*
X156234961Y-95859815D01*
X156189206Y-95807011D01*
X156178000Y-95755500D01*
X156178000Y-95651445D01*
X156168543Y-95603904D01*
X156168542Y-95603903D01*
X156168542Y-95603901D01*
X156132516Y-95549984D01*
X156132514Y-95549983D01*
X156131785Y-95548891D01*
X156110907Y-95482213D01*
X156129391Y-95414833D01*
X156131785Y-95411109D01*
X156132514Y-95410016D01*
X156132516Y-95410016D01*
X156168542Y-95356099D01*
X156177020Y-95313480D01*
X156178000Y-95308554D01*
X156178000Y-95151445D01*
X156168543Y-95103904D01*
X156168542Y-95103901D01*
X156161852Y-95093889D01*
X156140975Y-95027214D01*
X156159459Y-94959834D01*
X156161853Y-94956108D01*
X156168562Y-94946066D01*
X156168565Y-94946065D01*
X156215642Y-94875609D01*
X156228000Y-94813480D01*
X156228000Y-94771462D01*
X156228485Y-94769811D01*
X156234784Y-94726000D01*
X156234784Y-94724000D01*
X156233201Y-94701870D01*
X156228178Y-94666935D01*
X156228000Y-94666457D01*
X156228000Y-94646520D01*
X156219523Y-94603901D01*
X156215642Y-94584390D01*
X156178965Y-94529500D01*
X156168565Y-94513935D01*
X156140343Y-94495078D01*
X156098109Y-94466857D01*
X156069595Y-94461185D01*
X156200000Y-94460000D01*
X157000000Y-95440000D01*
X157760000Y-95340000D01*
X157790000Y-93850000D01*
X157120000Y-93350000D01*
X156170000Y-94010000D01*
X155931500Y-94005500D01*
X156035981Y-94005500D01*
X156035982Y-94005499D01*
X156098109Y-93993142D01*
X156168565Y-93946065D01*
X156215642Y-93875609D01*
X156228000Y-93813480D01*
X156228000Y-93771462D01*
X156228485Y-93769811D01*
X156234784Y-93726000D01*
X156234784Y-93724000D01*
X156233201Y-93701870D01*
X156228178Y-93666935D01*
X156228000Y-93666457D01*
X156228000Y-93646520D01*
X156215642Y-93584391D01*
X156215642Y-93584390D01*
X156196785Y-93556169D01*
X156168565Y-93513935D01*
X156135466Y-93491819D01*
X156098109Y-93466857D01*
X156035984Y-93454500D01*
X156035980Y-93454500D01*
X156029439Y-93454500D01*
X156003077Y-93451665D01*
X155999091Y-93450797D01*
X155955286Y-93444500D01*
X155955284Y-93444500D01*
X155255673Y-93444500D01*
X155241185Y-93443651D01*
X154619673Y-93370531D01*
X154612736Y-93369873D01*
X154605604Y-93369359D01*
X154601611Y-93369071D01*
X154601609Y-93369071D01*
X154601607Y-93369071D01*
X154550680Y-93373832D01*
X154483136Y-93391687D01*
X154442384Y-93408976D01*
X153787262Y-93805285D01*
X153754772Y-93831486D01*
X153754769Y-93831488D01*
X153754769Y-93831489D01*
X153709447Y-93879411D01*
X153709430Y-93879429D01*
X153709422Y-93879438D01*
X153706169Y-93882985D01*
X153706165Y-93882992D01*
X153670107Y-93954953D01*
X153656043Y-94023381D01*
X153654724Y-94030674D01*
X153663294Y-94110707D01*
X153688463Y-94175891D01*
X153703473Y-94202644D01*
X153710118Y-94214488D01*
X154165568Y-94808554D01*
X154182052Y-94830054D01*
X154207219Y-94895234D01*
X154193152Y-94963673D01*
X154144318Y-95013643D01*
X154083645Y-95029500D01*
X152685647Y-95029500D01*
X152618608Y-95009815D01*
X152610156Y-95003872D01*
X152604512Y-94999541D01*
X152604511Y-94999540D01*
X152604507Y-94999538D01*
X152604505Y-94999536D01*
X152535995Y-94959982D01*
X152535990Y-94959979D01*
X152502991Y-94951137D01*
X152459562Y-94939500D01*
X152380438Y-94939500D01*
X152355938Y-94946065D01*
X152304009Y-94959979D01*
X152304004Y-94959982D01*
X152235495Y-94999535D01*
X152235487Y-94999541D01*
X152179541Y-95055487D01*
X152179535Y-95055495D01*
X152139982Y-95124004D01*
X152139979Y-95124009D01*
X152119500Y-95200439D01*
X152119500Y-95279562D01*
X152127794Y-95310516D01*
X152126131Y-95380366D01*
X152086968Y-95438228D01*
X152022739Y-95465732D01*
X151953837Y-95454145D01*
X151946022Y-95449998D01*
X151945991Y-95449980D01*
X151945990Y-95449979D01*
X151920513Y-95443152D01*
X151869562Y-95429500D01*
X151790438Y-95429500D01*
X151752224Y-95439739D01*
X151714009Y-95449979D01*
X151714004Y-95449982D01*
X151645495Y-95489535D01*
X151645487Y-95489541D01*
X151589541Y-95545487D01*
X151589535Y-95545495D01*
X151549982Y-95614004D01*
X151549979Y-95614009D01*
X151536326Y-95664962D01*
X151529500Y-95690438D01*
X151529500Y-95769562D01*
X151539535Y-95807011D01*
X151549979Y-95845990D01*
X151549982Y-95845995D01*
X151589535Y-95914504D01*
X151589539Y-95914509D01*
X151589540Y-95914511D01*
X151645489Y-95970460D01*
X151645491Y-95970461D01*
X151645495Y-95970464D01*
X151703019Y-96003675D01*
X151714011Y-96010021D01*
X151790438Y-96030500D01*
X151790440Y-96030500D01*
X151869560Y-96030500D01*
X151869562Y-96030500D01*
X151945989Y-96010021D01*
X152014511Y-95970460D01*
X152018152Y-95966819D01*
X152079475Y-95933334D01*
X152105833Y-95930500D01*
X155140525Y-95930500D01*
X155188754Y-95944661D01*
X155190119Y-95941369D01*
X155201399Y-95946040D01*
X155201401Y-95946042D01*
X155213287Y-95948406D01*
X155248945Y-95955500D01*
X155978000Y-95955500D01*
X156045039Y-95975185D01*
X156090794Y-96027989D01*
X156102000Y-96079500D01*
X156102000Y-96693088D01*
X156082315Y-96760127D01*
X156065681Y-96780769D01*
X154453269Y-98393181D01*
X154391946Y-98426666D01*
X154365588Y-98429500D01*
X145644412Y-98429500D01*
X145577373Y-98409815D01*
X145556731Y-98393181D01*
X144269118Y-97105568D01*
X144235633Y-97044245D01*
X144240617Y-96974553D01*
X144242238Y-96970434D01*
X144249715Y-96952382D01*
X144313973Y-96797251D01*
X144350500Y-96613616D01*
X144350500Y-96426384D01*
X144313973Y-96242749D01*
X144242322Y-96069769D01*
X144242321Y-96069768D01*
X144242318Y-96069762D01*
X144138302Y-95914092D01*
X144138299Y-95914088D01*
X144005911Y-95781700D01*
X144005907Y-95781697D01*
X143850237Y-95677681D01*
X143850228Y-95677676D01*
X143677251Y-95606027D01*
X143677243Y-95606025D01*
X143493620Y-95569500D01*
X143493616Y-95569500D01*
X143306384Y-95569500D01*
X143306379Y-95569500D01*
X143122756Y-95606025D01*
X143122748Y-95606027D01*
X142949771Y-95677676D01*
X142949762Y-95677681D01*
X142794092Y-95781697D01*
X142794088Y-95781700D01*
X142661700Y-95914088D01*
X142661697Y-95914092D01*
X142557681Y-96069762D01*
X142557676Y-96069771D01*
X142486027Y-96242748D01*
X142486025Y-96242756D01*
X142449500Y-96426379D01*
X142449500Y-96613620D01*
X142486025Y-96797243D01*
X142486027Y-96797251D01*
X142557676Y-96970228D01*
X142557681Y-96970237D01*
X142661697Y-97125907D01*
X142661700Y-97125911D01*
X142794088Y-97258299D01*
X142794092Y-97258302D01*
X142949762Y-97362318D01*
X142949768Y-97362321D01*
X142949769Y-97362322D01*
X143122749Y-97433973D01*
X143306379Y-97470499D01*
X143306383Y-97470500D01*
X143306384Y-97470500D01*
X143493617Y-97470500D01*
X143493618Y-97470499D01*
X143677251Y-97433973D01*
X143850231Y-97362322D01*
X143850230Y-97362322D01*
X143850434Y-97362238D01*
X143919904Y-97354769D01*
X143982383Y-97386044D01*
X143985568Y-97389118D01*
X145244269Y-98647819D01*
X145277754Y-98709142D01*
X145272770Y-98778834D01*
X145230898Y-98834767D01*
X145165434Y-98859184D01*
X145156588Y-98859500D01*
X144428618Y-98859500D01*
X144361579Y-98839815D01*
X144315824Y-98787011D01*
X144314057Y-98782953D01*
X144313972Y-98782748D01*
X144242322Y-98609769D01*
X144242321Y-98609768D01*
X144242318Y-98609762D01*
X144138302Y-98454092D01*
X144138299Y-98454088D01*
X144005911Y-98321700D01*
X144005907Y-98321697D01*
X143850237Y-98217681D01*
X143850228Y-98217676D01*
X143677251Y-98146027D01*
X143677243Y-98146025D01*
X143493620Y-98109500D01*
X143493616Y-98109500D01*
X143306384Y-98109500D01*
X143306379Y-98109500D01*
X143122756Y-98146025D01*
X143122748Y-98146027D01*
X142949771Y-98217676D01*
X142949762Y-98217681D01*
X142794092Y-98321697D01*
X142794088Y-98321700D01*
X142661700Y-98454088D01*
X142661697Y-98454092D01*
X142557681Y-98609762D01*
X142557676Y-98609771D01*
X142486027Y-98782748D01*
X142486025Y-98782756D01*
X142449500Y-98966379D01*
X142449500Y-99153620D01*
X142486025Y-99337243D01*
X142486027Y-99337251D01*
X142557676Y-99510228D01*
X142557681Y-99510237D01*
X142661697Y-99665907D01*
X142661700Y-99665911D01*
X142794088Y-99798299D01*
X142794092Y-99798302D01*
X142949762Y-99902318D01*
X142949768Y-99902321D01*
X142949769Y-99902322D01*
X143122749Y-99973973D01*
X143306379Y-100010499D01*
X143306383Y-100010500D01*
X143306384Y-100010500D01*
X143493617Y-100010500D01*
X143493618Y-100010499D01*
X143677251Y-99973973D01*
X143850231Y-99902322D01*
X144005908Y-99798302D01*
X144138302Y-99665908D01*
X144242322Y-99510231D01*
X144313973Y-99337251D01*
X144313973Y-99337248D01*
X144314057Y-99337047D01*
X144357898Y-99282644D01*
X144424192Y-99260579D01*
X144428618Y-99260500D01*
X154339087Y-99260500D01*
X154406126Y-99280185D01*
X154451881Y-99332989D01*
X154461825Y-99402147D01*
X154432800Y-99465703D01*
X154426768Y-99472181D01*
X152535768Y-101363181D01*
X152474445Y-101396666D01*
X152448087Y-101399500D01*
X144428618Y-101399500D01*
X144361579Y-101379815D01*
X144315824Y-101327011D01*
X144314057Y-101322953D01*
X144313972Y-101322748D01*
X144242322Y-101149769D01*
X144242321Y-101149768D01*
X144242318Y-101149762D01*
X144138302Y-100994092D01*
X144138299Y-100994088D01*
X144005911Y-100861700D01*
X144005907Y-100861697D01*
X143850237Y-100757681D01*
X143850228Y-100757676D01*
X143677251Y-100686027D01*
X143677243Y-100686025D01*
X143493620Y-100649500D01*
X143493616Y-100649500D01*
X143306384Y-100649500D01*
X143306379Y-100649500D01*
X143122756Y-100686025D01*
X143122748Y-100686027D01*
X142949771Y-100757676D01*
X142949762Y-100757681D01*
X142794092Y-100861697D01*
X142794088Y-100861700D01*
X142661700Y-100994088D01*
X142661697Y-100994092D01*
X142557681Y-101149762D01*
X142557676Y-101149771D01*
X142486027Y-101322748D01*
X142486025Y-101322756D01*
X142449500Y-101506379D01*
X142449500Y-101693620D01*
X142486025Y-101877243D01*
X142486027Y-101877251D01*
X142557676Y-102050228D01*
X142557681Y-102050237D01*
X142661697Y-102205907D01*
X142661700Y-102205911D01*
X142794088Y-102338299D01*
X142794092Y-102338302D01*
X142949762Y-102442318D01*
X142949768Y-102442321D01*
X142949769Y-102442322D01*
X143122749Y-102513973D01*
X143306379Y-102550499D01*
X143306383Y-102550500D01*
X143306384Y-102550500D01*
X143493617Y-102550500D01*
X143493618Y-102550499D01*
X143677251Y-102513973D01*
X143850231Y-102442322D01*
X144005908Y-102338302D01*
X144138302Y-102205908D01*
X144242322Y-102050231D01*
X144313973Y-101877251D01*
X144313973Y-101877248D01*
X144314057Y-101877047D01*
X144357898Y-101822644D01*
X144424192Y-101800579D01*
X144428618Y-101800500D01*
X152299087Y-101800500D01*
X152366126Y-101820185D01*
X152411881Y-101872989D01*
X152421825Y-101942147D01*
X152392800Y-102005703D01*
X152386768Y-102012181D01*
X150495768Y-103903181D01*
X150434445Y-103936666D01*
X150408087Y-103939500D01*
X144428618Y-103939500D01*
X144361579Y-103919815D01*
X144315824Y-103867011D01*
X144314057Y-103862953D01*
X144313972Y-103862748D01*
X144242322Y-103689769D01*
X144242321Y-103689768D01*
X144242318Y-103689762D01*
X144138302Y-103534092D01*
X144138299Y-103534088D01*
X144005911Y-103401700D01*
X144005907Y-103401697D01*
X143850237Y-103297681D01*
X143850228Y-103297676D01*
X143677251Y-103226027D01*
X143677243Y-103226025D01*
X143493620Y-103189500D01*
X143493616Y-103189500D01*
X143306384Y-103189500D01*
X143306379Y-103189500D01*
X143122756Y-103226025D01*
X143122748Y-103226027D01*
X142949771Y-103297676D01*
X142949762Y-103297681D01*
X142794092Y-103401697D01*
X142794088Y-103401700D01*
X142661700Y-103534088D01*
X142661697Y-103534092D01*
X142557681Y-103689762D01*
X142557676Y-103689771D01*
X142486027Y-103862748D01*
X142486025Y-103862756D01*
X142449500Y-104046379D01*
X142449500Y-104233620D01*
X142486025Y-104417243D01*
X142486027Y-104417251D01*
X142557676Y-104590228D01*
X142557681Y-104590237D01*
X142661697Y-104745907D01*
X142661700Y-104745911D01*
X142794088Y-104878299D01*
X142794092Y-104878302D01*
X142949762Y-104982318D01*
X142949768Y-104982321D01*
X142949769Y-104982322D01*
X143122749Y-105053973D01*
X143306379Y-105090499D01*
X143306383Y-105090500D01*
X143306384Y-105090500D01*
X143493617Y-105090500D01*
X143493618Y-105090499D01*
X143677251Y-105053973D01*
X143850231Y-104982322D01*
X144005908Y-104878302D01*
X144138302Y-104745908D01*
X144242322Y-104590231D01*
X144313973Y-104417251D01*
X144313973Y-104417248D01*
X144314057Y-104417047D01*
X144357898Y-104362644D01*
X144424192Y-104340579D01*
X144428618Y-104340500D01*
X150316587Y-104340500D01*
X150383626Y-104360185D01*
X150429381Y-104412989D01*
X150439325Y-104482147D01*
X150410300Y-104545703D01*
X150404268Y-104552181D01*
X147617270Y-107339179D01*
X147617243Y-107339206D01*
X147616426Y-107340024D01*
X147560024Y-107396426D01*
X147558433Y-107400264D01*
X147547591Y-107411522D01*
X147526444Y-107423588D01*
X147507767Y-107439197D01*
X147494109Y-107442040D01*
X147486906Y-107446151D01*
X147476899Y-107445623D01*
X147458281Y-107449500D01*
X146870105Y-107449500D01*
X146870097Y-107449501D01*
X146840787Y-107455330D01*
X146807542Y-107477542D01*
X146785332Y-107510785D01*
X146785329Y-107510791D01*
X146779500Y-107540098D01*
X146779500Y-109259894D01*
X146779501Y-109259902D01*
X146785330Y-109289212D01*
X146807542Y-109322457D01*
X146824219Y-109333599D01*
X146840787Y-109344669D01*
X146840790Y-109344669D01*
X146840791Y-109344670D01*
X146850647Y-109346630D01*
X146870101Y-109350500D01*
X148589898Y-109350499D01*
X148619213Y-109344669D01*
X148652457Y-109322457D01*
X148674669Y-109289213D01*
X148680500Y-109259899D01*
X148680499Y-107540102D01*
X148674669Y-107510787D01*
X148674668Y-107510785D01*
X148652457Y-107477542D01*
X148620509Y-107456197D01*
X148619213Y-107455331D01*
X148619211Y-107455330D01*
X148619208Y-107455329D01*
X148589901Y-107449500D01*
X148589899Y-107449500D01*
X148373411Y-107449500D01*
X148306372Y-107429815D01*
X148260617Y-107377011D01*
X148250673Y-107307853D01*
X148279698Y-107244297D01*
X148285730Y-107237819D01*
X149857819Y-105665730D01*
X149919142Y-105632245D01*
X149988834Y-105637229D01*
X150044767Y-105679101D01*
X150069184Y-105744565D01*
X150069500Y-105753411D01*
X150069500Y-107371381D01*
X150049815Y-107438420D01*
X149997011Y-107484175D01*
X149992953Y-107485942D01*
X149819772Y-107557676D01*
X149819762Y-107557681D01*
X149664092Y-107661697D01*
X149664088Y-107661700D01*
X149531700Y-107794088D01*
X149531697Y-107794092D01*
X149427681Y-107949762D01*
X149427676Y-107949771D01*
X149356027Y-108122748D01*
X149356025Y-108122756D01*
X149319500Y-108306379D01*
X149319500Y-108493620D01*
X149356025Y-108677243D01*
X149356027Y-108677251D01*
X149427676Y-108850228D01*
X149427681Y-108850237D01*
X149531697Y-109005907D01*
X149531700Y-109005911D01*
X149664088Y-109138299D01*
X149664092Y-109138302D01*
X149819762Y-109242318D01*
X149819768Y-109242321D01*
X149819769Y-109242322D01*
X149992749Y-109313973D01*
X150169622Y-109349155D01*
X150176379Y-109350499D01*
X150176383Y-109350500D01*
X150176384Y-109350500D01*
X150363617Y-109350500D01*
X150363618Y-109350499D01*
X150547251Y-109313973D01*
X150720231Y-109242322D01*
X150875908Y-109138302D01*
X151008302Y-109005908D01*
X151112322Y-108850231D01*
X151183973Y-108677251D01*
X151220500Y-108493616D01*
X151220500Y-108306384D01*
X151183973Y-108122749D01*
X151112322Y-107949769D01*
X151112321Y-107949768D01*
X151112318Y-107949762D01*
X151008302Y-107794092D01*
X151008299Y-107794088D01*
X150875911Y-107661700D01*
X150875907Y-107661697D01*
X150720237Y-107557681D01*
X150720227Y-107557676D01*
X150547047Y-107485942D01*
X150492644Y-107442101D01*
X150470579Y-107375806D01*
X150470500Y-107371381D01*
X150470500Y-105754411D01*
X150490185Y-105687372D01*
X150506814Y-105666735D01*
X152397819Y-103775729D01*
X152459142Y-103742245D01*
X152528834Y-103747229D01*
X152584767Y-103789101D01*
X152609184Y-103854565D01*
X152609500Y-103863411D01*
X152609500Y-107371381D01*
X152589815Y-107438420D01*
X152537011Y-107484175D01*
X152532953Y-107485942D01*
X152359772Y-107557676D01*
X152359762Y-107557681D01*
X152204092Y-107661697D01*
X152204088Y-107661700D01*
X152071700Y-107794088D01*
X152071697Y-107794092D01*
X151967681Y-107949762D01*
X151967676Y-107949771D01*
X151896027Y-108122748D01*
X151896025Y-108122756D01*
X151859500Y-108306379D01*
X151859500Y-108493620D01*
X151896025Y-108677243D01*
X151896027Y-108677251D01*
X151967676Y-108850228D01*
X151967681Y-108850237D01*
X152071697Y-109005907D01*
X152071700Y-109005911D01*
X152204088Y-109138299D01*
X152204092Y-109138302D01*
X152359762Y-109242318D01*
X152359768Y-109242321D01*
X152359769Y-109242322D01*
X152532749Y-109313973D01*
X152709622Y-109349155D01*
X152716379Y-109350499D01*
X152716383Y-109350500D01*
X152716384Y-109350500D01*
X152903617Y-109350500D01*
X152903618Y-109350499D01*
X153087251Y-109313973D01*
X153260231Y-109242322D01*
X153415908Y-109138302D01*
X153548302Y-109005908D01*
X153652322Y-108850231D01*
X153723973Y-108677251D01*
X153760500Y-108493616D01*
X153760500Y-108306384D01*
X153723973Y-108122749D01*
X153652322Y-107949769D01*
X153652321Y-107949768D01*
X153652318Y-107949762D01*
X153548302Y-107794092D01*
X153548299Y-107794088D01*
X153415911Y-107661700D01*
X153415907Y-107661697D01*
X153260237Y-107557681D01*
X153260227Y-107557676D01*
X153087047Y-107485942D01*
X153032644Y-107442101D01*
X153010579Y-107375806D01*
X153010500Y-107371381D01*
X153010500Y-103764412D01*
X153030185Y-103697373D01*
X153046819Y-103676731D01*
X154937819Y-101785731D01*
X154999142Y-101752246D01*
X155068834Y-101757230D01*
X155124767Y-101799102D01*
X155149184Y-101864566D01*
X155149500Y-101873412D01*
X155149500Y-107371381D01*
X155129815Y-107438420D01*
X155077011Y-107484175D01*
X155072953Y-107485942D01*
X154899772Y-107557676D01*
X154899762Y-107557681D01*
X154744092Y-107661697D01*
X154744088Y-107661700D01*
X154611700Y-107794088D01*
X154611697Y-107794092D01*
X154507681Y-107949762D01*
X154507676Y-107949771D01*
X154436027Y-108122748D01*
X154436025Y-108122756D01*
X154399500Y-108306379D01*
X154399500Y-108493620D01*
X154436025Y-108677243D01*
X154436027Y-108677251D01*
X154507676Y-108850228D01*
X154507681Y-108850237D01*
X154611697Y-109005907D01*
X154611700Y-109005911D01*
X154744088Y-109138299D01*
X154744092Y-109138302D01*
X154899762Y-109242318D01*
X154899768Y-109242321D01*
X154899769Y-109242322D01*
X155072749Y-109313973D01*
X155249622Y-109349155D01*
X155256379Y-109350499D01*
X155256383Y-109350500D01*
X155256384Y-109350500D01*
X155443617Y-109350500D01*
X155443618Y-109350499D01*
X155627251Y-109313973D01*
X155800231Y-109242322D01*
X155955908Y-109138302D01*
X156088302Y-109005908D01*
X156192322Y-108850231D01*
X156263973Y-108677251D01*
X156300500Y-108493616D01*
X156300500Y-108306384D01*
X156263973Y-108122749D01*
X156192322Y-107949769D01*
X156192321Y-107949768D01*
X156192318Y-107949762D01*
X156088302Y-107794092D01*
X156088299Y-107794088D01*
X155955911Y-107661700D01*
X155955907Y-107661697D01*
X155800237Y-107557681D01*
X155800227Y-107557676D01*
X155627047Y-107485942D01*
X155572644Y-107442101D01*
X155550579Y-107375806D01*
X155550500Y-107371381D01*
X155550500Y-101664412D01*
X155570185Y-101597373D01*
X155586819Y-101576731D01*
X157607819Y-99555731D01*
X157669142Y-99522246D01*
X157738834Y-99527230D01*
X157794767Y-99569102D01*
X157819184Y-99634566D01*
X157819500Y-99643412D01*
X157819500Y-104265500D01*
X157799815Y-104332539D01*
X157747011Y-104378294D01*
X157695511Y-104389500D01*
X157688410Y-104389500D01*
X157638280Y-104396099D01*
X157638269Y-104396102D01*
X157528255Y-104447402D01*
X157528249Y-104447406D01*
X157442406Y-104533249D01*
X157442402Y-104533255D01*
X157391102Y-104643270D01*
X157391099Y-104643281D01*
X157384501Y-104693398D01*
X157384500Y-104693415D01*
X157384500Y-105686592D01*
X157391099Y-105736719D01*
X157391102Y-105736730D01*
X157442402Y-105846744D01*
X157442406Y-105846750D01*
X157528250Y-105932594D01*
X157528251Y-105932594D01*
X157528255Y-105932597D01*
X157638270Y-105983897D01*
X157638271Y-105983897D01*
X157638277Y-105983900D01*
X157657101Y-105986378D01*
X157664185Y-105987311D01*
X157728081Y-106015577D01*
X157766553Y-106073901D01*
X157772000Y-106110250D01*
X157772000Y-107352585D01*
X157752315Y-107419624D01*
X157699511Y-107465379D01*
X157672193Y-107474202D01*
X157612753Y-107486026D01*
X157612748Y-107486027D01*
X157439771Y-107557676D01*
X157439762Y-107557681D01*
X157284092Y-107661697D01*
X157284088Y-107661700D01*
X157151700Y-107794088D01*
X157151697Y-107794092D01*
X157047681Y-107949762D01*
X157047676Y-107949771D01*
X156976027Y-108122748D01*
X156976025Y-108122756D01*
X156939500Y-108306379D01*
X156939500Y-108493620D01*
X156976025Y-108677243D01*
X156976027Y-108677251D01*
X157047676Y-108850228D01*
X157047681Y-108850237D01*
X157151697Y-109005907D01*
X157151700Y-109005911D01*
X157284088Y-109138299D01*
X157284092Y-109138302D01*
X157439762Y-109242318D01*
X157439768Y-109242321D01*
X157439769Y-109242322D01*
X157612749Y-109313973D01*
X157789622Y-109349155D01*
X157796379Y-109350499D01*
X157796383Y-109350500D01*
X157796384Y-109350500D01*
X157983617Y-109350500D01*
X157983618Y-109350499D01*
X158167251Y-109313973D01*
X158340231Y-109242322D01*
X158495908Y-109138302D01*
X158628302Y-109005908D01*
X158732322Y-108850231D01*
X158803973Y-108677251D01*
X158840500Y-108493616D01*
X158840500Y-108306384D01*
X158803973Y-108122749D01*
X158732322Y-107949769D01*
X158732321Y-107949768D01*
X158732318Y-107949762D01*
X158628302Y-107794092D01*
X158628299Y-107794088D01*
X158495911Y-107661700D01*
X158495907Y-107661697D01*
X158340237Y-107557681D01*
X158340227Y-107557676D01*
X158249547Y-107520115D01*
X158195144Y-107476274D01*
X158173079Y-107409980D01*
X158173000Y-107405554D01*
X158173000Y-106110249D01*
X158192685Y-106043210D01*
X158245489Y-105997455D01*
X158280812Y-105987310D01*
X158306723Y-105983900D01*
X158306729Y-105983897D01*
X158306730Y-105983897D01*
X158416744Y-105932597D01*
X158416745Y-105932596D01*
X158416750Y-105932594D01*
X158502594Y-105846750D01*
X158553900Y-105736723D01*
X158560500Y-105686591D01*
X158560499Y-104693410D01*
X158560497Y-104693398D01*
X158557199Y-104668343D01*
X158553900Y-104643277D01*
X158553897Y-104643270D01*
X158553897Y-104643269D01*
X158502597Y-104533255D01*
X158502593Y-104533249D01*
X158416750Y-104447406D01*
X158416744Y-104447402D01*
X158298125Y-104392090D01*
X158299045Y-104390116D01*
X158250939Y-104359328D01*
X158221795Y-104295827D01*
X158220500Y-104277950D01*
X158220500Y-99507147D01*
X158754500Y-99507147D01*
X158754500Y-99592852D01*
X158776682Y-99675637D01*
X158776685Y-99675644D01*
X158819530Y-99749855D01*
X158819536Y-99749863D01*
X158843181Y-99773508D01*
X158876666Y-99834831D01*
X158879500Y-99861189D01*
X158879500Y-107089883D01*
X158910024Y-107163574D01*
X159560881Y-107814431D01*
X159594366Y-107875754D01*
X159589382Y-107945446D01*
X159587761Y-107949564D01*
X159516028Y-108122744D01*
X159516025Y-108122756D01*
X159479500Y-108306379D01*
X159479500Y-108493620D01*
X159516025Y-108677243D01*
X159516027Y-108677251D01*
X159587676Y-108850228D01*
X159587681Y-108850237D01*
X159691697Y-109005907D01*
X159691700Y-109005911D01*
X159824088Y-109138299D01*
X159824092Y-109138302D01*
X159979762Y-109242318D01*
X159979768Y-109242321D01*
X159979769Y-109242322D01*
X160152749Y-109313973D01*
X160329622Y-109349155D01*
X160336379Y-109350499D01*
X160336383Y-109350500D01*
X160336384Y-109350500D01*
X160523617Y-109350500D01*
X160523618Y-109350499D01*
X160707251Y-109313973D01*
X160880231Y-109242322D01*
X161035908Y-109138302D01*
X161168302Y-109005908D01*
X161272322Y-108850231D01*
X161343973Y-108677251D01*
X161380500Y-108493616D01*
X161380500Y-108306384D01*
X161343973Y-108122749D01*
X161272322Y-107949769D01*
X161272321Y-107949768D01*
X161272318Y-107949762D01*
X161168302Y-107794092D01*
X161168299Y-107794088D01*
X161035911Y-107661700D01*
X161035907Y-107661697D01*
X160880237Y-107557681D01*
X160880228Y-107557676D01*
X160707251Y-107486027D01*
X160707243Y-107486025D01*
X160523620Y-107449500D01*
X160523616Y-107449500D01*
X160336384Y-107449500D01*
X160336379Y-107449500D01*
X160152756Y-107486025D01*
X160152744Y-107486028D01*
X159979564Y-107557761D01*
X159910095Y-107565230D01*
X159847616Y-107533954D01*
X159844431Y-107530881D01*
X159316819Y-107003269D01*
X159283334Y-106941946D01*
X159280500Y-106915588D01*
X159280500Y-99861189D01*
X159300185Y-99794150D01*
X159316819Y-99773508D01*
X159340465Y-99749862D01*
X159383318Y-99675638D01*
X159405500Y-99592853D01*
X159405500Y-99507147D01*
X159383318Y-99424362D01*
X159342147Y-99353051D01*
X159340469Y-99350144D01*
X159340463Y-99350136D01*
X159279863Y-99289536D01*
X159279855Y-99289530D01*
X159205644Y-99246685D01*
X159205640Y-99246683D01*
X159205638Y-99246682D01*
X159122853Y-99224500D01*
X159037147Y-99224500D01*
X158954362Y-99246682D01*
X158954355Y-99246685D01*
X158880144Y-99289530D01*
X158880136Y-99289536D01*
X158819536Y-99350136D01*
X158819530Y-99350144D01*
X158776685Y-99424355D01*
X158776682Y-99424362D01*
X158754500Y-99507147D01*
X158220500Y-99507147D01*
X158220500Y-99420090D01*
X158240185Y-99353051D01*
X158256819Y-99332409D01*
X159443203Y-98146025D01*
X160689976Y-96899252D01*
X160720500Y-96825560D01*
X160720500Y-96745796D01*
X160720500Y-96079500D01*
X160721462Y-96076223D01*
X160720676Y-96072901D01*
X160731236Y-96042936D01*
X160740185Y-96012461D01*
X160742764Y-96010225D01*
X160743900Y-96007004D01*
X160768992Y-95987499D01*
X160792989Y-95966706D01*
X160797166Y-95965599D01*
X160799064Y-95964124D01*
X160812006Y-95961667D01*
X160833409Y-95955997D01*
X160838944Y-95955500D01*
X160906052Y-95955500D01*
X160953599Y-95946042D01*
X160955047Y-95945073D01*
X160967875Y-95943922D01*
X160995899Y-95949487D01*
X161024364Y-95952034D01*
X161029736Y-95956207D01*
X161036407Y-95957532D01*
X161056973Y-95977364D01*
X161079542Y-95994896D01*
X161085316Y-96003664D01*
X161147604Y-96107582D01*
X161147607Y-96107586D01*
X161147621Y-96107608D01*
X161156892Y-96121354D01*
X161172812Y-96142432D01*
X161172838Y-96142465D01*
X161183539Y-96155161D01*
X161195911Y-96168342D01*
X161227439Y-96230694D01*
X161229500Y-96253206D01*
X161229500Y-107169308D01*
X161250624Y-107248148D01*
X161260200Y-107283885D01*
X161260200Y-107283886D01*
X161260201Y-107283887D01*
X161319511Y-107386614D01*
X161319513Y-107386616D01*
X161966575Y-108033678D01*
X162000060Y-108095001D01*
X162000511Y-108145550D01*
X161969500Y-108301454D01*
X161969500Y-108301459D01*
X161969500Y-108498541D01*
X161969500Y-108498543D01*
X161969499Y-108498543D01*
X162007947Y-108691829D01*
X162007950Y-108691839D01*
X162083364Y-108873907D01*
X162083371Y-108873920D01*
X162192860Y-109037781D01*
X162192863Y-109037785D01*
X162332214Y-109177136D01*
X162332218Y-109177139D01*
X162496079Y-109286628D01*
X162496092Y-109286635D01*
X162650278Y-109350500D01*
X162678165Y-109362051D01*
X162678169Y-109362051D01*
X162678170Y-109362052D01*
X162871456Y-109400500D01*
X162871459Y-109400500D01*
X163068543Y-109400500D01*
X163198582Y-109374632D01*
X163261835Y-109362051D01*
X163402655Y-109303721D01*
X163443907Y-109286635D01*
X163443907Y-109286634D01*
X163443914Y-109286632D01*
X163607782Y-109177139D01*
X163747139Y-109037782D01*
X163856632Y-108873914D01*
X163857217Y-108872503D01*
X163932049Y-108691839D01*
X163932051Y-108691835D01*
X163970500Y-108498543D01*
X164509499Y-108498543D01*
X164547947Y-108691829D01*
X164547950Y-108691839D01*
X164623364Y-108873907D01*
X164623371Y-108873920D01*
X164732860Y-109037781D01*
X164732863Y-109037785D01*
X164872214Y-109177136D01*
X164872218Y-109177139D01*
X165036079Y-109286628D01*
X165036092Y-109286635D01*
X165190278Y-109350500D01*
X165218165Y-109362051D01*
X165218169Y-109362051D01*
X165218170Y-109362052D01*
X165411456Y-109400500D01*
X165411459Y-109400500D01*
X165608543Y-109400500D01*
X165738582Y-109374632D01*
X165801835Y-109362051D01*
X165942655Y-109303721D01*
X165983907Y-109286635D01*
X165983907Y-109286634D01*
X165983914Y-109286632D01*
X166147782Y-109177139D01*
X166287139Y-109037782D01*
X166396632Y-108873914D01*
X166397217Y-108872503D01*
X166472049Y-108691839D01*
X166472051Y-108691835D01*
X166510500Y-108498541D01*
X166510500Y-108438872D01*
X170309500Y-108438872D01*
X170309500Y-108701127D01*
X170332248Y-108873907D01*
X170343730Y-108961116D01*
X170410418Y-109210000D01*
X170411602Y-109214418D01*
X170411605Y-109214428D01*
X170511953Y-109456690D01*
X170511958Y-109456700D01*
X170643075Y-109683803D01*
X170802718Y-109891851D01*
X170802726Y-109891860D01*
X170988140Y-110077274D01*
X170988148Y-110077281D01*
X171196196Y-110236924D01*
X171423299Y-110368041D01*
X171423309Y-110368046D01*
X171665571Y-110468394D01*
X171665581Y-110468398D01*
X171918884Y-110536270D01*
X172178880Y-110570500D01*
X172178887Y-110570500D01*
X172441113Y-110570500D01*
X172441120Y-110570500D01*
X172701116Y-110536270D01*
X172954419Y-110468398D01*
X173196697Y-110368043D01*
X173423803Y-110236924D01*
X173631851Y-110077282D01*
X173631855Y-110077277D01*
X173631860Y-110077274D01*
X173817274Y-109891860D01*
X173817277Y-109891855D01*
X173817282Y-109891851D01*
X173976924Y-109683803D01*
X174108043Y-109456697D01*
X174113710Y-109443017D01*
X174189559Y-109259901D01*
X174208398Y-109214419D01*
X174276270Y-108961116D01*
X174310500Y-108701120D01*
X174310500Y-108438880D01*
X174276270Y-108178884D01*
X174208398Y-107925581D01*
X174162358Y-107814431D01*
X174108046Y-107683309D01*
X174108041Y-107683299D01*
X173976924Y-107456196D01*
X173817281Y-107248148D01*
X173817274Y-107248140D01*
X173631860Y-107062726D01*
X173631851Y-107062718D01*
X173423803Y-106903075D01*
X173196700Y-106771958D01*
X173196690Y-106771953D01*
X172954428Y-106671605D01*
X172954421Y-106671603D01*
X172954419Y-106671602D01*
X172701116Y-106603730D01*
X172643339Y-106596123D01*
X172441127Y-106569500D01*
X172441120Y-106569500D01*
X172178880Y-106569500D01*
X172178872Y-106569500D01*
X171947772Y-106599926D01*
X171918884Y-106603730D01*
X171665581Y-106671602D01*
X171665571Y-106671605D01*
X171423309Y-106771953D01*
X171423299Y-106771958D01*
X171196196Y-106903075D01*
X170988148Y-107062718D01*
X170802718Y-107248148D01*
X170643075Y-107456196D01*
X170511958Y-107683299D01*
X170511953Y-107683309D01*
X170411605Y-107925571D01*
X170411602Y-107925581D01*
X170352084Y-108147709D01*
X170343730Y-108178885D01*
X170309500Y-108438872D01*
X166510500Y-108438872D01*
X166510500Y-108301459D01*
X166510500Y-108301456D01*
X166472052Y-108108170D01*
X166472051Y-108108169D01*
X166472051Y-108108165D01*
X166406357Y-107949564D01*
X166396635Y-107926092D01*
X166396628Y-107926079D01*
X166287139Y-107762218D01*
X166287136Y-107762214D01*
X166147785Y-107622863D01*
X166147781Y-107622860D01*
X165983920Y-107513371D01*
X165983907Y-107513364D01*
X165801839Y-107437950D01*
X165801829Y-107437947D01*
X165608543Y-107399500D01*
X165608541Y-107399500D01*
X165411459Y-107399500D01*
X165411457Y-107399500D01*
X165218170Y-107437947D01*
X165218160Y-107437950D01*
X165036092Y-107513364D01*
X165036079Y-107513371D01*
X164872218Y-107622860D01*
X164872214Y-107622863D01*
X164732863Y-107762214D01*
X164732860Y-107762218D01*
X164623371Y-107926079D01*
X164623364Y-107926092D01*
X164547950Y-108108160D01*
X164547947Y-108108170D01*
X164509500Y-108301456D01*
X164509500Y-108301459D01*
X164509500Y-108498541D01*
X164509500Y-108498543D01*
X164509499Y-108498543D01*
X163970500Y-108498543D01*
X163970500Y-108498541D01*
X163970500Y-108301459D01*
X163970500Y-108301456D01*
X163932052Y-108108170D01*
X163932051Y-108108169D01*
X163932051Y-108108165D01*
X163866357Y-107949564D01*
X163856635Y-107926092D01*
X163856628Y-107926079D01*
X163747139Y-107762218D01*
X163747136Y-107762214D01*
X163607785Y-107622863D01*
X163607781Y-107622860D01*
X163443920Y-107513371D01*
X163443907Y-107513364D01*
X163261839Y-107437950D01*
X163261829Y-107437947D01*
X163068543Y-107399500D01*
X163068541Y-107399500D01*
X162871459Y-107399500D01*
X162871454Y-107399500D01*
X162715550Y-107430511D01*
X162645958Y-107424284D01*
X162603678Y-107396575D01*
X162166819Y-106959716D01*
X162133334Y-106898393D01*
X162130500Y-106872035D01*
X162130500Y-96525573D01*
X162150185Y-96458534D01*
X162185766Y-96422366D01*
X162216232Y-96402078D01*
X162242269Y-96380285D01*
X162279528Y-96341435D01*
X162300215Y-96314510D01*
X162331210Y-96263465D01*
X162345558Y-96232692D01*
X162358373Y-96194897D01*
X162398539Y-96137732D01*
X162463239Y-96111355D01*
X162531928Y-96124145D01*
X162563486Y-96147036D01*
X164153181Y-97736731D01*
X164186666Y-97798054D01*
X164189500Y-97824412D01*
X164189500Y-98569883D01*
X164220024Y-98643574D01*
X164298181Y-98721731D01*
X164331666Y-98783054D01*
X164334500Y-98809412D01*
X164334500Y-98842852D01*
X164356682Y-98925637D01*
X164356685Y-98925644D01*
X164399530Y-98999855D01*
X164399534Y-98999860D01*
X164399535Y-98999862D01*
X164460138Y-99060465D01*
X164460140Y-99060466D01*
X164460144Y-99060469D01*
X164534355Y-99103314D01*
X164534362Y-99103318D01*
X164617147Y-99125500D01*
X164617149Y-99125500D01*
X164702851Y-99125500D01*
X164702853Y-99125500D01*
X164785638Y-99103318D01*
X164859862Y-99060465D01*
X164920465Y-98999862D01*
X164963318Y-98925638D01*
X164985500Y-98842853D01*
X164985500Y-98757147D01*
X164963318Y-98674362D01*
X164963314Y-98674355D01*
X164920469Y-98600144D01*
X164920463Y-98600136D01*
X164859863Y-98539536D01*
X164859855Y-98539530D01*
X164785644Y-98496685D01*
X164785640Y-98496683D01*
X164785638Y-98496682D01*
X164752039Y-98487679D01*
X164702847Y-98474498D01*
X164698308Y-98473901D01*
X164634413Y-98445631D01*
X164595945Y-98387305D01*
X164590500Y-98350963D01*
X164590500Y-98013411D01*
X164610185Y-97946372D01*
X164662989Y-97900617D01*
X164732147Y-97890673D01*
X164795703Y-97919698D01*
X164802181Y-97925730D01*
X168703181Y-101826730D01*
X168736666Y-101888053D01*
X168739500Y-101914411D01*
X168739500Y-103735199D01*
X168719815Y-103802238D01*
X168667011Y-103847993D01*
X168633379Y-103857903D01*
X168588608Y-103864426D01*
X168483514Y-103915803D01*
X168400803Y-103998514D01*
X168349426Y-104103608D01*
X168339500Y-104171739D01*
X168339500Y-105188260D01*
X168349426Y-105256391D01*
X168400803Y-105361485D01*
X168483514Y-105444196D01*
X168483515Y-105444196D01*
X168483517Y-105444198D01*
X168588607Y-105495573D01*
X168622673Y-105500536D01*
X168656739Y-105505500D01*
X168656740Y-105505500D01*
X169223261Y-105505500D01*
X169245971Y-105502191D01*
X169291393Y-105495573D01*
X169396483Y-105444198D01*
X169479198Y-105361483D01*
X169530573Y-105256393D01*
X169540500Y-105188260D01*
X169540500Y-104994500D01*
X169560185Y-104927461D01*
X169612989Y-104881706D01*
X169664500Y-104870500D01*
X171724800Y-104870500D01*
X171791839Y-104890185D01*
X171793691Y-104891398D01*
X171929762Y-104982318D01*
X171929768Y-104982321D01*
X171929769Y-104982322D01*
X172102749Y-105053973D01*
X172286379Y-105090499D01*
X172286383Y-105090500D01*
X172286384Y-105090500D01*
X172473617Y-105090500D01*
X172473618Y-105090499D01*
X172657251Y-105053973D01*
X172830231Y-104982322D01*
X172985908Y-104878302D01*
X173118302Y-104745908D01*
X173222322Y-104590231D01*
X173293973Y-104417251D01*
X173330500Y-104233616D01*
X173330500Y-104046384D01*
X173293973Y-103862749D01*
X173222322Y-103689769D01*
X173222321Y-103689768D01*
X173222318Y-103689762D01*
X173118302Y-103534092D01*
X173118299Y-103534088D01*
X172985911Y-103401700D01*
X172985907Y-103401697D01*
X172830237Y-103297681D01*
X172830228Y-103297676D01*
X172657251Y-103226027D01*
X172657243Y-103226025D01*
X172473620Y-103189500D01*
X172473616Y-103189500D01*
X172286384Y-103189500D01*
X172286379Y-103189500D01*
X172102756Y-103226025D01*
X172102748Y-103226027D01*
X171929771Y-103297676D01*
X171929762Y-103297681D01*
X171774092Y-103401697D01*
X171774088Y-103401700D01*
X171641700Y-103534088D01*
X171641697Y-103534092D01*
X171537681Y-103689762D01*
X171537676Y-103689771D01*
X171466027Y-103862748D01*
X171466025Y-103862756D01*
X171429500Y-104046379D01*
X171429500Y-104233617D01*
X171446943Y-104321308D01*
X171440716Y-104390900D01*
X171397853Y-104446077D01*
X171331963Y-104469322D01*
X171325326Y-104469500D01*
X169664500Y-104469500D01*
X169597461Y-104449815D01*
X169551706Y-104397011D01*
X169540500Y-104345500D01*
X169540500Y-104171739D01*
X169530573Y-104103608D01*
X169530573Y-104103607D01*
X169479198Y-103998517D01*
X169479196Y-103998515D01*
X169479196Y-103998514D01*
X169396485Y-103915803D01*
X169291391Y-103864426D01*
X169246621Y-103857903D01*
X169183120Y-103828758D01*
X169145457Y-103769909D01*
X169140500Y-103735199D01*
X169140500Y-101924500D01*
X169160185Y-101857461D01*
X169212989Y-101811706D01*
X169264500Y-101800500D01*
X169269883Y-101800500D01*
X171351382Y-101800500D01*
X171418421Y-101820185D01*
X171464176Y-101872989D01*
X171465943Y-101877047D01*
X171466026Y-101877248D01*
X171466027Y-101877251D01*
X171481419Y-101914411D01*
X171537676Y-102050228D01*
X171537681Y-102050237D01*
X171641697Y-102205907D01*
X171641700Y-102205911D01*
X171774088Y-102338299D01*
X171774092Y-102338302D01*
X171929762Y-102442318D01*
X171929768Y-102442321D01*
X171929769Y-102442322D01*
X172102749Y-102513973D01*
X172286379Y-102550499D01*
X172286383Y-102550500D01*
X172286384Y-102550500D01*
X172473617Y-102550500D01*
X172473618Y-102550499D01*
X172657251Y-102513973D01*
X172830231Y-102442322D01*
X172985908Y-102338302D01*
X173118302Y-102205908D01*
X173222322Y-102050231D01*
X173293973Y-101877251D01*
X173330500Y-101693616D01*
X173330500Y-101506384D01*
X173293973Y-101322749D01*
X173222322Y-101149769D01*
X173222321Y-101149768D01*
X173222318Y-101149762D01*
X173118302Y-100994092D01*
X173118299Y-100994088D01*
X172985911Y-100861700D01*
X172985907Y-100861697D01*
X172830237Y-100757681D01*
X172830228Y-100757676D01*
X172657251Y-100686027D01*
X172657243Y-100686025D01*
X172473620Y-100649500D01*
X172473616Y-100649500D01*
X172286384Y-100649500D01*
X172286379Y-100649500D01*
X172102756Y-100686025D01*
X172102748Y-100686027D01*
X171929771Y-100757676D01*
X171929762Y-100757681D01*
X171774092Y-100861697D01*
X171774088Y-100861700D01*
X171641700Y-100994088D01*
X171641697Y-100994092D01*
X171537681Y-101149762D01*
X171537676Y-101149771D01*
X171487398Y-101271153D01*
X171466028Y-101322748D01*
X171465943Y-101322953D01*
X171422102Y-101377356D01*
X171355808Y-101399421D01*
X171351382Y-101399500D01*
X169364412Y-101399500D01*
X169297373Y-101379815D01*
X169276731Y-101363181D01*
X166879929Y-98966379D01*
X171429500Y-98966379D01*
X171429500Y-99153620D01*
X171466025Y-99337243D01*
X171466027Y-99337251D01*
X171537676Y-99510228D01*
X171537681Y-99510237D01*
X171641697Y-99665907D01*
X171641700Y-99665911D01*
X171774088Y-99798299D01*
X171774092Y-99798302D01*
X171929762Y-99902318D01*
X171929768Y-99902321D01*
X171929769Y-99902322D01*
X172102749Y-99973973D01*
X172286379Y-100010499D01*
X172286383Y-100010500D01*
X172286384Y-100010500D01*
X172473617Y-100010500D01*
X172473618Y-100010499D01*
X172657251Y-99973973D01*
X172830231Y-99902322D01*
X172985908Y-99798302D01*
X173118302Y-99665908D01*
X173222322Y-99510231D01*
X173293973Y-99337251D01*
X173330500Y-99153616D01*
X173330500Y-98966384D01*
X173293973Y-98782749D01*
X173222322Y-98609769D01*
X173222321Y-98609768D01*
X173222318Y-98609762D01*
X173118302Y-98454092D01*
X173118299Y-98454088D01*
X172985911Y-98321700D01*
X172985907Y-98321697D01*
X172830237Y-98217681D01*
X172830228Y-98217676D01*
X172657251Y-98146027D01*
X172657243Y-98146025D01*
X172473620Y-98109500D01*
X172473616Y-98109500D01*
X172286384Y-98109500D01*
X172286379Y-98109500D01*
X172102756Y-98146025D01*
X172102748Y-98146027D01*
X171929771Y-98217676D01*
X171929762Y-98217681D01*
X171774092Y-98321697D01*
X171774088Y-98321700D01*
X171641700Y-98454088D01*
X171641697Y-98454092D01*
X171537681Y-98609762D01*
X171537676Y-98609771D01*
X171466027Y-98782748D01*
X171466025Y-98782756D01*
X171429500Y-98966379D01*
X166879929Y-98966379D01*
X161076618Y-93163068D01*
X161069861Y-93152156D01*
X161062599Y-93146331D01*
X161054543Y-93127421D01*
X161046731Y-93114805D01*
X161044222Y-93107324D01*
X161043542Y-93103901D01*
X161042604Y-93102498D01*
X161039728Y-93093918D01*
X161038560Y-93063121D01*
X161035267Y-93032481D01*
X161037248Y-93028522D01*
X161037081Y-93024099D01*
X161052748Y-92997558D01*
X161066543Y-92970002D01*
X161070349Y-92967743D01*
X161072600Y-92963931D01*
X161100127Y-92950075D01*
X161126632Y-92934351D01*
X161132946Y-92933557D01*
X161135011Y-92932519D01*
X161138388Y-92932874D01*
X161157296Y-92930500D01*
X161625588Y-92930500D01*
X161692627Y-92950185D01*
X161713269Y-92966819D01*
X161776426Y-93029976D01*
X161850118Y-93060500D01*
X161929882Y-93060500D01*
X164938811Y-93060500D01*
X165005850Y-93080185D01*
X165026492Y-93096819D01*
X165050138Y-93120465D01*
X165050140Y-93120466D01*
X165050144Y-93120469D01*
X165123929Y-93163068D01*
X165124362Y-93163318D01*
X165207147Y-93185500D01*
X165207149Y-93185500D01*
X165292851Y-93185500D01*
X165292853Y-93185500D01*
X165375638Y-93163318D01*
X165449862Y-93120465D01*
X165510465Y-93059862D01*
X165553318Y-92985638D01*
X165575500Y-92902853D01*
X165575500Y-92817147D01*
X165553318Y-92734362D01*
X165553314Y-92734355D01*
X165510469Y-92660144D01*
X165510463Y-92660136D01*
X165502508Y-92652181D01*
X165469023Y-92590858D01*
X165474007Y-92521166D01*
X165515879Y-92465233D01*
X165581343Y-92440816D01*
X165590189Y-92440500D01*
X166018811Y-92440500D01*
X166085850Y-92460185D01*
X166106492Y-92476819D01*
X166130138Y-92500465D01*
X166130140Y-92500466D01*
X166130144Y-92500469D01*
X166204355Y-92543314D01*
X166204362Y-92543318D01*
X166287147Y-92565500D01*
X166287149Y-92565500D01*
X166372851Y-92565500D01*
X166372853Y-92565500D01*
X166455638Y-92543318D01*
X166529862Y-92500465D01*
X166590465Y-92439862D01*
X166633318Y-92365638D01*
X166655500Y-92282853D01*
X166655500Y-92197147D01*
X166633318Y-92114362D01*
X166608308Y-92071043D01*
X166590469Y-92040144D01*
X166590463Y-92040136D01*
X166529863Y-91979536D01*
X166529858Y-91979532D01*
X166520946Y-91974387D01*
X166472731Y-91923820D01*
X166459507Y-91855213D01*
X166485475Y-91790348D01*
X166542389Y-91749820D01*
X166582946Y-91743000D01*
X169777380Y-91743000D01*
X169777382Y-91743000D01*
X169851074Y-91712476D01*
X170217171Y-91346379D01*
X171429500Y-91346379D01*
X171429500Y-91533620D01*
X171466025Y-91717243D01*
X171466027Y-91717251D01*
X171537676Y-91890228D01*
X171537681Y-91890237D01*
X171641697Y-92045907D01*
X171641700Y-92045911D01*
X171774088Y-92178299D01*
X171774092Y-92178302D01*
X171929762Y-92282318D01*
X171929771Y-92282323D01*
X171931051Y-92282853D01*
X172102749Y-92353973D01*
X172286379Y-92390499D01*
X172286383Y-92390500D01*
X172286384Y-92390500D01*
X172473617Y-92390500D01*
X172473618Y-92390499D01*
X172657251Y-92353973D01*
X172830231Y-92282322D01*
X172985908Y-92178302D01*
X173118302Y-92045908D01*
X173222322Y-91890231D01*
X173293973Y-91717251D01*
X173330500Y-91533616D01*
X173330500Y-91346384D01*
X173293973Y-91162749D01*
X173222322Y-90989769D01*
X173222321Y-90989768D01*
X173222318Y-90989762D01*
X173118302Y-90834092D01*
X173118299Y-90834088D01*
X172985911Y-90701700D01*
X172985907Y-90701697D01*
X172830237Y-90597681D01*
X172830228Y-90597676D01*
X172657251Y-90526027D01*
X172657243Y-90526025D01*
X172473620Y-90489500D01*
X172473616Y-90489500D01*
X172286384Y-90489500D01*
X172286379Y-90489500D01*
X172102756Y-90526025D01*
X172102748Y-90526027D01*
X171929771Y-90597676D01*
X171929762Y-90597681D01*
X171774092Y-90701697D01*
X171774088Y-90701700D01*
X171641700Y-90834088D01*
X171641697Y-90834092D01*
X171537681Y-90989762D01*
X171537676Y-90989771D01*
X171466027Y-91162748D01*
X171466025Y-91162756D01*
X171429500Y-91346379D01*
X170217171Y-91346379D01*
X171794433Y-89769115D01*
X171855754Y-89735632D01*
X171925445Y-89740616D01*
X171929565Y-89742237D01*
X171929767Y-89742320D01*
X171929769Y-89742322D01*
X172102749Y-89813973D01*
X172270392Y-89847319D01*
X172286379Y-89850499D01*
X172286383Y-89850500D01*
X172286384Y-89850500D01*
X172473617Y-89850500D01*
X172473618Y-89850499D01*
X172657251Y-89813973D01*
X172830231Y-89742322D01*
X172985908Y-89638302D01*
X173118302Y-89505908D01*
X173222322Y-89350231D01*
X173293973Y-89177251D01*
X173330500Y-88993616D01*
X173330500Y-88806384D01*
X173293973Y-88622749D01*
X173230125Y-88468607D01*
X173222323Y-88449771D01*
X173222318Y-88449762D01*
X173118302Y-88294092D01*
X173118299Y-88294088D01*
X172997392Y-88173181D01*
X172963907Y-88111858D01*
X172968891Y-88042166D01*
X173010763Y-87986233D01*
X173076227Y-87961816D01*
X173085073Y-87961500D01*
X173556588Y-87961500D01*
X173623627Y-87981185D01*
X173644269Y-87997819D01*
X173872181Y-88225731D01*
X173905666Y-88287054D01*
X173908500Y-88313412D01*
X173908500Y-93446588D01*
X173888815Y-93513627D01*
X173872181Y-93534269D01*
X173663269Y-93743181D01*
X173636341Y-93757884D01*
X173610523Y-93774477D01*
X173604322Y-93775368D01*
X173601946Y-93776666D01*
X173575588Y-93779500D01*
X173408618Y-93779500D01*
X173341579Y-93759815D01*
X173295824Y-93707011D01*
X173294057Y-93702953D01*
X173293972Y-93702748D01*
X173222322Y-93529769D01*
X173222321Y-93529768D01*
X173222318Y-93529762D01*
X173118302Y-93374092D01*
X173118299Y-93374088D01*
X172985911Y-93241700D01*
X172985907Y-93241697D01*
X172830237Y-93137681D01*
X172830228Y-93137676D01*
X172657251Y-93066027D01*
X172657243Y-93066025D01*
X172473620Y-93029500D01*
X172473616Y-93029500D01*
X172286384Y-93029500D01*
X172286379Y-93029500D01*
X172102756Y-93066025D01*
X172102748Y-93066027D01*
X171929771Y-93137676D01*
X171929762Y-93137681D01*
X171774092Y-93241697D01*
X171774088Y-93241700D01*
X171641700Y-93374088D01*
X171641697Y-93374092D01*
X171537681Y-93529762D01*
X171537676Y-93529771D01*
X171466027Y-93702748D01*
X171466025Y-93702756D01*
X171429500Y-93886379D01*
X171429500Y-94073620D01*
X171466025Y-94257243D01*
X171466027Y-94257251D01*
X171537676Y-94430228D01*
X171537681Y-94430237D01*
X171641697Y-94585907D01*
X171641700Y-94585911D01*
X171774088Y-94718299D01*
X171774092Y-94718302D01*
X171929762Y-94822318D01*
X171929771Y-94822323D01*
X171968956Y-94838554D01*
X172102749Y-94893973D01*
X172286379Y-94930499D01*
X172286383Y-94930500D01*
X172286384Y-94930500D01*
X172473617Y-94930500D01*
X172473618Y-94930499D01*
X172657251Y-94893973D01*
X172830231Y-94822322D01*
X172985908Y-94718302D01*
X173118302Y-94585908D01*
X173222322Y-94430231D01*
X173293973Y-94257251D01*
X173293973Y-94257248D01*
X173294057Y-94257047D01*
X173337898Y-94202644D01*
X173404192Y-94180579D01*
X173408618Y-94180500D01*
X173749880Y-94180500D01*
X173749882Y-94180500D01*
X173823574Y-94149976D01*
X173997819Y-93975731D01*
X174059142Y-93942246D01*
X174128834Y-93947230D01*
X174184767Y-93989102D01*
X174209184Y-94054566D01*
X174209500Y-94063412D01*
X174209500Y-95845588D01*
X174189815Y-95912627D01*
X174173181Y-95933269D01*
X173823269Y-96283181D01*
X173761946Y-96316666D01*
X173735588Y-96319500D01*
X173408618Y-96319500D01*
X173341579Y-96299815D01*
X173295824Y-96247011D01*
X173294057Y-96242953D01*
X173293972Y-96242748D01*
X173222322Y-96069769D01*
X173222321Y-96069768D01*
X173222318Y-96069762D01*
X173118302Y-95914092D01*
X173118299Y-95914088D01*
X172985911Y-95781700D01*
X172985907Y-95781697D01*
X172830237Y-95677681D01*
X172830228Y-95677676D01*
X172657251Y-95606027D01*
X172657243Y-95606025D01*
X172473620Y-95569500D01*
X172473616Y-95569500D01*
X172286384Y-95569500D01*
X172286379Y-95569500D01*
X172102756Y-95606025D01*
X172102748Y-95606027D01*
X171929771Y-95677676D01*
X171929762Y-95677681D01*
X171774092Y-95781697D01*
X171774088Y-95781700D01*
X171641700Y-95914088D01*
X171641697Y-95914092D01*
X171537681Y-96069762D01*
X171537676Y-96069771D01*
X171466027Y-96242748D01*
X171466025Y-96242756D01*
X171429500Y-96426379D01*
X171429500Y-96613620D01*
X171466025Y-96797243D01*
X171466027Y-96797251D01*
X171537676Y-96970228D01*
X171537681Y-96970237D01*
X171641697Y-97125907D01*
X171641700Y-97125911D01*
X171774088Y-97258299D01*
X171774092Y-97258302D01*
X171929762Y-97362318D01*
X171929768Y-97362321D01*
X171929769Y-97362322D01*
X172102749Y-97433973D01*
X172286379Y-97470499D01*
X172286383Y-97470500D01*
X172286384Y-97470500D01*
X172473617Y-97470500D01*
X172473618Y-97470499D01*
X172657251Y-97433973D01*
X172830231Y-97362322D01*
X172985908Y-97258302D01*
X173118302Y-97125908D01*
X173222322Y-96970231D01*
X173293973Y-96797251D01*
X173293973Y-96797248D01*
X173294057Y-96797047D01*
X173337898Y-96742644D01*
X173404192Y-96720579D01*
X173408618Y-96720500D01*
X173909880Y-96720500D01*
X173909882Y-96720500D01*
X173983574Y-96689976D01*
X174367819Y-96305731D01*
X174429142Y-96272246D01*
X174498834Y-96277230D01*
X174554767Y-96319102D01*
X174579184Y-96384566D01*
X174579500Y-96393412D01*
X174579500Y-109205572D01*
X174579184Y-109214418D01*
X174562834Y-109443017D01*
X174560316Y-109460529D01*
X174512543Y-109680137D01*
X174507559Y-109697112D01*
X174429019Y-109907688D01*
X174421669Y-109923782D01*
X174313959Y-110121036D01*
X174304394Y-110135919D01*
X174169710Y-110315836D01*
X174158124Y-110329207D01*
X173999207Y-110488124D01*
X173985836Y-110499710D01*
X173805919Y-110634394D01*
X173791036Y-110643959D01*
X173593782Y-110751669D01*
X173577688Y-110759019D01*
X173367112Y-110837559D01*
X173350137Y-110842543D01*
X173130529Y-110890316D01*
X173113017Y-110892834D01*
X172884418Y-110909184D01*
X172875572Y-110909500D01*
X142934428Y-110909500D01*
X142925582Y-110909184D01*
X142696982Y-110892834D01*
X142679470Y-110890316D01*
X142459862Y-110842543D01*
X142442887Y-110837559D01*
X142232311Y-110759019D01*
X142216217Y-110751669D01*
X142018963Y-110643959D01*
X142004080Y-110634394D01*
X141824163Y-110499710D01*
X141810792Y-110488124D01*
X141651875Y-110329207D01*
X141640289Y-110315836D01*
X141505605Y-110135919D01*
X141496040Y-110121036D01*
X141388330Y-109923782D01*
X141380983Y-109907694D01*
X141302437Y-109697103D01*
X141297458Y-109680144D01*
X141249683Y-109460529D01*
X141247165Y-109443017D01*
X141241374Y-109362051D01*
X141230816Y-109214418D01*
X141230500Y-109205572D01*
X141230500Y-108995241D01*
X141250185Y-108928202D01*
X141302989Y-108882447D01*
X141372147Y-108872503D01*
X141435703Y-108901528D01*
X141473477Y-108960306D01*
X141474263Y-108963106D01*
X141540418Y-109210000D01*
X141541602Y-109214418D01*
X141541605Y-109214428D01*
X141641953Y-109456690D01*
X141641958Y-109456700D01*
X141773075Y-109683803D01*
X141932718Y-109891851D01*
X141932726Y-109891860D01*
X142118140Y-110077274D01*
X142118148Y-110077281D01*
X142326196Y-110236924D01*
X142553299Y-110368041D01*
X142553309Y-110368046D01*
X142795571Y-110468394D01*
X142795581Y-110468398D01*
X143048884Y-110536270D01*
X143308880Y-110570500D01*
X143308887Y-110570500D01*
X143571113Y-110570500D01*
X143571120Y-110570500D01*
X143831116Y-110536270D01*
X144084419Y-110468398D01*
X144326697Y-110368043D01*
X144553803Y-110236924D01*
X144761851Y-110077282D01*
X144761855Y-110077277D01*
X144761860Y-110077274D01*
X144947274Y-109891860D01*
X144947277Y-109891855D01*
X144947282Y-109891851D01*
X145106924Y-109683803D01*
X145238043Y-109456697D01*
X145243710Y-109443017D01*
X145319559Y-109259901D01*
X145338398Y-109214419D01*
X145406270Y-108961116D01*
X145440500Y-108701120D01*
X145440500Y-108438880D01*
X145406270Y-108178884D01*
X145338398Y-107925581D01*
X145292358Y-107814431D01*
X145238046Y-107683309D01*
X145238041Y-107683299D01*
X145106924Y-107456196D01*
X144947281Y-107248148D01*
X144947274Y-107248140D01*
X144761860Y-107062726D01*
X144761851Y-107062718D01*
X144553803Y-106903075D01*
X144326700Y-106771958D01*
X144326690Y-106771953D01*
X144084428Y-106671605D01*
X144084421Y-106671603D01*
X144084419Y-106671602D01*
X143831116Y-106603730D01*
X143773339Y-106596123D01*
X143571127Y-106569500D01*
X143571120Y-106569500D01*
X143308880Y-106569500D01*
X143308872Y-106569500D01*
X143077772Y-106599926D01*
X143048884Y-106603730D01*
X142795581Y-106671602D01*
X142795571Y-106671605D01*
X142553309Y-106771953D01*
X142553299Y-106771958D01*
X142326196Y-106903075D01*
X142118148Y-107062718D01*
X141932718Y-107248148D01*
X141773075Y-107456196D01*
X141641958Y-107683299D01*
X141641953Y-107683309D01*
X141541605Y-107925571D01*
X141541602Y-107925581D01*
X141482084Y-108147709D01*
X141474275Y-108176851D01*
X141437910Y-108236512D01*
X141375063Y-108267041D01*
X141305687Y-108258746D01*
X141251810Y-108214261D01*
X141230535Y-108147709D01*
X141230500Y-108144758D01*
X141230500Y-80371739D01*
X144154500Y-80371739D01*
X144154500Y-80938260D01*
X144164426Y-81006391D01*
X144215803Y-81111485D01*
X144298514Y-81194196D01*
X144298515Y-81194196D01*
X144298517Y-81194198D01*
X144403607Y-81245573D01*
X144437673Y-81250536D01*
X144471739Y-81255500D01*
X144471740Y-81255500D01*
X145488261Y-81255500D01*
X145510971Y-81252191D01*
X145556393Y-81245573D01*
X145661483Y-81194198D01*
X145744198Y-81111483D01*
X145795573Y-81006393D01*
X145802096Y-80961619D01*
X145831239Y-80898122D01*
X145890088Y-80860458D01*
X145924800Y-80855500D01*
X148318552Y-80855500D01*
X148385591Y-80875185D01*
X148421654Y-80910608D01*
X148429376Y-80922165D01*
X148547837Y-81040626D01*
X148640494Y-81102537D01*
X148687137Y-81133703D01*
X148841918Y-81197816D01*
X149006228Y-81230499D01*
X149006232Y-81230500D01*
X149006233Y-81230500D01*
X149173768Y-81230500D01*
X149173769Y-81230499D01*
X149338082Y-81197816D01*
X149492863Y-81133703D01*
X149632162Y-81040626D01*
X149750626Y-80922162D01*
X149843703Y-80782863D01*
X149895818Y-80657046D01*
X149939659Y-80602644D01*
X150005953Y-80580579D01*
X150010379Y-80580500D01*
X151932380Y-80580500D01*
X151932382Y-80580500D01*
X152006074Y-80549976D01*
X153064230Y-79491818D01*
X153125553Y-79458334D01*
X153151911Y-79455500D01*
X153913261Y-79455500D01*
X153935971Y-79452191D01*
X153981393Y-79445573D01*
X154086483Y-79394198D01*
X154169198Y-79311483D01*
X154220573Y-79206393D01*
X154230500Y-79138260D01*
X154230500Y-78546740D01*
X154229601Y-78540573D01*
X154220573Y-78478608D01*
X154220573Y-78478607D01*
X154169198Y-78373517D01*
X154169196Y-78373515D01*
X154169196Y-78373514D01*
X154086485Y-78290803D01*
X153981391Y-78239426D01*
X153913261Y-78229500D01*
X153913260Y-78229500D01*
X152946740Y-78229500D01*
X152946739Y-78229500D01*
X152878608Y-78239426D01*
X152773514Y-78290803D01*
X152690803Y-78373514D01*
X152639426Y-78478608D01*
X152629500Y-78546739D01*
X152629500Y-79138260D01*
X152639425Y-79206388D01*
X152639426Y-79206390D01*
X152639427Y-79206393D01*
X152647540Y-79222989D01*
X152659299Y-79291860D01*
X152631955Y-79356157D01*
X152623820Y-79365128D01*
X151845769Y-80143181D01*
X151784446Y-80176666D01*
X151758088Y-80179500D01*
X150010379Y-80179500D01*
X149943340Y-80159815D01*
X149897585Y-80107011D01*
X149895818Y-80102953D01*
X149843704Y-79977139D01*
X149831945Y-79959541D01*
X149805511Y-79919979D01*
X149750626Y-79837837D01*
X149632162Y-79719373D01*
X149492860Y-79626295D01*
X149338082Y-79562184D01*
X149338074Y-79562182D01*
X149173771Y-79529500D01*
X149173767Y-79529500D01*
X149006233Y-79529500D01*
X149006228Y-79529500D01*
X148841925Y-79562182D01*
X148841917Y-79562184D01*
X148687139Y-79626295D01*
X148547837Y-79719373D01*
X148429373Y-79837837D01*
X148336295Y-79977139D01*
X148272184Y-80131917D01*
X148272182Y-80131925D01*
X148239500Y-80296228D01*
X148239500Y-80330500D01*
X148219815Y-80397539D01*
X148167011Y-80443294D01*
X148115500Y-80454500D01*
X145924800Y-80454500D01*
X145857761Y-80434815D01*
X145812006Y-80382011D01*
X145802096Y-80348383D01*
X145795573Y-80303607D01*
X145744198Y-80198517D01*
X145744196Y-80198515D01*
X145744196Y-80198514D01*
X145661485Y-80115803D01*
X145556391Y-80064426D01*
X145488261Y-80054500D01*
X145488260Y-80054500D01*
X144471740Y-80054500D01*
X144471739Y-80054500D01*
X144403608Y-80064426D01*
X144298514Y-80115803D01*
X144215803Y-80198514D01*
X144164426Y-80303608D01*
X144154500Y-80371739D01*
X141230500Y-80371739D01*
X141230500Y-74921739D01*
X144154500Y-74921739D01*
X144154500Y-75488260D01*
X144164426Y-75556391D01*
X144215803Y-75661485D01*
X144298514Y-75744196D01*
X144298515Y-75744196D01*
X144298517Y-75744198D01*
X144403607Y-75795573D01*
X144437673Y-75800536D01*
X144471739Y-75805500D01*
X144471740Y-75805500D01*
X145488261Y-75805500D01*
X145510971Y-75802191D01*
X145556393Y-75795573D01*
X145661483Y-75744198D01*
X145744198Y-75661483D01*
X145795573Y-75556393D01*
X145802096Y-75511619D01*
X145831239Y-75448122D01*
X145890088Y-75410458D01*
X145924800Y-75405500D01*
X148115500Y-75405500D01*
X148182539Y-75425185D01*
X148228294Y-75477989D01*
X148239500Y-75529500D01*
X148239500Y-75583771D01*
X148272182Y-75748074D01*
X148272184Y-75748082D01*
X148336295Y-75902860D01*
X148429373Y-76042162D01*
X148547837Y-76160626D01*
X148640494Y-76222537D01*
X148687137Y-76253703D01*
X148841918Y-76317816D01*
X149006228Y-76350499D01*
X149006232Y-76350500D01*
X149006233Y-76350500D01*
X149173768Y-76350500D01*
X149173769Y-76350499D01*
X149338082Y-76317816D01*
X149492863Y-76253703D01*
X149632162Y-76160626D01*
X149750626Y-76042162D01*
X149843703Y-75902863D01*
X149895818Y-75777046D01*
X149939659Y-75722644D01*
X150005953Y-75700579D01*
X150010379Y-75700500D01*
X151778088Y-75700500D01*
X151845127Y-75720185D01*
X151865769Y-75736819D01*
X152623820Y-76494870D01*
X152657305Y-76556193D01*
X152652321Y-76625885D01*
X152647541Y-76637008D01*
X152639428Y-76653603D01*
X152639425Y-76653611D01*
X152629500Y-76721739D01*
X152629500Y-77313260D01*
X152639426Y-77381391D01*
X152690803Y-77486485D01*
X152773514Y-77569196D01*
X152773515Y-77569196D01*
X152773517Y-77569198D01*
X152878607Y-77620573D01*
X152912673Y-77625536D01*
X152946739Y-77630500D01*
X152946740Y-77630500D01*
X153913261Y-77630500D01*
X153935971Y-77627191D01*
X153981393Y-77620573D01*
X154086483Y-77569198D01*
X154169198Y-77486483D01*
X154220573Y-77381393D01*
X154230500Y-77313260D01*
X154230500Y-76721740D01*
X154220573Y-76653607D01*
X154169198Y-76548517D01*
X154169196Y-76548515D01*
X154169196Y-76548514D01*
X154086485Y-76465803D01*
X153981391Y-76414426D01*
X153913261Y-76404500D01*
X153913260Y-76404500D01*
X153151912Y-76404500D01*
X153084873Y-76384815D01*
X153064231Y-76368181D01*
X152026074Y-75330024D01*
X151952383Y-75299500D01*
X151952382Y-75299500D01*
X150010379Y-75299500D01*
X149943340Y-75279815D01*
X149897585Y-75227011D01*
X149895818Y-75222953D01*
X149843704Y-75097139D01*
X149750626Y-74957837D01*
X149632162Y-74839373D01*
X149492860Y-74746295D01*
X149338082Y-74682184D01*
X149338074Y-74682182D01*
X149173771Y-74649500D01*
X149173767Y-74649500D01*
X149006233Y-74649500D01*
X149006228Y-74649500D01*
X148841925Y-74682182D01*
X148841917Y-74682184D01*
X148687139Y-74746295D01*
X148547837Y-74839373D01*
X148429378Y-74957832D01*
X148428290Y-74959159D01*
X148427543Y-74959667D01*
X148425066Y-74962145D01*
X148424596Y-74961675D01*
X148370547Y-74998497D01*
X148332432Y-75004500D01*
X145924800Y-75004500D01*
X145857761Y-74984815D01*
X145812006Y-74932011D01*
X145802096Y-74898383D01*
X145795573Y-74853607D01*
X145744198Y-74748517D01*
X145744196Y-74748515D01*
X145744196Y-74748514D01*
X145661485Y-74665803D01*
X145556391Y-74614426D01*
X145488261Y-74604500D01*
X145488260Y-74604500D01*
X144471740Y-74604500D01*
X144471739Y-74604500D01*
X144403608Y-74614426D01*
X144298514Y-74665803D01*
X144215803Y-74748514D01*
X144164426Y-74853608D01*
X144154500Y-74921739D01*
X141230500Y-74921739D01*
X141230500Y-59473475D01*
X146429500Y-59473475D01*
X146429500Y-60486517D01*
X146437940Y-60539807D01*
X146444354Y-60580304D01*
X146501950Y-60693342D01*
X146591658Y-60783050D01*
X146591660Y-60783051D01*
X146593181Y-60784572D01*
X146626666Y-60845895D01*
X146629500Y-60872254D01*
X146629500Y-61337745D01*
X146609815Y-61404784D01*
X146593181Y-61425426D01*
X146501954Y-61516652D01*
X146501951Y-61516657D01*
X146444352Y-61629698D01*
X146429500Y-61723475D01*
X146429500Y-62736517D01*
X146440292Y-62804657D01*
X146444354Y-62830304D01*
X146501950Y-62943342D01*
X146501952Y-62943344D01*
X146501954Y-62943347D01*
X146591652Y-63033045D01*
X146591654Y-63033046D01*
X146591658Y-63033050D01*
X146704694Y-63090645D01*
X146704698Y-63090647D01*
X146798475Y-63105499D01*
X146798481Y-63105500D01*
X147361518Y-63105499D01*
X147455304Y-63090646D01*
X147568342Y-63033050D01*
X147658050Y-62943342D01*
X147715646Y-62830304D01*
X147715646Y-62830302D01*
X147715647Y-62830301D01*
X147730499Y-62736524D01*
X147730500Y-62736519D01*
X147730499Y-61723482D01*
X147715646Y-61629696D01*
X147658050Y-61516658D01*
X147658046Y-61516654D01*
X147658045Y-61516652D01*
X147566819Y-61425426D01*
X147548959Y-61392718D01*
X150039500Y-61392718D01*
X150039500Y-61942281D01*
X150054120Y-62034595D01*
X150054122Y-62034600D01*
X150110817Y-62145869D01*
X150110824Y-62145878D01*
X150199121Y-62234175D01*
X150199130Y-62234182D01*
X150310399Y-62290877D01*
X150310404Y-62290879D01*
X150402719Y-62305500D01*
X150402724Y-62305500D01*
X151377281Y-62305500D01*
X151469595Y-62290879D01*
X151469597Y-62290878D01*
X151469598Y-62290878D01*
X151580873Y-62234180D01*
X151594513Y-62220540D01*
X151660735Y-62154319D01*
X151687662Y-62139615D01*
X151713481Y-62123023D01*
X151719681Y-62122131D01*
X151722058Y-62120834D01*
X151748416Y-62118000D01*
X151805037Y-62118000D01*
X151822521Y-62120301D01*
X151822635Y-62119439D01*
X151830689Y-62120499D01*
X151830691Y-62120500D01*
X152146063Y-62120500D01*
X152198750Y-62134618D01*
X152199304Y-62133281D01*
X152206807Y-62136388D01*
X152206814Y-62136392D01*
X152334108Y-62170500D01*
X152334110Y-62170500D01*
X152465890Y-62170500D01*
X152465892Y-62170500D01*
X152593186Y-62136392D01*
X152707314Y-62070500D01*
X152800500Y-61977314D01*
X152866392Y-61863186D01*
X152900500Y-61735892D01*
X152900500Y-61604108D01*
X152866392Y-61476814D01*
X152800500Y-61362686D01*
X152707314Y-61269500D01*
X152620712Y-61219500D01*
X152593187Y-61203608D01*
X152507620Y-61180681D01*
X152465892Y-61169500D01*
X152334108Y-61169500D01*
X152206814Y-61203608D01*
X152199304Y-61206719D01*
X152198750Y-61205381D01*
X152192575Y-61207036D01*
X152180998Y-61214477D01*
X152146063Y-61219500D01*
X151972463Y-61219500D01*
X151954978Y-61217198D01*
X151954865Y-61218061D01*
X151946810Y-61217000D01*
X151946809Y-61217000D01*
X151946807Y-61217000D01*
X151748416Y-61217000D01*
X151681377Y-61197315D01*
X151660735Y-61180681D01*
X151580878Y-61100824D01*
X151580869Y-61100817D01*
X151469600Y-61044122D01*
X151469595Y-61044120D01*
X151377281Y-61029500D01*
X151377276Y-61029500D01*
X150402724Y-61029500D01*
X150402719Y-61029500D01*
X150310404Y-61044120D01*
X150310399Y-61044122D01*
X150199130Y-61100817D01*
X150199121Y-61100824D01*
X150110824Y-61189121D01*
X150110817Y-61189130D01*
X150054122Y-61300399D01*
X150054120Y-61300404D01*
X150039500Y-61392718D01*
X147548959Y-61392718D01*
X147533334Y-61364103D01*
X147530500Y-61337745D01*
X147530500Y-60872254D01*
X147550185Y-60805215D01*
X147566819Y-60784572D01*
X147568339Y-60783051D01*
X147568342Y-60783050D01*
X147658050Y-60693342D01*
X147715646Y-60580304D01*
X147715646Y-60580302D01*
X147715647Y-60580301D01*
X147728450Y-60499460D01*
X147730500Y-60486519D01*
X147730499Y-59473482D01*
X147715646Y-59379696D01*
X147658050Y-59266658D01*
X147658046Y-59266654D01*
X147658045Y-59266652D01*
X147611929Y-59220536D01*
X147578444Y-59159213D01*
X147583428Y-59089521D01*
X147611929Y-59045174D01*
X147890284Y-58766819D01*
X147951607Y-58733334D01*
X147977965Y-58730500D01*
X149336063Y-58730500D01*
X149388750Y-58744618D01*
X149389304Y-58743281D01*
X149396807Y-58746388D01*
X149396814Y-58746392D01*
X149524108Y-58780500D01*
X149524110Y-58780500D01*
X149655890Y-58780500D01*
X149655892Y-58780500D01*
X149783186Y-58746392D01*
X149897314Y-58680500D01*
X149990500Y-58587314D01*
X150056392Y-58473186D01*
X150090500Y-58345892D01*
X150090500Y-58214108D01*
X150056392Y-58086814D01*
X149990500Y-57972686D01*
X149897314Y-57879500D01*
X149810712Y-57829500D01*
X149783187Y-57813608D01*
X149689533Y-57788514D01*
X149655892Y-57779500D01*
X149524108Y-57779500D01*
X149396814Y-57813608D01*
X149389304Y-57816719D01*
X149388750Y-57815381D01*
X149336063Y-57829500D01*
X147680691Y-57829500D01*
X147590325Y-57853713D01*
X147590324Y-57853712D01*
X147566116Y-57860199D01*
X147566113Y-57860200D01*
X147463386Y-57919511D01*
X147463383Y-57919513D01*
X146719513Y-58663383D01*
X146719509Y-58663389D01*
X146660201Y-58766112D01*
X146660200Y-58766117D01*
X146629500Y-58880691D01*
X146629500Y-59087745D01*
X146609815Y-59154784D01*
X146593181Y-59175426D01*
X146501954Y-59266652D01*
X146501951Y-59266657D01*
X146444352Y-59379698D01*
X146429500Y-59473475D01*
X141230500Y-59473475D01*
X141230500Y-53634427D01*
X141230816Y-53625581D01*
X141245120Y-53425581D01*
X141247165Y-53396977D01*
X141249683Y-53379470D01*
X141297459Y-53159851D01*
X141302436Y-53142900D01*
X141380985Y-52932299D01*
X141388325Y-52916227D01*
X141496044Y-52718956D01*
X141505600Y-52704086D01*
X141640294Y-52524156D01*
X141651868Y-52510799D01*
X141810799Y-52351868D01*
X141824156Y-52340294D01*
X142004086Y-52205600D01*
X142018956Y-52196044D01*
X142216227Y-52088325D01*
X142232299Y-52080985D01*
X142442900Y-52002436D01*
X142459851Y-51997459D01*
X142679472Y-51949682D01*
X142696977Y-51947165D01*
X142925582Y-51930816D01*
X142934428Y-51930500D01*
X142964787Y-51930500D01*
X143031826Y-51950185D01*
G37*
%TD.AperFunction*%
%TA.AperFunction,Conductor*%
G36*
X157432627Y-86180185D02*
G01*
X157453269Y-86196819D01*
X157590681Y-86334231D01*
X157624166Y-86395554D01*
X157627000Y-86421912D01*
X157627000Y-89258811D01*
X157607315Y-89325850D01*
X157590681Y-89346492D01*
X157567036Y-89370136D01*
X157567030Y-89370144D01*
X157524185Y-89444355D01*
X157524182Y-89444362D01*
X157502000Y-89527147D01*
X157502000Y-89612853D01*
X157521705Y-89686391D01*
X157524182Y-89695637D01*
X157524185Y-89695644D01*
X157567030Y-89769855D01*
X157567036Y-89769863D01*
X157590681Y-89793508D01*
X157624166Y-89854831D01*
X157627000Y-89881189D01*
X157627000Y-90476588D01*
X157607315Y-90543627D01*
X157554511Y-90589382D01*
X157485353Y-90599326D01*
X157421797Y-90570301D01*
X157415319Y-90564269D01*
X154186179Y-87335129D01*
X154152694Y-87273806D01*
X154157678Y-87204114D01*
X154162453Y-87193002D01*
X154170573Y-87176393D01*
X154180500Y-87108260D01*
X154180500Y-86516740D01*
X154170573Y-86448607D01*
X154119198Y-86343517D01*
X154119197Y-86343516D01*
X154116970Y-86338960D01*
X154105211Y-86270087D01*
X154132555Y-86205790D01*
X154190319Y-86166483D01*
X154228371Y-86160500D01*
X157365588Y-86160500D01*
X157432627Y-86180185D01*
G37*
%TD.AperFunction*%
%TA.AperFunction,Conductor*%
G36*
X162182627Y-62860185D02*
G01*
X162203269Y-62876819D01*
X162473181Y-63146731D01*
X162506666Y-63208054D01*
X162509500Y-63234412D01*
X162509500Y-64060500D01*
X162489815Y-64127539D01*
X162437011Y-64173294D01*
X162385500Y-64184500D01*
X162226739Y-64184500D01*
X162158608Y-64194426D01*
X162053514Y-64245803D01*
X161970803Y-64328514D01*
X161919426Y-64433608D01*
X161909500Y-64501739D01*
X161909500Y-64885535D01*
X161889815Y-64952574D01*
X161837011Y-64998329D01*
X161767853Y-65008273D01*
X161704297Y-64979248D01*
X161697819Y-64973216D01*
X160664116Y-63939513D01*
X160664114Y-63939511D01*
X160594814Y-63899500D01*
X160561388Y-63880201D01*
X160549280Y-63876957D01*
X160537173Y-63873713D01*
X160537170Y-63873712D01*
X160498978Y-63863478D01*
X160446809Y-63849500D01*
X160446808Y-63849500D01*
X156593937Y-63849500D01*
X156541249Y-63835381D01*
X156540696Y-63836719D01*
X156533188Y-63833609D01*
X156533186Y-63833608D01*
X156405892Y-63799500D01*
X156274108Y-63799500D01*
X156146812Y-63833608D01*
X156032686Y-63899500D01*
X156032683Y-63899502D01*
X155939502Y-63992683D01*
X155939500Y-63992686D01*
X155873608Y-64106812D01*
X155842600Y-64222539D01*
X155839500Y-64234108D01*
X155839500Y-64365892D01*
X155858983Y-64438605D01*
X155873609Y-64493189D01*
X155876658Y-64500550D01*
X155884125Y-64570019D01*
X155852849Y-64632498D01*
X155792760Y-64668149D01*
X155762096Y-64672000D01*
X155753979Y-64672000D01*
X155699147Y-64682906D01*
X155699146Y-64682907D01*
X155636959Y-64724459D01*
X155595407Y-64786646D01*
X155595406Y-64786647D01*
X155584500Y-64841479D01*
X155584500Y-66328520D01*
X155595406Y-66383352D01*
X155600272Y-66390634D01*
X155612600Y-66409083D01*
X155618251Y-66427130D01*
X155628477Y-66443041D01*
X155632927Y-66473995D01*
X155633480Y-66475759D01*
X155633500Y-66477976D01*
X155633500Y-66491588D01*
X155613815Y-66558627D01*
X155597181Y-66579269D01*
X155425769Y-66750681D01*
X155364446Y-66784166D01*
X155338088Y-66787000D01*
X150361622Y-66787000D01*
X150294583Y-66767315D01*
X150248828Y-66714511D01*
X150238918Y-66680878D01*
X150230573Y-66623608D01*
X150230573Y-66623607D01*
X150179198Y-66518517D01*
X150179196Y-66518515D01*
X150179196Y-66518514D01*
X150096485Y-66435803D01*
X149991391Y-66384426D01*
X149923261Y-66374500D01*
X149923260Y-66374500D01*
X148956740Y-66374500D01*
X148956739Y-66374500D01*
X148888608Y-66384426D01*
X148783514Y-66435803D01*
X148700803Y-66518514D01*
X148649426Y-66623608D01*
X148639500Y-66691739D01*
X148639500Y-67283260D01*
X148649426Y-67351391D01*
X148700803Y-67456485D01*
X148783514Y-67539196D01*
X148783515Y-67539196D01*
X148783517Y-67539198D01*
X148888607Y-67590573D01*
X148922673Y-67595536D01*
X148956739Y-67600500D01*
X148956740Y-67600500D01*
X149923261Y-67600500D01*
X149945971Y-67597191D01*
X149991393Y-67590573D01*
X150096483Y-67539198D01*
X150179198Y-67456483D01*
X150230573Y-67351393D01*
X150234882Y-67321818D01*
X150238918Y-67294122D01*
X150268062Y-67230621D01*
X150326912Y-67192957D01*
X150361622Y-67188000D01*
X155512380Y-67188000D01*
X155512382Y-67188000D01*
X155586074Y-67157476D01*
X156003976Y-66739574D01*
X156034500Y-66665882D01*
X156034500Y-66656416D01*
X156054185Y-66589377D01*
X156106989Y-66543622D01*
X156176147Y-66533678D01*
X156182692Y-66534799D01*
X156249055Y-66548000D01*
X156249058Y-66548000D01*
X156470944Y-66548000D01*
X156511308Y-66539971D01*
X156580900Y-66546198D01*
X156636077Y-66589061D01*
X156659322Y-66654950D01*
X156659500Y-66661588D01*
X156659500Y-81373088D01*
X156639815Y-81440127D01*
X156623181Y-81460769D01*
X153745769Y-84338181D01*
X153684446Y-84371666D01*
X153658088Y-84374500D01*
X152896739Y-84374500D01*
X152828608Y-84384426D01*
X152723514Y-84435803D01*
X152652181Y-84507137D01*
X152590858Y-84540622D01*
X152521166Y-84535638D01*
X152465233Y-84493766D01*
X152440816Y-84428302D01*
X152440500Y-84419456D01*
X152440500Y-84104412D01*
X152460185Y-84037373D01*
X152476819Y-84016731D01*
X153717033Y-82776517D01*
X154959976Y-81533574D01*
X154990500Y-81459882D01*
X154990500Y-81380117D01*
X154990500Y-70970118D01*
X154959976Y-70896426D01*
X154903574Y-70840024D01*
X153893574Y-69830024D01*
X153819883Y-69799500D01*
X153819882Y-69799500D01*
X145454412Y-69799500D01*
X145387373Y-69779815D01*
X145366731Y-69763181D01*
X144606819Y-69003269D01*
X144573334Y-68941946D01*
X144570500Y-68915588D01*
X144570500Y-68533415D01*
X146429500Y-68533415D01*
X146429500Y-69101592D01*
X146436099Y-69151719D01*
X146436102Y-69151730D01*
X146487402Y-69261744D01*
X146487406Y-69261750D01*
X146573250Y-69347594D01*
X146573251Y-69347594D01*
X146573255Y-69347597D01*
X146683270Y-69398897D01*
X146683271Y-69398897D01*
X146683277Y-69398900D01*
X146733409Y-69405500D01*
X147726590Y-69405499D01*
X147726592Y-69405499D01*
X147743301Y-69403299D01*
X147776723Y-69398900D01*
X147776728Y-69398897D01*
X147776730Y-69398897D01*
X147886744Y-69347597D01*
X147886745Y-69347596D01*
X147886750Y-69347594D01*
X147972594Y-69261750D01*
X147976719Y-69252905D01*
X148023897Y-69151729D01*
X148023900Y-69151723D01*
X148027311Y-69125815D01*
X148055577Y-69061919D01*
X148113901Y-69023447D01*
X148150250Y-69018000D01*
X148519107Y-69018000D01*
X148586146Y-69037685D01*
X148631901Y-69090489D01*
X148641811Y-69124122D01*
X148649426Y-69176391D01*
X148700803Y-69281485D01*
X148783514Y-69364196D01*
X148783515Y-69364196D01*
X148783517Y-69364198D01*
X148888607Y-69415573D01*
X148922673Y-69420536D01*
X148956739Y-69425500D01*
X148956740Y-69425500D01*
X149923261Y-69425500D01*
X149945971Y-69422191D01*
X149991393Y-69415573D01*
X150096483Y-69364198D01*
X150179198Y-69281483D01*
X150230573Y-69176393D01*
X150240500Y-69108260D01*
X150240500Y-68516740D01*
X150230573Y-68448607D01*
X150179198Y-68343517D01*
X150179196Y-68343515D01*
X150179196Y-68343514D01*
X150096485Y-68260803D01*
X149991391Y-68209426D01*
X149923261Y-68199500D01*
X149923260Y-68199500D01*
X148956740Y-68199500D01*
X148956739Y-68199500D01*
X148888608Y-68209426D01*
X148783514Y-68260803D01*
X148700803Y-68343514D01*
X148649426Y-68448608D01*
X148640354Y-68510878D01*
X148611210Y-68574379D01*
X148552361Y-68612043D01*
X148517650Y-68617000D01*
X148150249Y-68617000D01*
X148083210Y-68597315D01*
X148037455Y-68544511D01*
X148027310Y-68509187D01*
X148023900Y-68483277D01*
X148023897Y-68483270D01*
X148023897Y-68483269D01*
X147972597Y-68373255D01*
X147972593Y-68373249D01*
X147886750Y-68287406D01*
X147886744Y-68287402D01*
X147776729Y-68236102D01*
X147776724Y-68236100D01*
X147776723Y-68236100D01*
X147776720Y-68236099D01*
X147776718Y-68236099D01*
X147726601Y-68229501D01*
X147726596Y-68229500D01*
X147726591Y-68229500D01*
X147726584Y-68229500D01*
X146733407Y-68229500D01*
X146683280Y-68236099D01*
X146683269Y-68236102D01*
X146573255Y-68287402D01*
X146573249Y-68287406D01*
X146487406Y-68373249D01*
X146487402Y-68373255D01*
X146436102Y-68483270D01*
X146436099Y-68483281D01*
X146429501Y-68533398D01*
X146429500Y-68533415D01*
X144570500Y-68533415D01*
X144570500Y-65304411D01*
X144590185Y-65237372D01*
X144606819Y-65216730D01*
X145106730Y-64716819D01*
X145168053Y-64683334D01*
X145194411Y-64680500D01*
X146355500Y-64680500D01*
X146422539Y-64700185D01*
X146468294Y-64752989D01*
X146479500Y-64804500D01*
X146479500Y-64988260D01*
X146489426Y-65056391D01*
X146489427Y-65056393D01*
X146540758Y-65161394D01*
X146540803Y-65161485D01*
X146623514Y-65244196D01*
X146623515Y-65244196D01*
X146623517Y-65244198D01*
X146728607Y-65295573D01*
X146773380Y-65302096D01*
X146836878Y-65331239D01*
X146874542Y-65390088D01*
X146879500Y-65424800D01*
X146879500Y-65439883D01*
X146910024Y-65513574D01*
X147140024Y-65743574D01*
X147196426Y-65799976D01*
X147270118Y-65830500D01*
X147270120Y-65830500D01*
X153669880Y-65830500D01*
X153669882Y-65830500D01*
X153743574Y-65799976D01*
X156666731Y-62876819D01*
X156728054Y-62843334D01*
X156754412Y-62840500D01*
X162115588Y-62840500D01*
X162182627Y-62860185D01*
G37*
%TD.AperFunction*%
%TA.AperFunction,Conductor*%
G36*
X160216574Y-64770185D02*
G01*
X160237216Y-64786819D01*
X161823181Y-66372784D01*
X161856666Y-66434107D01*
X161859500Y-66460465D01*
X161859500Y-66784533D01*
X161839815Y-66851572D01*
X161823181Y-66872214D01*
X158028513Y-70666883D01*
X158028509Y-70666889D01*
X157969201Y-70769612D01*
X157969201Y-70769613D01*
X157969201Y-70769614D01*
X157938500Y-70884191D01*
X157938500Y-80658309D01*
X157945437Y-80684198D01*
X157959203Y-80735573D01*
X157969201Y-80772888D01*
X157998856Y-80824250D01*
X158028511Y-80875614D01*
X158028513Y-80875616D01*
X158816002Y-81663105D01*
X158849487Y-81724428D01*
X158844503Y-81794120D01*
X158838806Y-81807081D01*
X158804352Y-81874698D01*
X158789500Y-81968475D01*
X158789500Y-82732036D01*
X158769815Y-82799075D01*
X158717011Y-82844830D01*
X158647853Y-82854774D01*
X158584297Y-82825749D01*
X158577819Y-82819717D01*
X157596819Y-81838717D01*
X157563334Y-81777394D01*
X157560500Y-81751036D01*
X157560500Y-66661588D01*
X157580185Y-66594549D01*
X157632989Y-66548794D01*
X157702147Y-66538850D01*
X157708692Y-66539971D01*
X157749055Y-66548000D01*
X157749058Y-66548000D01*
X157970944Y-66548000D01*
X158040359Y-66534192D01*
X158040360Y-66534191D01*
X158040363Y-66534191D01*
X158119089Y-66481589D01*
X158171691Y-66402863D01*
X158175358Y-66384427D01*
X158185500Y-66333444D01*
X158185500Y-66009500D01*
X158205185Y-65942461D01*
X158257989Y-65896706D01*
X158309500Y-65885500D01*
X159039167Y-65885500D01*
X159106206Y-65905185D01*
X159126848Y-65921819D01*
X159595663Y-66390634D01*
X159627757Y-66446221D01*
X159629500Y-66452725D01*
X159629500Y-66452727D01*
X159639913Y-66491588D01*
X159656793Y-66554588D01*
X159656794Y-66554589D01*
X159709520Y-66645913D01*
X159784087Y-66720480D01*
X159875413Y-66773207D01*
X159977273Y-66800500D01*
X159977275Y-66800500D01*
X160082725Y-66800500D01*
X160082727Y-66800500D01*
X160184587Y-66773207D01*
X160275913Y-66720480D01*
X160350480Y-66645913D01*
X160403207Y-66554587D01*
X160430500Y-66452727D01*
X160430500Y-66347273D01*
X160403207Y-66245413D01*
X160350480Y-66154087D01*
X160275913Y-66079520D01*
X160184589Y-66026794D01*
X160184588Y-66026793D01*
X160120048Y-66009500D01*
X160082727Y-65999500D01*
X160082726Y-65999500D01*
X160076221Y-65997757D01*
X160020634Y-65965663D01*
X159399513Y-65344542D01*
X159399511Y-65344540D01*
X159391606Y-65339976D01*
X159351724Y-65316950D01*
X159330991Y-65304980D01*
X159330990Y-65304979D01*
X159295882Y-65295572D01*
X159254562Y-65284500D01*
X159254560Y-65284500D01*
X158309500Y-65284500D01*
X158242461Y-65264815D01*
X158196706Y-65212011D01*
X158185500Y-65160500D01*
X158185500Y-64874500D01*
X158205185Y-64807461D01*
X158257989Y-64761706D01*
X158309500Y-64750500D01*
X160149535Y-64750500D01*
X160216574Y-64770185D01*
G37*
%TD.AperFunction*%
%TD*%
M02*
