%TF.GenerationSoftware,KiCad,Pcbnew,9.0.6*%
%TF.CreationDate,2026-03-13T08:43:21+05:30*%
%TF.ProjectId,Arduino Minimal Design,41726475-696e-46f2-904d-696e696d616c,rev?*%
%TF.SameCoordinates,Original*%
%TF.FileFunction,Legend,Top*%
%TF.FilePolarity,Positive*%
%FSLAX46Y46*%
G04 Gerber Fmt 4.6, Leading zero omitted, Abs format (unit mm)*
G04 Created by KiCad (PCBNEW 9.0.6) date 2026-03-13 08:43:21*
%MOMM*%
%LPD*%
G01*
G04 APERTURE LIST*
%ADD10C,0.300000*%
%ADD11C,0.150000*%
%ADD12C,0.120000*%
%ADD13C,0.000000*%
%ADD14C,0.010000*%
G04 APERTURE END LIST*
D10*
X167591653Y-56870828D02*
X167091653Y-56156542D01*
X166734510Y-56870828D02*
X166734510Y-55370828D01*
X166734510Y-55370828D02*
X167305939Y-55370828D01*
X167305939Y-55370828D02*
X167448796Y-55442257D01*
X167448796Y-55442257D02*
X167520225Y-55513685D01*
X167520225Y-55513685D02*
X167591653Y-55656542D01*
X167591653Y-55656542D02*
X167591653Y-55870828D01*
X167591653Y-55870828D02*
X167520225Y-56013685D01*
X167520225Y-56013685D02*
X167448796Y-56085114D01*
X167448796Y-56085114D02*
X167305939Y-56156542D01*
X167305939Y-56156542D02*
X166734510Y-56156542D01*
X168163082Y-56799400D02*
X168377368Y-56870828D01*
X168377368Y-56870828D02*
X168734510Y-56870828D01*
X168734510Y-56870828D02*
X168877368Y-56799400D01*
X168877368Y-56799400D02*
X168948796Y-56727971D01*
X168948796Y-56727971D02*
X169020225Y-56585114D01*
X169020225Y-56585114D02*
X169020225Y-56442257D01*
X169020225Y-56442257D02*
X168948796Y-56299400D01*
X168948796Y-56299400D02*
X168877368Y-56227971D01*
X168877368Y-56227971D02*
X168734510Y-56156542D01*
X168734510Y-56156542D02*
X168448796Y-56085114D01*
X168448796Y-56085114D02*
X168305939Y-56013685D01*
X168305939Y-56013685D02*
X168234510Y-55942257D01*
X168234510Y-55942257D02*
X168163082Y-55799400D01*
X168163082Y-55799400D02*
X168163082Y-55656542D01*
X168163082Y-55656542D02*
X168234510Y-55513685D01*
X168234510Y-55513685D02*
X168305939Y-55442257D01*
X168305939Y-55442257D02*
X168448796Y-55370828D01*
X168448796Y-55370828D02*
X168805939Y-55370828D01*
X168805939Y-55370828D02*
X169020225Y-55442257D01*
X169448796Y-55370828D02*
X170305939Y-55370828D01*
X169877367Y-56870828D02*
X169877367Y-55370828D01*
D11*
X144783809Y-72718628D02*
X144783809Y-73194819D01*
X144450476Y-72194819D02*
X144783809Y-72718628D01*
X144783809Y-72718628D02*
X145117142Y-72194819D01*
X145974285Y-73194819D02*
X145402857Y-73194819D01*
X145688571Y-73194819D02*
X145688571Y-72194819D01*
X145688571Y-72194819D02*
X145593333Y-72337676D01*
X145593333Y-72337676D02*
X145498095Y-72432914D01*
X145498095Y-72432914D02*
X145402857Y-72480533D01*
X171378095Y-70264819D02*
X171378095Y-71074342D01*
X171378095Y-71074342D02*
X171425714Y-71169580D01*
X171425714Y-71169580D02*
X171473333Y-71217200D01*
X171473333Y-71217200D02*
X171568571Y-71264819D01*
X171568571Y-71264819D02*
X171759047Y-71264819D01*
X171759047Y-71264819D02*
X171854285Y-71217200D01*
X171854285Y-71217200D02*
X171901904Y-71169580D01*
X171901904Y-71169580D02*
X171949523Y-71074342D01*
X171949523Y-71074342D02*
X171949523Y-70264819D01*
X172949523Y-71264819D02*
X172378095Y-71264819D01*
X172663809Y-71264819D02*
X172663809Y-70264819D01*
X172663809Y-70264819D02*
X172568571Y-70407676D01*
X172568571Y-70407676D02*
X172473333Y-70502914D01*
X172473333Y-70502914D02*
X172378095Y-70550533D01*
X155501905Y-105644819D02*
X155501905Y-104644819D01*
X155501905Y-104644819D02*
X155740000Y-104644819D01*
X155740000Y-104644819D02*
X155882857Y-104692438D01*
X155882857Y-104692438D02*
X155978095Y-104787676D01*
X155978095Y-104787676D02*
X156025714Y-104882914D01*
X156025714Y-104882914D02*
X156073333Y-105073390D01*
X156073333Y-105073390D02*
X156073333Y-105216247D01*
X156073333Y-105216247D02*
X156025714Y-105406723D01*
X156025714Y-105406723D02*
X155978095Y-105501961D01*
X155978095Y-105501961D02*
X155882857Y-105597200D01*
X155882857Y-105597200D02*
X155740000Y-105644819D01*
X155740000Y-105644819D02*
X155501905Y-105644819D01*
X156454286Y-104740057D02*
X156501905Y-104692438D01*
X156501905Y-104692438D02*
X156597143Y-104644819D01*
X156597143Y-104644819D02*
X156835238Y-104644819D01*
X156835238Y-104644819D02*
X156930476Y-104692438D01*
X156930476Y-104692438D02*
X156978095Y-104740057D01*
X156978095Y-104740057D02*
X157025714Y-104835295D01*
X157025714Y-104835295D02*
X157025714Y-104930533D01*
X157025714Y-104930533D02*
X156978095Y-105073390D01*
X156978095Y-105073390D02*
X156406667Y-105644819D01*
X156406667Y-105644819D02*
X157025714Y-105644819D01*
X146701905Y-71084819D02*
X146701905Y-70084819D01*
X146701905Y-70084819D02*
X146940000Y-70084819D01*
X146940000Y-70084819D02*
X147082857Y-70132438D01*
X147082857Y-70132438D02*
X147178095Y-70227676D01*
X147178095Y-70227676D02*
X147225714Y-70322914D01*
X147225714Y-70322914D02*
X147273333Y-70513390D01*
X147273333Y-70513390D02*
X147273333Y-70656247D01*
X147273333Y-70656247D02*
X147225714Y-70846723D01*
X147225714Y-70846723D02*
X147178095Y-70941961D01*
X147178095Y-70941961D02*
X147082857Y-71037200D01*
X147082857Y-71037200D02*
X146940000Y-71084819D01*
X146940000Y-71084819D02*
X146701905Y-71084819D01*
X148178095Y-70084819D02*
X147701905Y-70084819D01*
X147701905Y-70084819D02*
X147654286Y-70561009D01*
X147654286Y-70561009D02*
X147701905Y-70513390D01*
X147701905Y-70513390D02*
X147797143Y-70465771D01*
X147797143Y-70465771D02*
X148035238Y-70465771D01*
X148035238Y-70465771D02*
X148130476Y-70513390D01*
X148130476Y-70513390D02*
X148178095Y-70561009D01*
X148178095Y-70561009D02*
X148225714Y-70656247D01*
X148225714Y-70656247D02*
X148225714Y-70894342D01*
X148225714Y-70894342D02*
X148178095Y-70989580D01*
X148178095Y-70989580D02*
X148130476Y-71037200D01*
X148130476Y-71037200D02*
X148035238Y-71084819D01*
X148035238Y-71084819D02*
X147797143Y-71084819D01*
X147797143Y-71084819D02*
X147701905Y-71037200D01*
X147701905Y-71037200D02*
X147654286Y-70989580D01*
X172046666Y-80894819D02*
X172046666Y-81609104D01*
X172046666Y-81609104D02*
X171999047Y-81751961D01*
X171999047Y-81751961D02*
X171903809Y-81847200D01*
X171903809Y-81847200D02*
X171760952Y-81894819D01*
X171760952Y-81894819D02*
X171665714Y-81894819D01*
X172427619Y-80894819D02*
X173046666Y-80894819D01*
X173046666Y-80894819D02*
X172713333Y-81275771D01*
X172713333Y-81275771D02*
X172856190Y-81275771D01*
X172856190Y-81275771D02*
X172951428Y-81323390D01*
X172951428Y-81323390D02*
X172999047Y-81371009D01*
X172999047Y-81371009D02*
X173046666Y-81466247D01*
X173046666Y-81466247D02*
X173046666Y-81704342D01*
X173046666Y-81704342D02*
X172999047Y-81799580D01*
X172999047Y-81799580D02*
X172951428Y-81847200D01*
X172951428Y-81847200D02*
X172856190Y-81894819D01*
X172856190Y-81894819D02*
X172570476Y-81894819D01*
X172570476Y-81894819D02*
X172475238Y-81847200D01*
X172475238Y-81847200D02*
X172427619Y-81799580D01*
X166771905Y-87554819D02*
X166771905Y-86554819D01*
X166771905Y-86554819D02*
X167010000Y-86554819D01*
X167010000Y-86554819D02*
X167152857Y-86602438D01*
X167152857Y-86602438D02*
X167248095Y-86697676D01*
X167248095Y-86697676D02*
X167295714Y-86792914D01*
X167295714Y-86792914D02*
X167343333Y-86983390D01*
X167343333Y-86983390D02*
X167343333Y-87126247D01*
X167343333Y-87126247D02*
X167295714Y-87316723D01*
X167295714Y-87316723D02*
X167248095Y-87411961D01*
X167248095Y-87411961D02*
X167152857Y-87507200D01*
X167152857Y-87507200D02*
X167010000Y-87554819D01*
X167010000Y-87554819D02*
X166771905Y-87554819D01*
X168200476Y-86888152D02*
X168200476Y-87554819D01*
X167962381Y-86507200D02*
X167724286Y-87221485D01*
X167724286Y-87221485D02*
X168343333Y-87221485D01*
X151836666Y-52194819D02*
X151836666Y-52909104D01*
X151836666Y-52909104D02*
X151789047Y-53051961D01*
X151789047Y-53051961D02*
X151693809Y-53147200D01*
X151693809Y-53147200D02*
X151550952Y-53194819D01*
X151550952Y-53194819D02*
X151455714Y-53194819D01*
X152741428Y-52528152D02*
X152741428Y-53194819D01*
X152503333Y-52147200D02*
X152265238Y-52861485D01*
X152265238Y-52861485D02*
X152884285Y-52861485D01*
X153478095Y-60494819D02*
X153478095Y-61304342D01*
X153478095Y-61304342D02*
X153525714Y-61399580D01*
X153525714Y-61399580D02*
X153573333Y-61447200D01*
X153573333Y-61447200D02*
X153668571Y-61494819D01*
X153668571Y-61494819D02*
X153859047Y-61494819D01*
X153859047Y-61494819D02*
X153954285Y-61447200D01*
X153954285Y-61447200D02*
X154001904Y-61399580D01*
X154001904Y-61399580D02*
X154049523Y-61304342D01*
X154049523Y-61304342D02*
X154049523Y-60494819D01*
X154430476Y-60494819D02*
X155049523Y-60494819D01*
X155049523Y-60494819D02*
X154716190Y-60875771D01*
X154716190Y-60875771D02*
X154859047Y-60875771D01*
X154859047Y-60875771D02*
X154954285Y-60923390D01*
X154954285Y-60923390D02*
X155001904Y-60971009D01*
X155001904Y-60971009D02*
X155049523Y-61066247D01*
X155049523Y-61066247D02*
X155049523Y-61304342D01*
X155049523Y-61304342D02*
X155001904Y-61399580D01*
X155001904Y-61399580D02*
X154954285Y-61447200D01*
X154954285Y-61447200D02*
X154859047Y-61494819D01*
X154859047Y-61494819D02*
X154573333Y-61494819D01*
X154573333Y-61494819D02*
X154478095Y-61447200D01*
X154478095Y-61447200D02*
X154430476Y-61399580D01*
X144157142Y-60549580D02*
X144109523Y-60597200D01*
X144109523Y-60597200D02*
X143966666Y-60644819D01*
X143966666Y-60644819D02*
X143871428Y-60644819D01*
X143871428Y-60644819D02*
X143728571Y-60597200D01*
X143728571Y-60597200D02*
X143633333Y-60501961D01*
X143633333Y-60501961D02*
X143585714Y-60406723D01*
X143585714Y-60406723D02*
X143538095Y-60216247D01*
X143538095Y-60216247D02*
X143538095Y-60073390D01*
X143538095Y-60073390D02*
X143585714Y-59882914D01*
X143585714Y-59882914D02*
X143633333Y-59787676D01*
X143633333Y-59787676D02*
X143728571Y-59692438D01*
X143728571Y-59692438D02*
X143871428Y-59644819D01*
X143871428Y-59644819D02*
X143966666Y-59644819D01*
X143966666Y-59644819D02*
X144109523Y-59692438D01*
X144109523Y-59692438D02*
X144157142Y-59740057D01*
X145109523Y-60644819D02*
X144538095Y-60644819D01*
X144823809Y-60644819D02*
X144823809Y-59644819D01*
X144823809Y-59644819D02*
X144728571Y-59787676D01*
X144728571Y-59787676D02*
X144633333Y-59882914D01*
X144633333Y-59882914D02*
X144538095Y-59930533D01*
X145728571Y-59644819D02*
X145823809Y-59644819D01*
X145823809Y-59644819D02*
X145919047Y-59692438D01*
X145919047Y-59692438D02*
X145966666Y-59740057D01*
X145966666Y-59740057D02*
X146014285Y-59835295D01*
X146014285Y-59835295D02*
X146061904Y-60025771D01*
X146061904Y-60025771D02*
X146061904Y-60263866D01*
X146061904Y-60263866D02*
X146014285Y-60454342D01*
X146014285Y-60454342D02*
X145966666Y-60549580D01*
X145966666Y-60549580D02*
X145919047Y-60597200D01*
X145919047Y-60597200D02*
X145823809Y-60644819D01*
X145823809Y-60644819D02*
X145728571Y-60644819D01*
X145728571Y-60644819D02*
X145633333Y-60597200D01*
X145633333Y-60597200D02*
X145585714Y-60549580D01*
X145585714Y-60549580D02*
X145538095Y-60454342D01*
X145538095Y-60454342D02*
X145490476Y-60263866D01*
X145490476Y-60263866D02*
X145490476Y-60025771D01*
X145490476Y-60025771D02*
X145538095Y-59835295D01*
X145538095Y-59835295D02*
X145585714Y-59740057D01*
X145585714Y-59740057D02*
X145633333Y-59692438D01*
X145633333Y-59692438D02*
X145728571Y-59644819D01*
X142613333Y-79139580D02*
X142565714Y-79187200D01*
X142565714Y-79187200D02*
X142422857Y-79234819D01*
X142422857Y-79234819D02*
X142327619Y-79234819D01*
X142327619Y-79234819D02*
X142184762Y-79187200D01*
X142184762Y-79187200D02*
X142089524Y-79091961D01*
X142089524Y-79091961D02*
X142041905Y-78996723D01*
X142041905Y-78996723D02*
X141994286Y-78806247D01*
X141994286Y-78806247D02*
X141994286Y-78663390D01*
X141994286Y-78663390D02*
X142041905Y-78472914D01*
X142041905Y-78472914D02*
X142089524Y-78377676D01*
X142089524Y-78377676D02*
X142184762Y-78282438D01*
X142184762Y-78282438D02*
X142327619Y-78234819D01*
X142327619Y-78234819D02*
X142422857Y-78234819D01*
X142422857Y-78234819D02*
X142565714Y-78282438D01*
X142565714Y-78282438D02*
X142613333Y-78330057D01*
X142946667Y-78234819D02*
X143613333Y-78234819D01*
X143613333Y-78234819D02*
X143184762Y-79234819D01*
X147593333Y-89424819D02*
X147260000Y-88948628D01*
X147021905Y-89424819D02*
X147021905Y-88424819D01*
X147021905Y-88424819D02*
X147402857Y-88424819D01*
X147402857Y-88424819D02*
X147498095Y-88472438D01*
X147498095Y-88472438D02*
X147545714Y-88520057D01*
X147545714Y-88520057D02*
X147593333Y-88615295D01*
X147593333Y-88615295D02*
X147593333Y-88758152D01*
X147593333Y-88758152D02*
X147545714Y-88853390D01*
X147545714Y-88853390D02*
X147498095Y-88901009D01*
X147498095Y-88901009D02*
X147402857Y-88948628D01*
X147402857Y-88948628D02*
X147021905Y-88948628D01*
X147926667Y-88424819D02*
X148545714Y-88424819D01*
X148545714Y-88424819D02*
X148212381Y-88805771D01*
X148212381Y-88805771D02*
X148355238Y-88805771D01*
X148355238Y-88805771D02*
X148450476Y-88853390D01*
X148450476Y-88853390D02*
X148498095Y-88901009D01*
X148498095Y-88901009D02*
X148545714Y-88996247D01*
X148545714Y-88996247D02*
X148545714Y-89234342D01*
X148545714Y-89234342D02*
X148498095Y-89329580D01*
X148498095Y-89329580D02*
X148450476Y-89377200D01*
X148450476Y-89377200D02*
X148355238Y-89424819D01*
X148355238Y-89424819D02*
X148069524Y-89424819D01*
X148069524Y-89424819D02*
X147974286Y-89377200D01*
X147974286Y-89377200D02*
X147926667Y-89329580D01*
X163256667Y-62887200D02*
X163399524Y-62934819D01*
X163399524Y-62934819D02*
X163637619Y-62934819D01*
X163637619Y-62934819D02*
X163732857Y-62887200D01*
X163732857Y-62887200D02*
X163780476Y-62839580D01*
X163780476Y-62839580D02*
X163828095Y-62744342D01*
X163828095Y-62744342D02*
X163828095Y-62649104D01*
X163828095Y-62649104D02*
X163780476Y-62553866D01*
X163780476Y-62553866D02*
X163732857Y-62506247D01*
X163732857Y-62506247D02*
X163637619Y-62458628D01*
X163637619Y-62458628D02*
X163447143Y-62411009D01*
X163447143Y-62411009D02*
X163351905Y-62363390D01*
X163351905Y-62363390D02*
X163304286Y-62315771D01*
X163304286Y-62315771D02*
X163256667Y-62220533D01*
X163256667Y-62220533D02*
X163256667Y-62125295D01*
X163256667Y-62125295D02*
X163304286Y-62030057D01*
X163304286Y-62030057D02*
X163351905Y-61982438D01*
X163351905Y-61982438D02*
X163447143Y-61934819D01*
X163447143Y-61934819D02*
X163685238Y-61934819D01*
X163685238Y-61934819D02*
X163828095Y-61982438D01*
X164161429Y-61934819D02*
X164399524Y-62934819D01*
X164399524Y-62934819D02*
X164590000Y-62220533D01*
X164590000Y-62220533D02*
X164780476Y-62934819D01*
X164780476Y-62934819D02*
X165018572Y-61934819D01*
X165923333Y-62934819D02*
X165351905Y-62934819D01*
X165637619Y-62934819D02*
X165637619Y-61934819D01*
X165637619Y-61934819D02*
X165542381Y-62077676D01*
X165542381Y-62077676D02*
X165447143Y-62172914D01*
X165447143Y-62172914D02*
X165351905Y-62220533D01*
X161483333Y-63844819D02*
X161150000Y-63368628D01*
X160911905Y-63844819D02*
X160911905Y-62844819D01*
X160911905Y-62844819D02*
X161292857Y-62844819D01*
X161292857Y-62844819D02*
X161388095Y-62892438D01*
X161388095Y-62892438D02*
X161435714Y-62940057D01*
X161435714Y-62940057D02*
X161483333Y-63035295D01*
X161483333Y-63035295D02*
X161483333Y-63178152D01*
X161483333Y-63178152D02*
X161435714Y-63273390D01*
X161435714Y-63273390D02*
X161388095Y-63321009D01*
X161388095Y-63321009D02*
X161292857Y-63368628D01*
X161292857Y-63368628D02*
X160911905Y-63368628D01*
X162435714Y-63844819D02*
X161864286Y-63844819D01*
X162150000Y-63844819D02*
X162150000Y-62844819D01*
X162150000Y-62844819D02*
X162054762Y-62987676D01*
X162054762Y-62987676D02*
X161959524Y-63082914D01*
X161959524Y-63082914D02*
X161864286Y-63130533D01*
X155534819Y-78096666D02*
X155058628Y-78429999D01*
X155534819Y-78668094D02*
X154534819Y-78668094D01*
X154534819Y-78668094D02*
X154534819Y-78287142D01*
X154534819Y-78287142D02*
X154582438Y-78191904D01*
X154582438Y-78191904D02*
X154630057Y-78144285D01*
X154630057Y-78144285D02*
X154725295Y-78096666D01*
X154725295Y-78096666D02*
X154868152Y-78096666D01*
X154868152Y-78096666D02*
X154963390Y-78144285D01*
X154963390Y-78144285D02*
X155011009Y-78191904D01*
X155011009Y-78191904D02*
X155058628Y-78287142D01*
X155058628Y-78287142D02*
X155058628Y-78668094D01*
X154534819Y-77191904D02*
X154534819Y-77668094D01*
X154534819Y-77668094D02*
X155011009Y-77715713D01*
X155011009Y-77715713D02*
X154963390Y-77668094D01*
X154963390Y-77668094D02*
X154915771Y-77572856D01*
X154915771Y-77572856D02*
X154915771Y-77334761D01*
X154915771Y-77334761D02*
X154963390Y-77239523D01*
X154963390Y-77239523D02*
X155011009Y-77191904D01*
X155011009Y-77191904D02*
X155106247Y-77144285D01*
X155106247Y-77144285D02*
X155344342Y-77144285D01*
X155344342Y-77144285D02*
X155439580Y-77191904D01*
X155439580Y-77191904D02*
X155487200Y-77239523D01*
X155487200Y-77239523D02*
X155534819Y-77334761D01*
X155534819Y-77334761D02*
X155534819Y-77572856D01*
X155534819Y-77572856D02*
X155487200Y-77668094D01*
X155487200Y-77668094D02*
X155439580Y-77715713D01*
X167193333Y-89674819D02*
X166860000Y-89198628D01*
X166621905Y-89674819D02*
X166621905Y-88674819D01*
X166621905Y-88674819D02*
X167002857Y-88674819D01*
X167002857Y-88674819D02*
X167098095Y-88722438D01*
X167098095Y-88722438D02*
X167145714Y-88770057D01*
X167145714Y-88770057D02*
X167193333Y-88865295D01*
X167193333Y-88865295D02*
X167193333Y-89008152D01*
X167193333Y-89008152D02*
X167145714Y-89103390D01*
X167145714Y-89103390D02*
X167098095Y-89151009D01*
X167098095Y-89151009D02*
X167002857Y-89198628D01*
X167002857Y-89198628D02*
X166621905Y-89198628D01*
X168050476Y-89008152D02*
X168050476Y-89674819D01*
X167812381Y-88627200D02*
X167574286Y-89341485D01*
X167574286Y-89341485D02*
X168193333Y-89341485D01*
X168743333Y-70469580D02*
X168695714Y-70517200D01*
X168695714Y-70517200D02*
X168552857Y-70564819D01*
X168552857Y-70564819D02*
X168457619Y-70564819D01*
X168457619Y-70564819D02*
X168314762Y-70517200D01*
X168314762Y-70517200D02*
X168219524Y-70421961D01*
X168219524Y-70421961D02*
X168171905Y-70326723D01*
X168171905Y-70326723D02*
X168124286Y-70136247D01*
X168124286Y-70136247D02*
X168124286Y-69993390D01*
X168124286Y-69993390D02*
X168171905Y-69802914D01*
X168171905Y-69802914D02*
X168219524Y-69707676D01*
X168219524Y-69707676D02*
X168314762Y-69612438D01*
X168314762Y-69612438D02*
X168457619Y-69564819D01*
X168457619Y-69564819D02*
X168552857Y-69564819D01*
X168552857Y-69564819D02*
X168695714Y-69612438D01*
X168695714Y-69612438D02*
X168743333Y-69660057D01*
X169600476Y-69898152D02*
X169600476Y-70564819D01*
X169362381Y-69517200D02*
X169124286Y-70231485D01*
X169124286Y-70231485D02*
X169743333Y-70231485D01*
X146646666Y-105274819D02*
X146646666Y-105989104D01*
X146646666Y-105989104D02*
X146599047Y-106131961D01*
X146599047Y-106131961D02*
X146503809Y-106227200D01*
X146503809Y-106227200D02*
X146360952Y-106274819D01*
X146360952Y-106274819D02*
X146265714Y-106274819D01*
X147075238Y-105370057D02*
X147122857Y-105322438D01*
X147122857Y-105322438D02*
X147218095Y-105274819D01*
X147218095Y-105274819D02*
X147456190Y-105274819D01*
X147456190Y-105274819D02*
X147551428Y-105322438D01*
X147551428Y-105322438D02*
X147599047Y-105370057D01*
X147599047Y-105370057D02*
X147646666Y-105465295D01*
X147646666Y-105465295D02*
X147646666Y-105560533D01*
X147646666Y-105560533D02*
X147599047Y-105703390D01*
X147599047Y-105703390D02*
X147027619Y-106274819D01*
X147027619Y-106274819D02*
X147646666Y-106274819D01*
X145123333Y-62629580D02*
X145075714Y-62677200D01*
X145075714Y-62677200D02*
X144932857Y-62724819D01*
X144932857Y-62724819D02*
X144837619Y-62724819D01*
X144837619Y-62724819D02*
X144694762Y-62677200D01*
X144694762Y-62677200D02*
X144599524Y-62581961D01*
X144599524Y-62581961D02*
X144551905Y-62486723D01*
X144551905Y-62486723D02*
X144504286Y-62296247D01*
X144504286Y-62296247D02*
X144504286Y-62153390D01*
X144504286Y-62153390D02*
X144551905Y-61962914D01*
X144551905Y-61962914D02*
X144599524Y-61867676D01*
X144599524Y-61867676D02*
X144694762Y-61772438D01*
X144694762Y-61772438D02*
X144837619Y-61724819D01*
X144837619Y-61724819D02*
X144932857Y-61724819D01*
X144932857Y-61724819D02*
X145075714Y-61772438D01*
X145075714Y-61772438D02*
X145123333Y-61820057D01*
X145694762Y-62153390D02*
X145599524Y-62105771D01*
X145599524Y-62105771D02*
X145551905Y-62058152D01*
X145551905Y-62058152D02*
X145504286Y-61962914D01*
X145504286Y-61962914D02*
X145504286Y-61915295D01*
X145504286Y-61915295D02*
X145551905Y-61820057D01*
X145551905Y-61820057D02*
X145599524Y-61772438D01*
X145599524Y-61772438D02*
X145694762Y-61724819D01*
X145694762Y-61724819D02*
X145885238Y-61724819D01*
X145885238Y-61724819D02*
X145980476Y-61772438D01*
X145980476Y-61772438D02*
X146028095Y-61820057D01*
X146028095Y-61820057D02*
X146075714Y-61915295D01*
X146075714Y-61915295D02*
X146075714Y-61962914D01*
X146075714Y-61962914D02*
X146028095Y-62058152D01*
X146028095Y-62058152D02*
X145980476Y-62105771D01*
X145980476Y-62105771D02*
X145885238Y-62153390D01*
X145885238Y-62153390D02*
X145694762Y-62153390D01*
X145694762Y-62153390D02*
X145599524Y-62201009D01*
X145599524Y-62201009D02*
X145551905Y-62248628D01*
X145551905Y-62248628D02*
X145504286Y-62343866D01*
X145504286Y-62343866D02*
X145504286Y-62534342D01*
X145504286Y-62534342D02*
X145551905Y-62629580D01*
X145551905Y-62629580D02*
X145599524Y-62677200D01*
X145599524Y-62677200D02*
X145694762Y-62724819D01*
X145694762Y-62724819D02*
X145885238Y-62724819D01*
X145885238Y-62724819D02*
X145980476Y-62677200D01*
X145980476Y-62677200D02*
X146028095Y-62629580D01*
X146028095Y-62629580D02*
X146075714Y-62534342D01*
X146075714Y-62534342D02*
X146075714Y-62343866D01*
X146075714Y-62343866D02*
X146028095Y-62248628D01*
X146028095Y-62248628D02*
X145980476Y-62201009D01*
X145980476Y-62201009D02*
X145885238Y-62153390D01*
X168273333Y-82559580D02*
X168225714Y-82607200D01*
X168225714Y-82607200D02*
X168082857Y-82654819D01*
X168082857Y-82654819D02*
X167987619Y-82654819D01*
X167987619Y-82654819D02*
X167844762Y-82607200D01*
X167844762Y-82607200D02*
X167749524Y-82511961D01*
X167749524Y-82511961D02*
X167701905Y-82416723D01*
X167701905Y-82416723D02*
X167654286Y-82226247D01*
X167654286Y-82226247D02*
X167654286Y-82083390D01*
X167654286Y-82083390D02*
X167701905Y-81892914D01*
X167701905Y-81892914D02*
X167749524Y-81797676D01*
X167749524Y-81797676D02*
X167844762Y-81702438D01*
X167844762Y-81702438D02*
X167987619Y-81654819D01*
X167987619Y-81654819D02*
X168082857Y-81654819D01*
X168082857Y-81654819D02*
X168225714Y-81702438D01*
X168225714Y-81702438D02*
X168273333Y-81750057D01*
X168606667Y-81654819D02*
X169225714Y-81654819D01*
X169225714Y-81654819D02*
X168892381Y-82035771D01*
X168892381Y-82035771D02*
X169035238Y-82035771D01*
X169035238Y-82035771D02*
X169130476Y-82083390D01*
X169130476Y-82083390D02*
X169178095Y-82131009D01*
X169178095Y-82131009D02*
X169225714Y-82226247D01*
X169225714Y-82226247D02*
X169225714Y-82464342D01*
X169225714Y-82464342D02*
X169178095Y-82559580D01*
X169178095Y-82559580D02*
X169130476Y-82607200D01*
X169130476Y-82607200D02*
X169035238Y-82654819D01*
X169035238Y-82654819D02*
X168749524Y-82654819D01*
X168749524Y-82654819D02*
X168654286Y-82607200D01*
X168654286Y-82607200D02*
X168606667Y-82559580D01*
X157315595Y-89604819D02*
X157315595Y-90414342D01*
X157315595Y-90414342D02*
X157363214Y-90509580D01*
X157363214Y-90509580D02*
X157410833Y-90557200D01*
X157410833Y-90557200D02*
X157506071Y-90604819D01*
X157506071Y-90604819D02*
X157696547Y-90604819D01*
X157696547Y-90604819D02*
X157791785Y-90557200D01*
X157791785Y-90557200D02*
X157839404Y-90509580D01*
X157839404Y-90509580D02*
X157887023Y-90414342D01*
X157887023Y-90414342D02*
X157887023Y-89604819D01*
X158315595Y-89700057D02*
X158363214Y-89652438D01*
X158363214Y-89652438D02*
X158458452Y-89604819D01*
X158458452Y-89604819D02*
X158696547Y-89604819D01*
X158696547Y-89604819D02*
X158791785Y-89652438D01*
X158791785Y-89652438D02*
X158839404Y-89700057D01*
X158839404Y-89700057D02*
X158887023Y-89795295D01*
X158887023Y-89795295D02*
X158887023Y-89890533D01*
X158887023Y-89890533D02*
X158839404Y-90033390D01*
X158839404Y-90033390D02*
X158267976Y-90604819D01*
X158267976Y-90604819D02*
X158887023Y-90604819D01*
X163703333Y-85714819D02*
X163370000Y-85238628D01*
X163131905Y-85714819D02*
X163131905Y-84714819D01*
X163131905Y-84714819D02*
X163512857Y-84714819D01*
X163512857Y-84714819D02*
X163608095Y-84762438D01*
X163608095Y-84762438D02*
X163655714Y-84810057D01*
X163655714Y-84810057D02*
X163703333Y-84905295D01*
X163703333Y-84905295D02*
X163703333Y-85048152D01*
X163703333Y-85048152D02*
X163655714Y-85143390D01*
X163655714Y-85143390D02*
X163608095Y-85191009D01*
X163608095Y-85191009D02*
X163512857Y-85238628D01*
X163512857Y-85238628D02*
X163131905Y-85238628D01*
X164036667Y-84714819D02*
X164703333Y-84714819D01*
X164703333Y-84714819D02*
X164274762Y-85714819D01*
X164643333Y-68709580D02*
X164595714Y-68757200D01*
X164595714Y-68757200D02*
X164452857Y-68804819D01*
X164452857Y-68804819D02*
X164357619Y-68804819D01*
X164357619Y-68804819D02*
X164214762Y-68757200D01*
X164214762Y-68757200D02*
X164119524Y-68661961D01*
X164119524Y-68661961D02*
X164071905Y-68566723D01*
X164071905Y-68566723D02*
X164024286Y-68376247D01*
X164024286Y-68376247D02*
X164024286Y-68233390D01*
X164024286Y-68233390D02*
X164071905Y-68042914D01*
X164071905Y-68042914D02*
X164119524Y-67947676D01*
X164119524Y-67947676D02*
X164214762Y-67852438D01*
X164214762Y-67852438D02*
X164357619Y-67804819D01*
X164357619Y-67804819D02*
X164452857Y-67804819D01*
X164452857Y-67804819D02*
X164595714Y-67852438D01*
X164595714Y-67852438D02*
X164643333Y-67900057D01*
X165548095Y-67804819D02*
X165071905Y-67804819D01*
X165071905Y-67804819D02*
X165024286Y-68281009D01*
X165024286Y-68281009D02*
X165071905Y-68233390D01*
X165071905Y-68233390D02*
X165167143Y-68185771D01*
X165167143Y-68185771D02*
X165405238Y-68185771D01*
X165405238Y-68185771D02*
X165500476Y-68233390D01*
X165500476Y-68233390D02*
X165548095Y-68281009D01*
X165548095Y-68281009D02*
X165595714Y-68376247D01*
X165595714Y-68376247D02*
X165595714Y-68614342D01*
X165595714Y-68614342D02*
X165548095Y-68709580D01*
X165548095Y-68709580D02*
X165500476Y-68757200D01*
X165500476Y-68757200D02*
X165405238Y-68804819D01*
X165405238Y-68804819D02*
X165167143Y-68804819D01*
X165167143Y-68804819D02*
X165071905Y-68757200D01*
X165071905Y-68757200D02*
X165024286Y-68709580D01*
X151383333Y-69104819D02*
X151050000Y-68628628D01*
X150811905Y-69104819D02*
X150811905Y-68104819D01*
X150811905Y-68104819D02*
X151192857Y-68104819D01*
X151192857Y-68104819D02*
X151288095Y-68152438D01*
X151288095Y-68152438D02*
X151335714Y-68200057D01*
X151335714Y-68200057D02*
X151383333Y-68295295D01*
X151383333Y-68295295D02*
X151383333Y-68438152D01*
X151383333Y-68438152D02*
X151335714Y-68533390D01*
X151335714Y-68533390D02*
X151288095Y-68581009D01*
X151288095Y-68581009D02*
X151192857Y-68628628D01*
X151192857Y-68628628D02*
X150811905Y-68628628D01*
X151954762Y-68533390D02*
X151859524Y-68485771D01*
X151859524Y-68485771D02*
X151811905Y-68438152D01*
X151811905Y-68438152D02*
X151764286Y-68342914D01*
X151764286Y-68342914D02*
X151764286Y-68295295D01*
X151764286Y-68295295D02*
X151811905Y-68200057D01*
X151811905Y-68200057D02*
X151859524Y-68152438D01*
X151859524Y-68152438D02*
X151954762Y-68104819D01*
X151954762Y-68104819D02*
X152145238Y-68104819D01*
X152145238Y-68104819D02*
X152240476Y-68152438D01*
X152240476Y-68152438D02*
X152288095Y-68200057D01*
X152288095Y-68200057D02*
X152335714Y-68295295D01*
X152335714Y-68295295D02*
X152335714Y-68342914D01*
X152335714Y-68342914D02*
X152288095Y-68438152D01*
X152288095Y-68438152D02*
X152240476Y-68485771D01*
X152240476Y-68485771D02*
X152145238Y-68533390D01*
X152145238Y-68533390D02*
X151954762Y-68533390D01*
X151954762Y-68533390D02*
X151859524Y-68581009D01*
X151859524Y-68581009D02*
X151811905Y-68628628D01*
X151811905Y-68628628D02*
X151764286Y-68723866D01*
X151764286Y-68723866D02*
X151764286Y-68914342D01*
X151764286Y-68914342D02*
X151811905Y-69009580D01*
X151811905Y-69009580D02*
X151859524Y-69057200D01*
X151859524Y-69057200D02*
X151954762Y-69104819D01*
X151954762Y-69104819D02*
X152145238Y-69104819D01*
X152145238Y-69104819D02*
X152240476Y-69057200D01*
X152240476Y-69057200D02*
X152288095Y-69009580D01*
X152288095Y-69009580D02*
X152335714Y-68914342D01*
X152335714Y-68914342D02*
X152335714Y-68723866D01*
X152335714Y-68723866D02*
X152288095Y-68628628D01*
X152288095Y-68628628D02*
X152240476Y-68581009D01*
X152240476Y-68581009D02*
X152145238Y-68533390D01*
X168313333Y-80579580D02*
X168265714Y-80627200D01*
X168265714Y-80627200D02*
X168122857Y-80674819D01*
X168122857Y-80674819D02*
X168027619Y-80674819D01*
X168027619Y-80674819D02*
X167884762Y-80627200D01*
X167884762Y-80627200D02*
X167789524Y-80531961D01*
X167789524Y-80531961D02*
X167741905Y-80436723D01*
X167741905Y-80436723D02*
X167694286Y-80246247D01*
X167694286Y-80246247D02*
X167694286Y-80103390D01*
X167694286Y-80103390D02*
X167741905Y-79912914D01*
X167741905Y-79912914D02*
X167789524Y-79817676D01*
X167789524Y-79817676D02*
X167884762Y-79722438D01*
X167884762Y-79722438D02*
X168027619Y-79674819D01*
X168027619Y-79674819D02*
X168122857Y-79674819D01*
X168122857Y-79674819D02*
X168265714Y-79722438D01*
X168265714Y-79722438D02*
X168313333Y-79770057D01*
X169265714Y-80674819D02*
X168694286Y-80674819D01*
X168980000Y-80674819D02*
X168980000Y-79674819D01*
X168980000Y-79674819D02*
X168884762Y-79817676D01*
X168884762Y-79817676D02*
X168789524Y-79912914D01*
X168789524Y-79912914D02*
X168694286Y-79960533D01*
X145063333Y-64839580D02*
X145015714Y-64887200D01*
X145015714Y-64887200D02*
X144872857Y-64934819D01*
X144872857Y-64934819D02*
X144777619Y-64934819D01*
X144777619Y-64934819D02*
X144634762Y-64887200D01*
X144634762Y-64887200D02*
X144539524Y-64791961D01*
X144539524Y-64791961D02*
X144491905Y-64696723D01*
X144491905Y-64696723D02*
X144444286Y-64506247D01*
X144444286Y-64506247D02*
X144444286Y-64363390D01*
X144444286Y-64363390D02*
X144491905Y-64172914D01*
X144491905Y-64172914D02*
X144539524Y-64077676D01*
X144539524Y-64077676D02*
X144634762Y-63982438D01*
X144634762Y-63982438D02*
X144777619Y-63934819D01*
X144777619Y-63934819D02*
X144872857Y-63934819D01*
X144872857Y-63934819D02*
X145015714Y-63982438D01*
X145015714Y-63982438D02*
X145063333Y-64030057D01*
X145539524Y-64934819D02*
X145730000Y-64934819D01*
X145730000Y-64934819D02*
X145825238Y-64887200D01*
X145825238Y-64887200D02*
X145872857Y-64839580D01*
X145872857Y-64839580D02*
X145968095Y-64696723D01*
X145968095Y-64696723D02*
X146015714Y-64506247D01*
X146015714Y-64506247D02*
X146015714Y-64125295D01*
X146015714Y-64125295D02*
X145968095Y-64030057D01*
X145968095Y-64030057D02*
X145920476Y-63982438D01*
X145920476Y-63982438D02*
X145825238Y-63934819D01*
X145825238Y-63934819D02*
X145634762Y-63934819D01*
X145634762Y-63934819D02*
X145539524Y-63982438D01*
X145539524Y-63982438D02*
X145491905Y-64030057D01*
X145491905Y-64030057D02*
X145444286Y-64125295D01*
X145444286Y-64125295D02*
X145444286Y-64363390D01*
X145444286Y-64363390D02*
X145491905Y-64458628D01*
X145491905Y-64458628D02*
X145539524Y-64506247D01*
X145539524Y-64506247D02*
X145634762Y-64553866D01*
X145634762Y-64553866D02*
X145825238Y-64553866D01*
X145825238Y-64553866D02*
X145920476Y-64506247D01*
X145920476Y-64506247D02*
X145968095Y-64458628D01*
X145968095Y-64458628D02*
X146015714Y-64363390D01*
X160201905Y-76274819D02*
X160201905Y-75274819D01*
X160201905Y-75274819D02*
X160440000Y-75274819D01*
X160440000Y-75274819D02*
X160582857Y-75322438D01*
X160582857Y-75322438D02*
X160678095Y-75417676D01*
X160678095Y-75417676D02*
X160725714Y-75512914D01*
X160725714Y-75512914D02*
X160773333Y-75703390D01*
X160773333Y-75703390D02*
X160773333Y-75846247D01*
X160773333Y-75846247D02*
X160725714Y-76036723D01*
X160725714Y-76036723D02*
X160678095Y-76131961D01*
X160678095Y-76131961D02*
X160582857Y-76227200D01*
X160582857Y-76227200D02*
X160440000Y-76274819D01*
X160440000Y-76274819D02*
X160201905Y-76274819D01*
X161725714Y-76274819D02*
X161154286Y-76274819D01*
X161440000Y-76274819D02*
X161440000Y-75274819D01*
X161440000Y-75274819D02*
X161344762Y-75417676D01*
X161344762Y-75417676D02*
X161249524Y-75512914D01*
X161249524Y-75512914D02*
X161154286Y-75560533D01*
X142556666Y-80484819D02*
X142556666Y-81199104D01*
X142556666Y-81199104D02*
X142509047Y-81341961D01*
X142509047Y-81341961D02*
X142413809Y-81437200D01*
X142413809Y-81437200D02*
X142270952Y-81484819D01*
X142270952Y-81484819D02*
X142175714Y-81484819D01*
X143556666Y-81484819D02*
X142985238Y-81484819D01*
X143270952Y-81484819D02*
X143270952Y-80484819D01*
X143270952Y-80484819D02*
X143175714Y-80627676D01*
X143175714Y-80627676D02*
X143080476Y-80722914D01*
X143080476Y-80722914D02*
X142985238Y-80770533D01*
X167663333Y-103269580D02*
X167615714Y-103317200D01*
X167615714Y-103317200D02*
X167472857Y-103364819D01*
X167472857Y-103364819D02*
X167377619Y-103364819D01*
X167377619Y-103364819D02*
X167234762Y-103317200D01*
X167234762Y-103317200D02*
X167139524Y-103221961D01*
X167139524Y-103221961D02*
X167091905Y-103126723D01*
X167091905Y-103126723D02*
X167044286Y-102936247D01*
X167044286Y-102936247D02*
X167044286Y-102793390D01*
X167044286Y-102793390D02*
X167091905Y-102602914D01*
X167091905Y-102602914D02*
X167139524Y-102507676D01*
X167139524Y-102507676D02*
X167234762Y-102412438D01*
X167234762Y-102412438D02*
X167377619Y-102364819D01*
X167377619Y-102364819D02*
X167472857Y-102364819D01*
X167472857Y-102364819D02*
X167615714Y-102412438D01*
X167615714Y-102412438D02*
X167663333Y-102460057D01*
X168044286Y-102460057D02*
X168091905Y-102412438D01*
X168091905Y-102412438D02*
X168187143Y-102364819D01*
X168187143Y-102364819D02*
X168425238Y-102364819D01*
X168425238Y-102364819D02*
X168520476Y-102412438D01*
X168520476Y-102412438D02*
X168568095Y-102460057D01*
X168568095Y-102460057D02*
X168615714Y-102555295D01*
X168615714Y-102555295D02*
X168615714Y-102650533D01*
X168615714Y-102650533D02*
X168568095Y-102793390D01*
X168568095Y-102793390D02*
X167996667Y-103364819D01*
X167996667Y-103364819D02*
X168615714Y-103364819D01*
X155203333Y-85444819D02*
X154870000Y-84968628D01*
X154631905Y-85444819D02*
X154631905Y-84444819D01*
X154631905Y-84444819D02*
X155012857Y-84444819D01*
X155012857Y-84444819D02*
X155108095Y-84492438D01*
X155108095Y-84492438D02*
X155155714Y-84540057D01*
X155155714Y-84540057D02*
X155203333Y-84635295D01*
X155203333Y-84635295D02*
X155203333Y-84778152D01*
X155203333Y-84778152D02*
X155155714Y-84873390D01*
X155155714Y-84873390D02*
X155108095Y-84921009D01*
X155108095Y-84921009D02*
X155012857Y-84968628D01*
X155012857Y-84968628D02*
X154631905Y-84968628D01*
X156060476Y-84444819D02*
X155870000Y-84444819D01*
X155870000Y-84444819D02*
X155774762Y-84492438D01*
X155774762Y-84492438D02*
X155727143Y-84540057D01*
X155727143Y-84540057D02*
X155631905Y-84682914D01*
X155631905Y-84682914D02*
X155584286Y-84873390D01*
X155584286Y-84873390D02*
X155584286Y-85254342D01*
X155584286Y-85254342D02*
X155631905Y-85349580D01*
X155631905Y-85349580D02*
X155679524Y-85397200D01*
X155679524Y-85397200D02*
X155774762Y-85444819D01*
X155774762Y-85444819D02*
X155965238Y-85444819D01*
X155965238Y-85444819D02*
X156060476Y-85397200D01*
X156060476Y-85397200D02*
X156108095Y-85349580D01*
X156108095Y-85349580D02*
X156155714Y-85254342D01*
X156155714Y-85254342D02*
X156155714Y-85016247D01*
X156155714Y-85016247D02*
X156108095Y-84921009D01*
X156108095Y-84921009D02*
X156060476Y-84873390D01*
X156060476Y-84873390D02*
X155965238Y-84825771D01*
X155965238Y-84825771D02*
X155774762Y-84825771D01*
X155774762Y-84825771D02*
X155679524Y-84873390D01*
X155679524Y-84873390D02*
X155631905Y-84921009D01*
X155631905Y-84921009D02*
X155584286Y-85016247D01*
X162453333Y-60674819D02*
X162120000Y-60198628D01*
X161881905Y-60674819D02*
X161881905Y-59674819D01*
X161881905Y-59674819D02*
X162262857Y-59674819D01*
X162262857Y-59674819D02*
X162358095Y-59722438D01*
X162358095Y-59722438D02*
X162405714Y-59770057D01*
X162405714Y-59770057D02*
X162453333Y-59865295D01*
X162453333Y-59865295D02*
X162453333Y-60008152D01*
X162453333Y-60008152D02*
X162405714Y-60103390D01*
X162405714Y-60103390D02*
X162358095Y-60151009D01*
X162358095Y-60151009D02*
X162262857Y-60198628D01*
X162262857Y-60198628D02*
X161881905Y-60198628D01*
X162834286Y-59770057D02*
X162881905Y-59722438D01*
X162881905Y-59722438D02*
X162977143Y-59674819D01*
X162977143Y-59674819D02*
X163215238Y-59674819D01*
X163215238Y-59674819D02*
X163310476Y-59722438D01*
X163310476Y-59722438D02*
X163358095Y-59770057D01*
X163358095Y-59770057D02*
X163405714Y-59865295D01*
X163405714Y-59865295D02*
X163405714Y-59960533D01*
X163405714Y-59960533D02*
X163358095Y-60103390D01*
X163358095Y-60103390D02*
X162786667Y-60674819D01*
X162786667Y-60674819D02*
X163405714Y-60674819D01*
X150516666Y-63171009D02*
X150183333Y-63171009D01*
X150183333Y-63694819D02*
X150183333Y-62694819D01*
X150183333Y-62694819D02*
X150659523Y-62694819D01*
X151564285Y-63694819D02*
X150992857Y-63694819D01*
X151278571Y-63694819D02*
X151278571Y-62694819D01*
X151278571Y-62694819D02*
X151183333Y-62837676D01*
X151183333Y-62837676D02*
X151088095Y-62932914D01*
X151088095Y-62932914D02*
X150992857Y-62980533D01*
X147061905Y-87464819D02*
X147061905Y-86464819D01*
X147061905Y-86464819D02*
X147300000Y-86464819D01*
X147300000Y-86464819D02*
X147442857Y-86512438D01*
X147442857Y-86512438D02*
X147538095Y-86607676D01*
X147538095Y-86607676D02*
X147585714Y-86702914D01*
X147585714Y-86702914D02*
X147633333Y-86893390D01*
X147633333Y-86893390D02*
X147633333Y-87036247D01*
X147633333Y-87036247D02*
X147585714Y-87226723D01*
X147585714Y-87226723D02*
X147538095Y-87321961D01*
X147538095Y-87321961D02*
X147442857Y-87417200D01*
X147442857Y-87417200D02*
X147300000Y-87464819D01*
X147300000Y-87464819D02*
X147061905Y-87464819D01*
X147966667Y-86464819D02*
X148585714Y-86464819D01*
X148585714Y-86464819D02*
X148252381Y-86845771D01*
X148252381Y-86845771D02*
X148395238Y-86845771D01*
X148395238Y-86845771D02*
X148490476Y-86893390D01*
X148490476Y-86893390D02*
X148538095Y-86941009D01*
X148538095Y-86941009D02*
X148585714Y-87036247D01*
X148585714Y-87036247D02*
X148585714Y-87274342D01*
X148585714Y-87274342D02*
X148538095Y-87369580D01*
X148538095Y-87369580D02*
X148490476Y-87417200D01*
X148490476Y-87417200D02*
X148395238Y-87464819D01*
X148395238Y-87464819D02*
X148109524Y-87464819D01*
X148109524Y-87464819D02*
X148014286Y-87417200D01*
X148014286Y-87417200D02*
X147966667Y-87369580D01*
X142753333Y-75419580D02*
X142705714Y-75467200D01*
X142705714Y-75467200D02*
X142562857Y-75514819D01*
X142562857Y-75514819D02*
X142467619Y-75514819D01*
X142467619Y-75514819D02*
X142324762Y-75467200D01*
X142324762Y-75467200D02*
X142229524Y-75371961D01*
X142229524Y-75371961D02*
X142181905Y-75276723D01*
X142181905Y-75276723D02*
X142134286Y-75086247D01*
X142134286Y-75086247D02*
X142134286Y-74943390D01*
X142134286Y-74943390D02*
X142181905Y-74752914D01*
X142181905Y-74752914D02*
X142229524Y-74657676D01*
X142229524Y-74657676D02*
X142324762Y-74562438D01*
X142324762Y-74562438D02*
X142467619Y-74514819D01*
X142467619Y-74514819D02*
X142562857Y-74514819D01*
X142562857Y-74514819D02*
X142705714Y-74562438D01*
X142705714Y-74562438D02*
X142753333Y-74610057D01*
X143610476Y-74514819D02*
X143420000Y-74514819D01*
X143420000Y-74514819D02*
X143324762Y-74562438D01*
X143324762Y-74562438D02*
X143277143Y-74610057D01*
X143277143Y-74610057D02*
X143181905Y-74752914D01*
X143181905Y-74752914D02*
X143134286Y-74943390D01*
X143134286Y-74943390D02*
X143134286Y-75324342D01*
X143134286Y-75324342D02*
X143181905Y-75419580D01*
X143181905Y-75419580D02*
X143229524Y-75467200D01*
X143229524Y-75467200D02*
X143324762Y-75514819D01*
X143324762Y-75514819D02*
X143515238Y-75514819D01*
X143515238Y-75514819D02*
X143610476Y-75467200D01*
X143610476Y-75467200D02*
X143658095Y-75419580D01*
X143658095Y-75419580D02*
X143705714Y-75324342D01*
X143705714Y-75324342D02*
X143705714Y-75086247D01*
X143705714Y-75086247D02*
X143658095Y-74991009D01*
X143658095Y-74991009D02*
X143610476Y-74943390D01*
X143610476Y-74943390D02*
X143515238Y-74895771D01*
X143515238Y-74895771D02*
X143324762Y-74895771D01*
X143324762Y-74895771D02*
X143229524Y-74943390D01*
X143229524Y-74943390D02*
X143181905Y-74991009D01*
X143181905Y-74991009D02*
X143134286Y-75086247D01*
D12*
%TO.C,Y1*%
X146655000Y-81140000D02*
X146655000Y-74740000D01*
X151525000Y-74740000D02*
X151525000Y-81140000D01*
X146655000Y-74740000D02*
G75*
G02*
X151525000Y-74740000I2435000J0D01*
G01*
X151525000Y-81140000D02*
G75*
G02*
X146655000Y-81140000I-2435000J0D01*
G01*
%TO.C,U1*%
X165240000Y-71702500D02*
X165240000Y-71972500D01*
X165240000Y-78602500D02*
X165240000Y-78332500D01*
X171660000Y-71702500D02*
X165240000Y-71702500D01*
X171660000Y-78602500D02*
X165240000Y-78602500D01*
X163510000Y-72012500D02*
X163170000Y-71542500D01*
X163850000Y-71542500D01*
X163510000Y-72012500D01*
G36*
X163510000Y-72012500D02*
G01*
X163170000Y-71542500D01*
X163850000Y-71542500D01*
X163510000Y-72012500D01*
G37*
%TO.C,D2*%
X157910000Y-106150000D02*
X160595000Y-106150000D01*
X160595000Y-104230000D02*
X157910000Y-104230000D01*
X160595000Y-106150000D02*
X160595000Y-104230000D01*
%TO.C,D5*%
X146270000Y-66195000D02*
X146270000Y-68880000D01*
X148190000Y-66195000D02*
X146270000Y-66195000D01*
X148190000Y-68880000D02*
X148190000Y-66195000D01*
D13*
%TO.C,REF\u002A\u002A*%
G36*
X158619339Y-75202414D02*
G01*
X155123777Y-75202414D01*
X155123777Y-74351218D01*
X158619339Y-74351218D01*
X158619339Y-75202414D01*
G37*
G36*
X157599894Y-72620495D02*
G01*
X157605855Y-72620949D01*
X157611729Y-72621695D01*
X157617508Y-72622727D01*
X157623187Y-72624038D01*
X157628756Y-72625620D01*
X157634210Y-72627465D01*
X157639540Y-72629567D01*
X157644739Y-72631917D01*
X157649800Y-72634509D01*
X157654715Y-72637336D01*
X157659477Y-72640389D01*
X157664079Y-72643661D01*
X157668513Y-72647146D01*
X157672772Y-72650835D01*
X157676848Y-72654721D01*
X157680735Y-72658798D01*
X157684424Y-72663057D01*
X157687908Y-72667491D01*
X157691181Y-72672093D01*
X157694234Y-72676855D01*
X157697060Y-72681770D01*
X157699652Y-72686831D01*
X157702003Y-72692030D01*
X157704105Y-72697360D01*
X157705950Y-72702813D01*
X157707532Y-72708383D01*
X157708842Y-72714061D01*
X157709875Y-72719841D01*
X157710621Y-72725715D01*
X157711074Y-72731675D01*
X157711227Y-72737715D01*
X157711074Y-72743755D01*
X157710621Y-72749715D01*
X157709875Y-72755589D01*
X157708842Y-72761368D01*
X157707532Y-72767046D01*
X157705950Y-72772616D01*
X157704105Y-72778069D01*
X157702003Y-72783399D01*
X157699652Y-72788597D01*
X157697060Y-72793658D01*
X157694234Y-72798573D01*
X157691181Y-72803334D01*
X157687908Y-72807936D01*
X157684424Y-72812369D01*
X157680735Y-72816628D01*
X157676848Y-72820703D01*
X157672772Y-72824589D01*
X157668513Y-72828278D01*
X157664079Y-72831762D01*
X157659477Y-72835034D01*
X157654715Y-72838087D01*
X157649800Y-72840913D01*
X157644739Y-72843504D01*
X157639540Y-72845855D01*
X157634210Y-72847956D01*
X157628756Y-72849801D01*
X157623187Y-72851383D01*
X157617508Y-72852693D01*
X157611729Y-72853725D01*
X157605855Y-72854471D01*
X157599894Y-72854925D01*
X157593855Y-72855077D01*
X157587815Y-72854925D01*
X157581855Y-72854471D01*
X157575981Y-72853725D01*
X157570201Y-72852693D01*
X157564523Y-72851383D01*
X157558953Y-72849801D01*
X157553500Y-72847956D01*
X157548170Y-72845855D01*
X157542970Y-72843504D01*
X157537910Y-72840913D01*
X157532994Y-72838087D01*
X157528232Y-72835034D01*
X157523630Y-72831762D01*
X157519196Y-72828278D01*
X157514937Y-72824589D01*
X157510861Y-72820703D01*
X157506975Y-72816628D01*
X157503285Y-72812369D01*
X157499801Y-72807936D01*
X157496528Y-72803334D01*
X157493475Y-72798572D01*
X157490649Y-72793658D01*
X157488057Y-72788597D01*
X157485706Y-72783399D01*
X157483605Y-72778069D01*
X157481759Y-72772616D01*
X157480178Y-72767046D01*
X157478867Y-72761368D01*
X157477835Y-72755589D01*
X157477088Y-72749715D01*
X157476635Y-72743755D01*
X157476482Y-72737715D01*
X157476635Y-72731676D01*
X157477088Y-72725715D01*
X157477835Y-72719841D01*
X157478867Y-72714062D01*
X157480178Y-72708383D01*
X157481759Y-72702814D01*
X157483605Y-72697360D01*
X157485706Y-72692030D01*
X157488057Y-72686831D01*
X157490649Y-72681770D01*
X157493475Y-72676855D01*
X157496528Y-72672093D01*
X157499801Y-72667491D01*
X157503285Y-72663057D01*
X157506975Y-72658798D01*
X157510861Y-72654722D01*
X157514937Y-72650835D01*
X157519196Y-72647146D01*
X157523630Y-72643661D01*
X157528232Y-72640389D01*
X157532994Y-72637336D01*
X157537910Y-72634510D01*
X157542970Y-72631917D01*
X157548170Y-72629567D01*
X157553500Y-72627465D01*
X157558953Y-72625620D01*
X157564523Y-72624038D01*
X157570201Y-72622727D01*
X157575981Y-72621695D01*
X157581855Y-72620949D01*
X157587815Y-72620495D01*
X157593855Y-72620343D01*
X157599894Y-72620495D01*
G37*
G36*
X159010808Y-69337235D02*
G01*
X158087785Y-70277430D01*
X158106999Y-70277430D01*
X158106999Y-70698117D01*
X157832209Y-70698117D01*
X157685478Y-72272478D01*
X158770875Y-73415587D01*
X158698868Y-73483925D01*
X157936551Y-72679773D01*
X157937664Y-72686862D01*
X157938634Y-72693998D01*
X157939459Y-72701180D01*
X157940138Y-72708405D01*
X157940669Y-72715672D01*
X157941050Y-72722981D01*
X157941280Y-72730329D01*
X157941357Y-72737715D01*
X157940905Y-72755598D01*
X157939563Y-72773246D01*
X157937353Y-72790637D01*
X157934297Y-72807750D01*
X157930417Y-72824562D01*
X157925734Y-72841052D01*
X157920271Y-72857198D01*
X157914049Y-72872979D01*
X157907090Y-72888371D01*
X157899416Y-72903355D01*
X157891049Y-72917907D01*
X157882010Y-72932005D01*
X157872322Y-72945629D01*
X157862006Y-72958756D01*
X157851084Y-72971365D01*
X157839578Y-72983433D01*
X157827510Y-72994938D01*
X157814902Y-73005860D01*
X157801774Y-73016176D01*
X157788150Y-73025864D01*
X157774052Y-73034902D01*
X157759500Y-73043269D01*
X157744516Y-73050942D01*
X157729124Y-73057901D01*
X157713344Y-73064123D01*
X157697198Y-73069586D01*
X157680708Y-73074268D01*
X157663896Y-73078148D01*
X157646784Y-73081204D01*
X157629393Y-73083413D01*
X157611746Y-73084755D01*
X157593864Y-73085207D01*
X157569092Y-73084338D01*
X157544788Y-73081769D01*
X157521012Y-73077559D01*
X157497821Y-73071766D01*
X157475276Y-73064449D01*
X157453433Y-73055666D01*
X157432352Y-73045475D01*
X157412091Y-73033936D01*
X157392709Y-73021106D01*
X157374264Y-73007045D01*
X157356814Y-72991810D01*
X157340419Y-72975460D01*
X157325136Y-72958054D01*
X157311024Y-72939649D01*
X157298143Y-72920305D01*
X157286549Y-72900080D01*
X156436771Y-72900080D01*
X156436771Y-73081608D01*
X156213196Y-73081608D01*
X156213196Y-72899617D01*
X156210746Y-72899211D01*
X156208305Y-72898684D01*
X156205879Y-72898039D01*
X156203471Y-72897282D01*
X156201085Y-72896415D01*
X156198726Y-72895442D01*
X156196396Y-72894366D01*
X156194101Y-72893192D01*
X156189629Y-72890563D01*
X156185342Y-72887582D01*
X156181272Y-72884280D01*
X156177450Y-72880687D01*
X156173909Y-72876830D01*
X156170680Y-72872739D01*
X156167795Y-72868445D01*
X156166492Y-72866230D01*
X156165287Y-72863975D01*
X156164184Y-72861684D01*
X156163188Y-72859360D01*
X156162301Y-72857007D01*
X156161528Y-72854628D01*
X156160874Y-72852228D01*
X156160341Y-72849809D01*
X156159934Y-72847377D01*
X156159658Y-72844933D01*
X156111921Y-72290073D01*
X154927530Y-73496503D01*
X154856728Y-73426928D01*
X156085348Y-72176662D01*
X156223250Y-72176662D01*
X156275100Y-72779440D01*
X157248826Y-72779440D01*
X157248252Y-72774297D01*
X157247752Y-72769133D01*
X157247327Y-72763946D01*
X157246978Y-72758740D01*
X157246706Y-72753512D01*
X157246510Y-72748265D01*
X157246392Y-72743000D01*
X157246352Y-72737715D01*
X157413131Y-72737715D01*
X157413366Y-72747015D01*
X157414064Y-72756193D01*
X157415213Y-72765237D01*
X157416802Y-72774136D01*
X157418820Y-72782880D01*
X157421255Y-72791456D01*
X157424096Y-72799853D01*
X157427332Y-72808060D01*
X157430951Y-72816065D01*
X157434942Y-72823857D01*
X157439293Y-72831425D01*
X157443994Y-72838758D01*
X157449032Y-72845844D01*
X157454397Y-72852671D01*
X157460077Y-72859228D01*
X157466061Y-72865505D01*
X157472337Y-72871489D01*
X157478895Y-72877169D01*
X157485722Y-72882534D01*
X157492807Y-72887573D01*
X157500140Y-72892274D01*
X157507708Y-72896626D01*
X157515500Y-72900617D01*
X157523506Y-72904236D01*
X157531713Y-72907472D01*
X157540110Y-72910313D01*
X157548686Y-72912749D01*
X157557430Y-72914767D01*
X157566330Y-72916356D01*
X157575375Y-72917506D01*
X157584554Y-72918204D01*
X157593854Y-72918439D01*
X157603154Y-72918204D01*
X157612332Y-72917506D01*
X157621376Y-72916356D01*
X157630276Y-72914767D01*
X157639019Y-72912749D01*
X157647595Y-72910313D01*
X157655992Y-72907472D01*
X157664199Y-72904236D01*
X157672204Y-72900617D01*
X157679997Y-72896626D01*
X157687565Y-72892274D01*
X157694897Y-72887573D01*
X157701983Y-72882534D01*
X157708810Y-72877169D01*
X157715368Y-72871489D01*
X157721644Y-72865505D01*
X157727628Y-72859228D01*
X157733309Y-72852671D01*
X157738674Y-72845844D01*
X157743712Y-72838758D01*
X157748413Y-72831425D01*
X157752765Y-72823857D01*
X157756756Y-72816065D01*
X157760375Y-72808060D01*
X157763611Y-72799853D01*
X157766453Y-72791456D01*
X157768888Y-72782880D01*
X157770906Y-72774136D01*
X157772496Y-72765237D01*
X157773645Y-72756193D01*
X157774343Y-72747015D01*
X157774578Y-72737715D01*
X157774343Y-72728415D01*
X157773645Y-72719236D01*
X157772496Y-72710191D01*
X157770906Y-72701291D01*
X157768888Y-72692547D01*
X157766453Y-72683971D01*
X157763611Y-72675574D01*
X157760375Y-72667366D01*
X157756756Y-72659361D01*
X157752765Y-72651568D01*
X157748413Y-72644000D01*
X157743712Y-72636668D01*
X157738674Y-72629582D01*
X157733309Y-72622755D01*
X157727628Y-72616198D01*
X157721644Y-72609922D01*
X157715368Y-72603938D01*
X157708810Y-72598258D01*
X157701983Y-72592893D01*
X157694897Y-72587854D01*
X157687565Y-72583154D01*
X157679997Y-72578802D01*
X157672204Y-72574812D01*
X157664199Y-72571193D01*
X157655992Y-72567957D01*
X157647595Y-72565116D01*
X157639019Y-72562681D01*
X157630276Y-72560663D01*
X157621376Y-72559074D01*
X157612332Y-72557924D01*
X157603154Y-72557226D01*
X157593854Y-72556991D01*
X157584554Y-72557226D01*
X157575375Y-72557924D01*
X157566331Y-72559074D01*
X157557430Y-72560663D01*
X157548687Y-72562681D01*
X157540110Y-72565116D01*
X157531713Y-72567957D01*
X157523506Y-72571193D01*
X157515500Y-72574812D01*
X157507708Y-72578802D01*
X157500140Y-72583154D01*
X157492807Y-72587854D01*
X157485722Y-72592893D01*
X157478895Y-72598258D01*
X157472337Y-72603938D01*
X157466061Y-72609922D01*
X157460077Y-72616198D01*
X157454397Y-72622755D01*
X157449032Y-72629582D01*
X157443994Y-72636668D01*
X157439293Y-72644000D01*
X157434942Y-72651568D01*
X157430951Y-72659361D01*
X157427332Y-72667366D01*
X157424096Y-72675574D01*
X157421255Y-72683971D01*
X157418820Y-72692547D01*
X157416802Y-72701291D01*
X157415213Y-72710191D01*
X157414064Y-72719236D01*
X157413366Y-72728415D01*
X157413131Y-72737715D01*
X157246352Y-72737715D01*
X157246742Y-72721109D01*
X157247900Y-72704704D01*
X157249808Y-72688517D01*
X157252449Y-72672567D01*
X157255806Y-72656869D01*
X157259860Y-72641442D01*
X157264595Y-72626304D01*
X157269994Y-72611471D01*
X157276038Y-72596961D01*
X157282710Y-72582792D01*
X157289993Y-72568980D01*
X157297869Y-72555545D01*
X157306321Y-72542502D01*
X157315332Y-72529870D01*
X157324883Y-72517665D01*
X157334958Y-72505906D01*
X157345539Y-72494610D01*
X157356609Y-72483794D01*
X157368150Y-72473476D01*
X157380144Y-72463673D01*
X157392574Y-72454402D01*
X157405424Y-72445682D01*
X157418674Y-72437529D01*
X157432308Y-72429961D01*
X157446309Y-72422996D01*
X157460658Y-72416651D01*
X157475339Y-72410943D01*
X157490334Y-72405890D01*
X157505626Y-72401509D01*
X157521196Y-72397818D01*
X157537029Y-72394835D01*
X157553105Y-72392576D01*
X157563059Y-72285790D01*
X156852239Y-71535971D01*
X156223250Y-72176662D01*
X156085348Y-72176662D01*
X156100811Y-72160928D01*
X155978783Y-70742325D01*
X156099876Y-70742325D01*
X156212161Y-72047617D01*
X156783077Y-71466637D01*
X156920306Y-71466637D01*
X157575124Y-72156273D01*
X157711016Y-70698117D01*
X157697613Y-70698117D01*
X157697613Y-70674852D01*
X156920306Y-71466637D01*
X156783077Y-71466637D01*
X156784826Y-71464857D01*
X156099876Y-70742325D01*
X155978783Y-70742325D01*
X155966698Y-70601838D01*
X154783162Y-69353362D01*
X154783162Y-69215871D01*
X155953497Y-70448432D01*
X155923091Y-70094957D01*
X156044186Y-70094957D01*
X156086654Y-70588667D01*
X156852862Y-71395615D01*
X157306074Y-70934430D01*
X156667112Y-70934430D01*
X156667112Y-70693130D01*
X157406103Y-70693130D01*
X157406103Y-70832632D01*
X157644902Y-70589632D01*
X157842303Y-70589632D01*
X158001411Y-70589632D01*
X158001411Y-70385935D01*
X157981272Y-70385935D01*
X157848707Y-70520962D01*
X157842303Y-70589632D01*
X157644902Y-70589632D01*
X157697613Y-70535993D01*
X157697613Y-70277451D01*
X157750217Y-70277451D01*
X157767218Y-70094957D01*
X156044186Y-70094957D01*
X155923091Y-70094957D01*
X155922661Y-70089960D01*
X155777318Y-70089960D01*
X155777318Y-69969310D01*
X155905197Y-69969310D01*
X156360490Y-69969310D01*
X157762483Y-69969310D01*
X157756864Y-69957341D01*
X157750344Y-69945769D01*
X157742951Y-69934589D01*
X157734715Y-69923794D01*
X157725665Y-69913377D01*
X157715829Y-69903332D01*
X157705238Y-69893652D01*
X157693921Y-69884330D01*
X157681906Y-69875360D01*
X157669224Y-69866736D01*
X157655903Y-69858451D01*
X157641973Y-69850498D01*
X157612400Y-69835564D01*
X157580741Y-69821880D01*
X157547229Y-69809394D01*
X157512098Y-69798055D01*
X157475583Y-69787809D01*
X157437916Y-69778604D01*
X157399332Y-69770387D01*
X157360064Y-69763107D01*
X157320348Y-69756710D01*
X157280426Y-69751146D01*
X157280426Y-69863752D01*
X156687240Y-69863752D01*
X156687240Y-69743102D01*
X156687240Y-69738457D01*
X156647367Y-69741714D01*
X156606719Y-69745631D01*
X156565545Y-69750258D01*
X156524095Y-69755644D01*
X156482615Y-69761842D01*
X156441356Y-69768900D01*
X156400564Y-69776870D01*
X156360490Y-69785802D01*
X156360490Y-69969310D01*
X155905197Y-69969310D01*
X155905200Y-69969300D01*
X156034192Y-69969300D01*
X156154319Y-69969300D01*
X156154319Y-69859519D01*
X156144255Y-69865142D01*
X156134485Y-69870921D01*
X156125019Y-69876857D01*
X156115867Y-69882953D01*
X156107039Y-69889210D01*
X156098546Y-69895631D01*
X156090396Y-69902218D01*
X156082601Y-69908973D01*
X156075171Y-69915897D01*
X156068114Y-69922994D01*
X156061441Y-69930265D01*
X156055163Y-69937711D01*
X156049289Y-69945336D01*
X156043829Y-69953141D01*
X156038793Y-69961129D01*
X156034192Y-69969300D01*
X155905200Y-69969300D01*
X155906056Y-69966716D01*
X155906985Y-69964017D01*
X155907986Y-69961215D01*
X155909060Y-69958314D01*
X155910211Y-69955315D01*
X155911441Y-69952222D01*
X155912751Y-69949038D01*
X155914145Y-69945763D01*
X155922643Y-69927663D01*
X155932168Y-69910207D01*
X155942687Y-69893386D01*
X155954165Y-69877187D01*
X155966569Y-69861599D01*
X155979864Y-69846612D01*
X155994016Y-69832214D01*
X156008991Y-69818392D01*
X156024755Y-69805137D01*
X156041274Y-69792436D01*
X156050683Y-69785802D01*
X156058514Y-69780279D01*
X156076440Y-69768654D01*
X156095019Y-69757549D01*
X156114216Y-69746954D01*
X156133997Y-69736857D01*
X156154329Y-69727246D01*
X156154329Y-69687784D01*
X156807870Y-69687784D01*
X156807870Y-69743102D01*
X157159756Y-69743102D01*
X157159756Y-69687784D01*
X156807870Y-69687784D01*
X156154329Y-69687784D01*
X156154329Y-69647507D01*
X156360490Y-69647507D01*
X156360490Y-69659843D01*
X156401029Y-69651106D01*
X156441982Y-69643370D01*
X156483185Y-69636580D01*
X156524476Y-69630682D01*
X156565690Y-69625622D01*
X156606664Y-69621345D01*
X156647235Y-69617796D01*
X156687240Y-69614921D01*
X156687240Y-69567144D01*
X157280426Y-69567144D01*
X157280426Y-69628295D01*
X157360683Y-69639867D01*
X157400604Y-69646957D01*
X157440157Y-69654986D01*
X157479173Y-69664006D01*
X157517483Y-69674072D01*
X157554918Y-69685236D01*
X157591310Y-69697550D01*
X157626488Y-69711068D01*
X157660283Y-69725842D01*
X157692527Y-69741926D01*
X157723051Y-69759371D01*
X157751685Y-69778232D01*
X157778260Y-69798561D01*
X157802607Y-69820411D01*
X157824557Y-69843834D01*
X157830267Y-69836964D01*
X157836344Y-69830424D01*
X157842772Y-69824229D01*
X157849535Y-69818395D01*
X157856617Y-69812938D01*
X157864003Y-69807874D01*
X157871678Y-69803217D01*
X157879625Y-69798984D01*
X157887830Y-69795190D01*
X157896275Y-69791852D01*
X157904946Y-69788984D01*
X157913828Y-69786602D01*
X157922903Y-69784723D01*
X157932157Y-69783361D01*
X157941575Y-69782532D01*
X157951139Y-69782253D01*
X157959418Y-69782462D01*
X157967588Y-69783083D01*
X157975639Y-69784106D01*
X157983561Y-69785521D01*
X157991344Y-69787317D01*
X157998978Y-69789484D01*
X158006452Y-69792013D01*
X158013758Y-69794894D01*
X158020884Y-69798115D01*
X158027820Y-69801667D01*
X158034557Y-69805541D01*
X158041083Y-69809725D01*
X158047390Y-69814210D01*
X158053467Y-69818985D01*
X158059304Y-69824041D01*
X158064891Y-69829368D01*
X158070217Y-69834954D01*
X158075273Y-69840791D01*
X158080049Y-69846868D01*
X158084534Y-69853175D01*
X158088718Y-69859702D01*
X158092591Y-69866439D01*
X158096144Y-69873375D01*
X158099365Y-69880501D01*
X158102245Y-69887806D01*
X158104774Y-69895281D01*
X158106942Y-69902915D01*
X158108738Y-69910698D01*
X158110153Y-69918620D01*
X158111176Y-69926671D01*
X158111797Y-69934841D01*
X158112006Y-69943119D01*
X158111797Y-69951397D01*
X158111176Y-69959566D01*
X158110153Y-69967616D01*
X158108738Y-69975538D01*
X158106942Y-69983320D01*
X158104774Y-69990954D01*
X158102245Y-69998428D01*
X158099365Y-70005733D01*
X158096144Y-70012859D01*
X158092591Y-70019795D01*
X158088718Y-70026532D01*
X158084534Y-70033059D01*
X158080049Y-70039366D01*
X158075273Y-70045443D01*
X158070217Y-70051280D01*
X158064891Y-70056867D01*
X158059304Y-70062194D01*
X158053467Y-70067250D01*
X158047390Y-70072026D01*
X158041083Y-70076511D01*
X158034557Y-70080695D01*
X158027820Y-70084569D01*
X158020884Y-70088122D01*
X158013758Y-70091343D01*
X158006452Y-70094224D01*
X157998978Y-70096753D01*
X157991344Y-70098921D01*
X157983561Y-70100717D01*
X157975639Y-70102132D01*
X157967588Y-70103155D01*
X157959418Y-70103777D01*
X157951139Y-70103986D01*
X157947004Y-70103934D01*
X157942895Y-70103778D01*
X157938812Y-70103521D01*
X157934758Y-70103162D01*
X157930732Y-70102704D01*
X157926738Y-70102147D01*
X157922775Y-70101493D01*
X157918845Y-70100743D01*
X157914950Y-70099899D01*
X157911091Y-70098961D01*
X157907268Y-70097930D01*
X157903484Y-70096809D01*
X157899739Y-70095598D01*
X157896034Y-70094298D01*
X157892372Y-70092911D01*
X157888753Y-70091438D01*
X157871410Y-70277440D01*
X157951702Y-70277440D01*
X159010808Y-69199674D01*
X159010808Y-69337235D01*
G37*
D12*
%TO.C,J3*%
X171000000Y-82440000D02*
X172380000Y-82440000D01*
X171000000Y-83820000D02*
X171000000Y-82440000D01*
X171000000Y-85090000D02*
X171000000Y-105520000D01*
X171000000Y-85090000D02*
X173760000Y-85090000D01*
X171000000Y-105520000D02*
X173760000Y-105520000D01*
X173760000Y-85090000D02*
X173760000Y-105520000D01*
%TO.C,D4*%
X163015000Y-86070000D02*
X163015000Y-87990000D01*
X163015000Y-87990000D02*
X165700000Y-87990000D01*
X165700000Y-86070000D02*
X163015000Y-86070000D01*
%TO.C,J4*%
X154035000Y-58280000D02*
X154035000Y-56210000D01*
X154905000Y-58280000D02*
X154035000Y-58280000D01*
X161775000Y-58280000D02*
X160905000Y-58280000D01*
X161775000Y-58280000D02*
X161775000Y-56210000D01*
X156945000Y-59090000D02*
X156265000Y-59090000D01*
X156605000Y-58620000D01*
X156945000Y-59090000D01*
G36*
X156945000Y-59090000D02*
G01*
X156265000Y-59090000D01*
X156605000Y-58620000D01*
X156945000Y-59090000D01*
G37*
%TO.C,U3*%
X155250000Y-61862500D02*
X155425000Y-61862500D01*
X155250000Y-65082500D02*
X155250000Y-61862500D01*
X155425000Y-65082500D02*
X155250000Y-65082500D01*
X158295000Y-61862500D02*
X158470000Y-61862500D01*
X158470000Y-61862500D02*
X158470000Y-65082500D01*
X158470000Y-65082500D02*
X158295000Y-65082500D01*
X158630000Y-61552500D02*
X158300000Y-61312500D01*
X158630000Y-61072500D01*
X158630000Y-61552500D01*
G36*
X158630000Y-61552500D02*
G01*
X158300000Y-61312500D01*
X158630000Y-61072500D01*
X158630000Y-61552500D01*
G37*
%TO.C,C10*%
X148291252Y-59245000D02*
X147768748Y-59245000D01*
X148291252Y-60715000D02*
X147768748Y-60715000D01*
%TO.C,C7*%
X144245000Y-79966252D02*
X144245000Y-79443748D01*
X145715000Y-79966252D02*
X145715000Y-79443748D01*
%TO.C,R3*%
X150737064Y-88285000D02*
X150282936Y-88285000D01*
X150737064Y-89755000D02*
X150282936Y-89755000D01*
%TO.C,SW1*%
X166170000Y-67580000D02*
X166170000Y-66580000D01*
X166220000Y-59580000D02*
X166220000Y-65380000D01*
X167170000Y-67580000D02*
X166170000Y-67580000D01*
X168170000Y-59380000D02*
X170770000Y-59380000D01*
X168170000Y-65580000D02*
X170770000Y-65580000D01*
X172720000Y-59480000D02*
X172720000Y-65480000D01*
D14*
%TO.C,REF\u002A\u002A*%
X168295768Y-94129131D02*
X168307148Y-94148205D01*
X168332728Y-94191933D01*
X168371242Y-94258131D01*
X168421426Y-94344614D01*
X168482015Y-94449197D01*
X168551743Y-94569695D01*
X168629347Y-94703924D01*
X168713560Y-94849699D01*
X168803119Y-95004835D01*
X168895238Y-95164512D01*
X168989316Y-95327629D01*
X169079642Y-95484221D01*
X169164905Y-95632018D01*
X169243797Y-95768752D01*
X169315009Y-95892154D01*
X169377231Y-95999956D01*
X169429153Y-96089889D01*
X169469468Y-96159685D01*
X169496864Y-96207076D01*
X169509747Y-96229298D01*
X169530747Y-96266842D01*
X169542165Y-96290343D01*
X169542791Y-96294432D01*
X169528876Y-96286754D01*
X169490181Y-96264715D01*
X169428727Y-96229483D01*
X169346538Y-96182223D01*
X169245636Y-96124101D01*
X169128045Y-96056283D01*
X168995786Y-95979936D01*
X168850882Y-95896226D01*
X168695357Y-95806318D01*
X168531232Y-95711379D01*
X168468789Y-95675244D01*
X168301727Y-95578595D01*
X168142314Y-95486450D01*
X167992595Y-95399987D01*
X167854616Y-95320383D01*
X167730425Y-95248817D01*
X167622067Y-95186467D01*
X167531588Y-95134510D01*
X167461036Y-95094125D01*
X167412455Y-95066490D01*
X167387894Y-95052784D01*
X167385325Y-95051486D01*
X167392809Y-95039732D01*
X167418854Y-95008307D01*
X167460799Y-94960106D01*
X167515986Y-94898022D01*
X167581757Y-94824951D01*
X167655452Y-94743788D01*
X167734413Y-94657428D01*
X167815980Y-94568765D01*
X167897494Y-94480694D01*
X167976297Y-94396111D01*
X168049730Y-94317909D01*
X168115133Y-94248984D01*
X168169848Y-94192231D01*
X168211217Y-94150544D01*
X168225404Y-94136875D01*
X168272420Y-94092713D01*
X168295768Y-94129131D01*
G36*
X168295768Y-94129131D02*
G01*
X168307148Y-94148205D01*
X168332728Y-94191933D01*
X168371242Y-94258131D01*
X168421426Y-94344614D01*
X168482015Y-94449197D01*
X168551743Y-94569695D01*
X168629347Y-94703924D01*
X168713560Y-94849699D01*
X168803119Y-95004835D01*
X168895238Y-95164512D01*
X168989316Y-95327629D01*
X169079642Y-95484221D01*
X169164905Y-95632018D01*
X169243797Y-95768752D01*
X169315009Y-95892154D01*
X169377231Y-95999956D01*
X169429153Y-96089889D01*
X169469468Y-96159685D01*
X169496864Y-96207076D01*
X169509747Y-96229298D01*
X169530747Y-96266842D01*
X169542165Y-96290343D01*
X169542791Y-96294432D01*
X169528876Y-96286754D01*
X169490181Y-96264715D01*
X169428727Y-96229483D01*
X169346538Y-96182223D01*
X169245636Y-96124101D01*
X169128045Y-96056283D01*
X168995786Y-95979936D01*
X168850882Y-95896226D01*
X168695357Y-95806318D01*
X168531232Y-95711379D01*
X168468789Y-95675244D01*
X168301727Y-95578595D01*
X168142314Y-95486450D01*
X167992595Y-95399987D01*
X167854616Y-95320383D01*
X167730425Y-95248817D01*
X167622067Y-95186467D01*
X167531588Y-95134510D01*
X167461036Y-95094125D01*
X167412455Y-95066490D01*
X167387894Y-95052784D01*
X167385325Y-95051486D01*
X167392809Y-95039732D01*
X167418854Y-95008307D01*
X167460799Y-94960106D01*
X167515986Y-94898022D01*
X167581757Y-94824951D01*
X167655452Y-94743788D01*
X167734413Y-94657428D01*
X167815980Y-94568765D01*
X167897494Y-94480694D01*
X167976297Y-94396111D01*
X168049730Y-94317909D01*
X168115133Y-94248984D01*
X168169848Y-94192231D01*
X168211217Y-94150544D01*
X168225404Y-94136875D01*
X168272420Y-94092713D01*
X168295768Y-94129131D01*
G37*
X166472283Y-90980347D02*
X166495305Y-91017757D01*
X166530774Y-91077026D01*
X166577236Y-91155630D01*
X166633236Y-91251050D01*
X166697321Y-91360762D01*
X166768036Y-91482246D01*
X166843927Y-91612980D01*
X166923539Y-91750442D01*
X167005418Y-91892110D01*
X167088110Y-92035463D01*
X167170161Y-92177979D01*
X167250116Y-92317136D01*
X167326521Y-92450413D01*
X167397922Y-92575288D01*
X167462864Y-92689239D01*
X167519893Y-92789745D01*
X167567555Y-92874284D01*
X167604395Y-92940334D01*
X167628960Y-92985374D01*
X167639794Y-93006882D01*
X167640191Y-93008226D01*
X167626741Y-93026477D01*
X167589354Y-93054394D01*
X167532475Y-93089237D01*
X167460552Y-93128266D01*
X167385255Y-93165355D01*
X167282800Y-93210329D01*
X167175057Y-93250738D01*
X167058313Y-93287481D01*
X166928858Y-93321454D01*
X166782980Y-93353556D01*
X166616966Y-93384685D01*
X166427106Y-93415739D01*
X166230709Y-93444657D01*
X166060074Y-93470312D01*
X165916785Y-93495710D01*
X165797248Y-93522114D01*
X165697870Y-93550785D01*
X165615058Y-93582985D01*
X165545218Y-93619977D01*
X165484758Y-93663024D01*
X165430085Y-93713387D01*
X165412454Y-93732095D01*
X165374240Y-93775651D01*
X165345972Y-93811194D01*
X165332858Y-93832095D01*
X165332508Y-93833809D01*
X165327920Y-93844318D01*
X165311998Y-93844436D01*
X165281506Y-93832766D01*
X165233208Y-93807908D01*
X165163867Y-93768464D01*
X165115679Y-93740099D01*
X165043823Y-93695759D01*
X164987982Y-93657791D01*
X164951907Y-93628928D01*
X164939353Y-93611900D01*
X164939361Y-93611776D01*
X164947146Y-93595549D01*
X164969132Y-93554912D01*
X165004043Y-93492079D01*
X165050603Y-93409264D01*
X165107535Y-93308684D01*
X165173563Y-93192552D01*
X165247412Y-93063083D01*
X165327804Y-92922492D01*
X165413464Y-92772994D01*
X165503116Y-92616804D01*
X165595483Y-92456136D01*
X165689289Y-92293205D01*
X165783258Y-92130225D01*
X165876114Y-91969412D01*
X165966580Y-91812980D01*
X166053381Y-91663145D01*
X166135240Y-91522120D01*
X166210881Y-91392121D01*
X166279027Y-91275361D01*
X166338403Y-91174057D01*
X166387733Y-91090423D01*
X166425740Y-91026674D01*
X166451147Y-90985023D01*
X166462680Y-90967687D01*
X166463163Y-90967317D01*
X166472283Y-90980347D01*
G36*
X166472283Y-90980347D02*
G01*
X166495305Y-91017757D01*
X166530774Y-91077026D01*
X166577236Y-91155630D01*
X166633236Y-91251050D01*
X166697321Y-91360762D01*
X166768036Y-91482246D01*
X166843927Y-91612980D01*
X166923539Y-91750442D01*
X167005418Y-91892110D01*
X167088110Y-92035463D01*
X167170161Y-92177979D01*
X167250116Y-92317136D01*
X167326521Y-92450413D01*
X167397922Y-92575288D01*
X167462864Y-92689239D01*
X167519893Y-92789745D01*
X167567555Y-92874284D01*
X167604395Y-92940334D01*
X167628960Y-92985374D01*
X167639794Y-93006882D01*
X167640191Y-93008226D01*
X167626741Y-93026477D01*
X167589354Y-93054394D01*
X167532475Y-93089237D01*
X167460552Y-93128266D01*
X167385255Y-93165355D01*
X167282800Y-93210329D01*
X167175057Y-93250738D01*
X167058313Y-93287481D01*
X166928858Y-93321454D01*
X166782980Y-93353556D01*
X166616966Y-93384685D01*
X166427106Y-93415739D01*
X166230709Y-93444657D01*
X166060074Y-93470312D01*
X165916785Y-93495710D01*
X165797248Y-93522114D01*
X165697870Y-93550785D01*
X165615058Y-93582985D01*
X165545218Y-93619977D01*
X165484758Y-93663024D01*
X165430085Y-93713387D01*
X165412454Y-93732095D01*
X165374240Y-93775651D01*
X165345972Y-93811194D01*
X165332858Y-93832095D01*
X165332508Y-93833809D01*
X165327920Y-93844318D01*
X165311998Y-93844436D01*
X165281506Y-93832766D01*
X165233208Y-93807908D01*
X165163867Y-93768464D01*
X165115679Y-93740099D01*
X165043823Y-93695759D01*
X164987982Y-93657791D01*
X164951907Y-93628928D01*
X164939353Y-93611900D01*
X164939361Y-93611776D01*
X164947146Y-93595549D01*
X164969132Y-93554912D01*
X165004043Y-93492079D01*
X165050603Y-93409264D01*
X165107535Y-93308684D01*
X165173563Y-93192552D01*
X165247412Y-93063083D01*
X165327804Y-92922492D01*
X165413464Y-92772994D01*
X165503116Y-92616804D01*
X165595483Y-92456136D01*
X165689289Y-92293205D01*
X165783258Y-92130225D01*
X165876114Y-91969412D01*
X165966580Y-91812980D01*
X166053381Y-91663145D01*
X166135240Y-91522120D01*
X166210881Y-91392121D01*
X166279027Y-91275361D01*
X166338403Y-91174057D01*
X166387733Y-91090423D01*
X166425740Y-91026674D01*
X166451147Y-90985023D01*
X166462680Y-90967687D01*
X166463163Y-90967317D01*
X166472283Y-90980347D01*
G37*
X164630334Y-94185670D02*
X164662859Y-94198248D01*
X164712433Y-94223224D01*
X164783614Y-94262388D01*
X164789156Y-94265500D01*
X164854714Y-94302988D01*
X164910038Y-94335831D01*
X164949695Y-94360717D01*
X164968252Y-94374332D01*
X164968771Y-94374999D01*
X164964288Y-94393902D01*
X164943726Y-94436117D01*
X164908423Y-94499344D01*
X164859720Y-94581284D01*
X164798958Y-94679634D01*
X164727476Y-94792097D01*
X164709685Y-94819677D01*
X164663333Y-94896211D01*
X164629582Y-94962068D01*
X164611393Y-95011294D01*
X164609526Y-95021019D01*
X164610355Y-95063824D01*
X164619634Y-95131721D01*
X164636208Y-95220355D01*
X164658920Y-95325371D01*
X164686613Y-95442414D01*
X164718130Y-95567128D01*
X164752315Y-95695157D01*
X164788011Y-95822146D01*
X164824061Y-95943740D01*
X164859308Y-96055584D01*
X164892596Y-96153322D01*
X164922768Y-96232599D01*
X164943801Y-96279634D01*
X164968577Y-96329737D01*
X164991970Y-96377680D01*
X164993237Y-96380305D01*
X165031939Y-96428732D01*
X165088424Y-96461340D01*
X165154179Y-96476966D01*
X165220691Y-96474449D01*
X165279445Y-96452626D01*
X165312498Y-96423894D01*
X165360099Y-96345095D01*
X165394979Y-96246890D01*
X165414117Y-96139291D01*
X165416828Y-96078292D01*
X165405910Y-95964447D01*
X165373864Y-95870172D01*
X165318966Y-95790891D01*
X165301847Y-95773245D01*
X165250901Y-95723747D01*
X165247403Y-95373874D01*
X165243904Y-95024001D01*
X165333058Y-94889043D01*
X165374894Y-94827957D01*
X165415185Y-94773005D01*
X165448183Y-94731848D01*
X165462366Y-94716704D01*
X165502521Y-94679322D01*
X165556905Y-94708610D01*
X165591279Y-94729596D01*
X165610086Y-94745890D01*
X165611289Y-94748819D01*
X165624143Y-94761240D01*
X165646136Y-94770489D01*
X165667390Y-94778825D01*
X165699934Y-94794661D01*
X165746562Y-94819545D01*
X165810069Y-94855021D01*
X165893248Y-94902635D01*
X165998893Y-94963934D01*
X166056302Y-94997444D01*
X166123834Y-95037583D01*
X166168125Y-95066171D01*
X166193095Y-95086551D01*
X166202663Y-95102065D01*
X166200748Y-95116058D01*
X166199151Y-95119308D01*
X166183616Y-95139778D01*
X166150376Y-95178177D01*
X166103302Y-95230208D01*
X166046268Y-95291578D01*
X165996940Y-95343602D01*
X165883270Y-95467079D01*
X165794345Y-95574103D01*
X165729374Y-95665752D01*
X165687561Y-95743100D01*
X165673457Y-95782378D01*
X165667632Y-95816761D01*
X165661615Y-95875411D01*
X165655936Y-95951629D01*
X165651124Y-96038714D01*
X165648859Y-96093780D01*
X165645699Y-96188976D01*
X165644309Y-96258574D01*
X165645098Y-96307921D01*
X165648475Y-96342366D01*
X165654848Y-96367255D01*
X165664627Y-96387937D01*
X165672307Y-96400565D01*
X165716661Y-96449238D01*
X165773814Y-96483157D01*
X165833948Y-96497950D01*
X165879013Y-96492598D01*
X165919816Y-96469442D01*
X165970964Y-96427974D01*
X166025282Y-96375424D01*
X166075597Y-96319028D01*
X166114734Y-96266017D01*
X166129145Y-96240401D01*
X166150731Y-96205326D01*
X166189993Y-96151901D01*
X166243342Y-96084301D01*
X166307192Y-96006702D01*
X166377955Y-95923280D01*
X166452044Y-95838210D01*
X166525872Y-95755667D01*
X166595851Y-95679828D01*
X166658395Y-95614868D01*
X166707500Y-95567181D01*
X166762019Y-95519544D01*
X166807882Y-95484420D01*
X166840051Y-95465461D01*
X166850729Y-95463376D01*
X166867093Y-95471786D01*
X166907911Y-95494358D01*
X166970826Y-95529736D01*
X167053484Y-95576566D01*
X167153529Y-95633493D01*
X167268606Y-95699161D01*
X167396359Y-95772215D01*
X167534434Y-95851300D01*
X167680474Y-95935060D01*
X167832124Y-96022141D01*
X167987030Y-96111188D01*
X168142835Y-96200844D01*
X168297184Y-96289755D01*
X168447722Y-96376566D01*
X168592094Y-96459921D01*
X168727944Y-96538466D01*
X168852917Y-96610845D01*
X168964657Y-96675702D01*
X169060810Y-96731683D01*
X169139019Y-96777432D01*
X169196929Y-96811595D01*
X169232186Y-96832816D01*
X169242405Y-96839475D01*
X169228642Y-96840792D01*
X169185344Y-96842071D01*
X169113954Y-96843308D01*
X169015913Y-96844495D01*
X168892662Y-96845627D01*
X168745643Y-96846698D01*
X168576297Y-96847701D01*
X168386066Y-96848631D01*
X168176391Y-96849480D01*
X167948713Y-96850244D01*
X167704475Y-96850915D01*
X167445117Y-96851488D01*
X167172081Y-96851956D01*
X166886808Y-96852314D01*
X166590740Y-96852554D01*
X166285319Y-96852671D01*
X166157164Y-96852683D01*
X163057210Y-96852683D01*
X163278293Y-96469359D01*
X163325096Y-96388192D01*
X163385342Y-96283678D01*
X163457018Y-96159313D01*
X163538109Y-96018594D01*
X163626602Y-95865015D01*
X163720480Y-95702074D01*
X163817731Y-95533266D01*
X163916340Y-95362087D01*
X164014293Y-95192033D01*
X164039065Y-95149024D01*
X164129392Y-94992369D01*
X164215529Y-94843315D01*
X164296182Y-94704080D01*
X164370056Y-94576883D01*
X164435857Y-94463944D01*
X164492290Y-94367480D01*
X164538061Y-94289712D01*
X164571875Y-94232858D01*
X164592438Y-94199137D01*
X164598193Y-94190552D01*
X164610298Y-94183701D01*
X164630334Y-94185670D01*
G36*
X164630334Y-94185670D02*
G01*
X164662859Y-94198248D01*
X164712433Y-94223224D01*
X164783614Y-94262388D01*
X164789156Y-94265500D01*
X164854714Y-94302988D01*
X164910038Y-94335831D01*
X164949695Y-94360717D01*
X164968252Y-94374332D01*
X164968771Y-94374999D01*
X164964288Y-94393902D01*
X164943726Y-94436117D01*
X164908423Y-94499344D01*
X164859720Y-94581284D01*
X164798958Y-94679634D01*
X164727476Y-94792097D01*
X164709685Y-94819677D01*
X164663333Y-94896211D01*
X164629582Y-94962068D01*
X164611393Y-95011294D01*
X164609526Y-95021019D01*
X164610355Y-95063824D01*
X164619634Y-95131721D01*
X164636208Y-95220355D01*
X164658920Y-95325371D01*
X164686613Y-95442414D01*
X164718130Y-95567128D01*
X164752315Y-95695157D01*
X164788011Y-95822146D01*
X164824061Y-95943740D01*
X164859308Y-96055584D01*
X164892596Y-96153322D01*
X164922768Y-96232599D01*
X164943801Y-96279634D01*
X164968577Y-96329737D01*
X164991970Y-96377680D01*
X164993237Y-96380305D01*
X165031939Y-96428732D01*
X165088424Y-96461340D01*
X165154179Y-96476966D01*
X165220691Y-96474449D01*
X165279445Y-96452626D01*
X165312498Y-96423894D01*
X165360099Y-96345095D01*
X165394979Y-96246890D01*
X165414117Y-96139291D01*
X165416828Y-96078292D01*
X165405910Y-95964447D01*
X165373864Y-95870172D01*
X165318966Y-95790891D01*
X165301847Y-95773245D01*
X165250901Y-95723747D01*
X165247403Y-95373874D01*
X165243904Y-95024001D01*
X165333058Y-94889043D01*
X165374894Y-94827957D01*
X165415185Y-94773005D01*
X165448183Y-94731848D01*
X165462366Y-94716704D01*
X165502521Y-94679322D01*
X165556905Y-94708610D01*
X165591279Y-94729596D01*
X165610086Y-94745890D01*
X165611289Y-94748819D01*
X165624143Y-94761240D01*
X165646136Y-94770489D01*
X165667390Y-94778825D01*
X165699934Y-94794661D01*
X165746562Y-94819545D01*
X165810069Y-94855021D01*
X165893248Y-94902635D01*
X165998893Y-94963934D01*
X166056302Y-94997444D01*
X166123834Y-95037583D01*
X166168125Y-95066171D01*
X166193095Y-95086551D01*
X166202663Y-95102065D01*
X166200748Y-95116058D01*
X166199151Y-95119308D01*
X166183616Y-95139778D01*
X166150376Y-95178177D01*
X166103302Y-95230208D01*
X166046268Y-95291578D01*
X165996940Y-95343602D01*
X165883270Y-95467079D01*
X165794345Y-95574103D01*
X165729374Y-95665752D01*
X165687561Y-95743100D01*
X165673457Y-95782378D01*
X165667632Y-95816761D01*
X165661615Y-95875411D01*
X165655936Y-95951629D01*
X165651124Y-96038714D01*
X165648859Y-96093780D01*
X165645699Y-96188976D01*
X165644309Y-96258574D01*
X165645098Y-96307921D01*
X165648475Y-96342366D01*
X165654848Y-96367255D01*
X165664627Y-96387937D01*
X165672307Y-96400565D01*
X165716661Y-96449238D01*
X165773814Y-96483157D01*
X165833948Y-96497950D01*
X165879013Y-96492598D01*
X165919816Y-96469442D01*
X165970964Y-96427974D01*
X166025282Y-96375424D01*
X166075597Y-96319028D01*
X166114734Y-96266017D01*
X166129145Y-96240401D01*
X166150731Y-96205326D01*
X166189993Y-96151901D01*
X166243342Y-96084301D01*
X166307192Y-96006702D01*
X166377955Y-95923280D01*
X166452044Y-95838210D01*
X166525872Y-95755667D01*
X166595851Y-95679828D01*
X166658395Y-95614868D01*
X166707500Y-95567181D01*
X166762019Y-95519544D01*
X166807882Y-95484420D01*
X166840051Y-95465461D01*
X166850729Y-95463376D01*
X166867093Y-95471786D01*
X166907911Y-95494358D01*
X166970826Y-95529736D01*
X167053484Y-95576566D01*
X167153529Y-95633493D01*
X167268606Y-95699161D01*
X167396359Y-95772215D01*
X167534434Y-95851300D01*
X167680474Y-95935060D01*
X167832124Y-96022141D01*
X167987030Y-96111188D01*
X168142835Y-96200844D01*
X168297184Y-96289755D01*
X168447722Y-96376566D01*
X168592094Y-96459921D01*
X168727944Y-96538466D01*
X168852917Y-96610845D01*
X168964657Y-96675702D01*
X169060810Y-96731683D01*
X169139019Y-96777432D01*
X169196929Y-96811595D01*
X169232186Y-96832816D01*
X169242405Y-96839475D01*
X169228642Y-96840792D01*
X169185344Y-96842071D01*
X169113954Y-96843308D01*
X169015913Y-96844495D01*
X168892662Y-96845627D01*
X168745643Y-96846698D01*
X168576297Y-96847701D01*
X168386066Y-96848631D01*
X168176391Y-96849480D01*
X167948713Y-96850244D01*
X167704475Y-96850915D01*
X167445117Y-96851488D01*
X167172081Y-96851956D01*
X166886808Y-96852314D01*
X166590740Y-96852554D01*
X166285319Y-96852671D01*
X166157164Y-96852683D01*
X163057210Y-96852683D01*
X163278293Y-96469359D01*
X163325096Y-96388192D01*
X163385342Y-96283678D01*
X163457018Y-96159313D01*
X163538109Y-96018594D01*
X163626602Y-95865015D01*
X163720480Y-95702074D01*
X163817731Y-95533266D01*
X163916340Y-95362087D01*
X164014293Y-95192033D01*
X164039065Y-95149024D01*
X164129392Y-94992369D01*
X164215529Y-94843315D01*
X164296182Y-94704080D01*
X164370056Y-94576883D01*
X164435857Y-94463944D01*
X164492290Y-94367480D01*
X164538061Y-94289712D01*
X164571875Y-94232858D01*
X164592438Y-94199137D01*
X164598193Y-94190552D01*
X164610298Y-94183701D01*
X164630334Y-94185670D01*
G37*
D12*
%TO.C,R1*%
X161975000Y-65937064D02*
X161975000Y-65482936D01*
X163445000Y-65937064D02*
X163445000Y-65482936D01*
D14*
%TO.C,REF\u002A\u002A*%
X156528614Y-102425877D02*
X156552327Y-102440647D01*
X156578978Y-102462227D01*
X156578978Y-102783773D01*
X156578893Y-102877830D01*
X156578529Y-102951932D01*
X156577724Y-103008704D01*
X156576313Y-103050768D01*
X156574133Y-103080748D01*
X156571021Y-103101267D01*
X156566814Y-103114949D01*
X156561348Y-103124416D01*
X156557472Y-103129082D01*
X156526034Y-103149575D01*
X156490233Y-103148739D01*
X156458873Y-103131264D01*
X156432222Y-103109684D01*
X156432222Y-102462227D01*
X156458873Y-102440647D01*
X156484594Y-102424949D01*
X156505600Y-102419067D01*
X156528614Y-102425877D01*
G36*
X156528614Y-102425877D02*
G01*
X156552327Y-102440647D01*
X156578978Y-102462227D01*
X156578978Y-102783773D01*
X156578893Y-102877830D01*
X156578529Y-102951932D01*
X156577724Y-103008704D01*
X156576313Y-103050768D01*
X156574133Y-103080748D01*
X156571021Y-103101267D01*
X156566814Y-103114949D01*
X156561348Y-103124416D01*
X156557472Y-103129082D01*
X156526034Y-103149575D01*
X156490233Y-103148739D01*
X156458873Y-103131264D01*
X156432222Y-103109684D01*
X156432222Y-102462227D01*
X156458873Y-102440647D01*
X156484594Y-102424949D01*
X156505600Y-102419067D01*
X156528614Y-102425877D01*
G37*
X149416178Y-102441645D02*
X149422758Y-102449218D01*
X149427921Y-102458987D01*
X149431836Y-102473571D01*
X149434676Y-102495585D01*
X149436613Y-102527648D01*
X149437817Y-102572375D01*
X149438461Y-102632385D01*
X149438716Y-102710294D01*
X149438755Y-102785956D01*
X149438686Y-102879802D01*
X149438362Y-102953689D01*
X149437614Y-103010232D01*
X149436268Y-103052049D01*
X149434154Y-103081757D01*
X149431100Y-103101973D01*
X149426934Y-103115314D01*
X149421484Y-103124398D01*
X149416178Y-103130267D01*
X149383174Y-103149947D01*
X149348009Y-103148181D01*
X149316545Y-103126717D01*
X149309316Y-103118337D01*
X149303666Y-103108614D01*
X149299401Y-103094861D01*
X149296327Y-103074389D01*
X149294248Y-103044512D01*
X149292970Y-103002541D01*
X149292299Y-102945789D01*
X149292041Y-102871567D01*
X149292000Y-102787537D01*
X149292000Y-102474485D01*
X149319709Y-102446776D01*
X149353863Y-102423463D01*
X149386994Y-102422623D01*
X149416178Y-102441645D01*
G36*
X149416178Y-102441645D02*
G01*
X149422758Y-102449218D01*
X149427921Y-102458987D01*
X149431836Y-102473571D01*
X149434676Y-102495585D01*
X149436613Y-102527648D01*
X149437817Y-102572375D01*
X149438461Y-102632385D01*
X149438716Y-102710294D01*
X149438755Y-102785956D01*
X149438686Y-102879802D01*
X149438362Y-102953689D01*
X149437614Y-103010232D01*
X149436268Y-103052049D01*
X149434154Y-103081757D01*
X149431100Y-103101973D01*
X149426934Y-103115314D01*
X149421484Y-103124398D01*
X149416178Y-103130267D01*
X149383174Y-103149947D01*
X149348009Y-103148181D01*
X149316545Y-103126717D01*
X149309316Y-103118337D01*
X149303666Y-103108614D01*
X149299401Y-103094861D01*
X149296327Y-103074389D01*
X149294248Y-103044512D01*
X149292970Y-103002541D01*
X149292299Y-102945789D01*
X149292041Y-102871567D01*
X149292000Y-102787537D01*
X149292000Y-102474485D01*
X149319709Y-102446776D01*
X149353863Y-102423463D01*
X149386994Y-102422623D01*
X149416178Y-102441645D01*
G37*
X150066957Y-97176571D02*
X150163232Y-97200809D01*
X150249816Y-97243641D01*
X150324627Y-97303419D01*
X150385582Y-97378494D01*
X150430601Y-97467220D01*
X150456864Y-97563530D01*
X150462714Y-97660795D01*
X150447860Y-97754654D01*
X150414160Y-97842511D01*
X150363472Y-97921770D01*
X150297655Y-97989836D01*
X150218566Y-98044112D01*
X150128066Y-98082002D01*
X150076800Y-98094426D01*
X150032302Y-98101947D01*
X149998001Y-98104919D01*
X149965040Y-98103094D01*
X149924566Y-98096225D01*
X149891469Y-98089250D01*
X149798053Y-98057741D01*
X149714381Y-98006617D01*
X149642335Y-97937429D01*
X149583800Y-97851728D01*
X149569852Y-97824489D01*
X149553414Y-97788122D01*
X149543106Y-97757582D01*
X149537540Y-97725450D01*
X149535331Y-97684307D01*
X149535052Y-97638222D01*
X149539139Y-97553865D01*
X149552554Y-97484586D01*
X149577744Y-97423961D01*
X149617154Y-97365567D01*
X149655702Y-97321302D01*
X149727594Y-97255484D01*
X149802687Y-97210053D01*
X149885438Y-97182850D01*
X149963072Y-97172576D01*
X150066957Y-97176571D01*
G36*
X150066957Y-97176571D02*
G01*
X150163232Y-97200809D01*
X150249816Y-97243641D01*
X150324627Y-97303419D01*
X150385582Y-97378494D01*
X150430601Y-97467220D01*
X150456864Y-97563530D01*
X150462714Y-97660795D01*
X150447860Y-97754654D01*
X150414160Y-97842511D01*
X150363472Y-97921770D01*
X150297655Y-97989836D01*
X150218566Y-98044112D01*
X150128066Y-98082002D01*
X150076800Y-98094426D01*
X150032302Y-98101947D01*
X149998001Y-98104919D01*
X149965040Y-98103094D01*
X149924566Y-98096225D01*
X149891469Y-98089250D01*
X149798053Y-98057741D01*
X149714381Y-98006617D01*
X149642335Y-97937429D01*
X149583800Y-97851728D01*
X149569852Y-97824489D01*
X149553414Y-97788122D01*
X149543106Y-97757582D01*
X149537540Y-97725450D01*
X149535331Y-97684307D01*
X149535052Y-97638222D01*
X149539139Y-97553865D01*
X149552554Y-97484586D01*
X149577744Y-97423961D01*
X149617154Y-97365567D01*
X149655702Y-97321302D01*
X149727594Y-97255484D01*
X149802687Y-97210053D01*
X149885438Y-97182850D01*
X149963072Y-97172576D01*
X150066957Y-97176571D01*
G37*
X157303065Y-102419163D02*
X157381772Y-102419542D01*
X157442863Y-102420333D01*
X157488817Y-102421670D01*
X157522114Y-102423683D01*
X157545236Y-102426506D01*
X157560662Y-102430269D01*
X157570871Y-102435105D01*
X157575813Y-102438822D01*
X157601457Y-102471358D01*
X157604559Y-102505138D01*
X157588711Y-102535826D01*
X157578348Y-102548089D01*
X157567196Y-102556450D01*
X157551035Y-102561657D01*
X157525642Y-102564457D01*
X157486798Y-102565596D01*
X157430280Y-102565821D01*
X157419180Y-102565822D01*
X157273244Y-102565822D01*
X157273244Y-102836756D01*
X157273148Y-102922154D01*
X157272711Y-102987864D01*
X157271712Y-103036774D01*
X157269928Y-103071773D01*
X157267137Y-103095749D01*
X157263117Y-103111593D01*
X157257645Y-103122191D01*
X157250666Y-103130267D01*
X157217734Y-103150112D01*
X157183354Y-103148548D01*
X157152176Y-103125906D01*
X157149886Y-103123100D01*
X157142429Y-103112492D01*
X157136747Y-103100081D01*
X157132601Y-103082850D01*
X157129750Y-103057784D01*
X157127954Y-103021867D01*
X157126972Y-102972083D01*
X157126564Y-102905417D01*
X157126489Y-102829589D01*
X157126489Y-102565822D01*
X156987127Y-102565822D01*
X156927322Y-102565418D01*
X156885918Y-102563840D01*
X156858748Y-102560547D01*
X156841646Y-102554992D01*
X156830443Y-102546631D01*
X156829083Y-102545178D01*
X156812725Y-102511939D01*
X156814172Y-102474362D01*
X156832978Y-102441645D01*
X156840250Y-102435298D01*
X156849627Y-102430266D01*
X156863609Y-102426396D01*
X156884696Y-102423537D01*
X156915389Y-102421535D01*
X156958189Y-102420239D01*
X157015595Y-102419498D01*
X157090110Y-102419158D01*
X157184233Y-102419068D01*
X157204260Y-102419067D01*
X157303065Y-102419163D01*
G36*
X157303065Y-102419163D02*
G01*
X157381772Y-102419542D01*
X157442863Y-102420333D01*
X157488817Y-102421670D01*
X157522114Y-102423683D01*
X157545236Y-102426506D01*
X157560662Y-102430269D01*
X157570871Y-102435105D01*
X157575813Y-102438822D01*
X157601457Y-102471358D01*
X157604559Y-102505138D01*
X157588711Y-102535826D01*
X157578348Y-102548089D01*
X157567196Y-102556450D01*
X157551035Y-102561657D01*
X157525642Y-102564457D01*
X157486798Y-102565596D01*
X157430280Y-102565821D01*
X157419180Y-102565822D01*
X157273244Y-102565822D01*
X157273244Y-102836756D01*
X157273148Y-102922154D01*
X157272711Y-102987864D01*
X157271712Y-103036774D01*
X157269928Y-103071773D01*
X157267137Y-103095749D01*
X157263117Y-103111593D01*
X157257645Y-103122191D01*
X157250666Y-103130267D01*
X157217734Y-103150112D01*
X157183354Y-103148548D01*
X157152176Y-103125906D01*
X157149886Y-103123100D01*
X157142429Y-103112492D01*
X157136747Y-103100081D01*
X157132601Y-103082850D01*
X157129750Y-103057784D01*
X157127954Y-103021867D01*
X157126972Y-102972083D01*
X157126564Y-102905417D01*
X157126489Y-102829589D01*
X157126489Y-102565822D01*
X156987127Y-102565822D01*
X156927322Y-102565418D01*
X156885918Y-102563840D01*
X156858748Y-102560547D01*
X156841646Y-102554992D01*
X156830443Y-102546631D01*
X156829083Y-102545178D01*
X156812725Y-102511939D01*
X156814172Y-102474362D01*
X156832978Y-102441645D01*
X156840250Y-102435298D01*
X156849627Y-102430266D01*
X156863609Y-102426396D01*
X156884696Y-102423537D01*
X156915389Y-102421535D01*
X156958189Y-102420239D01*
X157015595Y-102419498D01*
X157090110Y-102419158D01*
X157184233Y-102419068D01*
X157204260Y-102419067D01*
X157303065Y-102419163D01*
G37*
X158568823Y-102424533D02*
X158600202Y-102446776D01*
X158627911Y-102474485D01*
X158627911Y-102783920D01*
X158627838Y-102875799D01*
X158627495Y-102947840D01*
X158626692Y-103002780D01*
X158625241Y-103043360D01*
X158622952Y-103072317D01*
X158619636Y-103092391D01*
X158615105Y-103106321D01*
X158609169Y-103116845D01*
X158604514Y-103123100D01*
X158573783Y-103147673D01*
X158538496Y-103150341D01*
X158506245Y-103135271D01*
X158495588Y-103126374D01*
X158488464Y-103114557D01*
X158484167Y-103095526D01*
X158481991Y-103064992D01*
X158481228Y-103018662D01*
X158481155Y-102982871D01*
X158481155Y-102848045D01*
X157984444Y-102848045D01*
X157984444Y-102970700D01*
X157983931Y-103026787D01*
X157981876Y-103065333D01*
X157977508Y-103091361D01*
X157970056Y-103109897D01*
X157961047Y-103123100D01*
X157930144Y-103147604D01*
X157895196Y-103150506D01*
X157861738Y-103133089D01*
X157852604Y-103123959D01*
X157846152Y-103111855D01*
X157841897Y-103093001D01*
X157839352Y-103063620D01*
X157838029Y-103019937D01*
X157837443Y-102958175D01*
X157837375Y-102944000D01*
X157836891Y-102827631D01*
X157836641Y-102731727D01*
X157836723Y-102654177D01*
X157837231Y-102592869D01*
X157838262Y-102545690D01*
X157839913Y-102510530D01*
X157842279Y-102485276D01*
X157845457Y-102467817D01*
X157849544Y-102456041D01*
X157854634Y-102447835D01*
X157860266Y-102441645D01*
X157892128Y-102421844D01*
X157925357Y-102424533D01*
X157956735Y-102446776D01*
X157969433Y-102461126D01*
X157977526Y-102476978D01*
X157982042Y-102499554D01*
X157984006Y-102534078D01*
X157984444Y-102585776D01*
X157984444Y-102701289D01*
X158481155Y-102701289D01*
X158481155Y-102582756D01*
X158481662Y-102528148D01*
X158483698Y-102491275D01*
X158488035Y-102467307D01*
X158495447Y-102451415D01*
X158503733Y-102441645D01*
X158535594Y-102421844D01*
X158568823Y-102424533D01*
G36*
X158568823Y-102424533D02*
G01*
X158600202Y-102446776D01*
X158627911Y-102474485D01*
X158627911Y-102783920D01*
X158627838Y-102875799D01*
X158627495Y-102947840D01*
X158626692Y-103002780D01*
X158625241Y-103043360D01*
X158622952Y-103072317D01*
X158619636Y-103092391D01*
X158615105Y-103106321D01*
X158609169Y-103116845D01*
X158604514Y-103123100D01*
X158573783Y-103147673D01*
X158538496Y-103150341D01*
X158506245Y-103135271D01*
X158495588Y-103126374D01*
X158488464Y-103114557D01*
X158484167Y-103095526D01*
X158481991Y-103064992D01*
X158481228Y-103018662D01*
X158481155Y-102982871D01*
X158481155Y-102848045D01*
X157984444Y-102848045D01*
X157984444Y-102970700D01*
X157983931Y-103026787D01*
X157981876Y-103065333D01*
X157977508Y-103091361D01*
X157970056Y-103109897D01*
X157961047Y-103123100D01*
X157930144Y-103147604D01*
X157895196Y-103150506D01*
X157861738Y-103133089D01*
X157852604Y-103123959D01*
X157846152Y-103111855D01*
X157841897Y-103093001D01*
X157839352Y-103063620D01*
X157838029Y-103019937D01*
X157837443Y-102958175D01*
X157837375Y-102944000D01*
X157836891Y-102827631D01*
X157836641Y-102731727D01*
X157836723Y-102654177D01*
X157837231Y-102592869D01*
X157838262Y-102545690D01*
X157839913Y-102510530D01*
X157842279Y-102485276D01*
X157845457Y-102467817D01*
X157849544Y-102456041D01*
X157854634Y-102447835D01*
X157860266Y-102441645D01*
X157892128Y-102421844D01*
X157925357Y-102424533D01*
X157956735Y-102446776D01*
X157969433Y-102461126D01*
X157977526Y-102476978D01*
X157982042Y-102499554D01*
X157984006Y-102534078D01*
X157984444Y-102585776D01*
X157984444Y-102701289D01*
X158481155Y-102701289D01*
X158481155Y-102582756D01*
X158481662Y-102528148D01*
X158483698Y-102491275D01*
X158488035Y-102467307D01*
X158495447Y-102451415D01*
X158503733Y-102441645D01*
X158535594Y-102421844D01*
X158568823Y-102424533D01*
G37*
X153358309Y-102419275D02*
X153487288Y-102423636D01*
X153596991Y-102436861D01*
X153689226Y-102459741D01*
X153765802Y-102493070D01*
X153828527Y-102537638D01*
X153879212Y-102594236D01*
X153919663Y-102663658D01*
X153920459Y-102665351D01*
X153944601Y-102727483D01*
X153953203Y-102782509D01*
X153946231Y-102837887D01*
X153923654Y-102901073D01*
X153919372Y-102910689D01*
X153890172Y-102966966D01*
X153857356Y-103010451D01*
X153815002Y-103047417D01*
X153757190Y-103084135D01*
X153753831Y-103086052D01*
X153703504Y-103110227D01*
X153646621Y-103128282D01*
X153579527Y-103140839D01*
X153498565Y-103148522D01*
X153400082Y-103151953D01*
X153365286Y-103152251D01*
X153199594Y-103152845D01*
X153176197Y-103123100D01*
X153169257Y-103113319D01*
X153163842Y-103101897D01*
X153159765Y-103086095D01*
X153156837Y-103063175D01*
X153154867Y-103030396D01*
X153154225Y-103006089D01*
X153153668Y-102985021D01*
X153153050Y-102924311D01*
X153152825Y-102845526D01*
X153152800Y-102783920D01*
X153152800Y-102565822D01*
X153310844Y-102565822D01*
X153310844Y-103006089D01*
X153404726Y-103006089D01*
X153459664Y-103004483D01*
X153516060Y-103000255D01*
X153562345Y-102994292D01*
X153565139Y-102993790D01*
X153647348Y-102971736D01*
X153711114Y-102938600D01*
X153758452Y-102892847D01*
X153791382Y-102832939D01*
X153797108Y-102817061D01*
X153802721Y-102792333D01*
X153800291Y-102767902D01*
X153788467Y-102735400D01*
X153781340Y-102719434D01*
X153758000Y-102677006D01*
X153729880Y-102647240D01*
X153698940Y-102626511D01*
X153636966Y-102599537D01*
X153557651Y-102579998D01*
X153465253Y-102568746D01*
X153398333Y-102566270D01*
X153310844Y-102565822D01*
X153152800Y-102565822D01*
X153152800Y-102474485D01*
X153180509Y-102446776D01*
X153192806Y-102435544D01*
X153206103Y-102427853D01*
X153224672Y-102423040D01*
X153252786Y-102420446D01*
X153294717Y-102419410D01*
X153354737Y-102419270D01*
X153358309Y-102419275D01*
G36*
X153358309Y-102419275D02*
G01*
X153487288Y-102423636D01*
X153596991Y-102436861D01*
X153689226Y-102459741D01*
X153765802Y-102493070D01*
X153828527Y-102537638D01*
X153879212Y-102594236D01*
X153919663Y-102663658D01*
X153920459Y-102665351D01*
X153944601Y-102727483D01*
X153953203Y-102782509D01*
X153946231Y-102837887D01*
X153923654Y-102901073D01*
X153919372Y-102910689D01*
X153890172Y-102966966D01*
X153857356Y-103010451D01*
X153815002Y-103047417D01*
X153757190Y-103084135D01*
X153753831Y-103086052D01*
X153703504Y-103110227D01*
X153646621Y-103128282D01*
X153579527Y-103140839D01*
X153498565Y-103148522D01*
X153400082Y-103151953D01*
X153365286Y-103152251D01*
X153199594Y-103152845D01*
X153176197Y-103123100D01*
X153169257Y-103113319D01*
X153163842Y-103101897D01*
X153159765Y-103086095D01*
X153156837Y-103063175D01*
X153154867Y-103030396D01*
X153154225Y-103006089D01*
X153153668Y-102985021D01*
X153153050Y-102924311D01*
X153152825Y-102845526D01*
X153152800Y-102783920D01*
X153152800Y-102565822D01*
X153310844Y-102565822D01*
X153310844Y-103006089D01*
X153404726Y-103006089D01*
X153459664Y-103004483D01*
X153516060Y-103000255D01*
X153562345Y-102994292D01*
X153565139Y-102993790D01*
X153647348Y-102971736D01*
X153711114Y-102938600D01*
X153758452Y-102892847D01*
X153791382Y-102832939D01*
X153797108Y-102817061D01*
X153802721Y-102792333D01*
X153800291Y-102767902D01*
X153788467Y-102735400D01*
X153781340Y-102719434D01*
X153758000Y-102677006D01*
X153729880Y-102647240D01*
X153698940Y-102626511D01*
X153636966Y-102599537D01*
X153557651Y-102579998D01*
X153465253Y-102568746D01*
X153398333Y-102566270D01*
X153310844Y-102565822D01*
X153152800Y-102565822D01*
X153152800Y-102474485D01*
X153180509Y-102446776D01*
X153192806Y-102435544D01*
X153206103Y-102427853D01*
X153224672Y-102423040D01*
X153252786Y-102420446D01*
X153294717Y-102419410D01*
X153354737Y-102419270D01*
X153358309Y-102419275D01*
G37*
X146218629Y-102419066D02*
X146258111Y-102419467D01*
X146373800Y-102422259D01*
X146470689Y-102430550D01*
X146552081Y-102445232D01*
X146621277Y-102467193D01*
X146681580Y-102497322D01*
X146736292Y-102536510D01*
X146755833Y-102553532D01*
X146788250Y-102593363D01*
X146817480Y-102647413D01*
X146840009Y-102707323D01*
X146852321Y-102764739D01*
X146853600Y-102785956D01*
X146845583Y-102844769D01*
X146824101Y-102909013D01*
X146793001Y-102969821D01*
X146756134Y-103018330D01*
X146750146Y-103024182D01*
X146699421Y-103065321D01*
X146643875Y-103097435D01*
X146580304Y-103121365D01*
X146505506Y-103137953D01*
X146416278Y-103148041D01*
X146309418Y-103152469D01*
X146260472Y-103152845D01*
X146198238Y-103152545D01*
X146154472Y-103151292D01*
X146125069Y-103148554D01*
X146105921Y-103143801D01*
X146092923Y-103136501D01*
X146085955Y-103130267D01*
X146079374Y-103122694D01*
X146074212Y-103112924D01*
X146070297Y-103098340D01*
X146067457Y-103076326D01*
X146065520Y-103044264D01*
X146064492Y-103006089D01*
X146210133Y-103006089D01*
X146303266Y-103006004D01*
X146359307Y-103004396D01*
X146418001Y-103000256D01*
X146466972Y-102994464D01*
X146468462Y-102994226D01*
X146547608Y-102975090D01*
X146608998Y-102945287D01*
X146655695Y-102902878D01*
X146685365Y-102856961D01*
X146703647Y-102806026D01*
X146702229Y-102758200D01*
X146681012Y-102706933D01*
X146639511Y-102653899D01*
X146582002Y-102614600D01*
X146507250Y-102588331D01*
X146457292Y-102579035D01*
X146400584Y-102572507D01*
X146340481Y-102567782D01*
X146289361Y-102565817D01*
X146286333Y-102565808D01*
X146210133Y-102565822D01*
X146210133Y-103006089D01*
X146064492Y-103006089D01*
X146064316Y-102999536D01*
X146063672Y-102939526D01*
X146063417Y-102861617D01*
X146063378Y-102785956D01*
X146063130Y-102685041D01*
X146063183Y-102604427D01*
X146064143Y-102565822D01*
X146064740Y-102541851D01*
X146069002Y-102495055D01*
X146077170Y-102461778D01*
X146090444Y-102439759D01*
X146110026Y-102426739D01*
X146137117Y-102420457D01*
X146172918Y-102418653D01*
X146218629Y-102419066D01*
G36*
X146218629Y-102419066D02*
G01*
X146258111Y-102419467D01*
X146373800Y-102422259D01*
X146470689Y-102430550D01*
X146552081Y-102445232D01*
X146621277Y-102467193D01*
X146681580Y-102497322D01*
X146736292Y-102536510D01*
X146755833Y-102553532D01*
X146788250Y-102593363D01*
X146817480Y-102647413D01*
X146840009Y-102707323D01*
X146852321Y-102764739D01*
X146853600Y-102785956D01*
X146845583Y-102844769D01*
X146824101Y-102909013D01*
X146793001Y-102969821D01*
X146756134Y-103018330D01*
X146750146Y-103024182D01*
X146699421Y-103065321D01*
X146643875Y-103097435D01*
X146580304Y-103121365D01*
X146505506Y-103137953D01*
X146416278Y-103148041D01*
X146309418Y-103152469D01*
X146260472Y-103152845D01*
X146198238Y-103152545D01*
X146154472Y-103151292D01*
X146125069Y-103148554D01*
X146105921Y-103143801D01*
X146092923Y-103136501D01*
X146085955Y-103130267D01*
X146079374Y-103122694D01*
X146074212Y-103112924D01*
X146070297Y-103098340D01*
X146067457Y-103076326D01*
X146065520Y-103044264D01*
X146064492Y-103006089D01*
X146210133Y-103006089D01*
X146303266Y-103006004D01*
X146359307Y-103004396D01*
X146418001Y-103000256D01*
X146466972Y-102994464D01*
X146468462Y-102994226D01*
X146547608Y-102975090D01*
X146608998Y-102945287D01*
X146655695Y-102902878D01*
X146685365Y-102856961D01*
X146703647Y-102806026D01*
X146702229Y-102758200D01*
X146681012Y-102706933D01*
X146639511Y-102653899D01*
X146582002Y-102614600D01*
X146507250Y-102588331D01*
X146457292Y-102579035D01*
X146400584Y-102572507D01*
X146340481Y-102567782D01*
X146289361Y-102565817D01*
X146286333Y-102565808D01*
X146210133Y-102565822D01*
X146210133Y-103006089D01*
X146064492Y-103006089D01*
X146064316Y-102999536D01*
X146063672Y-102939526D01*
X146063417Y-102861617D01*
X146063378Y-102785956D01*
X146063130Y-102685041D01*
X146063183Y-102604427D01*
X146064143Y-102565822D01*
X146064740Y-102541851D01*
X146069002Y-102495055D01*
X146077170Y-102461778D01*
X146090444Y-102439759D01*
X146110026Y-102426739D01*
X146137117Y-102420457D01*
X146172918Y-102418653D01*
X146218629Y-102419066D01*
G37*
X151039886Y-102423448D02*
X151063452Y-102437273D01*
X151094265Y-102459881D01*
X151133922Y-102492338D01*
X151184020Y-102535708D01*
X151246157Y-102591058D01*
X151321928Y-102659451D01*
X151408666Y-102738084D01*
X151589289Y-102901878D01*
X151594933Y-102682029D01*
X151596971Y-102606351D01*
X151598937Y-102549994D01*
X151601266Y-102509706D01*
X151604394Y-102482235D01*
X151608755Y-102464329D01*
X151614784Y-102452737D01*
X151622916Y-102444208D01*
X151627228Y-102440623D01*
X151661759Y-102421670D01*
X151694617Y-102424441D01*
X151720682Y-102440633D01*
X151747333Y-102462199D01*
X151750648Y-102777151D01*
X151751565Y-102869779D01*
X151752032Y-102942544D01*
X151751887Y-102998161D01*
X151750968Y-103039342D01*
X151749113Y-103068803D01*
X151746161Y-103089255D01*
X151741950Y-103103413D01*
X151736318Y-103113991D01*
X151730073Y-103122474D01*
X151716561Y-103138207D01*
X151703117Y-103148636D01*
X151687876Y-103152639D01*
X151668974Y-103149094D01*
X151644545Y-103136879D01*
X151612727Y-103114871D01*
X151571652Y-103081949D01*
X151519458Y-103036991D01*
X151454278Y-102978875D01*
X151380444Y-102912099D01*
X151115155Y-102671458D01*
X151109511Y-102890589D01*
X151107469Y-102966128D01*
X151105498Y-103022354D01*
X151103161Y-103062524D01*
X151100019Y-103089896D01*
X151095636Y-103107728D01*
X151089576Y-103119279D01*
X151081400Y-103127807D01*
X151077216Y-103131282D01*
X151040235Y-103150372D01*
X151005292Y-103147493D01*
X150974864Y-103123100D01*
X150967903Y-103113286D01*
X150962477Y-103101826D01*
X150958397Y-103085968D01*
X150955471Y-103062963D01*
X150953508Y-103030062D01*
X150952317Y-102984516D01*
X150951708Y-102923573D01*
X150951489Y-102844486D01*
X150951466Y-102785956D01*
X150951540Y-102694407D01*
X150951887Y-102622687D01*
X150952699Y-102568045D01*
X150954167Y-102527732D01*
X150956481Y-102498998D01*
X150959833Y-102479093D01*
X150964412Y-102465268D01*
X150970411Y-102454772D01*
X150974864Y-102448811D01*
X150986150Y-102434691D01*
X150996699Y-102424029D01*
X151008107Y-102417892D01*
X151021970Y-102417343D01*
X151039886Y-102423448D01*
G36*
X151039886Y-102423448D02*
G01*
X151063452Y-102437273D01*
X151094265Y-102459881D01*
X151133922Y-102492338D01*
X151184020Y-102535708D01*
X151246157Y-102591058D01*
X151321928Y-102659451D01*
X151408666Y-102738084D01*
X151589289Y-102901878D01*
X151594933Y-102682029D01*
X151596971Y-102606351D01*
X151598937Y-102549994D01*
X151601266Y-102509706D01*
X151604394Y-102482235D01*
X151608755Y-102464329D01*
X151614784Y-102452737D01*
X151622916Y-102444208D01*
X151627228Y-102440623D01*
X151661759Y-102421670D01*
X151694617Y-102424441D01*
X151720682Y-102440633D01*
X151747333Y-102462199D01*
X151750648Y-102777151D01*
X151751565Y-102869779D01*
X151752032Y-102942544D01*
X151751887Y-102998161D01*
X151750968Y-103039342D01*
X151749113Y-103068803D01*
X151746161Y-103089255D01*
X151741950Y-103103413D01*
X151736318Y-103113991D01*
X151730073Y-103122474D01*
X151716561Y-103138207D01*
X151703117Y-103148636D01*
X151687876Y-103152639D01*
X151668974Y-103149094D01*
X151644545Y-103136879D01*
X151612727Y-103114871D01*
X151571652Y-103081949D01*
X151519458Y-103036991D01*
X151454278Y-102978875D01*
X151380444Y-102912099D01*
X151115155Y-102671458D01*
X151109511Y-102890589D01*
X151107469Y-102966128D01*
X151105498Y-103022354D01*
X151103161Y-103062524D01*
X151100019Y-103089896D01*
X151095636Y-103107728D01*
X151089576Y-103119279D01*
X151081400Y-103127807D01*
X151077216Y-103131282D01*
X151040235Y-103150372D01*
X151005292Y-103147493D01*
X150974864Y-103123100D01*
X150967903Y-103113286D01*
X150962477Y-103101826D01*
X150958397Y-103085968D01*
X150955471Y-103062963D01*
X150953508Y-103030062D01*
X150952317Y-102984516D01*
X150951708Y-102923573D01*
X150951489Y-102844486D01*
X150951466Y-102785956D01*
X150951540Y-102694407D01*
X150951887Y-102622687D01*
X150952699Y-102568045D01*
X150954167Y-102527732D01*
X150956481Y-102498998D01*
X150959833Y-102479093D01*
X150964412Y-102465268D01*
X150970411Y-102454772D01*
X150974864Y-102448811D01*
X150986150Y-102434691D01*
X150996699Y-102424029D01*
X151008107Y-102417892D01*
X151021970Y-102417343D01*
X151039886Y-102423448D01*
G37*
X150389919Y-102424599D02*
X150458435Y-102436095D01*
X150511057Y-102453967D01*
X150545292Y-102477499D01*
X150554621Y-102490924D01*
X150564107Y-102522148D01*
X150557723Y-102550395D01*
X150537570Y-102577182D01*
X150506255Y-102589713D01*
X150460817Y-102588696D01*
X150425674Y-102581906D01*
X150347581Y-102568971D01*
X150267774Y-102567742D01*
X150178445Y-102578241D01*
X150153771Y-102582690D01*
X150070709Y-102606108D01*
X150005727Y-102640945D01*
X149959539Y-102686604D01*
X149932855Y-102742494D01*
X149927337Y-102771388D01*
X149930949Y-102830012D01*
X149954271Y-102881879D01*
X149995176Y-102925978D01*
X150051541Y-102961299D01*
X150121240Y-102986829D01*
X150202148Y-103001559D01*
X150292140Y-103004478D01*
X150389090Y-102994575D01*
X150394564Y-102993641D01*
X150433125Y-102986459D01*
X150454506Y-102979521D01*
X150463773Y-102969227D01*
X150465994Y-102951976D01*
X150466044Y-102942841D01*
X150466044Y-102904489D01*
X150397569Y-102904489D01*
X150337100Y-102900347D01*
X150295835Y-102887147D01*
X150271825Y-102863730D01*
X150263123Y-102828936D01*
X150263017Y-102824394D01*
X150268108Y-102794654D01*
X150285567Y-102773419D01*
X150318061Y-102759366D01*
X150368257Y-102751173D01*
X150416877Y-102748161D01*
X150487544Y-102746433D01*
X150538802Y-102749070D01*
X150573761Y-102758800D01*
X150595530Y-102778353D01*
X150607220Y-102810456D01*
X150611940Y-102857838D01*
X150612800Y-102920071D01*
X150611391Y-102989535D01*
X150607152Y-103036786D01*
X150600064Y-103062012D01*
X150598689Y-103063988D01*
X150559772Y-103095508D01*
X150502714Y-103120470D01*
X150431131Y-103138340D01*
X150348642Y-103148586D01*
X150258861Y-103150673D01*
X150165408Y-103144068D01*
X150110444Y-103135956D01*
X150024234Y-103111554D01*
X149944108Y-103071662D01*
X149877023Y-103019887D01*
X149866827Y-103009539D01*
X149833698Y-102966035D01*
X149803806Y-102912118D01*
X149780643Y-102855592D01*
X149767702Y-102804259D01*
X149766142Y-102784544D01*
X149772782Y-102743419D01*
X149790432Y-102692252D01*
X149815703Y-102638394D01*
X149845211Y-102589195D01*
X149871281Y-102556334D01*
X149932235Y-102507452D01*
X150011031Y-102468545D01*
X150104843Y-102440494D01*
X150210850Y-102424179D01*
X150308000Y-102420192D01*
X150389919Y-102424599D01*
G36*
X150389919Y-102424599D02*
G01*
X150458435Y-102436095D01*
X150511057Y-102453967D01*
X150545292Y-102477499D01*
X150554621Y-102490924D01*
X150564107Y-102522148D01*
X150557723Y-102550395D01*
X150537570Y-102577182D01*
X150506255Y-102589713D01*
X150460817Y-102588696D01*
X150425674Y-102581906D01*
X150347581Y-102568971D01*
X150267774Y-102567742D01*
X150178445Y-102578241D01*
X150153771Y-102582690D01*
X150070709Y-102606108D01*
X150005727Y-102640945D01*
X149959539Y-102686604D01*
X149932855Y-102742494D01*
X149927337Y-102771388D01*
X149930949Y-102830012D01*
X149954271Y-102881879D01*
X149995176Y-102925978D01*
X150051541Y-102961299D01*
X150121240Y-102986829D01*
X150202148Y-103001559D01*
X150292140Y-103004478D01*
X150389090Y-102994575D01*
X150394564Y-102993641D01*
X150433125Y-102986459D01*
X150454506Y-102979521D01*
X150463773Y-102969227D01*
X150465994Y-102951976D01*
X150466044Y-102942841D01*
X150466044Y-102904489D01*
X150397569Y-102904489D01*
X150337100Y-102900347D01*
X150295835Y-102887147D01*
X150271825Y-102863730D01*
X150263123Y-102828936D01*
X150263017Y-102824394D01*
X150268108Y-102794654D01*
X150285567Y-102773419D01*
X150318061Y-102759366D01*
X150368257Y-102751173D01*
X150416877Y-102748161D01*
X150487544Y-102746433D01*
X150538802Y-102749070D01*
X150573761Y-102758800D01*
X150595530Y-102778353D01*
X150607220Y-102810456D01*
X150611940Y-102857838D01*
X150612800Y-102920071D01*
X150611391Y-102989535D01*
X150607152Y-103036786D01*
X150600064Y-103062012D01*
X150598689Y-103063988D01*
X150559772Y-103095508D01*
X150502714Y-103120470D01*
X150431131Y-103138340D01*
X150348642Y-103148586D01*
X150258861Y-103150673D01*
X150165408Y-103144068D01*
X150110444Y-103135956D01*
X150024234Y-103111554D01*
X149944108Y-103071662D01*
X149877023Y-103019887D01*
X149866827Y-103009539D01*
X149833698Y-102966035D01*
X149803806Y-102912118D01*
X149780643Y-102855592D01*
X149767702Y-102804259D01*
X149766142Y-102784544D01*
X149772782Y-102743419D01*
X149790432Y-102692252D01*
X149815703Y-102638394D01*
X149845211Y-102589195D01*
X149871281Y-102556334D01*
X149932235Y-102507452D01*
X150011031Y-102468545D01*
X150104843Y-102440494D01*
X150210850Y-102424179D01*
X150308000Y-102420192D01*
X150389919Y-102424599D01*
G37*
X152570343Y-102419260D02*
X152646701Y-102420174D01*
X152705217Y-102422311D01*
X152748255Y-102426175D01*
X152778183Y-102432267D01*
X152797368Y-102441090D01*
X152808176Y-102453146D01*
X152812973Y-102468939D01*
X152814127Y-102488970D01*
X152814133Y-102491335D01*
X152813131Y-102513992D01*
X152808396Y-102531503D01*
X152797333Y-102544574D01*
X152777348Y-102553913D01*
X152745846Y-102560227D01*
X152700232Y-102564222D01*
X152637913Y-102566606D01*
X152556293Y-102568086D01*
X152531277Y-102568414D01*
X152289200Y-102571467D01*
X152285814Y-102636378D01*
X152282429Y-102701289D01*
X152450576Y-102701289D01*
X152516266Y-102701531D01*
X152563172Y-102702556D01*
X152595083Y-102704811D01*
X152615791Y-102708742D01*
X152629084Y-102714798D01*
X152638755Y-102723424D01*
X152638817Y-102723493D01*
X152656356Y-102757112D01*
X152655722Y-102793448D01*
X152637314Y-102824423D01*
X152633671Y-102827607D01*
X152620741Y-102835812D01*
X152603024Y-102841521D01*
X152576570Y-102845162D01*
X152537432Y-102847167D01*
X152481662Y-102847964D01*
X152445994Y-102848045D01*
X152283555Y-102848045D01*
X152283555Y-103006089D01*
X152530161Y-103006089D01*
X152611580Y-103006231D01*
X152673410Y-103006814D01*
X152718637Y-103008068D01*
X152750248Y-103010227D01*
X152771231Y-103013523D01*
X152784573Y-103018189D01*
X152793261Y-103024457D01*
X152795450Y-103026733D01*
X152811614Y-103058280D01*
X152812797Y-103094168D01*
X152799536Y-103125285D01*
X152789043Y-103135271D01*
X152778129Y-103140769D01*
X152761217Y-103145022D01*
X152735633Y-103148180D01*
X152698701Y-103150392D01*
X152647746Y-103151806D01*
X152580094Y-103152572D01*
X152493069Y-103152838D01*
X152473394Y-103152845D01*
X152384911Y-103152787D01*
X152316227Y-103152467D01*
X152264564Y-103151667D01*
X152227145Y-103150167D01*
X152201190Y-103147749D01*
X152183922Y-103144194D01*
X152172562Y-103139282D01*
X152164332Y-103132795D01*
X152159817Y-103128138D01*
X152153021Y-103119889D01*
X152147712Y-103109669D01*
X152143706Y-103094800D01*
X152140821Y-103072602D01*
X152138874Y-103040393D01*
X152137681Y-102995496D01*
X152137061Y-102935228D01*
X152136829Y-102856911D01*
X152136800Y-102790994D01*
X152136871Y-102698628D01*
X152137208Y-102626117D01*
X152137998Y-102570737D01*
X152139426Y-102529765D01*
X152141679Y-102500478D01*
X152144943Y-102480153D01*
X152149404Y-102466066D01*
X152155248Y-102455495D01*
X152160197Y-102448811D01*
X152183594Y-102419067D01*
X152473774Y-102419067D01*
X152570343Y-102419260D01*
G36*
X152570343Y-102419260D02*
G01*
X152646701Y-102420174D01*
X152705217Y-102422311D01*
X152748255Y-102426175D01*
X152778183Y-102432267D01*
X152797368Y-102441090D01*
X152808176Y-102453146D01*
X152812973Y-102468939D01*
X152814127Y-102488970D01*
X152814133Y-102491335D01*
X152813131Y-102513992D01*
X152808396Y-102531503D01*
X152797333Y-102544574D01*
X152777348Y-102553913D01*
X152745846Y-102560227D01*
X152700232Y-102564222D01*
X152637913Y-102566606D01*
X152556293Y-102568086D01*
X152531277Y-102568414D01*
X152289200Y-102571467D01*
X152285814Y-102636378D01*
X152282429Y-102701289D01*
X152450576Y-102701289D01*
X152516266Y-102701531D01*
X152563172Y-102702556D01*
X152595083Y-102704811D01*
X152615791Y-102708742D01*
X152629084Y-102714798D01*
X152638755Y-102723424D01*
X152638817Y-102723493D01*
X152656356Y-102757112D01*
X152655722Y-102793448D01*
X152637314Y-102824423D01*
X152633671Y-102827607D01*
X152620741Y-102835812D01*
X152603024Y-102841521D01*
X152576570Y-102845162D01*
X152537432Y-102847167D01*
X152481662Y-102847964D01*
X152445994Y-102848045D01*
X152283555Y-102848045D01*
X152283555Y-103006089D01*
X152530161Y-103006089D01*
X152611580Y-103006231D01*
X152673410Y-103006814D01*
X152718637Y-103008068D01*
X152750248Y-103010227D01*
X152771231Y-103013523D01*
X152784573Y-103018189D01*
X152793261Y-103024457D01*
X152795450Y-103026733D01*
X152811614Y-103058280D01*
X152812797Y-103094168D01*
X152799536Y-103125285D01*
X152789043Y-103135271D01*
X152778129Y-103140769D01*
X152761217Y-103145022D01*
X152735633Y-103148180D01*
X152698701Y-103150392D01*
X152647746Y-103151806D01*
X152580094Y-103152572D01*
X152493069Y-103152838D01*
X152473394Y-103152845D01*
X152384911Y-103152787D01*
X152316227Y-103152467D01*
X152264564Y-103151667D01*
X152227145Y-103150167D01*
X152201190Y-103147749D01*
X152183922Y-103144194D01*
X152172562Y-103139282D01*
X152164332Y-103132795D01*
X152159817Y-103128138D01*
X152153021Y-103119889D01*
X152147712Y-103109669D01*
X152143706Y-103094800D01*
X152140821Y-103072602D01*
X152138874Y-103040393D01*
X152137681Y-102995496D01*
X152137061Y-102935228D01*
X152136829Y-102856911D01*
X152136800Y-102790994D01*
X152136871Y-102698628D01*
X152137208Y-102626117D01*
X152137998Y-102570737D01*
X152139426Y-102529765D01*
X152141679Y-102500478D01*
X152144943Y-102480153D01*
X152149404Y-102466066D01*
X152155248Y-102455495D01*
X152160197Y-102448811D01*
X152183594Y-102419067D01*
X152473774Y-102419067D01*
X152570343Y-102419260D01*
G37*
X147627206Y-102419146D02*
X147696614Y-102419518D01*
X147749003Y-102420385D01*
X147787153Y-102421946D01*
X147813841Y-102424403D01*
X147831847Y-102427957D01*
X147843951Y-102432810D01*
X147852931Y-102439161D01*
X147856182Y-102442084D01*
X147875957Y-102473142D01*
X147879518Y-102508828D01*
X147866509Y-102540510D01*
X147860494Y-102546913D01*
X147850765Y-102553121D01*
X147835099Y-102557910D01*
X147810592Y-102561514D01*
X147774339Y-102564164D01*
X147723435Y-102566095D01*
X147654974Y-102567539D01*
X147592383Y-102568418D01*
X147344666Y-102571467D01*
X147341281Y-102636378D01*
X147337895Y-102701289D01*
X147506042Y-102701289D01*
X147579041Y-102701919D01*
X147632483Y-102704553D01*
X147669372Y-102710309D01*
X147692712Y-102720304D01*
X147705506Y-102735656D01*
X147710758Y-102757482D01*
X147711555Y-102777738D01*
X147709077Y-102802592D01*
X147699723Y-102820906D01*
X147680617Y-102833637D01*
X147648882Y-102841741D01*
X147601641Y-102846176D01*
X147536017Y-102847899D01*
X147500199Y-102848045D01*
X147339022Y-102848045D01*
X147339022Y-103006089D01*
X147587378Y-103006089D01*
X147668787Y-103006202D01*
X147730658Y-103006712D01*
X147776032Y-103007870D01*
X147807946Y-103009930D01*
X147829441Y-103013146D01*
X147843557Y-103017772D01*
X147853332Y-103024059D01*
X147858311Y-103028667D01*
X147875390Y-103055560D01*
X147880889Y-103079467D01*
X147873037Y-103108667D01*
X147858311Y-103130267D01*
X147850454Y-103137066D01*
X147840312Y-103142346D01*
X147825156Y-103146298D01*
X147802259Y-103149113D01*
X147768891Y-103150982D01*
X147722325Y-103152098D01*
X147659833Y-103152651D01*
X147578686Y-103152833D01*
X147536578Y-103152845D01*
X147446402Y-103152765D01*
X147376076Y-103152398D01*
X147322871Y-103151552D01*
X147284060Y-103150036D01*
X147256913Y-103147659D01*
X147238702Y-103144229D01*
X147226700Y-103139554D01*
X147218178Y-103133444D01*
X147214844Y-103130267D01*
X147208245Y-103122670D01*
X147203073Y-103112870D01*
X147199154Y-103098239D01*
X147196316Y-103076152D01*
X147194385Y-103043982D01*
X147193188Y-102999103D01*
X147192552Y-102938889D01*
X147192303Y-102860713D01*
X147192266Y-102787923D01*
X147192300Y-102694707D01*
X147192535Y-102621431D01*
X147193170Y-102565458D01*
X147194406Y-102524151D01*
X147196444Y-102494872D01*
X147199483Y-102474984D01*
X147203723Y-102461850D01*
X147209365Y-102452832D01*
X147216609Y-102445293D01*
X147218394Y-102443612D01*
X147227055Y-102436172D01*
X147237118Y-102430409D01*
X147251375Y-102426112D01*
X147272617Y-102423064D01*
X147303636Y-102421051D01*
X147347223Y-102419860D01*
X147406169Y-102419275D01*
X147483266Y-102419083D01*
X147537999Y-102419067D01*
X147627206Y-102419146D01*
G36*
X147627206Y-102419146D02*
G01*
X147696614Y-102419518D01*
X147749003Y-102420385D01*
X147787153Y-102421946D01*
X147813841Y-102424403D01*
X147831847Y-102427957D01*
X147843951Y-102432810D01*
X147852931Y-102439161D01*
X147856182Y-102442084D01*
X147875957Y-102473142D01*
X147879518Y-102508828D01*
X147866509Y-102540510D01*
X147860494Y-102546913D01*
X147850765Y-102553121D01*
X147835099Y-102557910D01*
X147810592Y-102561514D01*
X147774339Y-102564164D01*
X147723435Y-102566095D01*
X147654974Y-102567539D01*
X147592383Y-102568418D01*
X147344666Y-102571467D01*
X147341281Y-102636378D01*
X147337895Y-102701289D01*
X147506042Y-102701289D01*
X147579041Y-102701919D01*
X147632483Y-102704553D01*
X147669372Y-102710309D01*
X147692712Y-102720304D01*
X147705506Y-102735656D01*
X147710758Y-102757482D01*
X147711555Y-102777738D01*
X147709077Y-102802592D01*
X147699723Y-102820906D01*
X147680617Y-102833637D01*
X147648882Y-102841741D01*
X147601641Y-102846176D01*
X147536017Y-102847899D01*
X147500199Y-102848045D01*
X147339022Y-102848045D01*
X147339022Y-103006089D01*
X147587378Y-103006089D01*
X147668787Y-103006202D01*
X147730658Y-103006712D01*
X147776032Y-103007870D01*
X147807946Y-103009930D01*
X147829441Y-103013146D01*
X147843557Y-103017772D01*
X147853332Y-103024059D01*
X147858311Y-103028667D01*
X147875390Y-103055560D01*
X147880889Y-103079467D01*
X147873037Y-103108667D01*
X147858311Y-103130267D01*
X147850454Y-103137066D01*
X147840312Y-103142346D01*
X147825156Y-103146298D01*
X147802259Y-103149113D01*
X147768891Y-103150982D01*
X147722325Y-103152098D01*
X147659833Y-103152651D01*
X147578686Y-103152833D01*
X147536578Y-103152845D01*
X147446402Y-103152765D01*
X147376076Y-103152398D01*
X147322871Y-103151552D01*
X147284060Y-103150036D01*
X147256913Y-103147659D01*
X147238702Y-103144229D01*
X147226700Y-103139554D01*
X147218178Y-103133444D01*
X147214844Y-103130267D01*
X147208245Y-103122670D01*
X147203073Y-103112870D01*
X147199154Y-103098239D01*
X147196316Y-103076152D01*
X147194385Y-103043982D01*
X147193188Y-102999103D01*
X147192552Y-102938889D01*
X147192303Y-102860713D01*
X147192266Y-102787923D01*
X147192300Y-102694707D01*
X147192535Y-102621431D01*
X147193170Y-102565458D01*
X147194406Y-102524151D01*
X147196444Y-102494872D01*
X147199483Y-102474984D01*
X147203723Y-102461850D01*
X147209365Y-102452832D01*
X147216609Y-102445293D01*
X147218394Y-102443612D01*
X147227055Y-102436172D01*
X147237118Y-102430409D01*
X147251375Y-102426112D01*
X147272617Y-102423064D01*
X147303636Y-102421051D01*
X147347223Y-102419860D01*
X147406169Y-102419275D01*
X147483266Y-102419083D01*
X147537999Y-102419067D01*
X147627206Y-102419146D01*
G37*
X156084665Y-102421034D02*
X156104255Y-102428035D01*
X156105010Y-102428377D01*
X156131613Y-102448678D01*
X156146270Y-102469561D01*
X156149138Y-102479352D01*
X156148996Y-102492361D01*
X156144961Y-102510895D01*
X156136146Y-102537257D01*
X156121669Y-102573752D01*
X156100645Y-102622687D01*
X156072188Y-102686365D01*
X156035415Y-102767093D01*
X156015175Y-102811216D01*
X155978625Y-102889985D01*
X155944315Y-102962423D01*
X155913552Y-103025880D01*
X155887648Y-103077708D01*
X155867910Y-103115259D01*
X155855650Y-103135884D01*
X155853224Y-103138733D01*
X155822183Y-103151302D01*
X155787121Y-103149619D01*
X155759000Y-103134332D01*
X155757854Y-103133089D01*
X155746668Y-103116154D01*
X155727904Y-103083170D01*
X155703875Y-103038380D01*
X155676897Y-102986032D01*
X155667201Y-102966742D01*
X155594014Y-102820150D01*
X155514240Y-102979393D01*
X155485767Y-103034415D01*
X155459350Y-103082132D01*
X155437148Y-103118893D01*
X155421319Y-103141044D01*
X155415954Y-103145741D01*
X155374257Y-103152102D01*
X155339849Y-103138733D01*
X155329728Y-103124446D01*
X155312214Y-103092692D01*
X155288735Y-103046597D01*
X155260720Y-102989285D01*
X155229599Y-102923880D01*
X155196799Y-102853507D01*
X155163750Y-102781291D01*
X155131881Y-102710355D01*
X155102619Y-102643825D01*
X155077395Y-102584826D01*
X155057636Y-102536481D01*
X155044772Y-102501915D01*
X155040231Y-102484253D01*
X155040277Y-102483613D01*
X155051326Y-102461388D01*
X155073410Y-102438753D01*
X155074710Y-102437768D01*
X155101853Y-102422425D01*
X155126958Y-102422574D01*
X155136368Y-102425466D01*
X155147834Y-102431718D01*
X155160010Y-102444014D01*
X155174357Y-102464908D01*
X155192336Y-102496949D01*
X155215407Y-102542688D01*
X155245030Y-102604677D01*
X155271745Y-102661898D01*
X155302480Y-102728226D01*
X155330021Y-102787874D01*
X155352938Y-102837725D01*
X155369798Y-102874664D01*
X155379173Y-102895573D01*
X155380540Y-102898845D01*
X155386689Y-102893497D01*
X155400822Y-102871109D01*
X155421057Y-102834946D01*
X155445515Y-102788277D01*
X155455248Y-102769022D01*
X155488217Y-102704004D01*
X155513643Y-102656654D01*
X155533612Y-102624219D01*
X155550210Y-102603946D01*
X155565524Y-102593082D01*
X155581640Y-102588875D01*
X155592143Y-102588400D01*
X155610670Y-102590042D01*
X155626904Y-102596831D01*
X155643035Y-102611566D01*
X155661251Y-102637044D01*
X155683739Y-102676061D01*
X155712689Y-102731414D01*
X155728662Y-102762903D01*
X155754570Y-102813087D01*
X155777167Y-102854704D01*
X155794458Y-102884242D01*
X155804450Y-102898189D01*
X155805809Y-102898770D01*
X155812261Y-102887793D01*
X155826708Y-102859290D01*
X155847703Y-102816244D01*
X155873797Y-102761638D01*
X155903546Y-102698454D01*
X155918180Y-102667071D01*
X155956250Y-102586078D01*
X155986905Y-102523756D01*
X156011737Y-102478071D01*
X156032337Y-102446989D01*
X156050298Y-102428478D01*
X156067210Y-102420504D01*
X156084665Y-102421034D01*
G36*
X156084665Y-102421034D02*
G01*
X156104255Y-102428035D01*
X156105010Y-102428377D01*
X156131613Y-102448678D01*
X156146270Y-102469561D01*
X156149138Y-102479352D01*
X156148996Y-102492361D01*
X156144961Y-102510895D01*
X156136146Y-102537257D01*
X156121669Y-102573752D01*
X156100645Y-102622687D01*
X156072188Y-102686365D01*
X156035415Y-102767093D01*
X156015175Y-102811216D01*
X155978625Y-102889985D01*
X155944315Y-102962423D01*
X155913552Y-103025880D01*
X155887648Y-103077708D01*
X155867910Y-103115259D01*
X155855650Y-103135884D01*
X155853224Y-103138733D01*
X155822183Y-103151302D01*
X155787121Y-103149619D01*
X155759000Y-103134332D01*
X155757854Y-103133089D01*
X155746668Y-103116154D01*
X155727904Y-103083170D01*
X155703875Y-103038380D01*
X155676897Y-102986032D01*
X155667201Y-102966742D01*
X155594014Y-102820150D01*
X155514240Y-102979393D01*
X155485767Y-103034415D01*
X155459350Y-103082132D01*
X155437148Y-103118893D01*
X155421319Y-103141044D01*
X155415954Y-103145741D01*
X155374257Y-103152102D01*
X155339849Y-103138733D01*
X155329728Y-103124446D01*
X155312214Y-103092692D01*
X155288735Y-103046597D01*
X155260720Y-102989285D01*
X155229599Y-102923880D01*
X155196799Y-102853507D01*
X155163750Y-102781291D01*
X155131881Y-102710355D01*
X155102619Y-102643825D01*
X155077395Y-102584826D01*
X155057636Y-102536481D01*
X155044772Y-102501915D01*
X155040231Y-102484253D01*
X155040277Y-102483613D01*
X155051326Y-102461388D01*
X155073410Y-102438753D01*
X155074710Y-102437768D01*
X155101853Y-102422425D01*
X155126958Y-102422574D01*
X155136368Y-102425466D01*
X155147834Y-102431718D01*
X155160010Y-102444014D01*
X155174357Y-102464908D01*
X155192336Y-102496949D01*
X155215407Y-102542688D01*
X155245030Y-102604677D01*
X155271745Y-102661898D01*
X155302480Y-102728226D01*
X155330021Y-102787874D01*
X155352938Y-102837725D01*
X155369798Y-102874664D01*
X155379173Y-102895573D01*
X155380540Y-102898845D01*
X155386689Y-102893497D01*
X155400822Y-102871109D01*
X155421057Y-102834946D01*
X155445515Y-102788277D01*
X155455248Y-102769022D01*
X155488217Y-102704004D01*
X155513643Y-102656654D01*
X155533612Y-102624219D01*
X155550210Y-102603946D01*
X155565524Y-102593082D01*
X155581640Y-102588875D01*
X155592143Y-102588400D01*
X155610670Y-102590042D01*
X155626904Y-102596831D01*
X155643035Y-102611566D01*
X155661251Y-102637044D01*
X155683739Y-102676061D01*
X155712689Y-102731414D01*
X155728662Y-102762903D01*
X155754570Y-102813087D01*
X155777167Y-102854704D01*
X155794458Y-102884242D01*
X155804450Y-102898189D01*
X155805809Y-102898770D01*
X155812261Y-102887793D01*
X155826708Y-102859290D01*
X155847703Y-102816244D01*
X155873797Y-102761638D01*
X155903546Y-102698454D01*
X155918180Y-102667071D01*
X155956250Y-102586078D01*
X155986905Y-102523756D01*
X156011737Y-102478071D01*
X156032337Y-102446989D01*
X156050298Y-102428478D01*
X156067210Y-102420504D01*
X156084665Y-102421034D01*
G37*
X148648297Y-102420351D02*
X148723112Y-102425581D01*
X148792694Y-102433750D01*
X148852998Y-102444550D01*
X148899980Y-102457673D01*
X148929594Y-102472813D01*
X148934140Y-102477269D01*
X148949946Y-102511850D01*
X148945153Y-102547351D01*
X148920636Y-102577725D01*
X148919466Y-102578596D01*
X148905046Y-102587954D01*
X148889992Y-102592876D01*
X148868995Y-102593473D01*
X148836743Y-102589861D01*
X148787927Y-102582154D01*
X148784000Y-102581505D01*
X148711261Y-102572569D01*
X148632783Y-102568161D01*
X148554073Y-102568119D01*
X148480639Y-102572279D01*
X148417989Y-102580479D01*
X148371630Y-102592557D01*
X148368584Y-102593771D01*
X148334952Y-102612615D01*
X148323136Y-102631685D01*
X148332386Y-102650439D01*
X148361953Y-102668337D01*
X148411089Y-102684837D01*
X148479043Y-102699396D01*
X148524355Y-102706406D01*
X148618544Y-102719889D01*
X148693456Y-102732214D01*
X148752283Y-102744449D01*
X148798215Y-102757661D01*
X148834445Y-102772917D01*
X148864162Y-102791285D01*
X148890558Y-102813831D01*
X148911770Y-102835971D01*
X148936935Y-102866819D01*
X148949319Y-102893345D01*
X148953192Y-102926026D01*
X148953333Y-102937995D01*
X148950424Y-102977712D01*
X148938798Y-103007259D01*
X148918677Y-103033486D01*
X148877784Y-103073576D01*
X148832183Y-103104149D01*
X148778487Y-103126203D01*
X148713308Y-103140735D01*
X148633256Y-103148741D01*
X148534943Y-103151218D01*
X148518711Y-103151177D01*
X148453151Y-103149818D01*
X148388134Y-103146730D01*
X148330748Y-103142356D01*
X148288078Y-103137140D01*
X148284628Y-103136541D01*
X148242204Y-103126491D01*
X148206220Y-103113796D01*
X148185850Y-103102190D01*
X148166893Y-103071572D01*
X148165573Y-103035918D01*
X148181915Y-103004144D01*
X148185571Y-103000551D01*
X148200685Y-102989876D01*
X148219585Y-102985276D01*
X148248838Y-102986059D01*
X148284349Y-102990127D01*
X148324030Y-102993762D01*
X148379655Y-102996828D01*
X148444594Y-102999053D01*
X148512215Y-103000164D01*
X148530000Y-103000237D01*
X148597872Y-102999964D01*
X148647546Y-102998646D01*
X148683390Y-102995827D01*
X148709776Y-102991050D01*
X148731074Y-102983857D01*
X148743874Y-102977867D01*
X148772000Y-102961233D01*
X148789932Y-102946168D01*
X148792553Y-102941897D01*
X148787024Y-102924263D01*
X148760740Y-102907192D01*
X148715522Y-102891458D01*
X148653192Y-102877838D01*
X148634829Y-102874804D01*
X148538910Y-102859738D01*
X148462359Y-102847146D01*
X148402220Y-102836111D01*
X148355540Y-102825720D01*
X148319363Y-102815056D01*
X148290735Y-102803205D01*
X148266702Y-102789251D01*
X148244308Y-102772281D01*
X148220598Y-102751378D01*
X148212620Y-102744049D01*
X148184647Y-102716699D01*
X148169840Y-102695029D01*
X148164048Y-102670232D01*
X148163111Y-102638983D01*
X148173425Y-102577705D01*
X148204248Y-102525640D01*
X148255405Y-102482958D01*
X148326717Y-102449825D01*
X148377600Y-102434964D01*
X148432900Y-102425366D01*
X148499147Y-102419936D01*
X148572294Y-102418367D01*
X148648297Y-102420351D01*
G36*
X148648297Y-102420351D02*
G01*
X148723112Y-102425581D01*
X148792694Y-102433750D01*
X148852998Y-102444550D01*
X148899980Y-102457673D01*
X148929594Y-102472813D01*
X148934140Y-102477269D01*
X148949946Y-102511850D01*
X148945153Y-102547351D01*
X148920636Y-102577725D01*
X148919466Y-102578596D01*
X148905046Y-102587954D01*
X148889992Y-102592876D01*
X148868995Y-102593473D01*
X148836743Y-102589861D01*
X148787927Y-102582154D01*
X148784000Y-102581505D01*
X148711261Y-102572569D01*
X148632783Y-102568161D01*
X148554073Y-102568119D01*
X148480639Y-102572279D01*
X148417989Y-102580479D01*
X148371630Y-102592557D01*
X148368584Y-102593771D01*
X148334952Y-102612615D01*
X148323136Y-102631685D01*
X148332386Y-102650439D01*
X148361953Y-102668337D01*
X148411089Y-102684837D01*
X148479043Y-102699396D01*
X148524355Y-102706406D01*
X148618544Y-102719889D01*
X148693456Y-102732214D01*
X148752283Y-102744449D01*
X148798215Y-102757661D01*
X148834445Y-102772917D01*
X148864162Y-102791285D01*
X148890558Y-102813831D01*
X148911770Y-102835971D01*
X148936935Y-102866819D01*
X148949319Y-102893345D01*
X148953192Y-102926026D01*
X148953333Y-102937995D01*
X148950424Y-102977712D01*
X148938798Y-103007259D01*
X148918677Y-103033486D01*
X148877784Y-103073576D01*
X148832183Y-103104149D01*
X148778487Y-103126203D01*
X148713308Y-103140735D01*
X148633256Y-103148741D01*
X148534943Y-103151218D01*
X148518711Y-103151177D01*
X148453151Y-103149818D01*
X148388134Y-103146730D01*
X148330748Y-103142356D01*
X148288078Y-103137140D01*
X148284628Y-103136541D01*
X148242204Y-103126491D01*
X148206220Y-103113796D01*
X148185850Y-103102190D01*
X148166893Y-103071572D01*
X148165573Y-103035918D01*
X148181915Y-103004144D01*
X148185571Y-103000551D01*
X148200685Y-102989876D01*
X148219585Y-102985276D01*
X148248838Y-102986059D01*
X148284349Y-102990127D01*
X148324030Y-102993762D01*
X148379655Y-102996828D01*
X148444594Y-102999053D01*
X148512215Y-103000164D01*
X148530000Y-103000237D01*
X148597872Y-102999964D01*
X148647546Y-102998646D01*
X148683390Y-102995827D01*
X148709776Y-102991050D01*
X148731074Y-102983857D01*
X148743874Y-102977867D01*
X148772000Y-102961233D01*
X148789932Y-102946168D01*
X148792553Y-102941897D01*
X148787024Y-102924263D01*
X148760740Y-102907192D01*
X148715522Y-102891458D01*
X148653192Y-102877838D01*
X148634829Y-102874804D01*
X148538910Y-102859738D01*
X148462359Y-102847146D01*
X148402220Y-102836111D01*
X148355540Y-102825720D01*
X148319363Y-102815056D01*
X148290735Y-102803205D01*
X148266702Y-102789251D01*
X148244308Y-102772281D01*
X148220598Y-102751378D01*
X148212620Y-102744049D01*
X148184647Y-102716699D01*
X148169840Y-102695029D01*
X148164048Y-102670232D01*
X148163111Y-102638983D01*
X148173425Y-102577705D01*
X148204248Y-102525640D01*
X148255405Y-102482958D01*
X148326717Y-102449825D01*
X148377600Y-102434964D01*
X148432900Y-102425366D01*
X148499147Y-102419936D01*
X148572294Y-102418367D01*
X148648297Y-102420351D01*
G37*
X152668429Y-98099071D02*
X152828570Y-98120245D01*
X152992510Y-98160385D01*
X153162313Y-98219889D01*
X153340043Y-98299154D01*
X153351310Y-98304699D01*
X153409005Y-98332725D01*
X153460552Y-98356802D01*
X153502191Y-98375249D01*
X153530162Y-98386386D01*
X153539733Y-98388933D01*
X153558950Y-98393941D01*
X153563561Y-98398147D01*
X153558458Y-98408580D01*
X153542418Y-98434868D01*
X153517288Y-98474257D01*
X153484914Y-98523991D01*
X153447143Y-98581315D01*
X153405822Y-98643476D01*
X153362798Y-98707718D01*
X153319917Y-98771285D01*
X153279026Y-98831425D01*
X153241971Y-98885380D01*
X153210600Y-98930397D01*
X153186759Y-98963721D01*
X153172294Y-98982597D01*
X153170309Y-98984787D01*
X153160191Y-98980138D01*
X153137850Y-98962962D01*
X153107280Y-98936440D01*
X153091536Y-98921964D01*
X152995047Y-98846682D01*
X152888336Y-98791241D01*
X152772832Y-98756141D01*
X152649962Y-98741880D01*
X152580561Y-98743051D01*
X152459423Y-98760212D01*
X152350205Y-98796094D01*
X152252582Y-98850959D01*
X152166228Y-98925070D01*
X152090815Y-99018688D01*
X152026018Y-99132076D01*
X151988601Y-99218667D01*
X151944748Y-99354366D01*
X151912428Y-99501850D01*
X151891557Y-99657314D01*
X151882051Y-99816956D01*
X151883827Y-99976973D01*
X151896803Y-100133561D01*
X151920894Y-100282918D01*
X151956018Y-100421240D01*
X152002092Y-100544724D01*
X152018373Y-100578978D01*
X152086620Y-100693064D01*
X152167079Y-100789557D01*
X152258570Y-100867670D01*
X152359911Y-100926617D01*
X152469920Y-100965612D01*
X152587415Y-100983868D01*
X152628883Y-100985211D01*
X152750441Y-100974290D01*
X152870878Y-100941474D01*
X152988666Y-100887439D01*
X153102277Y-100812865D01*
X153193685Y-100734539D01*
X153240215Y-100690008D01*
X153421483Y-100987271D01*
X153466580Y-101061433D01*
X153507819Y-101129646D01*
X153543735Y-101189459D01*
X153572866Y-101238420D01*
X153593750Y-101274079D01*
X153604924Y-101293984D01*
X153606375Y-101297079D01*
X153598146Y-101306718D01*
X153572567Y-101323999D01*
X153532873Y-101347283D01*
X153482297Y-101374934D01*
X153424074Y-101405315D01*
X153361437Y-101436790D01*
X153297621Y-101467722D01*
X153235860Y-101496473D01*
X153179388Y-101521408D01*
X153131438Y-101540889D01*
X153107986Y-101549318D01*
X152974221Y-101587133D01*
X152836327Y-101612136D01*
X152688622Y-101625140D01*
X152561833Y-101627468D01*
X152493878Y-101626373D01*
X152428277Y-101624275D01*
X152370847Y-101621434D01*
X152327403Y-101618106D01*
X152313298Y-101616422D01*
X152174284Y-101587587D01*
X152032757Y-101542468D01*
X151895275Y-101483750D01*
X151768394Y-101414120D01*
X151690889Y-101361441D01*
X151563481Y-101253239D01*
X151445178Y-101126671D01*
X151338172Y-100984866D01*
X151244652Y-100830951D01*
X151166810Y-100668053D01*
X151122956Y-100550756D01*
X151072708Y-100367128D01*
X151039209Y-100172581D01*
X151022449Y-99971325D01*
X151022416Y-99767568D01*
X151039101Y-99565521D01*
X151072493Y-99369392D01*
X151122580Y-99183391D01*
X151126397Y-99171803D01*
X151189281Y-99009750D01*
X151266028Y-98861832D01*
X151359242Y-98723865D01*
X151471527Y-98591661D01*
X151515392Y-98546399D01*
X151651534Y-98422457D01*
X151791491Y-98319915D01*
X151937411Y-98237656D01*
X152091442Y-98174564D01*
X152255732Y-98129523D01*
X152351289Y-98112033D01*
X152510023Y-98096466D01*
X152668429Y-98099071D01*
G36*
X152668429Y-98099071D02*
G01*
X152828570Y-98120245D01*
X152992510Y-98160385D01*
X153162313Y-98219889D01*
X153340043Y-98299154D01*
X153351310Y-98304699D01*
X153409005Y-98332725D01*
X153460552Y-98356802D01*
X153502191Y-98375249D01*
X153530162Y-98386386D01*
X153539733Y-98388933D01*
X153558950Y-98393941D01*
X153563561Y-98398147D01*
X153558458Y-98408580D01*
X153542418Y-98434868D01*
X153517288Y-98474257D01*
X153484914Y-98523991D01*
X153447143Y-98581315D01*
X153405822Y-98643476D01*
X153362798Y-98707718D01*
X153319917Y-98771285D01*
X153279026Y-98831425D01*
X153241971Y-98885380D01*
X153210600Y-98930397D01*
X153186759Y-98963721D01*
X153172294Y-98982597D01*
X153170309Y-98984787D01*
X153160191Y-98980138D01*
X153137850Y-98962962D01*
X153107280Y-98936440D01*
X153091536Y-98921964D01*
X152995047Y-98846682D01*
X152888336Y-98791241D01*
X152772832Y-98756141D01*
X152649962Y-98741880D01*
X152580561Y-98743051D01*
X152459423Y-98760212D01*
X152350205Y-98796094D01*
X152252582Y-98850959D01*
X152166228Y-98925070D01*
X152090815Y-99018688D01*
X152026018Y-99132076D01*
X151988601Y-99218667D01*
X151944748Y-99354366D01*
X151912428Y-99501850D01*
X151891557Y-99657314D01*
X151882051Y-99816956D01*
X151883827Y-99976973D01*
X151896803Y-100133561D01*
X151920894Y-100282918D01*
X151956018Y-100421240D01*
X152002092Y-100544724D01*
X152018373Y-100578978D01*
X152086620Y-100693064D01*
X152167079Y-100789557D01*
X152258570Y-100867670D01*
X152359911Y-100926617D01*
X152469920Y-100965612D01*
X152587415Y-100983868D01*
X152628883Y-100985211D01*
X152750441Y-100974290D01*
X152870878Y-100941474D01*
X152988666Y-100887439D01*
X153102277Y-100812865D01*
X153193685Y-100734539D01*
X153240215Y-100690008D01*
X153421483Y-100987271D01*
X153466580Y-101061433D01*
X153507819Y-101129646D01*
X153543735Y-101189459D01*
X153572866Y-101238420D01*
X153593750Y-101274079D01*
X153604924Y-101293984D01*
X153606375Y-101297079D01*
X153598146Y-101306718D01*
X153572567Y-101323999D01*
X153532873Y-101347283D01*
X153482297Y-101374934D01*
X153424074Y-101405315D01*
X153361437Y-101436790D01*
X153297621Y-101467722D01*
X153235860Y-101496473D01*
X153179388Y-101521408D01*
X153131438Y-101540889D01*
X153107986Y-101549318D01*
X152974221Y-101587133D01*
X152836327Y-101612136D01*
X152688622Y-101625140D01*
X152561833Y-101627468D01*
X152493878Y-101626373D01*
X152428277Y-101624275D01*
X152370847Y-101621434D01*
X152327403Y-101618106D01*
X152313298Y-101616422D01*
X152174284Y-101587587D01*
X152032757Y-101542468D01*
X151895275Y-101483750D01*
X151768394Y-101414120D01*
X151690889Y-101361441D01*
X151563481Y-101253239D01*
X151445178Y-101126671D01*
X151338172Y-100984866D01*
X151244652Y-100830951D01*
X151166810Y-100668053D01*
X151122956Y-100550756D01*
X151072708Y-100367128D01*
X151039209Y-100172581D01*
X151022449Y-99971325D01*
X151022416Y-99767568D01*
X151039101Y-99565521D01*
X151072493Y-99369392D01*
X151122580Y-99183391D01*
X151126397Y-99171803D01*
X151189281Y-99009750D01*
X151266028Y-98861832D01*
X151359242Y-98723865D01*
X151471527Y-98591661D01*
X151515392Y-98546399D01*
X151651534Y-98422457D01*
X151791491Y-98319915D01*
X151937411Y-98237656D01*
X152091442Y-98174564D01*
X152255732Y-98129523D01*
X152351289Y-98112033D01*
X152510023Y-98096466D01*
X152668429Y-98099071D01*
G37*
X158526507Y-99622245D02*
X158526526Y-99856662D01*
X158526552Y-100069603D01*
X158526625Y-100262168D01*
X158526782Y-100435459D01*
X158527064Y-100590576D01*
X158527509Y-100728620D01*
X158528156Y-100850692D01*
X158529045Y-100957894D01*
X158530213Y-101051326D01*
X158531701Y-101132090D01*
X158533546Y-101201286D01*
X158535789Y-101260015D01*
X158538469Y-101309379D01*
X158541623Y-101350478D01*
X158545292Y-101384413D01*
X158549513Y-101412286D01*
X158554327Y-101435198D01*
X158559773Y-101454249D01*
X158565888Y-101470540D01*
X158572712Y-101485173D01*
X158580285Y-101499249D01*
X158588645Y-101513868D01*
X158593839Y-101522974D01*
X158628104Y-101583689D01*
X157769955Y-101583689D01*
X157769955Y-101487733D01*
X157769224Y-101444370D01*
X157767272Y-101411205D01*
X157764463Y-101393424D01*
X157763221Y-101391778D01*
X157751799Y-101398662D01*
X157729084Y-101416505D01*
X157706385Y-101435879D01*
X157651800Y-101476614D01*
X157582321Y-101517617D01*
X157505270Y-101555123D01*
X157427965Y-101585364D01*
X157397113Y-101595012D01*
X157328616Y-101609578D01*
X157245764Y-101619539D01*
X157156371Y-101624583D01*
X157068248Y-101624396D01*
X156989207Y-101618666D01*
X156951511Y-101612858D01*
X156813414Y-101574797D01*
X156686113Y-101517073D01*
X156570292Y-101440211D01*
X156466637Y-101344739D01*
X156375833Y-101231179D01*
X156309031Y-101120381D01*
X156254164Y-101003625D01*
X156212163Y-100884276D01*
X156182167Y-100758283D01*
X156163311Y-100621594D01*
X156154732Y-100470158D01*
X156154006Y-100392711D01*
X156156100Y-100335934D01*
X156985217Y-100335934D01*
X156985424Y-100429002D01*
X156988337Y-100516692D01*
X156994000Y-100593772D01*
X157002455Y-100655009D01*
X157005038Y-100667350D01*
X157036840Y-100774633D01*
X157078498Y-100861658D01*
X157130363Y-100928642D01*
X157192781Y-100975805D01*
X157266100Y-101003365D01*
X157350669Y-101011541D01*
X157446835Y-101000551D01*
X157510311Y-100984829D01*
X157559454Y-100966639D01*
X157613583Y-100940791D01*
X157654244Y-100917089D01*
X157724800Y-100870721D01*
X157724800Y-99720530D01*
X157657392Y-99676962D01*
X157578867Y-99636040D01*
X157494681Y-99609389D01*
X157409557Y-99597465D01*
X157328216Y-99600722D01*
X157255380Y-99619615D01*
X157223426Y-99635184D01*
X157165501Y-99678181D01*
X157116544Y-99734953D01*
X157075390Y-99807575D01*
X157040874Y-99898121D01*
X157011833Y-100008666D01*
X157010552Y-100014533D01*
X157000381Y-100076788D01*
X156992739Y-100154594D01*
X156987670Y-100242720D01*
X156985217Y-100335934D01*
X156156100Y-100335934D01*
X156161857Y-100179895D01*
X156183802Y-99984059D01*
X156219786Y-99805332D01*
X156269759Y-99643845D01*
X156333668Y-99499726D01*
X156411462Y-99373106D01*
X156503089Y-99264115D01*
X156608497Y-99172883D01*
X156653662Y-99141932D01*
X156754611Y-99085785D01*
X156857901Y-99046174D01*
X156967989Y-99022014D01*
X157089330Y-99012219D01*
X157181836Y-99013265D01*
X157311490Y-99024231D01*
X157424084Y-99046046D01*
X157522875Y-99079714D01*
X157611121Y-99126236D01*
X157659986Y-99160448D01*
X157689353Y-99182362D01*
X157711043Y-99197333D01*
X157719253Y-99201733D01*
X157720868Y-99190904D01*
X157722159Y-99160251D01*
X157723138Y-99112526D01*
X157723817Y-99050479D01*
X157724210Y-98976862D01*
X157724330Y-98894427D01*
X157724188Y-98805925D01*
X157723797Y-98714107D01*
X157723171Y-98621724D01*
X157722320Y-98531528D01*
X157721260Y-98446271D01*
X157720001Y-98368703D01*
X157718556Y-98301576D01*
X157716938Y-98247641D01*
X157715161Y-98209650D01*
X157714669Y-98202667D01*
X157707092Y-98132251D01*
X157695531Y-98077102D01*
X157677792Y-98029981D01*
X157651682Y-97983647D01*
X157645415Y-97974067D01*
X157620983Y-97937378D01*
X158526311Y-97937378D01*
X158526507Y-99622245D01*
G36*
X158526507Y-99622245D02*
G01*
X158526526Y-99856662D01*
X158526552Y-100069603D01*
X158526625Y-100262168D01*
X158526782Y-100435459D01*
X158527064Y-100590576D01*
X158527509Y-100728620D01*
X158528156Y-100850692D01*
X158529045Y-100957894D01*
X158530213Y-101051326D01*
X158531701Y-101132090D01*
X158533546Y-101201286D01*
X158535789Y-101260015D01*
X158538469Y-101309379D01*
X158541623Y-101350478D01*
X158545292Y-101384413D01*
X158549513Y-101412286D01*
X158554327Y-101435198D01*
X158559773Y-101454249D01*
X158565888Y-101470540D01*
X158572712Y-101485173D01*
X158580285Y-101499249D01*
X158588645Y-101513868D01*
X158593839Y-101522974D01*
X158628104Y-101583689D01*
X157769955Y-101583689D01*
X157769955Y-101487733D01*
X157769224Y-101444370D01*
X157767272Y-101411205D01*
X157764463Y-101393424D01*
X157763221Y-101391778D01*
X157751799Y-101398662D01*
X157729084Y-101416505D01*
X157706385Y-101435879D01*
X157651800Y-101476614D01*
X157582321Y-101517617D01*
X157505270Y-101555123D01*
X157427965Y-101585364D01*
X157397113Y-101595012D01*
X157328616Y-101609578D01*
X157245764Y-101619539D01*
X157156371Y-101624583D01*
X157068248Y-101624396D01*
X156989207Y-101618666D01*
X156951511Y-101612858D01*
X156813414Y-101574797D01*
X156686113Y-101517073D01*
X156570292Y-101440211D01*
X156466637Y-101344739D01*
X156375833Y-101231179D01*
X156309031Y-101120381D01*
X156254164Y-101003625D01*
X156212163Y-100884276D01*
X156182167Y-100758283D01*
X156163311Y-100621594D01*
X156154732Y-100470158D01*
X156154006Y-100392711D01*
X156156100Y-100335934D01*
X156985217Y-100335934D01*
X156985424Y-100429002D01*
X156988337Y-100516692D01*
X156994000Y-100593772D01*
X157002455Y-100655009D01*
X157005038Y-100667350D01*
X157036840Y-100774633D01*
X157078498Y-100861658D01*
X157130363Y-100928642D01*
X157192781Y-100975805D01*
X157266100Y-101003365D01*
X157350669Y-101011541D01*
X157446835Y-101000551D01*
X157510311Y-100984829D01*
X157559454Y-100966639D01*
X157613583Y-100940791D01*
X157654244Y-100917089D01*
X157724800Y-100870721D01*
X157724800Y-99720530D01*
X157657392Y-99676962D01*
X157578867Y-99636040D01*
X157494681Y-99609389D01*
X157409557Y-99597465D01*
X157328216Y-99600722D01*
X157255380Y-99619615D01*
X157223426Y-99635184D01*
X157165501Y-99678181D01*
X157116544Y-99734953D01*
X157075390Y-99807575D01*
X157040874Y-99898121D01*
X157011833Y-100008666D01*
X157010552Y-100014533D01*
X157000381Y-100076788D01*
X156992739Y-100154594D01*
X156987670Y-100242720D01*
X156985217Y-100335934D01*
X156156100Y-100335934D01*
X156161857Y-100179895D01*
X156183802Y-99984059D01*
X156219786Y-99805332D01*
X156269759Y-99643845D01*
X156333668Y-99499726D01*
X156411462Y-99373106D01*
X156503089Y-99264115D01*
X156608497Y-99172883D01*
X156653662Y-99141932D01*
X156754611Y-99085785D01*
X156857901Y-99046174D01*
X156967989Y-99022014D01*
X157089330Y-99012219D01*
X157181836Y-99013265D01*
X157311490Y-99024231D01*
X157424084Y-99046046D01*
X157522875Y-99079714D01*
X157611121Y-99126236D01*
X157659986Y-99160448D01*
X157689353Y-99182362D01*
X157711043Y-99197333D01*
X157719253Y-99201733D01*
X157720868Y-99190904D01*
X157722159Y-99160251D01*
X157723138Y-99112526D01*
X157723817Y-99050479D01*
X157724210Y-98976862D01*
X157724330Y-98894427D01*
X157724188Y-98805925D01*
X157723797Y-98714107D01*
X157723171Y-98621724D01*
X157722320Y-98531528D01*
X157721260Y-98446271D01*
X157720001Y-98368703D01*
X157718556Y-98301576D01*
X157716938Y-98247641D01*
X157715161Y-98209650D01*
X157714669Y-98202667D01*
X157707092Y-98132251D01*
X157695531Y-98077102D01*
X157677792Y-98029981D01*
X157651682Y-97983647D01*
X157645415Y-97974067D01*
X157620983Y-97937378D01*
X158526311Y-97937378D01*
X158526507Y-99622245D01*
G37*
X155013574Y-99016552D02*
X155165492Y-99036567D01*
X155300756Y-99070202D01*
X155420239Y-99117725D01*
X155524815Y-99179405D01*
X155602424Y-99242965D01*
X155671265Y-99317099D01*
X155725006Y-99396871D01*
X155767910Y-99489091D01*
X155783384Y-99532161D01*
X155796244Y-99571142D01*
X155807446Y-99607289D01*
X155817120Y-99642434D01*
X155825396Y-99678410D01*
X155832403Y-99717050D01*
X155838272Y-99760185D01*
X155843131Y-99809649D01*
X155847110Y-99867273D01*
X155850340Y-99934891D01*
X155852949Y-100014334D01*
X155855067Y-100107436D01*
X155856824Y-100216027D01*
X155858349Y-100341942D01*
X155859772Y-100487012D01*
X155861025Y-100629778D01*
X155862351Y-100785968D01*
X155863556Y-100921239D01*
X155864766Y-101037246D01*
X155866106Y-101135645D01*
X155867700Y-101218093D01*
X155869675Y-101286246D01*
X155872156Y-101341760D01*
X155875269Y-101386292D01*
X155879138Y-101421498D01*
X155883889Y-101449034D01*
X155889648Y-101470556D01*
X155896539Y-101487722D01*
X155904689Y-101502186D01*
X155914223Y-101515606D01*
X155925266Y-101529638D01*
X155929566Y-101535071D01*
X155945386Y-101557910D01*
X155952422Y-101573463D01*
X155952444Y-101573922D01*
X155941567Y-101576121D01*
X155910582Y-101578147D01*
X155861957Y-101579942D01*
X155798163Y-101581451D01*
X155721669Y-101582616D01*
X155634944Y-101583380D01*
X155540457Y-101583686D01*
X155529550Y-101583689D01*
X155106657Y-101583689D01*
X155103395Y-101487622D01*
X155100133Y-101391556D01*
X155038044Y-101442543D01*
X154940714Y-101510057D01*
X154830813Y-101564749D01*
X154744349Y-101594978D01*
X154675278Y-101609666D01*
X154591925Y-101619659D01*
X154502159Y-101624646D01*
X154413845Y-101624313D01*
X154334851Y-101618351D01*
X154298622Y-101612638D01*
X154158603Y-101574776D01*
X154032178Y-101519932D01*
X153920260Y-101448924D01*
X153823762Y-101362568D01*
X153743600Y-101261679D01*
X153680687Y-101147076D01*
X153636312Y-101020984D01*
X153623978Y-100964401D01*
X153616368Y-100902202D01*
X153612739Y-100827363D01*
X153612245Y-100793467D01*
X153612310Y-100790282D01*
X154372248Y-100790282D01*
X154381541Y-100865333D01*
X154409728Y-100929160D01*
X154458197Y-100984798D01*
X154463254Y-100989211D01*
X154511548Y-101024037D01*
X154563257Y-101046620D01*
X154623989Y-101058540D01*
X154699352Y-101061383D01*
X154717459Y-101060978D01*
X154771278Y-101058325D01*
X154811308Y-101052909D01*
X154846324Y-101042745D01*
X154885103Y-101025850D01*
X154895745Y-101020672D01*
X154956396Y-100984844D01*
X155003215Y-100942212D01*
X155015952Y-100926973D01*
X155060622Y-100870462D01*
X155060622Y-100674586D01*
X155060086Y-100595939D01*
X155058396Y-100537988D01*
X155055428Y-100498875D01*
X155051057Y-100476741D01*
X155046972Y-100470274D01*
X155031047Y-100467111D01*
X154997264Y-100464488D01*
X154950340Y-100462655D01*
X154894993Y-100461857D01*
X154886106Y-100461842D01*
X154765330Y-100467096D01*
X154662660Y-100483263D01*
X154576106Y-100510961D01*
X154503681Y-100550808D01*
X154448751Y-100597758D01*
X154404204Y-100655645D01*
X154379480Y-100718693D01*
X154372248Y-100790282D01*
X153612310Y-100790282D01*
X153614178Y-100699712D01*
X153622522Y-100620812D01*
X153638768Y-100549590D01*
X153664405Y-100478864D01*
X153688401Y-100426493D01*
X153747020Y-100331196D01*
X153825117Y-100243170D01*
X153920315Y-100164017D01*
X154030238Y-100095340D01*
X154152510Y-100038741D01*
X154284755Y-99995821D01*
X154349422Y-99980882D01*
X154485604Y-99958777D01*
X154634049Y-99944194D01*
X154785505Y-99937813D01*
X154912064Y-99939445D01*
X155073950Y-99946224D01*
X155066530Y-99887245D01*
X155047238Y-99788092D01*
X155016104Y-99707372D01*
X154972269Y-99644466D01*
X154914871Y-99598756D01*
X154843048Y-99569622D01*
X154755941Y-99556447D01*
X154652686Y-99558611D01*
X154614711Y-99562612D01*
X154473520Y-99587780D01*
X154336707Y-99628814D01*
X154242178Y-99666815D01*
X154197018Y-99686190D01*
X154158585Y-99701760D01*
X154132234Y-99711405D01*
X154124546Y-99713452D01*
X154114802Y-99704374D01*
X154098083Y-99675405D01*
X154074232Y-99626217D01*
X154043093Y-99556484D01*
X154004507Y-99465879D01*
X153997910Y-99450089D01*
X153967853Y-99377772D01*
X153940874Y-99312425D01*
X153918136Y-99256906D01*
X153900806Y-99214072D01*
X153890048Y-99186781D01*
X153886941Y-99177942D01*
X153896940Y-99173187D01*
X153923217Y-99167910D01*
X153951489Y-99164231D01*
X153981646Y-99159474D01*
X154029433Y-99150028D01*
X154090612Y-99136820D01*
X154160946Y-99120776D01*
X154236194Y-99102820D01*
X154264755Y-99095797D01*
X154369816Y-99070209D01*
X154457480Y-99050147D01*
X154532068Y-99034969D01*
X154597903Y-99024035D01*
X154659307Y-99016704D01*
X154720602Y-99012335D01*
X154786110Y-99010287D01*
X154844128Y-99009889D01*
X155013574Y-99016552D01*
G36*
X155013574Y-99016552D02*
G01*
X155165492Y-99036567D01*
X155300756Y-99070202D01*
X155420239Y-99117725D01*
X155524815Y-99179405D01*
X155602424Y-99242965D01*
X155671265Y-99317099D01*
X155725006Y-99396871D01*
X155767910Y-99489091D01*
X155783384Y-99532161D01*
X155796244Y-99571142D01*
X155807446Y-99607289D01*
X155817120Y-99642434D01*
X155825396Y-99678410D01*
X155832403Y-99717050D01*
X155838272Y-99760185D01*
X155843131Y-99809649D01*
X155847110Y-99867273D01*
X155850340Y-99934891D01*
X155852949Y-100014334D01*
X155855067Y-100107436D01*
X155856824Y-100216027D01*
X155858349Y-100341942D01*
X155859772Y-100487012D01*
X155861025Y-100629778D01*
X155862351Y-100785968D01*
X155863556Y-100921239D01*
X155864766Y-101037246D01*
X155866106Y-101135645D01*
X155867700Y-101218093D01*
X155869675Y-101286246D01*
X155872156Y-101341760D01*
X155875269Y-101386292D01*
X155879138Y-101421498D01*
X155883889Y-101449034D01*
X155889648Y-101470556D01*
X155896539Y-101487722D01*
X155904689Y-101502186D01*
X155914223Y-101515606D01*
X155925266Y-101529638D01*
X155929566Y-101535071D01*
X155945386Y-101557910D01*
X155952422Y-101573463D01*
X155952444Y-101573922D01*
X155941567Y-101576121D01*
X155910582Y-101578147D01*
X155861957Y-101579942D01*
X155798163Y-101581451D01*
X155721669Y-101582616D01*
X155634944Y-101583380D01*
X155540457Y-101583686D01*
X155529550Y-101583689D01*
X155106657Y-101583689D01*
X155103395Y-101487622D01*
X155100133Y-101391556D01*
X155038044Y-101442543D01*
X154940714Y-101510057D01*
X154830813Y-101564749D01*
X154744349Y-101594978D01*
X154675278Y-101609666D01*
X154591925Y-101619659D01*
X154502159Y-101624646D01*
X154413845Y-101624313D01*
X154334851Y-101618351D01*
X154298622Y-101612638D01*
X154158603Y-101574776D01*
X154032178Y-101519932D01*
X153920260Y-101448924D01*
X153823762Y-101362568D01*
X153743600Y-101261679D01*
X153680687Y-101147076D01*
X153636312Y-101020984D01*
X153623978Y-100964401D01*
X153616368Y-100902202D01*
X153612739Y-100827363D01*
X153612245Y-100793467D01*
X153612310Y-100790282D01*
X154372248Y-100790282D01*
X154381541Y-100865333D01*
X154409728Y-100929160D01*
X154458197Y-100984798D01*
X154463254Y-100989211D01*
X154511548Y-101024037D01*
X154563257Y-101046620D01*
X154623989Y-101058540D01*
X154699352Y-101061383D01*
X154717459Y-101060978D01*
X154771278Y-101058325D01*
X154811308Y-101052909D01*
X154846324Y-101042745D01*
X154885103Y-101025850D01*
X154895745Y-101020672D01*
X154956396Y-100984844D01*
X155003215Y-100942212D01*
X155015952Y-100926973D01*
X155060622Y-100870462D01*
X155060622Y-100674586D01*
X155060086Y-100595939D01*
X155058396Y-100537988D01*
X155055428Y-100498875D01*
X155051057Y-100476741D01*
X155046972Y-100470274D01*
X155031047Y-100467111D01*
X154997264Y-100464488D01*
X154950340Y-100462655D01*
X154894993Y-100461857D01*
X154886106Y-100461842D01*
X154765330Y-100467096D01*
X154662660Y-100483263D01*
X154576106Y-100510961D01*
X154503681Y-100550808D01*
X154448751Y-100597758D01*
X154404204Y-100655645D01*
X154379480Y-100718693D01*
X154372248Y-100790282D01*
X153612310Y-100790282D01*
X153614178Y-100699712D01*
X153622522Y-100620812D01*
X153638768Y-100549590D01*
X153664405Y-100478864D01*
X153688401Y-100426493D01*
X153747020Y-100331196D01*
X153825117Y-100243170D01*
X153920315Y-100164017D01*
X154030238Y-100095340D01*
X154152510Y-100038741D01*
X154284755Y-99995821D01*
X154349422Y-99980882D01*
X154485604Y-99958777D01*
X154634049Y-99944194D01*
X154785505Y-99937813D01*
X154912064Y-99939445D01*
X155073950Y-99946224D01*
X155066530Y-99887245D01*
X155047238Y-99788092D01*
X155016104Y-99707372D01*
X154972269Y-99644466D01*
X154914871Y-99598756D01*
X154843048Y-99569622D01*
X154755941Y-99556447D01*
X154652686Y-99558611D01*
X154614711Y-99562612D01*
X154473520Y-99587780D01*
X154336707Y-99628814D01*
X154242178Y-99666815D01*
X154197018Y-99686190D01*
X154158585Y-99701760D01*
X154132234Y-99711405D01*
X154124546Y-99713452D01*
X154114802Y-99704374D01*
X154098083Y-99675405D01*
X154074232Y-99626217D01*
X154043093Y-99556484D01*
X154004507Y-99465879D01*
X153997910Y-99450089D01*
X153967853Y-99377772D01*
X153940874Y-99312425D01*
X153918136Y-99256906D01*
X153900806Y-99214072D01*
X153890048Y-99186781D01*
X153886941Y-99177942D01*
X153896940Y-99173187D01*
X153923217Y-99167910D01*
X153951489Y-99164231D01*
X153981646Y-99159474D01*
X154029433Y-99150028D01*
X154090612Y-99136820D01*
X154160946Y-99120776D01*
X154236194Y-99102820D01*
X154264755Y-99095797D01*
X154369816Y-99070209D01*
X154457480Y-99050147D01*
X154532068Y-99034969D01*
X154597903Y-99024035D01*
X154659307Y-99016704D01*
X154720602Y-99012335D01*
X154786110Y-99010287D01*
X154844128Y-99009889D01*
X155013574Y-99016552D01*
G37*
X149393600Y-97639054D02*
X149404465Y-97752993D01*
X149436082Y-97860616D01*
X149486985Y-97959615D01*
X149555707Y-98047684D01*
X149640781Y-98122516D01*
X149737768Y-98180384D01*
X149844036Y-98220005D01*
X149951050Y-98238573D01*
X150056700Y-98237434D01*
X150158875Y-98217930D01*
X150255466Y-98181406D01*
X150344362Y-98129205D01*
X150423454Y-98062673D01*
X150490631Y-97983152D01*
X150543783Y-97891987D01*
X150580801Y-97790523D01*
X150599573Y-97680102D01*
X150601511Y-97630206D01*
X150601511Y-97542267D01*
X150653440Y-97542267D01*
X150689747Y-97545111D01*
X150716645Y-97556911D01*
X150743751Y-97580649D01*
X150782133Y-97619031D01*
X150782133Y-99810602D01*
X150782124Y-100072739D01*
X150782092Y-100313241D01*
X150782028Y-100533048D01*
X150781924Y-100733101D01*
X150781773Y-100914344D01*
X150781566Y-101077716D01*
X150781294Y-101224160D01*
X150780950Y-101354617D01*
X150780526Y-101470029D01*
X150780013Y-101571338D01*
X150779403Y-101659484D01*
X150778688Y-101735410D01*
X150777860Y-101800057D01*
X150776911Y-101854367D01*
X150775833Y-101899280D01*
X150774617Y-101935740D01*
X150773255Y-101964687D01*
X150771739Y-101987063D01*
X150770062Y-102003809D01*
X150768214Y-102015868D01*
X150766187Y-102024180D01*
X150763975Y-102029687D01*
X150762892Y-102031537D01*
X150758729Y-102038549D01*
X150755195Y-102044996D01*
X150751365Y-102050900D01*
X150746318Y-102056286D01*
X150739129Y-102061178D01*
X150728877Y-102065598D01*
X150714636Y-102069572D01*
X150695486Y-102073121D01*
X150670501Y-102076270D01*
X150638760Y-102079042D01*
X150599338Y-102081461D01*
X150551314Y-102083551D01*
X150493763Y-102085335D01*
X150425763Y-102086837D01*
X150346390Y-102088080D01*
X150254721Y-102089089D01*
X150149834Y-102089885D01*
X150030804Y-102090494D01*
X149896710Y-102090939D01*
X149746627Y-102091243D01*
X149579633Y-102091430D01*
X149394804Y-102091524D01*
X149191217Y-102091548D01*
X148967950Y-102091525D01*
X148724078Y-102091480D01*
X148458679Y-102091437D01*
X148420296Y-102091432D01*
X148153318Y-102091389D01*
X147907998Y-102091318D01*
X147683417Y-102091213D01*
X147478655Y-102091066D01*
X147292794Y-102090869D01*
X147124912Y-102090616D01*
X146974092Y-102090300D01*
X146839413Y-102089913D01*
X146719956Y-102089447D01*
X146614801Y-102088897D01*
X146523029Y-102088253D01*
X146443721Y-102087511D01*
X146375957Y-102086661D01*
X146318818Y-102085697D01*
X146271383Y-102084611D01*
X146232734Y-102083397D01*
X146201951Y-102082047D01*
X146178115Y-102080555D01*
X146160306Y-102078911D01*
X146147605Y-102077111D01*
X146139092Y-102075145D01*
X146134734Y-102073477D01*
X146126272Y-102069906D01*
X146118503Y-102067270D01*
X146111398Y-102064634D01*
X146104927Y-102061062D01*
X146099061Y-102055621D01*
X146093771Y-102047375D01*
X146089026Y-102035390D01*
X146084798Y-102018731D01*
X146081057Y-101996463D01*
X146077773Y-101967652D01*
X146074917Y-101931363D01*
X146072460Y-101886661D01*
X146070371Y-101832611D01*
X146068622Y-101768279D01*
X146067183Y-101692730D01*
X146066024Y-101605030D01*
X146065117Y-101504243D01*
X146064431Y-101389434D01*
X146063937Y-101259670D01*
X146063605Y-101114015D01*
X146063407Y-100951535D01*
X146063313Y-100771295D01*
X146063292Y-100572360D01*
X146063315Y-100353796D01*
X146063354Y-100114668D01*
X146063378Y-99854040D01*
X146063378Y-99811889D01*
X146063364Y-99548992D01*
X146063339Y-99307732D01*
X146063329Y-99087165D01*
X146063358Y-98886352D01*
X146063452Y-98704349D01*
X146063638Y-98540216D01*
X146063941Y-98393011D01*
X146064386Y-98261792D01*
X146064966Y-98151867D01*
X146367803Y-98151867D01*
X146407593Y-98209711D01*
X146418764Y-98225479D01*
X146428834Y-98239441D01*
X146437862Y-98252784D01*
X146445903Y-98266693D01*
X146453014Y-98282356D01*
X146459253Y-98300958D01*
X146464675Y-98323686D01*
X146469338Y-98351727D01*
X146473299Y-98386267D01*
X146476615Y-98428492D01*
X146479341Y-98479589D01*
X146481536Y-98540744D01*
X146483255Y-98613144D01*
X146484556Y-98697975D01*
X146485495Y-98796422D01*
X146486130Y-98909674D01*
X146486516Y-99038916D01*
X146486712Y-99185334D01*
X146486773Y-99350116D01*
X146486757Y-99534447D01*
X146486720Y-99739513D01*
X146486711Y-99862133D01*
X146486735Y-100079082D01*
X146486769Y-100274642D01*
X146486757Y-100449999D01*
X146486642Y-100606341D01*
X146486370Y-100744857D01*
X146485882Y-100866734D01*
X146485124Y-100973160D01*
X146484038Y-101065322D01*
X146482569Y-101144409D01*
X146480660Y-101211608D01*
X146478256Y-101268107D01*
X146475299Y-101315093D01*
X146471734Y-101353755D01*
X146467505Y-101385280D01*
X146462554Y-101410855D01*
X146456827Y-101431670D01*
X146450267Y-101448911D01*
X146442817Y-101463765D01*
X146434421Y-101477422D01*
X146425024Y-101491069D01*
X146414568Y-101505893D01*
X146408477Y-101514783D01*
X146369704Y-101572400D01*
X146901268Y-101572400D01*
X147024517Y-101572365D01*
X147127013Y-101572215D01*
X147210580Y-101571878D01*
X147277044Y-101571286D01*
X147328229Y-101570367D01*
X147365959Y-101569051D01*
X147392060Y-101567269D01*
X147408356Y-101564951D01*
X147416672Y-101562026D01*
X147418832Y-101558424D01*
X147416661Y-101554075D01*
X147415465Y-101552645D01*
X147390315Y-101515573D01*
X147364417Y-101462772D01*
X147340808Y-101400770D01*
X147332539Y-101374357D01*
X147327922Y-101356416D01*
X147324021Y-101335355D01*
X147320752Y-101309089D01*
X147318034Y-101275532D01*
X147315785Y-101232599D01*
X147313923Y-101178204D01*
X147312364Y-101110262D01*
X147311028Y-101026688D01*
X147309831Y-100925395D01*
X147308692Y-100804300D01*
X147308315Y-100759600D01*
X147307298Y-100634449D01*
X147306540Y-100530082D01*
X147306097Y-100444707D01*
X147306030Y-100376533D01*
X147306395Y-100323765D01*
X147307252Y-100284614D01*
X147308659Y-100257285D01*
X147310675Y-100239986D01*
X147313357Y-100230926D01*
X147316764Y-100228312D01*
X147320956Y-100230351D01*
X147325429Y-100234667D01*
X147335784Y-100247602D01*
X147357842Y-100276676D01*
X147390043Y-100319759D01*
X147430826Y-100374718D01*
X147478630Y-100439423D01*
X147531895Y-100511742D01*
X147589060Y-100589544D01*
X147648563Y-100670698D01*
X147708845Y-100753072D01*
X147768345Y-100834536D01*
X147825502Y-100912957D01*
X147878755Y-100986204D01*
X147926543Y-101052147D01*
X147967307Y-101108654D01*
X147999484Y-101153593D01*
X148021515Y-101184834D01*
X148026083Y-101191466D01*
X148049004Y-101228369D01*
X148075812Y-101276359D01*
X148101211Y-101325897D01*
X148104432Y-101332577D01*
X148126110Y-101380772D01*
X148138696Y-101418334D01*
X148144426Y-101454160D01*
X148145544Y-101496200D01*
X148144910Y-101572400D01*
X149299349Y-101572400D01*
X149294347Y-101567257D01*
X149506489Y-101567257D01*
X149517396Y-101568334D01*
X149548589Y-101569335D01*
X149597777Y-101570235D01*
X149662667Y-101571010D01*
X149740970Y-101571637D01*
X149830393Y-101572091D01*
X149928644Y-101572349D01*
X149997555Y-101572400D01*
X150102548Y-101572180D01*
X150199390Y-101571548D01*
X150285893Y-101570549D01*
X150359868Y-101569227D01*
X150419126Y-101567626D01*
X150461480Y-101565791D01*
X150484740Y-101563765D01*
X150488622Y-101562493D01*
X150480924Y-101547591D01*
X150472926Y-101539560D01*
X150459754Y-101522434D01*
X150442515Y-101492183D01*
X150430593Y-101467622D01*
X150403955Y-101408711D01*
X150400880Y-100231845D01*
X150397805Y-99054978D01*
X149952147Y-99054978D01*
X149854330Y-99055142D01*
X149763936Y-99055611D01*
X149683370Y-99056347D01*
X149615038Y-99057316D01*
X149561344Y-99058480D01*
X149524695Y-99059803D01*
X149507496Y-99061249D01*
X149506489Y-99061702D01*
X149512398Y-99074659D01*
X149526728Y-99096908D01*
X149527775Y-99098391D01*
X149546562Y-99128544D01*
X149566209Y-99165375D01*
X149570108Y-99173511D01*
X149573644Y-99181940D01*
X149576770Y-99192059D01*
X149579514Y-99205260D01*
X149581908Y-99222938D01*
X149583981Y-99246484D01*
X149585765Y-99277293D01*
X149587288Y-99316757D01*
X149588581Y-99366269D01*
X149589674Y-99427223D01*
X149590597Y-99501011D01*
X149591381Y-99589028D01*
X149592055Y-99692665D01*
X149592650Y-99813316D01*
X149593195Y-99952374D01*
X149593721Y-100111232D01*
X149594255Y-100290089D01*
X149594794Y-100475207D01*
X149595228Y-100639145D01*
X149595491Y-100783303D01*
X149595516Y-100909079D01*
X149595235Y-101017871D01*
X149594581Y-101111077D01*
X149593486Y-101190097D01*
X149591882Y-101256328D01*
X149589703Y-101311170D01*
X149586881Y-101356021D01*
X149583349Y-101392278D01*
X149579039Y-101421341D01*
X149573883Y-101444609D01*
X149567815Y-101463479D01*
X149560767Y-101479351D01*
X149552671Y-101493622D01*
X149543460Y-101507691D01*
X149534960Y-101520158D01*
X149517824Y-101546452D01*
X149507678Y-101564037D01*
X149506489Y-101567257D01*
X149294347Y-101567257D01*
X149208185Y-101478669D01*
X149161388Y-101428775D01*
X149111101Y-101372295D01*
X149065056Y-101318026D01*
X149044631Y-101292673D01*
X149014193Y-101253128D01*
X148974138Y-101199916D01*
X148925639Y-101134667D01*
X148869865Y-101059011D01*
X148807989Y-100974577D01*
X148741181Y-100882994D01*
X148670613Y-100785892D01*
X148597455Y-100684901D01*
X148522879Y-100581650D01*
X148448056Y-100477768D01*
X148374157Y-100374885D01*
X148302354Y-100274631D01*
X148233816Y-100178636D01*
X148169716Y-100088527D01*
X148111225Y-100005936D01*
X148059514Y-99932492D01*
X148015753Y-99869824D01*
X147981115Y-99819561D01*
X147956770Y-99783334D01*
X147943889Y-99762771D01*
X147942131Y-99758668D01*
X147950090Y-99747342D01*
X147970885Y-99720162D01*
X148003153Y-99678829D01*
X148045530Y-99625044D01*
X148096653Y-99560506D01*
X148155159Y-99486918D01*
X148219686Y-99405978D01*
X148288869Y-99319388D01*
X148361347Y-99228848D01*
X148435754Y-99136060D01*
X148495483Y-99061702D01*
X148510730Y-99042722D01*
X148584910Y-98950537D01*
X148656931Y-98861204D01*
X148725431Y-98776424D01*
X148789045Y-98697898D01*
X148846412Y-98627326D01*
X148896167Y-98566409D01*
X148936948Y-98516847D01*
X148954112Y-98496178D01*
X149040404Y-98395516D01*
X149117003Y-98312259D01*
X149185817Y-98244438D01*
X149248752Y-98190089D01*
X149258133Y-98182722D01*
X149297644Y-98152117D01*
X148165884Y-98151867D01*
X148171173Y-98199844D01*
X148167870Y-98257188D01*
X148146339Y-98325463D01*
X148106365Y-98405212D01*
X148061057Y-98477495D01*
X148044839Y-98500140D01*
X148016786Y-98537696D01*
X147978570Y-98588021D01*
X147931863Y-98648973D01*
X147878339Y-98718411D01*
X147819669Y-98794194D01*
X147757525Y-98874180D01*
X147693579Y-98956228D01*
X147629505Y-99038196D01*
X147566973Y-99117943D01*
X147507657Y-99193327D01*
X147453229Y-99262207D01*
X147405361Y-99322442D01*
X147365725Y-99371889D01*
X147335994Y-99408408D01*
X147317839Y-99429858D01*
X147314780Y-99433156D01*
X147311921Y-99425149D01*
X147309707Y-99394855D01*
X147308143Y-99342556D01*
X147307233Y-99268531D01*
X147306980Y-99173063D01*
X147307387Y-99056434D01*
X147308296Y-98936445D01*
X147309618Y-98804333D01*
X147311143Y-98692594D01*
X147313119Y-98599025D01*
X147315794Y-98521419D01*
X147319418Y-98457574D01*
X147324239Y-98405283D01*
X147330506Y-98362344D01*
X147338468Y-98326551D01*
X147348373Y-98295700D01*
X147360469Y-98267586D01*
X147375007Y-98240005D01*
X147389689Y-98214966D01*
X147427686Y-98151867D01*
X146367803Y-98151867D01*
X146064966Y-98151867D01*
X146064999Y-98145617D01*
X146065805Y-98043544D01*
X146066830Y-97954633D01*
X146068100Y-97877941D01*
X146069640Y-97812527D01*
X146071476Y-97757449D01*
X146073633Y-97711765D01*
X146076137Y-97674534D01*
X146079013Y-97644813D01*
X146082287Y-97621662D01*
X146085985Y-97604139D01*
X146090131Y-97591301D01*
X146094753Y-97582208D01*
X146099874Y-97575918D01*
X146105522Y-97571488D01*
X146111721Y-97567978D01*
X146118496Y-97564445D01*
X146124492Y-97560876D01*
X146129725Y-97558300D01*
X146137901Y-97555972D01*
X146150114Y-97553878D01*
X146167459Y-97552007D01*
X146191031Y-97550347D01*
X146221923Y-97548884D01*
X146261232Y-97547608D01*
X146310050Y-97546504D01*
X146369473Y-97545561D01*
X146440596Y-97544767D01*
X146524512Y-97544109D01*
X146622317Y-97543575D01*
X146735106Y-97543153D01*
X146863971Y-97542829D01*
X147010009Y-97542592D01*
X147174314Y-97542430D01*
X147357980Y-97542330D01*
X147562103Y-97542280D01*
X147773247Y-97542267D01*
X149393600Y-97542267D01*
X149393600Y-97639054D01*
G36*
X149393600Y-97639054D02*
G01*
X149404465Y-97752993D01*
X149436082Y-97860616D01*
X149486985Y-97959615D01*
X149555707Y-98047684D01*
X149640781Y-98122516D01*
X149737768Y-98180384D01*
X149844036Y-98220005D01*
X149951050Y-98238573D01*
X150056700Y-98237434D01*
X150158875Y-98217930D01*
X150255466Y-98181406D01*
X150344362Y-98129205D01*
X150423454Y-98062673D01*
X150490631Y-97983152D01*
X150543783Y-97891987D01*
X150580801Y-97790523D01*
X150599573Y-97680102D01*
X150601511Y-97630206D01*
X150601511Y-97542267D01*
X150653440Y-97542267D01*
X150689747Y-97545111D01*
X150716645Y-97556911D01*
X150743751Y-97580649D01*
X150782133Y-97619031D01*
X150782133Y-99810602D01*
X150782124Y-100072739D01*
X150782092Y-100313241D01*
X150782028Y-100533048D01*
X150781924Y-100733101D01*
X150781773Y-100914344D01*
X150781566Y-101077716D01*
X150781294Y-101224160D01*
X150780950Y-101354617D01*
X150780526Y-101470029D01*
X150780013Y-101571338D01*
X150779403Y-101659484D01*
X150778688Y-101735410D01*
X150777860Y-101800057D01*
X150776911Y-101854367D01*
X150775833Y-101899280D01*
X150774617Y-101935740D01*
X150773255Y-101964687D01*
X150771739Y-101987063D01*
X150770062Y-102003809D01*
X150768214Y-102015868D01*
X150766187Y-102024180D01*
X150763975Y-102029687D01*
X150762892Y-102031537D01*
X150758729Y-102038549D01*
X150755195Y-102044996D01*
X150751365Y-102050900D01*
X150746318Y-102056286D01*
X150739129Y-102061178D01*
X150728877Y-102065598D01*
X150714636Y-102069572D01*
X150695486Y-102073121D01*
X150670501Y-102076270D01*
X150638760Y-102079042D01*
X150599338Y-102081461D01*
X150551314Y-102083551D01*
X150493763Y-102085335D01*
X150425763Y-102086837D01*
X150346390Y-102088080D01*
X150254721Y-102089089D01*
X150149834Y-102089885D01*
X150030804Y-102090494D01*
X149896710Y-102090939D01*
X149746627Y-102091243D01*
X149579633Y-102091430D01*
X149394804Y-102091524D01*
X149191217Y-102091548D01*
X148967950Y-102091525D01*
X148724078Y-102091480D01*
X148458679Y-102091437D01*
X148420296Y-102091432D01*
X148153318Y-102091389D01*
X147907998Y-102091318D01*
X147683417Y-102091213D01*
X147478655Y-102091066D01*
X147292794Y-102090869D01*
X147124912Y-102090616D01*
X146974092Y-102090300D01*
X146839413Y-102089913D01*
X146719956Y-102089447D01*
X146614801Y-102088897D01*
X146523029Y-102088253D01*
X146443721Y-102087511D01*
X146375957Y-102086661D01*
X146318818Y-102085697D01*
X146271383Y-102084611D01*
X146232734Y-102083397D01*
X146201951Y-102082047D01*
X146178115Y-102080555D01*
X146160306Y-102078911D01*
X146147605Y-102077111D01*
X146139092Y-102075145D01*
X146134734Y-102073477D01*
X146126272Y-102069906D01*
X146118503Y-102067270D01*
X146111398Y-102064634D01*
X146104927Y-102061062D01*
X146099061Y-102055621D01*
X146093771Y-102047375D01*
X146089026Y-102035390D01*
X146084798Y-102018731D01*
X146081057Y-101996463D01*
X146077773Y-101967652D01*
X146074917Y-101931363D01*
X146072460Y-101886661D01*
X146070371Y-101832611D01*
X146068622Y-101768279D01*
X146067183Y-101692730D01*
X146066024Y-101605030D01*
X146065117Y-101504243D01*
X146064431Y-101389434D01*
X146063937Y-101259670D01*
X146063605Y-101114015D01*
X146063407Y-100951535D01*
X146063313Y-100771295D01*
X146063292Y-100572360D01*
X146063315Y-100353796D01*
X146063354Y-100114668D01*
X146063378Y-99854040D01*
X146063378Y-99811889D01*
X146063364Y-99548992D01*
X146063339Y-99307732D01*
X146063329Y-99087165D01*
X146063358Y-98886352D01*
X146063452Y-98704349D01*
X146063638Y-98540216D01*
X146063941Y-98393011D01*
X146064386Y-98261792D01*
X146064966Y-98151867D01*
X146367803Y-98151867D01*
X146407593Y-98209711D01*
X146418764Y-98225479D01*
X146428834Y-98239441D01*
X146437862Y-98252784D01*
X146445903Y-98266693D01*
X146453014Y-98282356D01*
X146459253Y-98300958D01*
X146464675Y-98323686D01*
X146469338Y-98351727D01*
X146473299Y-98386267D01*
X146476615Y-98428492D01*
X146479341Y-98479589D01*
X146481536Y-98540744D01*
X146483255Y-98613144D01*
X146484556Y-98697975D01*
X146485495Y-98796422D01*
X146486130Y-98909674D01*
X146486516Y-99038916D01*
X146486712Y-99185334D01*
X146486773Y-99350116D01*
X146486757Y-99534447D01*
X146486720Y-99739513D01*
X146486711Y-99862133D01*
X146486735Y-100079082D01*
X146486769Y-100274642D01*
X146486757Y-100449999D01*
X146486642Y-100606341D01*
X146486370Y-100744857D01*
X146485882Y-100866734D01*
X146485124Y-100973160D01*
X146484038Y-101065322D01*
X146482569Y-101144409D01*
X146480660Y-101211608D01*
X146478256Y-101268107D01*
X146475299Y-101315093D01*
X146471734Y-101353755D01*
X146467505Y-101385280D01*
X146462554Y-101410855D01*
X146456827Y-101431670D01*
X146450267Y-101448911D01*
X146442817Y-101463765D01*
X146434421Y-101477422D01*
X146425024Y-101491069D01*
X146414568Y-101505893D01*
X146408477Y-101514783D01*
X146369704Y-101572400D01*
X146901268Y-101572400D01*
X147024517Y-101572365D01*
X147127013Y-101572215D01*
X147210580Y-101571878D01*
X147277044Y-101571286D01*
X147328229Y-101570367D01*
X147365959Y-101569051D01*
X147392060Y-101567269D01*
X147408356Y-101564951D01*
X147416672Y-101562026D01*
X147418832Y-101558424D01*
X147416661Y-101554075D01*
X147415465Y-101552645D01*
X147390315Y-101515573D01*
X147364417Y-101462772D01*
X147340808Y-101400770D01*
X147332539Y-101374357D01*
X147327922Y-101356416D01*
X147324021Y-101335355D01*
X147320752Y-101309089D01*
X147318034Y-101275532D01*
X147315785Y-101232599D01*
X147313923Y-101178204D01*
X147312364Y-101110262D01*
X147311028Y-101026688D01*
X147309831Y-100925395D01*
X147308692Y-100804300D01*
X147308315Y-100759600D01*
X147307298Y-100634449D01*
X147306540Y-100530082D01*
X147306097Y-100444707D01*
X147306030Y-100376533D01*
X147306395Y-100323765D01*
X147307252Y-100284614D01*
X147308659Y-100257285D01*
X147310675Y-100239986D01*
X147313357Y-100230926D01*
X147316764Y-100228312D01*
X147320956Y-100230351D01*
X147325429Y-100234667D01*
X147335784Y-100247602D01*
X147357842Y-100276676D01*
X147390043Y-100319759D01*
X147430826Y-100374718D01*
X147478630Y-100439423D01*
X147531895Y-100511742D01*
X147589060Y-100589544D01*
X147648563Y-100670698D01*
X147708845Y-100753072D01*
X147768345Y-100834536D01*
X147825502Y-100912957D01*
X147878755Y-100986204D01*
X147926543Y-101052147D01*
X147967307Y-101108654D01*
X147999484Y-101153593D01*
X148021515Y-101184834D01*
X148026083Y-101191466D01*
X148049004Y-101228369D01*
X148075812Y-101276359D01*
X148101211Y-101325897D01*
X148104432Y-101332577D01*
X148126110Y-101380772D01*
X148138696Y-101418334D01*
X148144426Y-101454160D01*
X148145544Y-101496200D01*
X148144910Y-101572400D01*
X149299349Y-101572400D01*
X149294347Y-101567257D01*
X149506489Y-101567257D01*
X149517396Y-101568334D01*
X149548589Y-101569335D01*
X149597777Y-101570235D01*
X149662667Y-101571010D01*
X149740970Y-101571637D01*
X149830393Y-101572091D01*
X149928644Y-101572349D01*
X149997555Y-101572400D01*
X150102548Y-101572180D01*
X150199390Y-101571548D01*
X150285893Y-101570549D01*
X150359868Y-101569227D01*
X150419126Y-101567626D01*
X150461480Y-101565791D01*
X150484740Y-101563765D01*
X150488622Y-101562493D01*
X150480924Y-101547591D01*
X150472926Y-101539560D01*
X150459754Y-101522434D01*
X150442515Y-101492183D01*
X150430593Y-101467622D01*
X150403955Y-101408711D01*
X150400880Y-100231845D01*
X150397805Y-99054978D01*
X149952147Y-99054978D01*
X149854330Y-99055142D01*
X149763936Y-99055611D01*
X149683370Y-99056347D01*
X149615038Y-99057316D01*
X149561344Y-99058480D01*
X149524695Y-99059803D01*
X149507496Y-99061249D01*
X149506489Y-99061702D01*
X149512398Y-99074659D01*
X149526728Y-99096908D01*
X149527775Y-99098391D01*
X149546562Y-99128544D01*
X149566209Y-99165375D01*
X149570108Y-99173511D01*
X149573644Y-99181940D01*
X149576770Y-99192059D01*
X149579514Y-99205260D01*
X149581908Y-99222938D01*
X149583981Y-99246484D01*
X149585765Y-99277293D01*
X149587288Y-99316757D01*
X149588581Y-99366269D01*
X149589674Y-99427223D01*
X149590597Y-99501011D01*
X149591381Y-99589028D01*
X149592055Y-99692665D01*
X149592650Y-99813316D01*
X149593195Y-99952374D01*
X149593721Y-100111232D01*
X149594255Y-100290089D01*
X149594794Y-100475207D01*
X149595228Y-100639145D01*
X149595491Y-100783303D01*
X149595516Y-100909079D01*
X149595235Y-101017871D01*
X149594581Y-101111077D01*
X149593486Y-101190097D01*
X149591882Y-101256328D01*
X149589703Y-101311170D01*
X149586881Y-101356021D01*
X149583349Y-101392278D01*
X149579039Y-101421341D01*
X149573883Y-101444609D01*
X149567815Y-101463479D01*
X149560767Y-101479351D01*
X149552671Y-101493622D01*
X149543460Y-101507691D01*
X149534960Y-101520158D01*
X149517824Y-101546452D01*
X149507678Y-101564037D01*
X149506489Y-101567257D01*
X149294347Y-101567257D01*
X149208185Y-101478669D01*
X149161388Y-101428775D01*
X149111101Y-101372295D01*
X149065056Y-101318026D01*
X149044631Y-101292673D01*
X149014193Y-101253128D01*
X148974138Y-101199916D01*
X148925639Y-101134667D01*
X148869865Y-101059011D01*
X148807989Y-100974577D01*
X148741181Y-100882994D01*
X148670613Y-100785892D01*
X148597455Y-100684901D01*
X148522879Y-100581650D01*
X148448056Y-100477768D01*
X148374157Y-100374885D01*
X148302354Y-100274631D01*
X148233816Y-100178636D01*
X148169716Y-100088527D01*
X148111225Y-100005936D01*
X148059514Y-99932492D01*
X148015753Y-99869824D01*
X147981115Y-99819561D01*
X147956770Y-99783334D01*
X147943889Y-99762771D01*
X147942131Y-99758668D01*
X147950090Y-99747342D01*
X147970885Y-99720162D01*
X148003153Y-99678829D01*
X148045530Y-99625044D01*
X148096653Y-99560506D01*
X148155159Y-99486918D01*
X148219686Y-99405978D01*
X148288869Y-99319388D01*
X148361347Y-99228848D01*
X148435754Y-99136060D01*
X148495483Y-99061702D01*
X148510730Y-99042722D01*
X148584910Y-98950537D01*
X148656931Y-98861204D01*
X148725431Y-98776424D01*
X148789045Y-98697898D01*
X148846412Y-98627326D01*
X148896167Y-98566409D01*
X148936948Y-98516847D01*
X148954112Y-98496178D01*
X149040404Y-98395516D01*
X149117003Y-98312259D01*
X149185817Y-98244438D01*
X149248752Y-98190089D01*
X149258133Y-98182722D01*
X149297644Y-98152117D01*
X148165884Y-98151867D01*
X148171173Y-98199844D01*
X148167870Y-98257188D01*
X148146339Y-98325463D01*
X148106365Y-98405212D01*
X148061057Y-98477495D01*
X148044839Y-98500140D01*
X148016786Y-98537696D01*
X147978570Y-98588021D01*
X147931863Y-98648973D01*
X147878339Y-98718411D01*
X147819669Y-98794194D01*
X147757525Y-98874180D01*
X147693579Y-98956228D01*
X147629505Y-99038196D01*
X147566973Y-99117943D01*
X147507657Y-99193327D01*
X147453229Y-99262207D01*
X147405361Y-99322442D01*
X147365725Y-99371889D01*
X147335994Y-99408408D01*
X147317839Y-99429858D01*
X147314780Y-99433156D01*
X147311921Y-99425149D01*
X147309707Y-99394855D01*
X147308143Y-99342556D01*
X147307233Y-99268531D01*
X147306980Y-99173063D01*
X147307387Y-99056434D01*
X147308296Y-98936445D01*
X147309618Y-98804333D01*
X147311143Y-98692594D01*
X147313119Y-98599025D01*
X147315794Y-98521419D01*
X147319418Y-98457574D01*
X147324239Y-98405283D01*
X147330506Y-98362344D01*
X147338468Y-98326551D01*
X147348373Y-98295700D01*
X147360469Y-98267586D01*
X147375007Y-98240005D01*
X147389689Y-98214966D01*
X147427686Y-98151867D01*
X146367803Y-98151867D01*
X146064966Y-98151867D01*
X146064999Y-98145617D01*
X146065805Y-98043544D01*
X146066830Y-97954633D01*
X146068100Y-97877941D01*
X146069640Y-97812527D01*
X146071476Y-97757449D01*
X146073633Y-97711765D01*
X146076137Y-97674534D01*
X146079013Y-97644813D01*
X146082287Y-97621662D01*
X146085985Y-97604139D01*
X146090131Y-97591301D01*
X146094753Y-97582208D01*
X146099874Y-97575918D01*
X146105522Y-97571488D01*
X146111721Y-97567978D01*
X146118496Y-97564445D01*
X146124492Y-97560876D01*
X146129725Y-97558300D01*
X146137901Y-97555972D01*
X146150114Y-97553878D01*
X146167459Y-97552007D01*
X146191031Y-97550347D01*
X146221923Y-97548884D01*
X146261232Y-97547608D01*
X146310050Y-97546504D01*
X146369473Y-97545561D01*
X146440596Y-97544767D01*
X146524512Y-97544109D01*
X146622317Y-97543575D01*
X146735106Y-97543153D01*
X146863971Y-97542829D01*
X147010009Y-97542592D01*
X147174314Y-97542430D01*
X147357980Y-97542330D01*
X147562103Y-97542280D01*
X147773247Y-97542267D01*
X149393600Y-97542267D01*
X149393600Y-97639054D01*
G37*
D12*
%TO.C,R5*%
X152695000Y-77702936D02*
X152695000Y-78157064D01*
X154165000Y-77702936D02*
X154165000Y-78157064D01*
%TO.C,R4*%
X164452936Y-88515000D02*
X164907064Y-88515000D01*
X164452936Y-89985000D02*
X164907064Y-89985000D01*
%TO.C,C4*%
X166436252Y-69422500D02*
X165913748Y-69422500D01*
X166436252Y-70892500D02*
X165913748Y-70892500D01*
%TO.C,J2*%
X146350000Y-109780000D02*
X146350000Y-108400000D01*
X147730000Y-109780000D02*
X146350000Y-109780000D01*
X149000000Y-107020000D02*
X169430000Y-107020000D01*
X149000000Y-109780000D02*
X149000000Y-107020000D01*
X149000000Y-109780000D02*
X169430000Y-109780000D01*
X169430000Y-109780000D02*
X169430000Y-107020000D01*
%TO.C,C8*%
X148291252Y-61495000D02*
X147768748Y-61495000D01*
X148291252Y-62965000D02*
X147768748Y-62965000D01*
%TO.C,C3*%
X162285000Y-81345000D02*
X162285000Y-83255000D01*
X162285000Y-83255000D02*
X166380000Y-83255000D01*
X166380000Y-81345000D02*
X162285000Y-81345000D01*
%TO.C,U2*%
X155467500Y-91370000D02*
X155942500Y-91370000D01*
X155467500Y-91845000D02*
X155467500Y-91370000D01*
X155467500Y-96590000D02*
X155467500Y-96115000D01*
X155942500Y-96590000D02*
X155467500Y-96590000D01*
X160212500Y-91370000D02*
X160687500Y-91370000D01*
X160687500Y-91370000D02*
X160687500Y-91845000D01*
X160687500Y-96115000D02*
X160687500Y-96590000D01*
X160687500Y-96590000D02*
X160212500Y-96590000D01*
X154937500Y-92230000D02*
X154607500Y-92470000D01*
X154607500Y-91990000D01*
X154937500Y-92230000D01*
G36*
X154937500Y-92230000D02*
G01*
X154607500Y-92470000D01*
X154607500Y-91990000D01*
X154937500Y-92230000D01*
G37*
%TO.C,R7*%
X161085000Y-85922936D02*
X161085000Y-86377064D01*
X162555000Y-85922936D02*
X162555000Y-86377064D01*
%TO.C,C5*%
X164095000Y-65478748D02*
X164095000Y-66001252D01*
X165565000Y-65478748D02*
X165565000Y-66001252D01*
%TO.C,R8*%
X148705000Y-67672936D02*
X148705000Y-68127064D01*
X150175000Y-67672936D02*
X150175000Y-68127064D01*
%TO.C,C1*%
X162285000Y-78995000D02*
X162285000Y-80905000D01*
X162285000Y-80905000D02*
X166380000Y-80905000D01*
X166380000Y-78995000D02*
X162285000Y-78995000D01*
%TO.C,C9*%
X148291252Y-63745000D02*
X147768748Y-63745000D01*
X148291252Y-65215000D02*
X147768748Y-65215000D01*
%TO.C,D1*%
X158680000Y-76690000D02*
X158680000Y-82500000D01*
X161900000Y-76690000D02*
X158680000Y-76690000D01*
X161900000Y-82500000D02*
X161900000Y-76690000D01*
%TO.C,J1*%
X142020000Y-82440000D02*
X143400000Y-82440000D01*
X142020000Y-83820000D02*
X142020000Y-82440000D01*
X142020000Y-85090000D02*
X142020000Y-105520000D01*
X142020000Y-85090000D02*
X144780000Y-85090000D01*
X142020000Y-105520000D02*
X144780000Y-105520000D01*
X144780000Y-85090000D02*
X144780000Y-105520000D01*
%TO.C,C2*%
X167728748Y-103945000D02*
X168251252Y-103945000D01*
X167728748Y-105415000D02*
X168251252Y-105415000D01*
%TO.C,R6*%
X152645000Y-85672936D02*
X152645000Y-86127064D01*
X154115000Y-85672936D02*
X154115000Y-86127064D01*
%TO.C,R2*%
X164035000Y-59397064D02*
X164035000Y-58942936D01*
X165505000Y-59397064D02*
X165505000Y-58942936D01*
%TO.C,F1*%
X150180000Y-60988578D02*
X150180000Y-60471422D01*
X151600000Y-60988578D02*
X151600000Y-60471422D01*
%TO.C,D3*%
X149490000Y-87860000D02*
X152175000Y-87860000D01*
X152175000Y-85940000D02*
X149490000Y-85940000D01*
X152175000Y-87860000D02*
X152175000Y-85940000D01*
%TO.C,C6*%
X144245000Y-75893748D02*
X144245000Y-76416252D01*
X145715000Y-75893748D02*
X145715000Y-76416252D01*
%TD*%
M02*
