M48
; DRILL file {KiCad 9.0.6} date 2026-03-13T08:43:50+0530
; FORMAT={-:-/ absolute / metric / decimal}
; #@! TF.CreationDate,2026-03-13T08:43:50+05:30
; #@! TF.GenerationSoftware,Kicad,Pcbnew,9.0.6
; #@! TF.FileFunction,Plated,1,2,PTH
FMAT,2
METRIC
; #@! TA.AperFunction,Plated,PTH,ViaDrill
T1C0.200
; #@! TA.AperFunction,Plated,PTH,ComponentDrill
T2C0.200
; #@! TA.AperFunction,Plated,PTH,ViaDrill
T3C0.250
; #@! TA.AperFunction,Plated,PTH,ViaDrill
T4C0.300
; #@! TA.AperFunction,Plated,PTH,ViaDrill
T5C0.500
; #@! TA.AperFunction,Plated,PTH,ComponentDrill
T6C0.600
; #@! TA.AperFunction,Plated,PTH,ComponentDrill
T7C0.650
; #@! TA.AperFunction,Plated,PTH,ComponentDrill
T8C0.800
; #@! TA.AperFunction,Plated,PTH,ComponentDrill
T9C1.000
; #@! TA.AperFunction,Plated,PTH,ComponentDrill
T10C2.200
%
G90
G05
T1
X151.83Y-95.73
X152.42Y-95.24
T2
X157.077Y-92.98
X157.077Y-93.98
X157.077Y-94.98
X158.077Y-92.98
X158.077Y-93.98
X158.077Y-94.98
X159.077Y-92.98
X159.077Y-93.98
X159.077Y-94.98
T3
X154.52Y-90.91
X157.827Y-89.57
X158.77Y-87.17
X159.08Y-99.55
X162.68Y-91.02
X164.66Y-98.8
X165.25Y-92.86
X166.33Y-92.24
T4
X142.71Y-63.92
X143.06Y-71.71
X148.3Y-94.01
X148.57Y-55.89
X149.1Y-96.86
X153.52Y-72.58
X155.45Y-68.93
X155.62Y-87.16
X156.66Y-102.56
X156.83Y-87.16
X158.82Y-67.9
X160.03Y-66.4
X160.24Y-80.2
X160.69Y-71.65
X164.4Y-101.07
X166.45Y-94.43
X166.66Y-68.21
X167.77Y-84.76
X168.87Y-96.92
X169.0Y-56.54
X171.18Y-80.08
X171.28Y-69.25
T5
X149.59Y-58.28
X152.4Y-61.67
X153.75Y-89.79
X154.34Y-94.12
X156.34Y-64.3
X160.7Y-84.01
X161.68Y-95.89
X162.21Y-89.22
T8
X149.09Y-75.5
X149.09Y-80.38
T9
X143.4Y-83.82
X143.4Y-86.36
X143.4Y-88.9
X143.4Y-91.44
X143.4Y-93.98
X143.4Y-96.52
X143.4Y-99.06
X143.4Y-101.6
X143.4Y-104.14
X147.73Y-108.4
X150.27Y-108.4
X152.81Y-108.4
X155.35Y-108.4
X157.89Y-108.4
X160.43Y-108.4
X162.97Y-108.4
X165.51Y-108.4
X168.05Y-108.4
X172.38Y-83.82
X172.38Y-86.36
X172.38Y-88.9
X172.38Y-91.44
X172.38Y-93.98
X172.38Y-96.52
X172.38Y-99.06
X172.38Y-101.6
X172.38Y-104.14
T10
X143.44Y-108.57
X143.65Y-54.07
X172.31Y-108.57
X172.34Y-54.07
T6
G00X153.73Y-55.36
M15
G01X153.73Y-54.66
M16
G05
G00X162.08Y-55.36
M15
G01X162.08Y-54.66
M16
G05
T7
G00X155.68Y-58.11
M15
G01X155.68Y-57.91
M16
G05
G00X160.13Y-58.11
M15
G01X160.13Y-57.91
M16
G05
M30
